<?xml version="1.0" encoding="UTF-8"?>
<svg id="Camada_1" data-name="Camada 1" xmlns="http://www.w3.org/2000/svg" viewBox="0 0 531 225">
  <defs>
    <style>
      .cls-1 {
        fill: #a9fe4b;
      }

      .cls-2 {
        fill: #fffdf8;
      }
    </style>
  </defs>
  <g>
    <path class="cls-2" d="M348.27,54.53h0c1.31,0,2.61.21,3.85.63l14.82,4.99c1.68.56,2.51,2.45,1.8,4.07h0c-.7,1.59-2.59,2.27-4.14,1.48l-16.14-8.27h-.05l-16.05,8.75c-1.61.88-3.62.13-4.27-1.59l-.18-.48c-.6-1.59.24-3.36,1.84-3.91l14.61-5.01c1.26-.43,2.58-.65,3.91-.65Z"/>
    <path class="cls-2" d="M330.91,66.67c-.37,0-.74-.07-1.1-.2-.85-.32-1.52-.99-1.84-1.84l-.18-.48c-.3-.8-.27-1.67.1-2.44.36-.78,1.01-1.36,1.82-1.63l14.61-5.01c2.53-.87,5.31-.87,7.84-.02l14.82,4.99c.83.28,1.51.9,1.87,1.7.36.8.36,1.73,0,2.53-.35.8-1,1.41-1.82,1.7-.83.29-1.71.23-2.49-.16l-16.11-8.26-16.02,8.74c-.47.25-.98.38-1.5.38ZM348.27,54.65c-1.32,0-2.62.22-3.87.65l-14.61,5.01c-.75.26-1.34.79-1.68,1.5-.33.71-.37,1.51-.09,2.25l.18.48c.29.78.91,1.4,1.7,1.69.79.29,1.66.23,2.39-.17l16.11-8.77h.11s16.14,8.29,16.14,8.29c.72.37,1.53.42,2.29.15.76-.27,1.36-.83,1.68-1.57.32-.74.32-1.59,0-2.33-.33-.74-.95-1.31-1.72-1.57l-14.82-4.99c-1.23-.41-2.51-.62-3.81-.62Z"/>
  </g>
  <path class="cls-2" d="M84.65,70.35l19.92,54.08.86,2.11.98-2.56,19.76-53.63h13.51l-22.38,61.04h-24.05l-22.25-61.04h13.65Z"/>
  <path class="cls-2" d="M229.35,70.29h16.95v12.04h-16.95c-3.87,0-7.03,3.15-7.03,7.03v41.97h-12.04v-41.97c0-10.52,8.55-19.07,19.07-19.07Z"/>
  <path class="cls-2" d="M262.71,129.05c-4.48-2.71-7.81-6.47-9.98-11.28-2.18-4.81-3.27-10.37-3.27-16.7s1.09-11.87,3.27-16.64c2.18-4.77,5.5-8.53,9.98-11.28,4.48-2.75,10-4.13,16.58-4.13s11.94,1.35,16.33,4.07c4.4,2.71,7.7,6.45,9.92,11.22,2.22,4.77,3.33,10.36,3.33,16.77s-1.09,11.9-3.27,16.7c-2.18,4.81-5.49,8.57-9.92,11.28-4.44,2.71-9.9,4.07-16.39,4.07s-12.1-1.35-16.58-4.07ZM254.51,155.82c-2.96-2.26-4.74-5.21-4.75-8.88,0-4.26,1.82-7.52,3.8-11.41.45-.88.98-1.77,1.57-2.67l7.03-10.85,11.71,3.2-6.29,9.62c-.55.8-2.75,4.23-3.13,4.95-1.34,2.52-1.65,4.53-.95,6.03.9,1.93,3.41,2.9,7.52,2.9h38.46v10.48h-42.77c-5.18,0-9.25-1.13-12.2-3.39ZM292.27,117.89c2.94-3.98,4.41-9.59,4.41-16.83s-1.47-12.82-4.41-16.76c-2.94-3.94-7.31-5.9-13.09-5.9s-10.18,1.99-13.16,5.97c-2.98,3.98-4.43,9.55-4.34,16.69,0,7.24,1.49,12.85,4.48,16.83,2.99,3.98,7.33,5.97,13.03,5.97s10.15-1.99,13.09-5.97ZM316.28,72.6l-17.14,16.27-7.89-8.38,17.01-16.27,8.01,8.38Z"/>
  <g>
    <path class="cls-1" d="M445.8,132.97,414.1,130.44l-1.14-9.06c-.2-1.57-1.35-2.86-2.9-3.23l-9.28-2.2c-1.26-.3-2.28-1.22-2.71-2.44l-.12-.34c-.42-1.19-.22-2.52.53-3.53l5.56-7.49c.95-1.28,1-3.01.13-4.34l-5.14-7.91c-.68-1.04-.8-2.35-.34-3.5l.09-.23c.5-1.24,1.61-2.12,2.93-2.33l9.32-1.49c1.57-.25,2.81-1.45,3.13-3l1.87-9.29c.26-1.28,1.15-2.33,2.37-2.8l.2-.07c1.17-.45,2.49-.29,3.52.42l7.95,5.48c1.31.9,3.04.9,4.34-.01l7.48-5.22c1.11-.77,2.54-.9,3.77-.34l.3.14c1.19.55,2.02,1.68,2.18,2.98l1.14,9.04c.2,1.57,1.35,2.86,2.9,3.23l9.37,2.22c1.27.3,2.29,1.22,2.72,2.45l.08.23c.41,1.19.21,2.5-.54,3.51l-5.63,7.61c-.94,1.27-1,2.98-.15,4.31l5.09,7.96c.64,1,.78,2.25.36,3.37h0c-.47,1.27-1.57,2.19-2.9,2.43l-9.44,1.68c-1.54.27-2.75,1.46-3.06,2.99l-1.89,9.35c-.25,1.23-1.09,2.26-2.24,2.75l-.18.08c-1.2.51-2.58.37-3.65-.37l-7.96-5.49c-1.31-.9-3.04-.9-4.34.01l-7.49,5.23c-1.12.78-2.57.9-3.8.32l-.29-.13c-1.18-.55-1.99-1.67-2.15-2.97ZM408.03,113.12l6.04,1.43c1.54.37,2.7,1.65,2.9,3.23l.65,5.13c.36,2.84,3.61,4.28,5.95,2.64l4.24-2.96c1.3-.91,3.03-.91,4.34-.01l5.11,3.52c2.25,1.55,5.35.3,5.89-2.38l1.19-5.9c.31-1.56,1.56-2.75,3.13-3l5.85-.93c2.72-.43,4.09-3.52,2.59-5.83l-3.23-4.97c-.86-1.33-.81-3.06.13-4.33l3.58-4.84c1.62-2.19.47-5.33-2.18-5.96l-6.04-1.43c-1.54-.37-2.7-1.65-2.9-3.23l-.64-5.13c-.36-2.84-3.61-4.28-5.95-2.64l-4.24,2.96c-1.3.91-3.03.91-4.34.01l-5.11-3.52c-2.25-1.55-5.35-.3-5.89,2.38l-1.19,5.9c-.31,1.56-1.56,2.75-3.13,3l-5.84.93c-2.72.43-4.09,3.52-2.59,5.83l3.23,4.97c.86,1.33.81,3.06-.13,4.33l-3.58,4.84c-1.62,2.19-.48,5.33,2.18,5.96Z"/>
    <path class="cls-1" d="M442.28,134.59c-.85,0-1.69-.25-2.41-.75l-7.96-5.49c-1.15-.79-2.68-.79-3.82.01l-7.49,5.23c-1.25.87-2.87,1.01-4.25.36l-.29-.13c-1.33-.62-2.23-1.86-2.41-3.32l-1.14-9.06c-.17-1.38-1.2-2.52-2.56-2.85l-9.28-2.2c-1.41-.33-2.55-1.35-3.03-2.72l-.12-.34c-.47-1.34-.25-2.81.6-3.95l5.56-7.49c.83-1.12.88-2.66.12-3.83l-5.14-7.91c-.76-1.16-.9-2.63-.38-3.91l.09-.23c.56-1.37,1.81-2.37,3.27-2.6l9.32-1.49c1.37-.22,2.48-1.28,2.76-2.65l1.87-9.29c.29-1.44,1.28-2.61,2.65-3.13l.19-.07c1.31-.5,2.78-.32,3.93.47l7.95,5.48c1.15.79,2.68.79,3.82-.01l7.48-5.22c1.23-.86,2.85-1.01,4.21-.38l.3.14c1.35.62,2.26,1.87,2.44,3.33l1.14,9.04c.17,1.38,1.2,2.52,2.55,2.85l9.37,2.22c1.42.34,2.56,1.36,3.04,2.74l.08.23c.46,1.33.24,2.8-.6,3.93l-5.63,7.61c-.82,1.11-.87,2.64-.13,3.8l5.09,7.96c.71,1.12.87,2.53.41,3.77-.52,1.41-1.76,2.45-3.24,2.71l-9.44,1.68c-1.37.24-2.43,1.28-2.7,2.64l-1.89,9.35c-.28,1.38-1.21,2.52-2.51,3.07l-.18.08c-.54.23-1.11.34-1.67.34ZM430,126.85c.85,0,1.69.25,2.41.75l7.96,5.49c.95.66,2.15.78,3.22.33l.18-.08c1.02-.43,1.76-1.34,1.98-2.42l1.89-9.35c.35-1.73,1.69-3.04,3.43-3.35l9.44-1.68c1.17-.21,2.15-1.03,2.56-2.14.36-.98.24-2.09-.32-2.97l-5.09-7.96c-.94-1.48-.88-3.41.16-4.82l5.63-7.61c.66-.89.84-2.05.47-3.1l-.08-.23c-.38-1.09-1.27-1.9-2.4-2.16l-9.37-2.22c-1.72-.41-3.02-1.86-3.24-3.61l-1.14-9.04c-.15-1.16-.87-2.14-1.93-2.63l-.3-.14c-1.08-.5-2.35-.38-3.32.3l-7.48,5.22c-1.45,1.01-3.4,1.02-4.85.02l-7.95-5.48c-.91-.63-2.07-.77-3.1-.37l-.19.07c-1.08.41-1.86,1.34-2.09,2.47l-1.87,9.29c-.35,1.73-1.76,3.08-3.5,3.36l-9.32,1.49c-1.15.18-2.14.97-2.58,2.05l-.09.23c-.41,1.01-.3,2.17.3,3.09l5.14,7.91c.96,1.48.9,3.43-.15,4.85l-5.56,7.49c-.67.9-.84,2.06-.47,3.11l.12.34c.38,1.08,1.27,1.88,2.39,2.15l9.28,2.2c1.72.41,3.02,1.86,3.24,3.61l1.14,9.06c.14,1.15.85,2.12,1.9,2.62l.29.13c1.08.51,2.37.4,3.35-.28l7.49-5.23c.73-.51,1.58-.76,2.44-.76ZM439.41,127.22c-.85,0-1.69-.26-2.41-.75l-5.11-3.52c-1.15-.79-2.68-.78-3.82.01l-4.24,2.96c-1.23.86-2.79,1.01-4.16.4-1.37-.61-2.31-1.87-2.49-3.36l-.65-5.13c-.17-1.38-1.2-2.52-2.55-2.85l-6.04-1.43c-1.39-.33-2.52-1.33-3.01-2.68-.49-1.35-.28-2.84.58-3.99l3.58-4.84c.83-1.12.87-2.66.12-3.82l-3.23-4.97c-.79-1.21-.91-2.72-.32-4.04.59-1.32,1.79-2.25,3.22-2.47l5.85-.93c1.37-.22,2.48-1.28,2.76-2.65l1.19-5.9c.28-1.41,1.25-2.57,2.58-3.1,1.33-.54,2.83-.37,4.01.44l5.11,3.52c1.15.79,2.68.79,3.82-.01l4.24-2.96c1.23-.86,2.79-1.01,4.16-.4,1.37.61,2.31,1.87,2.49,3.36l.64,5.13c.17,1.38,1.2,2.52,2.55,2.85l6.04,1.43c1.4.33,2.52,1.33,3.01,2.68.49,1.35.28,2.84-.57,3.99l-3.58,4.84c-.83,1.12-.87,2.65-.12,3.82l3.23,4.97c.79,1.21.91,2.72.32,4.04-.59,1.32-1.79,2.25-3.22,2.47l-5.85.93c-1.37.22-2.48,1.28-2.76,2.65l-1.19,5.9c-.28,1.41-1.25,2.57-2.58,3.1-.52.21-1.06.31-1.6.31ZM429.99,121.46c.85,0,1.69.25,2.41.75l5.11,3.52c.93.64,2.11.77,3.16.35,1.05-.42,1.81-1.34,2.03-2.45l1.19-5.9c.35-1.73,1.76-3.08,3.5-3.36l5.85-.93c1.13-.18,2.07-.91,2.54-1.95.46-1.04.37-2.23-.25-3.19l-3.23-4.97c-.96-1.48-.9-3.43.15-4.85l3.58-4.84c.67-.91.84-2.09.45-3.15-.39-1.06-1.28-1.85-2.38-2.11l-6.04-1.43c-1.72-.41-3.02-1.86-3.24-3.61l-.64-5.13c-.15-1.18-.88-2.17-1.97-2.65s-2.31-.36-3.28.32l-4.24,2.96c-1.45,1.01-3.4,1.02-4.85.01l-5.11-3.52c-.93-.64-2.11-.77-3.16-.35s-1.81,1.34-2.03,2.45l-1.19,5.9c-.35,1.73-1.76,3.08-3.5,3.36l-5.85.93c-1.12.18-2.07.91-2.54,1.95-.46,1.04-.37,2.23.25,3.19l3.23,4.97c.96,1.48.9,3.43-.15,4.85l-3.58,4.84c-.67.91-.84,2.09-.45,3.15.39,1.06,1.28,1.85,2.38,2.11l6.04,1.43c1.72.41,3.02,1.86,3.24,3.61l.65,5.13c.15,1.18.88,2.17,1.97,2.65,1.08.48,2.31.36,3.28-.32l4.24-2.96c.73-.51,1.58-.76,2.44-.76Z"/>
  </g>
  <path class="cls-2" d="M328.53,105.89c2.65,10.16,10.71,16.67,20.09,16.67,7.17,0,13.91-3.75,17.44-10.27h11.48c-4.75,12.58-16.22,20.75-29.36,20.75-17.22,0-31.13-15.23-31.13-31.57,0-19.32,14.57-32.78,30.8-32.78,17.99,0,31.68,13.91,31.68,31.46,0,1.88,0,3.64-.33,5.74h-50.66ZM368.05,97.06c-.88-10.38-10.05-17.88-19.87-17.88s-18.76,7.39-19.65,17.88h39.52Z"/>
  <path class="cls-2" d="M151.17,105.89c2.65,10.16,10.71,16.67,20.09,16.67,7.17,0,13.91-3.75,17.44-10.27h11.48c-4.75,12.58-16.22,20.75-29.36,20.75-17.22,0-31.13-15.23-31.13-31.57,0-19.32,14.57-32.78,30.8-32.78,17.99,0,31.68,13.91,31.68,31.46,0,1.88,0,3.64-.33,5.74h-50.66ZM190.68,97.06c-.88-10.38-10.05-17.88-19.87-17.88s-18.76,7.39-19.65,17.88h39.52Z"/>
  <g>
    <path class="cls-2" d="M93.21,143.24h13.4c3.07,0,5.06.58,6.14,1.77.99,1.11,1.38,2.93,1.38,6.49s-.46,5.37-1.7,6.51c-1.01.94-2.73,1.38-5.44,1.38h-13.79v-16.14ZM106.18,156.43c1.31,0,2.2-.17,2.85-.53.95-.51,1.33-1.74,1.33-4.23,0-4.48-.7-5.37-4.19-5.37h-9.24v10.14h9.24Z"/>
    <path class="cls-2" d="M121.23,143.24h3.73v16.14h-3.73v-16.14Z"/>
    <path class="cls-2" d="M152.75,150.74v1.72c0,2.95-.17,4.02-.75,5.08-.48.87-1.28,1.4-2.54,1.72-.87.22-2.25.27-7.11.27-4.28,0-6.36-.14-7.36-.53-1.55-.58-2.35-1.53-2.69-3.24-.19-.92-.27-1.98-.27-4.28,0-4.26.27-5.61,1.31-6.75.68-.73,1.62-1.16,2.9-1.33,1.5-.22,3.22-.29,7.96-.29s6.41.34,7.43,1.5c.7.78,1.04,2.03,1.04,3.82h-3.65c-.03-1.01-.15-1.4-.61-1.77-.63-.51-1.45-.6-4.6-.6-5.83,0-6.73.09-7.36.85-.51.58-.68,1.65-.68,4.16,0,3.15.19,4.23.87,4.81.7.63,1.62.75,6,.75,4.79,0,5.3-.1,6.02-1.14.31-.41.43-1.19.43-2.3h-7.18v-2.44h10.81Z"/>
    <path class="cls-2" d="M159.79,143.24h3.73v16.14h-3.73v-16.14Z"/>
    <path class="cls-2" d="M177.26,146.27h-7.6v-3.02h18.89v3.02h-7.57v13.11h-3.72v-13.11Z"/>
    <path class="cls-2" d="M195.8,156.18l-1.79,3.19h-4.19l9.24-16.14h5.06l9.1,16.14h-4.06l-1.84-3.19h-11.52ZM201.55,145.85l-4.33,7.72h8.71l-4.38-7.72Z"/>
    <path class="cls-2" d="M218.42,143.24h3.73v13.11h11.78v3.02h-15.51v-16.14Z"/>
  </g>
</svg>