<?xml version="1.0" encoding="UTF-8"?>
<svg id="Camada_1" data-name="Camada 1" xmlns="http://www.w3.org/2000/svg" viewBox="0 0 382.5 383">
  <path d="M239.9,301.23,134.24,292.81l-3.8-30.19c-.66-5.25-4.51-9.54-9.66-10.76l-30.92-7.32c-4.2-.99-7.6-4.05-9.04-8.12l-.4-1.15c-1.4-3.97-.74-8.39,1.77-11.77l18.53-24.98c3.16-4.25,3.33-10.02.45-14.46l-17.12-26.35c-2.26-3.47-2.67-7.83-1.12-11.66l.32-.78c1.67-4.12,5.36-7.06,9.75-7.76l31.05-4.97c5.22-.84,9.38-4.83,10.43-10.01l6.25-30.96c.86-4.26,3.84-7.78,7.9-9.33l.65-.25c3.9-1.49,8.28-.97,11.72,1.4l26.5,18.26c4.36,3,10.12,2.98,14.45-.05l24.92-17.4c3.69-2.58,8.47-3.01,12.56-1.12l1.01.47c3.98,1.83,6.74,5.59,7.28,9.94l3.79,30.14c.66,5.25,4.51,9.54,9.66,10.76l31.23,7.39c4.22,1,7.63,4.08,9.05,8.18l.26.76c1.37,3.96.71,8.33-1.78,11.7l-18.76,25.35c-3.13,4.23-3.32,9.95-.49,14.38l16.97,26.51c2.14,3.35,2.59,7.51,1.21,11.23h0c-1.56,4.22-5.24,7.3-9.67,8.08l-31.48,5.6c-5.13.91-9.18,4.87-10.21,9.98l-6.28,31.15c-.83,4.1-3.62,7.52-7.47,9.16l-.6.26c-4,1.7-8.58,1.24-12.16-1.23l-26.54-18.29c-4.36-3-10.12-2.99-14.46.04l-24.97,17.44c-3.72,2.6-8.55,3.01-12.66,1.08l-.95-.45c-3.93-1.85-6.64-5.58-7.18-9.89ZM114.04,235.08l20.12,4.76c5.15,1.22,9,5.51,9.66,10.76l2.15,17.11c1.19,9.47,12.02,14.28,19.84,8.81l14.14-9.88c4.34-3.03,10.1-3.05,14.45-.04l17.02,11.73c7.49,5.16,17.82.99,19.62-7.93l3.97-19.68c1.05-5.19,5.2-9.18,10.43-10.01l19.48-3.11c9.06-1.45,13.63-11.74,8.63-19.43l-10.76-16.56c-2.88-4.44-2.71-10.2.44-14.45l11.94-16.14c5.41-7.32,1.58-17.78-7.27-19.88l-20.12-4.77c-5.15-1.22-9-5.51-9.66-10.76l-2.15-17.11c-1.19-9.47-12.02-14.28-19.84-8.81l-14.14,9.88c-4.34,3.03-10.1,3.05-14.45.04l-17.02-11.73c-7.49-5.16-17.82-.99-19.62,7.93l-3.97,19.68c-1.05,5.19-5.2,9.18-10.43,10.01l-19.48,3.11c-9.06,1.45-13.63,11.74-8.63,19.43l10.77,16.57c2.88,4.44,2.71,10.2-.44,14.45l-11.94,16.14c-5.41,7.32-1.58,17.78,7.27,19.88Z"/>
</svg>