<?xml version="1.0" encoding="UTF-8"?>
<svg id="Camada_1" data-name="Camada 1" xmlns="http://www.w3.org/2000/svg" viewBox="0 0 504 189">
  <path d="M37.7,97.18c-2.53,0-4.72-.58-6.55-1.75-1.83-1.17-3.25-2.73-4.25-4.7s-1.5-4.17-1.5-6.6.49-4.58,1.48-6.55c.98-1.97,2.39-3.53,4.23-4.67,1.83-1.15,4.05-1.73,6.65-1.73,2.03,0,3.83.42,5.4,1.25,1.57.83,2.78,2,3.65,3.5v-14.35h4.2v35h-3.8l-.4-4.1c-.8,1.2-1.95,2.28-3.45,3.25-1.5.97-3.38,1.45-5.65,1.45ZM38.15,93.53c1.83,0,3.38-.42,4.65-1.28,1.27-.85,2.23-1.98,2.88-3.4.65-1.42.98-2.98.98-4.68,0-1.8-.33-3.4-1-4.8-.67-1.4-1.63-2.51-2.9-3.33-1.27-.82-2.8-1.22-4.6-1.22-1.6,0-3.03.38-4.3,1.15-1.27.77-2.27,1.84-3.02,3.22-.75,1.38-1.12,3.04-1.12,4.97s.38,3.6,1.15,5c.77,1.4,1.79,2.48,3.07,3.23s2.69,1.12,4.23,1.12Z"/>
  <path d="M69.3,97.18c-2.27,0-4.35-.51-6.25-1.52s-3.42-2.5-4.55-4.45c-1.13-1.95-1.7-4.31-1.7-7.08s.56-4.92,1.68-6.85c1.12-1.93,2.63-3.43,4.55-4.5,1.92-1.07,4.08-1.6,6.48-1.6s4.41.5,6.32,1.5c1.92,1,3.46,2.47,4.62,4.4,1.17,1.93,1.75,4.28,1.75,7.05,0,2.53-.55,4.78-1.65,6.75-1.1,1.97-2.62,3.51-4.57,4.62-1.95,1.12-4.18,1.67-6.68,1.67ZM69.3,93.53c1.63,0,3.1-.39,4.4-1.17,1.3-.78,2.33-1.88,3.1-3.28.77-1.4,1.15-3.05,1.15-4.95,0-1.8-.33-3.4-1-4.8-.67-1.4-1.63-2.5-2.9-3.3-1.27-.8-2.8-1.2-4.6-1.2s-3.38.42-4.62,1.25c-1.25.83-2.19,1.95-2.82,3.35-.63,1.4-.95,2.97-.95,4.7,0,2.2.4,3.99,1.2,5.38.8,1.38,1.83,2.4,3.1,3.05,1.27.65,2.58.98,3.95.98Z"/>
  <path d="M96.47,58.14c-.05-2.25-.08-4.5-.09-6.75,0-.07.28-.12.85-.16.56-.04,1.17-.05,1.82-.03s1.26.06,1.82.13c.56.07.84.14.84.21.09.67.19,1.32.32,1.96.61-.41,1.25-.79,1.93-1.16,2.03-1.07,4.16-1.9,6.4-2.47,2.23-.57,4.5-.67,6.81-.3,1.82.47,3.36,1.3,4.63,2.5.28.22.57.44.88.66,2.22,2.56,3.61,5.39,4.18,8.5.57,3.11.72,6.3.46,9.56-.85,5.43-3.36,9.93-7.53,13.52l-1.72,1.33c-.32.2-.63.41-.91.61-2.86,1.75-5.89,3.13-9.08,4.14-.11.03-.34-.2-.69-.7-.36-.5-.74-1.09-1.14-1.77l-.1-.21c.46,3.95.95,7.89,1.48,11.8.9,7.16,1.79,14.34,2.65,21.54-.04.1-.41.23-1.12.39-.71.16-1.54.29-2.49.41-.95.11-1.79.18-2.51.2-.72.02-1.12-.05-1.18-.19-2.75-15.83-4.65-31.77-5.71-47.84-.04-1.06-.1-2.11-.18-3.17-.21-2.75-.37-5.48-.47-8.19-.56-.23-1.03-.43-1.41-.62-.49-.22-.73-.39-.73-.49.52-1.22,1.19-2.34,1.99-3.38ZM102.86,59.89c.32,2.58.62,5.17.9,7.78l.69,5.82c.43,3.78.87,7.55,1.34,11.32,2.48-.74,4.9-1.74,7.25-2.97,2.25-1.42,4.07-3.01,5.45-4.79,1.38-1.77,2.3-3.99,2.76-6.65.24-2.39.21-4.76-.08-7.12-.29-2.36-1.2-4.5-2.73-6.4-.17-.11-.33-.24-.46-.38-.31-.25-.64-.47-.98-.66-1.53-.74-3.04-.92-4.55-.54-1.51.38-2.99.92-4.45,1.62-.11.03-.2.07-.27.1-1.6.8-3.12,1.69-4.55,2.68l-.32.2Z"/>
  <path d="M182.46,79.94c-.09-.58-.22-.84-.4-.78-.18.07-.3.12-.37.15-.07.03-.16.07-.27.12s-.22.1-.35.15c-.12.05-.26.12-.4.2-.14.08-.3.18-.48.28-.18.1-.38.22-.59.35-.21.14-.45.27-.7.4-.25.13-.51.3-.78.48-.27.19-.56.37-.89.56-.32.18-.65.4-.99.63-.34.24-.71.49-1.1.76-3.42,3.04-7.06,5.76-10.92,8.15-3.86,2.4-8.01,4.27-12.44,5.63-.92.12-1.82.23-2.7.35-1.8.34-3.57.5-5.31.49-1.74-.01-3.48-.51-5.21-1.51-2.49-1.54-3.94-3.6-4.35-6.18-.41-2.58-.26-5.16.44-7.74.39-1.29.84-2.56,1.37-3.82.26-.63.51-1.25.74-1.88l1-1.98c.63-1.35,1.32-2.67,2.06-3.96,1.73-2.91,3.77-5.59,6.12-8.04,2.35-2.45,5.08-4.43,8.17-5.93,1.99-.93,3.69-1.49,5.08-1.69,1.39-.19,2.95-.25,4.67-.17.91.02,1.99.03,3.22.03.59.12,1.21.24,1.84.36,1.19.21,2.38.5,3.56.88,2.54.91,5.15,2.25,7.83,4,2.68,1.76,5.01,3.58,7,5.46.34.33.68.69,1.03,1.08.14.18.29.36.46.54.03.07-.15.3-.55.67-.4.38-.86.79-1.4,1.23-.54.44-1.04.82-1.51,1.12-.47.3-.73.44-.8.4-1.91-1-3.8-2.09-5.66-3.26-1.66-1.06-3.35-2.06-5.07-2.98-1.72-.92-3.54-1.66-5.45-2.2-.91-.2-1.86-.35-2.84-.44-.49-.05-.96-.11-1.42-.2-.28.03-.55.07-.79.14-1.91.23-3.8.74-5.68,1.54-3.17,1.64-5.78,3.92-7.83,6.84-2.05,2.92-3.85,5.94-5.41,9.06l-.33.62c-.11.28-.26.63-.45,1.04-.74,1.53-1.44,3.35-2.1,5.46-.65,2.11-.61,3.77.13,4.99.31.36.8.52,1.49.49s1.35-.13,1.99-.29c.64-.16,1.04-.25,1.22-.28.57-.2,1.14-.44,1.71-.75.25-.13.52-.27.8-.4,3.8-1.34,7.38-3.11,10.74-5.31,3.36-2.2,6.61-4.57,9.74-7.13.57-.44,1.15-.92,1.73-1.43.79-.72,1.64-1.4,2.53-2.04.82-.61,1.68-1.17,2.58-1.67.46-.27.98-.55,1.55-.83.57-.28,1.25-.51,2.05-.68.8-.17,1.72-.2,2.77-.09,1.05.12,2.37.83,3.95,2.13.86.87,1.46,1.96,1.81,3.27.06.25.15.48.25.69.65,1.85,1.07,3.77,1.25,5.78.18,2.01.27,4,.29,5.97.02.49.04,1,.07,1.53.1,1.55.39,3.04.86,4.48.47,1.44,1.29,2.72,2.46,3.84.41.33.86.62,1.35.88.21.15.43.29.67.44.07.11-.12.4-.55.88-.43.48-.95,1.02-1.55,1.62s-1.15,1.1-1.65,1.51c-.5.41-.81.59-.91.56-.34-.29-.69-.56-1.03-.82-.73-.51-1.4-1.07-2.01-1.69-1.47-1.62-2.57-3.42-3.29-5.39-.72-1.97-1.18-4.03-1.37-6.18l-.07-1.48c-.05-2.08-.17-4.26-.36-6.55-.08-1.09-.16-1.93-.25-2.51Z"/>
  <path d="M202.53,60.92c-.05-2.25-.08-4.5-.09-6.75,0-.07.28-.12.85-.16.56-.04,1.17-.05,1.82-.03s1.26.06,1.82.13c.56.07.84.14.84.21.09.67.19,1.32.32,1.96.61-.41,1.25-.79,1.93-1.16,2.03-1.07,4.16-1.9,6.4-2.47,2.23-.57,4.5-.67,6.81-.3,1.82.47,3.36,1.3,4.63,2.5.28.22.57.44.88.66,2.22,2.56,3.61,5.39,4.18,8.5.57,3.11.72,6.3.46,9.56-.85,5.43-3.36,9.93-7.53,13.52l-1.72,1.33c-.32.2-.63.41-.91.61-2.86,1.75-5.89,3.13-9.08,4.14-.11.03-.34-.2-.69-.7-.36-.5-.74-1.09-1.14-1.77l-.1-.21c.46,3.95.95,7.89,1.48,11.8.9,7.16,1.79,14.34,2.65,21.54-.04.1-.41.23-1.12.39-.71.16-1.54.29-2.49.41-.95.11-1.79.18-2.51.2-.72.02-1.12-.05-1.18-.19-2.75-15.83-4.65-31.77-5.71-47.84-.04-1.06-.1-2.11-.18-3.17-.21-2.75-.37-5.48-.47-8.19-.56-.23-1.03-.43-1.41-.62-.49-.22-.73-.39-.73-.49.52-1.22,1.19-2.34,1.99-3.38ZM208.92,62.67c.32,2.58.62,5.17.9,7.78l.69,5.82c.43,3.78.87,7.55,1.34,11.32,2.48-.74,4.9-1.74,7.25-2.97,2.25-1.42,4.07-3.01,5.45-4.79,1.38-1.77,2.3-3.99,2.76-6.65.24-2.39.21-4.76-.08-7.12-.29-2.36-1.2-4.5-2.73-6.4-.17-.11-.33-.24-.46-.38-.31-.25-.64-.47-.98-.66-1.53-.74-3.04-.92-4.55-.54-1.51.38-2.99.92-4.45,1.62-.11.03-.2.07-.27.1-1.6.8-3.12,1.69-4.55,2.68l-.32.2Z"/>
  <path d="M246.77,81.71c-.06.77-.09,1.56-.12,2.37.02.39.05.74.08,1.06.02.74.09,1.43.21,2.06.12.64.39,1.33.79,2.08,1.01,1.75,2.44,3.2,4.29,4.33,1.85,1.14,3.73,2.12,5.65,2.94.49.22.95.45,1.41.67,1.11.42,1.93.72,2.46.91.45.19.8.33,1.04.42.24.09.5.18.76.26.26.08.62.19,1.07.34.52.15,1.27.39,2.25.69.1.11.01.48-.27,1.1s-.64,1.34-1.08,2.13c-.44.8-.87,1.48-1.27,2.05-.4.57-.65.83-.76.8-1.12-.31-1.96-.56-2.51-.75-.56-.16-.98-.28-1.26-.38-.28-.1-.56-.19-.84-.29-.28-.1-.68-.26-1.2-.48-.59-.26-1.5-.64-2.71-1.13-.62-.33-1.2-.63-1.72-.89-1.18-.59-2.26-1.19-3.25-1.8-.99-.61-2.08-1.43-3.28-2.49-4.19-3.7-6.36-8.33-6.49-13.89l.03-1.16c-.01-.81-.01-1.62.01-2.43.2-3.44.85-6.74,1.97-9.89,1.12-3.15,2.8-6.04,5.05-8.65.47-.44.9-.84,1.3-1.18.79-.79,1.55-1.45,2.27-2,.72-.54,1.73-1.1,3.05-1.66,2.99-1.29,6.05-1.84,9.2-1.63,3.14.21,6.19.87,9.15,2.01.59.3,1.13.56,1.61.78,1.15.52,2.2,1.06,3.18,1.61.97.55,2,1.32,3.1,2.3,1.68,1.45,2.96,3.06,3.83,4.82.87,1.76,1.2,3.77,1,6.01-.09.7-.25,1.4-.48,2.1-.11.31-.21.65-.29.99-.22.45-.43.87-.61,1.25-.34.84-.72,1.57-1.14,2.21-.42.64-1.08,1.34-1.98,2.08-1.8,1.46-3.83,2.44-6.09,2.93-2.26.49-4.54.8-6.83.95-.39.06-.78.1-1.16.13-6.2.22-12.38-.11-18.54-1.01-.11,0-.24-.26-.4-.78-.16-.51-.31-1.11-.43-1.78-.03-.07-.05-.12-.05-.16ZM247,79.18c4.23-.35,8.47-.52,12.73-.51,1.55,0,3.09,0,4.64-.04.85-.08,1.78-.15,2.8-.19,1.62-.03,3.25-.15,4.89-.37,1.64-.22,3.03-.74,4.18-1.55.47-.34.81-.69,1.03-1.05s.42-.77.61-1.22c.08-.21.17-.44.28-.68.08-.28.14-.54.18-.79.15-.52.25-1.03.28-1.52.03-.49-.09-1.04-.35-1.64-.8-1.5-2.2-2.77-4.2-3.83-1.99-1.05-3.81-1.9-5.45-2.54-.21-.08-.4-.15-.57-.23-.59-.16-1.12-.31-1.57-.46-.91-.27-1.72-.48-2.44-.62-.72-.14-1.69-.21-2.92-.21-.39.02-.76.09-1.11.18l-.32.1c-.18.03-.34.08-.48.15-.95.19-1.79.41-2.5.67-.71.26-1.5.7-2.36,1.31-.54.41-1.02.84-1.46,1.28-.25.24-.5.46-.76.67-2.14,2.55-3.57,5.36-4.28,8.43-.39,1.54-.68,3.09-.86,4.67Z"/>
  <path d="M307.34,103.4c-2.6-.07-4.59-.79-5.96-2.16-1.63-2.15-2.88-4.53-3.74-7.14-.86-2.61-1.58-5.24-2.14-7.89l-.48-1.91c-2.73-15.12-3.9-30.19-3.51-45.2.18-6.75.62-13.47,1.32-20.17,0-.21.89-.29,2.64-.25s2.69.18,2.68.39c.23,4.72.35,9.43.37,14.15.07,17.41,1.18,34.14,3.32,50.2.54,3.71,1.35,7.33,2.46,10.88l.1.37c.32,1.31.87,2.5,1.65,3.58.53-.13,1.06-.18,1.59-.17.56.01,1.11.1,1.63.25h.05s.05.06.05.16c0,.14-.06.42-.18.84s-.31.96-.57,1.62c-.26.66-.53,1.23-.78,1.72-.26.49-.42.73-.49.73Z"/>
  <path d="M250.7,152.18c-1.7,0-3.25-.28-4.65-.85-1.4-.57-2.51-1.42-3.32-2.58-.82-1.15-1.23-2.56-1.23-4.22,0-1.93.5-3.48,1.5-4.62,1-1.15,2.33-1.98,3.98-2.5s3.42-.78,5.32-.78h6.7c0-1.73-.29-3.1-.88-4.1-.58-1-1.34-1.72-2.27-2.15-.93-.43-1.97-.65-3.1-.65-1.63,0-3.04.39-4.23,1.17-1.18.78-1.92,1.99-2.23,3.62h-4.3c.17-1.8.77-3.32,1.8-4.55s2.34-2.18,3.93-2.83c1.58-.65,3.26-.98,5.02-.98,2.5,0,4.52.46,6.05,1.38,1.53.92,2.65,2.14,3.35,3.68.7,1.53,1.05,3.23,1.05,5.1v7.6c0,1.23.15,2.17.45,2.8.3.63,1.07,1.02,2.3,1.15v3.7c-1.1,0-2.1-.14-3-.42-.9-.28-1.66-.75-2.28-1.4-.62-.65-1.06-1.51-1.32-2.58-.83,1.4-1.98,2.58-3.43,3.55-1.45.97-3.19,1.45-5.22,1.45ZM251.35,148.63c1.67,0,3.07-.42,4.2-1.27,1.13-.85,1.99-1.94,2.58-3.28.58-1.33.88-2.72.88-4.15v-.05h-6.35c-1.17,0-2.27.12-3.3.38-1.03.25-1.87.7-2.5,1.35-.63.65-.95,1.56-.95,2.72,0,1.5.53,2.59,1.6,3.28,1.07.68,2.35,1.02,3.85,1.02Z"/>
  <path d="M281.8,152.18c-2.27,0-4.35-.51-6.25-1.52s-3.42-2.5-4.55-4.45c-1.13-1.95-1.7-4.31-1.7-7.08s.56-4.92,1.68-6.85c1.12-1.93,2.63-3.43,4.55-4.5,1.92-1.07,4.08-1.6,6.48-1.6s4.41.5,6.32,1.5c1.92,1,3.46,2.47,4.62,4.4,1.17,1.93,1.75,4.28,1.75,7.05,0,2.53-.55,4.78-1.65,6.75-1.1,1.97-2.62,3.51-4.57,4.62-1.95,1.12-4.18,1.67-6.68,1.67ZM281.8,148.53c1.63,0,3.1-.39,4.4-1.17,1.3-.78,2.33-1.88,3.1-3.28.77-1.4,1.15-3.05,1.15-4.95,0-1.8-.33-3.4-1-4.8-.67-1.4-1.63-2.5-2.9-3.3-1.27-.8-2.8-1.2-4.6-1.2s-3.38.42-4.62,1.25c-1.25.83-2.19,1.95-2.82,3.35-.63,1.4-.95,2.97-.95,4.7,0,2.2.4,3.99,1.2,5.38.8,1.38,1.83,2.4,3.1,3.05,1.27.65,2.58.98,3.95.98Z"/>
  <path d="M303.96,170.5v-49.23h8.19v-8.19h25.38v8.19h8.28v25.29h-8.28v8.1h-24.48v15.84h-9.09ZM313.05,145.66h23.58v-23.58h-23.58v23.58Z"/>
  <path d="M356.61,105.88v-9.09h9.09v9.09h-9.09ZM356.61,154.66v-41.58h9.09v41.58h-9.09Z"/>
  <path d="M376.5,154.66v-9h8.19v-8.19h8.1v-7.29h-8.1v-8.1h-8.19v-9h9.09v8.19h8.1v8.01h7.38v-8.01h8.1v-8.19h9.18v9h-8.28v8.1h-8.1v7.29h8.1v8.19h8.28v9h-9.18v-8.1h-8.1v-8.19h-7.38v8.19h-8.1v8.1h-9.09Z"/>
  <path d="M432.84,154.66v-8.1h-8.19v-25.29h8.19v-8.19h25.38v8.19h8.28v8.91h-9.18v-8.1h-23.58v7.2h16.38v9.09h-16.38v7.29h23.58v-8.28h9.18v9.09h-8.28v8.19h-25.38Z"/>
  <path d="M477.3,154.66v-57.87h9.09v57.87h-9.09Z"/>
</svg>