<?xml version="1.0" encoding="UTF-8"?>
<svg id="Camada_1" data-name="Camada 1" xmlns="http://www.w3.org/2000/svg" viewBox="0 0 294.24 294.24">
  <defs>
    <style>
      .cls-1 {
        fill: #030303;
      }
    </style>
  </defs>
  <path class="cls-1" d="M200.32,60.06c-9.45,9.27-9.45,24.42,0,33.86,9.45,9.45,24.59,9.45,33.86,0,9.45-9.45,9.45-24.59,0-33.86-9.27-9.45-24.42-9.45-33.86,0h0ZM294.24,132.24c0,3.92-1.43,7.48-4.28,10.16l-147.56,147.56c-2.67,2.85-6.42,4.28-10.16,4.28s-7.13-1.43-9.98-4.28L4.28,171.98c-5.7-5.7-5.7-14.61,0-20.14L151.84,4.1c2.67-2.67,6.24-4.1,10.16-4.1h117.98c7.84,0,14.26,6.42,14.26,14.26v117.98h0Z"/>
</svg>