<?xml version="1.0" encoding="UTF-8"?>
<svg id="Camada_1" data-name="Camada 1" xmlns="http://www.w3.org/2000/svg" viewBox="0 0 299.58 299.62">
  <defs>
    <style>
      .cls-1 {
        fill: #030303;
      }
    </style>
  </defs>
  <path class="cls-1" d="M287.77,84.37l-187.91,187.91c-3.28,3.24-7.34,5.58-11.79,6.79l-57.84,15.85c-1.66.45-3.37.67-5.09.68-5.6-.05-10.95-2.31-14.89-6.29-5.3-5.18-7.43-12.78-5.61-19.96l15.85-57.86c1.2-4.43,3.53-8.48,6.75-11.75L215.23,11.8c5.1-5.07,12.03-7.88,19.22-7.8h.02c8.47.11,16.56,3.55,22.51,9.58l29.02,29.02c6.03,5.96,9.47,14.05,9.58,22.53.08,7.2-2.74,14.13-7.81,19.24h0Z"/>
  <path class="cls-1" d="M25.15,299.62c-6.75-.06-13.04-2.72-17.75-7.48-6.25-6.11-8.81-15.23-6.65-23.76l15.87-57.93c1.38-5.08,4.06-9.75,7.76-13.5L212.4,8.97c5.75-5.72,13.66-8.97,21.75-8.97.11,0,.23,0,.34,0,9.61.12,18.6,3.95,25.33,10.77l29,29c6.81,6.72,10.63,15.71,10.75,25.3.09,8.22-3.18,16.28-8.97,22.11l-187.92,187.93c-3.77,3.73-8.46,6.43-13.56,7.82l-57.83,15.85c-2.01.54-4.07.81-6.13.82ZM234.16,8c-6.01,0-11.86,2.41-16.12,6.64L30.07,202.58c-2.72,2.75-4.7,6.21-5.72,9.96l-15.86,57.87c-1.45,5.7.29,11.88,4.55,16.04,3.27,3.3,7.56,5.11,12.13,5.15,1.32,0,2.69-.19,4.02-.54l57.82-15.85c3.78-1.03,7.25-3.03,10.03-5.78l187.89-187.89c4.29-4.32,6.71-10.29,6.64-16.38-.09-7.46-3.07-14.47-8.39-19.72l-29.04-29.04c-5.26-5.34-12.26-8.31-19.73-8.41-.08,0-.17,0-.25,0Z"/>
</svg>