<?xml version="1.0" encoding="UTF-8"?>
<svg id="Camada_1" data-name="Camada 1" xmlns="http://www.w3.org/2000/svg" viewBox="0 0 302.42 302.62">
  <defs>
    <style>
      .cls-1 {
        fill-rule: evenodd;
      }

      .cls-1, .cls-2 {
        fill: #030303;
      }
    </style>
  </defs>
  <path class="cls-1" d="M280.77,4.42c6.83-2.68,14.55.68,17.23,7.51,1.23,3.12,1.23,6.59,0,9.72h0s-101.46,258.03-101.46,258.03c-2.68,6.83-10.39,10.19-17.22,7.51-3.31-1.3-5.97-3.88-7.36-7.16l-30.2-70.8-87.37,87.38c-3.35,3.35-8.77,3.35-12.12,0l-36.26-36.25c-3.34-3.35-3.34-8.78,0-12.13l88.01-88-70.94-30.02c-6.76-2.87-9.91-10.67-7.05-17.42,1.39-3.29,4.05-5.87,7.37-7.18L280.77,4.42Z"/>
  <path class="cls-2" d="M48.32,302.62c-3.09,0-6.18-1.18-8.53-3.53L3.53,262.85c-4.7-4.71-4.7-12.37,0-17.08l84.34-84.33-66.15-27.99c-4.13-1.75-7.33-5-9.01-9.16-1.68-4.16-1.64-8.72.11-12.85,1.75-4.12,5.14-7.43,9.31-9.07L279.49,1.16c7.56-2.97,16-.06,20.24,6.51l1.77-4.5v8.13c1.31,3.78,1.23,7.88-.24,11.62l-6.76,17.2v-.02l-94.71,240.85c-3.38,8.61-13.14,12.87-21.75,9.49-4.16-1.63-7.55-4.93-9.31-9.04l-28.17-66.03-83.71,83.72c-2.35,2.35-5.44,3.53-8.53,3.53ZM282.05,7.68L24.67,108.88c-2.43.96-4.41,2.88-5.43,5.29-1.02,2.41-1.04,5.07-.06,7.49.98,2.42,2.85,4.32,5.25,5.34l75.72,32.04L8.47,250.71c-1.97,1.98-1.97,5.2,0,7.19l36.25,36.24c1.98,1.98,5.19,1.98,7.17,0l91.03-91.04,32.23,75.56c1.02,2.4,3,4.32,5.42,5.27,5.02,1.97,10.71-.51,12.68-5.53L294.81,20.17c.83-2.25.8-4.71-.08-6.95-1.97-5.02-7.67-7.51-12.69-5.53h0Z"/>
</svg>