<?xml version="1.0" encoding="UTF-8"?>
<svg id="Camada_1" data-name="Camada 1" xmlns="http://www.w3.org/2000/svg" viewBox="0 0 306.74 299.08">
  <defs>
    <style>
      .cls-1 {
        fill: #030303;
      }
    </style>
  </defs>
  <path class="cls-1" d="M122.43,118.52c0-12.12-9.38-14.99-19.8-14.99h-27.11v30.67h29.23c10.34,0,17.68-4.52,17.68-15.68Z"/>
  <path class="cls-1" d="M213.01,134.41c-12.53,0-20.88,7.81-21.7,20.33h42.59c-1.16-12.67-7.73-20.33-20.88-20.33Z"/>
  <path class="cls-1" d="M106.95,156.04h-31.49v36.22h30.88c11.78,0,21.37-4.18,21.37-17.39-.01-13.48-8.03-18.76-20.76-18.83Z"/>
  <path class="cls-1" d="M252.43,0H54.32C24.28,0,0,24.28,0,54.32v190.44c0,30.04,24.28,54.32,54.32,54.32h198.11c30.04,0,54.32-24.28,54.32-54.32V54.32c0-30.04-24.28-54.32-54.32-54.32ZM186.03,87.98h53.27v12.93h-53.27v-12.93h0ZM110.3,214.72h-63.74V83.26h61.96c22.53,0,42.04,6.36,42.04,32.51,0,13.22-6.16,19.72-17.94,25.33,16.16,4.59,23.96,18.84,23.96,35.34.01,26.71-22.38,38.14-46.28,38.28ZM259.98,171.24h-68.61c0,15.2,8.01,24.17,23.35,24.17,7.94,0,18.15-4.24,20.68-12.4h23.07c-7.12,21.84-21.84,32.04-44.57,32.04-29.98,0-48.68-20.33-48.68-49.99s19.66-50.38,48.68-50.38,46.28,23.48,46.28,51.62c0,1.65-.14,3.36-.2,4.93Z"/>
</svg>