<?xml version="1.0" encoding="UTF-8"?>
<svg id="Camada_1" data-name="Camada 1" xmlns="http://www.w3.org/2000/svg" xmlns:xlink="http://www.w3.org/1999/xlink" viewBox="0 0 298.49 300.91">
  <defs>
    <style>
      .cls-1 {
        fill: none;
      }

      .cls-2 {
        fill: #030303;
      }

      .cls-3 {
        clip-path: url(#clippath);
      }
    </style>
    <clipPath id="clippath">
      <rect class="cls-1" x=".19" y=".57" width="298.3" height="298.3" rx="63.85" ry="63.85"/>
    </clipPath>
  </defs>
  <g class="cls-3">
    <g>
      <path class="cls-2" d="M337.31,56.42v188.07c0,31.03-25.39,56.42-56.42,56.42H17.6c-31.03,0-56.42-25.39-56.42-56.42V56.42c0-14.48,5.45-27.83,14.67-37.8.94,1.5,1.88,3,3.2,4.32L1.8,46.08l107.19,109.08c10.72,10.91,25.01,16.92,40.25,16.92s29.53-6.02,40.25-16.92l107.2-109.08,22.76-23.14c1.32-1.31,2.25-2.82,3.2-4.32,9.21,9.96,14.67,23.32,14.67,37.8h0Z"/>
      <path class="cls-2" d="M288.61.57l-36.3,37.04-89.71,91.21c-7.14,7.14-19.56,7.14-26.7,0L46.37,37.61,10.08.57c2.44-.39,5.08-.57,7.52-.57h263.29c2.64,0,5.27.18,7.71.57Z"/>
    </g>
  </g>
</svg>