<?xml version="1.0" encoding="UTF-8"?>
<svg id="Camada_1" data-name="Camada 1" xmlns="http://www.w3.org/2000/svg" viewBox="0 0 306.74 299.08">
  <defs>
    <style>
      .cls-1 {
        fill: #030303;
      }
    </style>
  </defs>
  <path class="cls-1" d="M252.43,0H54.32C24.28,0,0,24.28,0,54.32v190.44c0,30.04,24.28,54.32,54.32,54.32h198.11c30.04,0,54.32-24.28,54.32-54.32V54.32c0-30.04-24.28-54.32-54.32-54.32ZM169.87,44.09v54s36.64-36.93,36.64-36.93l22.34,21.43-38.98,37.5h55v31h-55l38.98,38.5-22.34,21.43-53.14-52.96c-7.78,3.85-50.76,54.5-54.49,52.59-5.29-2.69-15.1-17.14-20.99-21.06l38.98-38.5h-55v-31h55l-38.98-37.5,22.34-21.43,36.63,36.93v-54h33.01ZM136.87,269.09v-73h33v73h-33Z"/>
</svg>