<?xml version="1.0" encoding="UTF-8"?>
<svg id="Camada_1" data-name="Camada 1" xmlns="http://www.w3.org/2000/svg" viewBox="0 0 306.74 299.08">
  <defs>
    <style>
      .cls-1 {
        fill: #030303;
      }
    </style>
  </defs>
  <path class="cls-1" d="M252.43,0H54.32C24.28,0,0,24.28,0,54.32v190.44c0,30.04,24.28,54.32,54.32,54.32h198.11c30.04,0,54.32-24.28,54.32-54.32V54.32c0-30.04-24.28-54.32-54.32-54.32ZM109.53,257.14h-43.21v-124.83h43.21v124.83ZM87.68,113.11c-12.24,0-22.08-9.84-22.08-22.08s9.84-22.08,22.08-22.08,22.08,9.84,22.08,22.08c-.24,12.24-10.08,22.08-22.08,22.08ZM253.8,257.14h-36.25v-60.49c0-14.64-1.92-33.37-21.84-33.37s-23.76,15.84-23.76,32.41v61.45h-36.01v-124.83h33.61v16.8h.96c5.28-9.6,17.52-17.04,36.73-17.04,39.61,0,46.57,22.8,46.57,56.65v68.41h0Z"/>
</svg>