<?xml version="1.0" encoding="UTF-8"?>
<svg id="Camada_1" data-name="Camada 1" xmlns="http://www.w3.org/2000/svg" viewBox="0 0 300.78 300.78">
  <defs>
    <style>
      .cls-1 {
        fill: #030303;
        fill-rule: evenodd;
      }
    </style>
  </defs>
  <g id="Layer_1">
    <path class="cls-1" d="M31.05,0h238.67c17.11,0,31.05,13.95,31.05,31.05v238.67c0,17.11-13.95,31.05-31.05,31.05H31.05c-17.11,0-31.05-13.95-31.05-31.05V31.05C0,13.95,13.95,0,31.05,0ZM123.34,209.16H53.74v-117.54h66.88v20.48h-41.77v27.68h38.84v20.41h-38.84v28.49h44.56v20.48h-.07ZM247.12,209.16h-25.7l-49.78-76.06c-2.57-3.96-4.48-7.12-5.65-9.54h-.37c.44,4.04.66,10.28.66,18.72v66.88h-23.71v-117.54h27.31l47.94,73.86c3.16,4.92,5.14,8,5.8,9.32h.37c-.51-2.86-.73-8.3-.73-16.22v-67.03h23.79v117.54l.07.07Z"/>
  </g>
</svg>