<?xml version="1.0" encoding="UTF-8"?>
<svg id="Camada_1" data-name="Camada 1" xmlns="http://www.w3.org/2000/svg" viewBox="0 0 300.78 300.78">
  <defs>
    <style>
      .cls-1 {
        fill: #030303;
        fill-rule: evenodd;
      }
    </style>
  </defs>
  <path class="cls-1" d="M31.05,0h238.67c17.11,0,31.05,13.95,31.05,31.05v238.67c0,17.11-13.95,31.05-31.05,31.05H31.05c-17.11,0-31.05-13.95-31.05-31.05V31.05C0,13.95,13.95,0,31.05,0ZM60.88,207.32v-116.21h35.55c13.25,0,21.91.55,25.98,1.66,6.5,1.8,11.87,5.63,16.09,11.49,4.22,5.87,6.34,13.42,6.34,22.67,0,8.4-1.82,15.45-5.47,21.12-3.65,5.68-8.2,9.67-13.67,11.97s-14.89,3.45-28.26,3.45h-14.49v43.83h-22.06ZM82.94,110.77v33.05h12.24c8.22,0,13.81-.5,16.77-1.51,2.95-1.01,5.38-2.82,7.27-5.44,1.89-2.62,2.83-5.84,2.83-9.66s-.98-7.12-2.92-9.77c-1.95-2.65-4.36-4.42-7.22-5.32-2.86-.9-8.92-1.35-18.18-1.35h-10.78ZM185.39,207.32v-96.55h-32.54v-19.66h87.06v19.66h-32.45v96.55h-22.06Z"/>
</svg>