<?xml version="1.0" encoding="UTF-8"?>
<svg id="Camada_1" data-name="Camada 1" xmlns="http://www.w3.org/2000/svg" viewBox="0 0 300.79 300.77">
  <defs>
    <style>
      .cls-1 {
        fill: #030303;
      }
    </style>
  </defs>
  <path class="cls-1" d="M150.4,125.32C67.47,125.32.01,192.78.01,275.71c0,13.82,11.24,25.06,25.06,25.06h250.64c13.82,0,25.06-11.24,25.06-25.06,0-82.93-67.46-150.39-150.39-150.39ZM150.4,263.18c-27.65,0-50.13-22.48-50.13-50.13s22.48-50.13,50.13-50.13,50.13,22.48,50.13,50.13-22.48,50.13-50.13,50.13Z"/>
  <path class="cls-1" d="M39.32,137.87c-5.2,0-10.34-1.44-14.76-4.35-2.77-1.84-5.35-3.76-7.77-6.02C3.56,115.16-2.37,97.5.87,80.24,6.38,50.88,39.09,31.78,63.21,19.96,89.89,6.91,120.05,0,150.41,0c40.85,0,82.07,12.48,113.09,34.23,14.05,9.86,30.82,23.64,35.73,42.8,4.62,18.05-1.2,37.38-15.19,50.45-2.41,2.27-5.01,4.19-7.62,5.93-9.51,6.27-22.13,5.85-31.57-.88l-43.81-31.27c-9.76-6.97-13.67-19.3-9.49-29.98.24-.61.49-1.23.75-1.83-26.78-9.06-57.02-9.05-83.8,0,.26.6.51,1.2.75,1.82,4.19,10.7.26,23.02-9.5,29.99l-43.81,31.27c-4.99,3.55-10.83,5.34-16.63,5.34Z"/>
</svg>