<?xml version="1.0" encoding="UTF-8"?>
<svg id="Camada_1" data-name="Camada 1" xmlns="http://www.w3.org/2000/svg" viewBox="0 0 350.12 300.91">
  <defs>
    <style>
      .cls-1 {
        fill: #030303;
      }
    </style>
  </defs>
  <g id="Layer_2" data-name="Layer 2">
    <g id="InterfaceIcon">
      <g id="_06.Menu" data-name=" 06.Menu">
        <path class="cls-1" d="M340.08,290.89c-6.41,6.42-15.11,10.03-24.18,10.01H34.2c-18.89,0-34.2-15.31-34.2-34.2s15.31-34.2,34.2-34.2h281.74c18.89.01,34.19,15.33,34.18,34.22,0,9.05-3.6,17.73-9.99,24.14l-.05.02ZM340.08,174.64c-6.41,6.42-15.11,10.03-24.18,10.01H34.2c-18.89,0-34.2-15.31-34.2-34.2s15.31-34.2,34.2-34.2h281.74c18.89.01,34.19,15.33,34.18,34.22,0,9.05-3.6,17.73-9.99,24.14l-.05.02ZM340.08,58.38c-6.41,6.42-15.11,10.03-24.18,10.01H34.2C15.31,68.39,0,53.08,0,34.2S15.31,0,34.2,0h281.74c18.89.01,34.19,15.33,34.18,34.22,0,9.05-3.6,17.73-9.99,24.14l-.05.02Z"/>
      </g>
    </g>
  </g>
</svg>