<?xml version="1.0" encoding="UTF-8"?>
<svg id="Camada_1" data-name="Camada 1" xmlns="http://www.w3.org/2000/svg" viewBox="0 0 299.13 299.13">
  <defs>
    <style>
      .cls-1 {
        fill: #030303;
      }
    </style>
  </defs>
  <path class="cls-1" d="M178.29,40.18c-21.58,0-41.85,8.38-57.07,23.6-15.21,15.21-23.6,35.48-23.6,57.07s8.38,41.85,23.6,57.07c31.47,31.47,82.67,31.47,114.14,0,31.47-31.47,31.47-82.67,0-114.14-15.21-15.21-35.48-23.6-57.07-23.6ZM263.78,206.34c-23.57,23.57-54.54,35.35-85.49,35.35-20.2,0-40.41-5.02-58.56-15.06l-62.72,62.72c-6.3,6.31-14.7,9.79-23.61,9.79s-17.31-3.47-23.61-9.79c-6.3-6.3-9.79-14.7-9.79-23.61s3.47-17.31,9.79-23.61l62.71-62.71c-25.42-45.97-18.65-105.1,20.29-144.05,47.14-47.14,123.85-47.14,170.99,0,47.14,47.14,47.14,123.85,0,170.99h0Z"/>
</svg>