<?xml version="1.0" encoding="UTF-8"?>
<svg id="Camada_1" data-name="Camada 1" xmlns="http://www.w3.org/2000/svg" viewBox="0 0 338.58 300.91">
  <defs>
    <style>
      .cls-1 {
        fill: #030303;
      }
    </style>
  </defs>
  <path class="cls-1" d="M333.02,182.66c-7.31,7.37-19.22,7.42-26.59.11-.04-.04-.07-.07-.11-.11l-5.45-5.45v86.1c0,20.77-16.83,37.6-37.6,37.6h-56.4v-94h-75.2v94h-56.4c-20.77,0-37.6-16.83-37.6-37.6v-86.1l-5.45,5.45c-7.37,7.37-19.32,7.37-26.7,0-7.37-7.37-7.37-19.32,0-26.7L155.93,5.56c7.31-7.37,19.22-7.42,26.59-.11.04.04.07.07.11.11l150.4,150.4c7.37,7.31,7.42,19.22.11,26.59-.04.04-.07.07-.11.11h0Z"/>
</svg>