<?xml version="1.0" encoding="UTF-8"?>
<svg id="Camada_1" data-name="Camada 1" xmlns="http://www.w3.org/2000/svg" viewBox="0 0 264.82 300.07">
  <defs>
    <style>
      .cls-1 {
        fill: #030303;
      }
    </style>
  </defs>
  <g id="_56" data-name="56">
    <path class="cls-1" d="M210.03,109.58c-12.02,0-23.06-4.01-32.1-10.6l-70.43,48.51c1.22,4.54,2.08,9.22,2.08,14.14,0,4.21-.58,8.27-1.48,12.21l45.04,28.56c9.33-7.34,20.93-11.91,33.69-11.91,30.21,0,54.79,24.58,54.79,54.79s-24.58,54.79-54.79,54.79-54.79-24.58-54.79-54.79c0-4.16.56-8.18,1.44-12.08l-45.11-28.6c-9.31,7.29-20.87,11.82-33.59,11.82-30.21,0-54.79-24.58-54.79-54.79s24.58-54.79,54.79-54.79c11.99,0,23,3.98,32.04,10.54l70.47-48.54c-1.2-4.51-2.06-9.17-2.06-14.05,0-30.21,24.58-54.79,54.79-54.79s54.79,24.58,54.79,54.79-24.58,54.79-54.79,54.79Z"/>
  </g>
</svg>