<?xml version="1.0" encoding="UTF-8"?>
<svg id="Camada_1" data-name="Camada 1" xmlns="http://www.w3.org/2000/svg" viewBox="0 0 299.66 298.73">
  <defs>
    <style>
      .cls-1 {
        fill: #030303;
      }
    </style>
  </defs>
  <path class="cls-1" d="M298.17,244.47l-52.51,52.51c-2.09,2.23-5.59,2.34-7.81.25-.09-.08-.17-.16-.25-.25L85.34,145.34v147.64c-.06,3.15-2.6,5.7-5.76,5.76H5.76c-1.52-.03-2.96-.65-4.03-1.73-1.12-1.04-1.75-2.5-1.73-4.03V5.76C0,2.58,2.58,0,5.76,0h287.91c3.15.06,5.7,2.6,5.76,5.76v74.17c0,3.18-2.58,5.76-5.76,5.76h-147.29l152.26,151.65c1.52,2.2,1.33,5.16-.46,7.14h0Z"/>
</svg>