<svg width="284" height="73" viewBox="0 0 284 73" fill="none" xmlns="http://www.w3.org/2000/svg">
<path d="M38.4571 58.3925L39.526 59.5545C38.8721 60.1496 38.1301 60.6251 37.297 60.984C36.6431 61.2233 35.9892 61.4595 35.3353 61.6988L34.8009 61.787L34.2664 61.8751C33.9112 61.935 33.5528 61.9633 33.1975 61.9633C30.5819 61.9035 28.4442 60.8927 26.7811 58.9278C26.3661 58.3925 26.0078 57.8257 25.7122 57.2306L22.5936 59.016C21.7039 59.4915 20.7797 59.8788 19.8302 60.1779C19.0569 60.4771 18.1955 60.7447 17.2461 60.9809C15.7591 61.3965 14.2469 61.6642 12.7002 61.7838C10.6787 61.8436 8.8082 61.428 7.08541 60.5337C5.77761 59.8189 4.68043 58.9278 3.7876 57.8572C3.19343 57.1424 2.68728 56.371 2.2723 55.5365C2.0931 55.1209 1.91705 54.6738 1.73786 54.1983C1.02422 51.9973 0.904765 49.7647 1.38262 47.5039C1.67813 46.1341 2.24401 44.8557 3.07711 43.6655C4.20572 41.9997 5.68958 40.7496 7.53183 39.9152L8.60071 39.4681C8.72017 39.4082 8.91194 39.3327 9.17916 39.2445C9.44638 39.1563 9.60986 39.1091 9.66959 39.1091L10.7385 38.7533L11.8985 38.4856C12.3135 38.366 12.9674 38.2022 13.8602 37.9944C14.7499 37.7866 15.3755 37.6229 15.7308 37.5032C16.2055 37.3835 16.6802 37.2355 17.158 37.0561C19.89 36.3413 22.2667 35.7178 24.2881 35.1825C24.2284 34.2316 24.0806 33.2491 23.8417 32.2384C23.6028 31.2276 23.3073 30.2451 22.952 29.2942C22.537 28.3433 21.9397 27.5088 21.1695 26.794C20.0409 25.9029 18.7645 25.4558 17.3372 25.4558C15.495 25.4558 13.8005 25.9627 12.2569 26.9735C11.188 27.7481 10.443 28.7589 10.028 30.009C9.78905 30.9001 9.67273 31.7944 9.67273 32.6855C9.73247 33.2806 9.70103 33.8757 9.58471 34.4709C9.58471 34.5307 9.52497 34.5905 9.40551 34.6504C8.99053 35.0062 7.94995 35.1573 6.28689 35.0975C5.63299 35.0975 5.00738 35.0377 4.41635 34.918C3.94164 34.7984 3.46693 34.622 2.98908 34.3827C2.09939 33.8474 1.70957 33.2239 1.82903 32.5092C2.12455 31.5582 2.63069 30.6639 3.34433 29.8327C4.17428 28.7022 5.18657 27.7513 6.37492 26.9767C7.85878 25.9061 9.4621 25.1315 11.188 24.656C12.6719 24.2403 14.1872 24.001 15.7339 23.9412C16.2684 23.8814 16.8028 23.853 17.3372 23.853C19.0003 23.9129 20.6351 24.1207 22.2384 24.4765C23.6059 24.7756 24.9106 25.1913 26.1587 25.7266C27.7022 26.5012 28.9786 27.5718 29.9909 28.9415C31.5942 31.1426 32.3676 33.5829 32.3079 36.2594V51.8808C32.3676 53.0112 32.5154 54.1133 32.7543 55.1839C32.8737 56.0183 33.1095 56.7898 33.4679 57.5046C33.6471 57.8604 33.8546 58.1879 34.0904 58.487C34.2098 58.6066 34.3576 58.7263 34.5368 58.8428C34.5965 58.9026 34.6846 58.931 34.804 58.931C34.9832 58.9908 35.0995 59.0191 35.1593 59.0191C36.4073 59.4348 37.5045 59.227 38.4571 58.3957V58.3925ZM21.792 57.5896L24.9986 55.8042C24.5836 54.4943 24.3761 53.1875 24.3761 51.8776V36.8829C22.3547 37.4182 20.0975 38.0133 17.6045 38.6683H17.4253C14.3349 39.5594 12.0494 41.2283 10.5624 43.6655C9.96825 44.6794 9.52183 45.75 9.22632 46.8804C9.10686 47.4755 9.01883 48.1022 8.9591 48.754C8.9591 49.5884 9.04712 50.3914 9.22632 51.1628C9.22632 51.2227 9.23889 51.3266 9.27033 51.4746C9.29863 51.6225 9.31434 51.7296 9.31434 51.7863C9.37408 52.0256 9.43381 52.2334 9.49354 52.4098C9.613 52.6491 9.76076 52.9167 9.93995 53.2127C10.2355 53.748 10.5939 54.255 11.0088 54.7304C11.8388 55.6216 12.7599 56.3962 13.7722 57.0511C14.7814 57.7659 15.8817 58.213 17.07 58.3894C18.7331 58.6287 20.3081 58.361 21.792 57.5864V57.5896Z" fill="#FFFDF8"/>
<path d="M33.2006 62.4074C30.4561 62.3475 28.1863 61.2706 26.4446 59.2145C26.1019 58.7736 25.797 58.3171 25.5361 57.8447L22.8167 59.4002C21.8956 59.8915 20.9399 60.2945 19.9653 60.6C19.2076 60.8928 18.318 61.1699 17.356 61.4092C15.8627 61.828 14.3034 62.1051 12.7378 62.2247C10.6314 62.2877 8.66974 61.85 6.88408 60.9274C5.52597 60.1843 4.3722 59.2491 3.44794 58.1376C2.83176 57.3976 2.3036 56.5883 1.87605 55.7287C1.68428 55.2847 1.50194 54.8281 1.32275 54.3464C0.58082 52.0603 0.458213 49.7302 0.94864 47.4032C1.25673 45.9799 1.8509 44.6354 2.7123 43.401C3.87863 41.6786 5.43794 40.3656 7.34935 39.5028L8.43081 39.0525C8.54399 38.9958 8.75776 38.9108 9.0407 38.8163C9.33307 38.7187 9.48083 38.681 9.57829 38.6652L10.6409 38.3125L11.8009 38.0449C12.1908 37.9315 12.8384 37.7709 13.7595 37.5537C14.6398 37.349 15.2559 37.1884 15.5892 37.075L15.6238 37.0656C16.0765 36.9522 16.5386 36.8074 17.0007 36.6342L17.0447 36.6216C19.6163 35.9509 21.8736 35.3558 23.8133 34.8425C23.7441 34.0333 23.6058 33.1925 23.4046 32.3361C23.1719 31.3442 22.8764 30.3712 22.5306 29.4454C22.1534 28.5827 21.5906 27.7954 20.877 27.1279C19.8238 26.2998 18.6638 25.8967 17.334 25.8967C15.5892 25.8967 13.9638 26.3816 12.4988 27.342C11.5274 28.0442 10.8327 28.992 10.4491 30.1445C10.2322 30.96 10.1159 31.8165 10.1159 32.6604C10.1756 33.2807 10.1442 33.9105 10.0247 34.5276C10.009 34.6788 9.9241 34.8709 9.65059 35.022C9.11615 35.4377 8.04098 35.6045 6.2679 35.5384C5.59513 35.5353 4.93808 35.4754 4.32505 35.3526C3.80004 35.2235 3.29075 35.0315 2.78774 34.7796L2.75945 34.7638C1.43907 33.9703 1.28502 33.0571 1.39191 32.4337L1.40449 32.3738C1.71572 31.3757 2.25016 30.4247 2.99523 29.5525C3.85348 28.3874 4.90979 27.3955 6.13271 26.5989C7.63229 25.5157 9.30163 24.7127 11.0684 24.2215C12.5806 23.7996 14.143 23.554 15.7149 23.491C16.2399 23.4312 16.7932 23.4028 17.3371 23.4028C19.041 23.4627 20.7167 23.6768 22.3357 24.0389C23.7252 24.3412 25.0708 24.7726 26.3346 25.3142C27.9568 26.1266 29.2991 27.2538 30.3492 28.6708C32.0059 30.9443 32.8139 33.498 32.7541 36.2658V51.8777C32.8107 52.9514 32.9585 54.0378 33.188 55.0832L33.1943 55.1178C33.3043 55.8987 33.5307 56.6324 33.8639 57.3031C34.0242 57.6243 34.2129 57.9234 34.4203 58.1879C34.5115 58.2793 34.6341 58.3737 34.7787 58.4713L34.7976 58.4839H34.8479L34.9391 58.5091C35.1151 58.569 35.1717 58.5752 35.1717 58.5752H35.244L35.2943 58.5973C36.3915 58.9626 37.3283 58.7862 38.1583 58.0588L38.4852 57.7723L40.1546 59.5829L39.8213 59.8852C39.1329 60.5118 38.3438 61.0187 37.4698 61.3935L35.4075 62.1366L34.3386 62.3161C33.9614 62.379 33.5778 62.4105 33.1943 62.4105L33.2006 62.4074ZM25.9039 56.6072L26.1145 57.0292C26.3943 57.5928 26.7401 58.1407 27.1362 58.6508C28.7175 60.5149 30.7076 61.4564 33.21 61.5131C33.5338 61.5131 33.867 61.4848 34.1971 61.4312L35.2252 61.2581L37.146 60.559C37.7685 60.2914 38.3563 59.9387 38.8845 59.5136L38.4098 58.9972C37.4289 59.6994 36.3066 59.8537 35.0711 59.4569C34.9799 59.4475 34.873 59.4191 34.7221 59.3719C34.5021 59.3562 34.3543 59.2743 34.26 59.1924C34.0651 59.0602 33.9048 58.9311 33.7727 58.7988L33.7413 58.7642C33.4866 58.4461 33.2603 58.0903 33.0654 57.703C32.6913 56.9536 32.4366 56.1318 32.3109 55.2627C32.0688 54.1763 31.9179 53.0459 31.8582 51.9029V36.2595C31.9148 33.6838 31.1634 31.3127 29.6261 29.203C28.6641 27.8994 27.4286 26.8634 25.9542 26.1266C24.7658 25.6165 23.4737 25.2071 22.1376 24.9143C20.5689 24.5647 18.9467 24.3569 17.3151 24.3002C16.8215 24.3002 16.2997 24.3286 15.7747 24.3884C14.2436 24.4482 12.7472 24.6844 11.3011 25.0875C9.63487 25.5472 8.06299 26.3061 6.62943 27.3389C5.47567 28.0914 4.49481 29.014 3.69629 30.0972L3.67743 30.1224C3.01409 30.897 2.53624 31.7378 2.25959 32.6132C2.22501 32.8273 2.18729 33.3783 3.19958 33.9923C3.63656 34.2096 4.07983 34.3765 4.51682 34.4867C5.0544 34.5938 5.65486 34.6504 6.28047 34.6504C8.38994 34.726 8.9621 34.4395 9.10986 34.3104L9.16331 34.2694C9.25448 33.7593 9.27334 33.2429 9.22304 32.7297V32.6856C9.22304 31.7567 9.34564 30.8183 9.59086 29.8926C10.0404 28.5354 10.8452 27.4396 11.9896 26.6115C13.618 25.544 15.41 25.0087 17.3308 25.0087C18.8524 25.0087 20.2357 25.4905 21.4397 26.4446L21.4649 26.4666C22.2791 27.2192 22.9142 28.1103 23.3543 29.1148C23.7221 30.1004 24.0302 31.108 24.2723 32.1377C24.5143 33.1736 24.6684 34.1907 24.7281 35.1574L24.7501 35.5227L24.3949 35.6171C22.3797 36.1524 20.0093 36.7728 17.2868 37.4875C16.8058 37.667 16.3248 37.8182 15.8501 37.9378C15.4823 38.0606 14.8598 38.2244 13.9544 38.4353C13.049 38.6463 12.414 38.8069 12.0147 38.9203L10.8547 39.1879L9.73547 39.5626H9.66317C9.68203 39.5626 9.60344 39.5784 9.31421 39.6728C8.99669 39.7799 8.85207 39.8429 8.79234 39.8712L7.69517 40.3309C5.95037 41.1213 4.51368 42.3304 3.43536 43.9175C2.63685 45.0573 2.09297 46.2948 1.81003 47.5984C1.35418 49.768 1.4705 51.9438 2.15585 54.0598C2.32247 54.507 2.50166 54.9509 2.67457 55.3603C3.06125 56.1349 3.55168 56.8843 4.12384 57.5708C4.97581 58.5941 6.04154 59.4601 7.29276 60.1434C8.93067 60.9935 10.7446 61.3966 12.6812 61.3399C14.1682 61.2266 15.6678 60.9589 17.1202 60.5527C18.0602 60.3165 18.9121 60.0521 19.6635 59.7624C20.6129 59.4632 21.5152 59.0854 22.3766 58.6256L25.8944 56.6135L25.9039 56.6072ZM18.2268 58.9185C17.8244 58.9185 17.4188 58.8901 17.0102 58.8303C15.7558 58.6414 14.5832 58.1659 13.5206 57.4133C12.502 56.7552 11.5431 55.9491 10.688 55.0328C10.2448 54.5259 9.86751 53.9906 9.55628 53.4269C9.37709 53.1309 9.22304 52.8507 9.10043 52.6051L9.07843 52.5484C9.01241 52.3532 8.94953 52.1296 8.8898 51.8871L8.87723 51.7801C8.87723 51.7801 8.87722 51.7265 8.8395 51.5534C8.8112 51.4148 8.79235 51.3015 8.7892 51.2133C8.61001 50.4229 8.51884 49.5948 8.51884 48.7446V48.7037C8.58171 48.0361 8.67288 47.3906 8.79548 46.7797C9.10672 45.5895 9.572 44.4716 10.185 43.4294C11.7255 40.8977 14.121 39.1501 17.3088 38.2275L17.3685 38.2086H17.554C20.0282 37.56 22.2665 36.9711 24.2691 36.439L24.8287 36.291V51.8651C24.8287 53.1246 25.0331 54.3999 25.4323 55.6563L25.5423 56.0058L22.0056 57.9738C20.8078 58.5973 19.544 58.9122 18.2299 58.9122L18.2268 58.9185ZM9.91152 52.2367C10.0216 52.4539 10.1599 52.7027 10.3265 52.9798C10.6157 53.4993 10.9553 53.9843 11.3482 54.4314C12.1436 55.2847 13.0459 56.0404 14.0173 56.6702C14.9793 57.3504 16.0262 57.7755 17.139 57.9423C18.6952 58.1659 20.1916 57.9108 21.5843 57.1866L24.4735 55.5807C24.1151 54.3495 23.9359 53.1026 23.9359 51.8682V37.4529C22.059 37.9504 19.9904 38.4952 17.7206 39.0903L17.6075 39.106H17.4912C14.5549 39.9657 12.3542 41.5779 10.9458 43.8891C10.3768 44.8558 9.94296 45.8981 9.66002 46.9844C9.54999 47.5292 9.46511 48.1369 9.40852 48.7635C9.40852 49.5539 9.49655 50.3222 9.66317 51.0527L9.67574 51.1535C9.67574 51.1535 9.67574 51.2101 9.71032 51.377C9.73862 51.5282 9.75748 51.6321 9.76062 51.714C9.80778 51.9029 9.85808 52.0792 9.90838 52.2304L9.91152 52.2367Z" fill="#FFFDF8"/>
<path d="M76.333 70.3519H81.4133V71.9578H68.4013V67.2282C65.729 70.44 62.579 72.0491 58.9542 72.0491C58.4198 72.0491 57.8853 72.0207 57.3509 71.9609C55.5684 71.7248 53.8739 71.2178 52.2706 70.4432C50.6075 69.6717 49.0639 68.6893 47.6367 67.499C46.0333 66.0695 44.7255 64.3754 43.7164 62.4105C42.2891 59.4349 41.5786 56.2955 41.5786 52.9924C41.5786 49.6893 42.2923 46.553 43.7164 43.5742C44.7255 41.6692 46.0333 40.0035 47.6367 38.577C49.0639 37.3269 50.6075 36.3162 52.2706 35.5416C53.8739 34.7701 55.5684 34.2631 57.3509 34.0238C57.8853 33.964 58.4198 33.9357 58.9542 33.9357C62.5759 33.9357 65.7259 35.5416 68.4013 38.7565V15.3702L61.4504 17.1555L61.0951 15.6378L68.4013 13.6729L76.333 11.5317V70.3519ZM68.4013 64.6399V41.433C65.9051 37.5064 62.755 35.5416 58.9542 35.5416H58.8662C56.8448 35.6014 55.122 36.3445 53.6978 37.7741C52.6856 38.8447 51.9436 40.0664 51.4689 41.433C50.9942 42.9224 50.6075 44.437 50.3089 45.9862C49.2966 50.6874 49.2966 55.3571 50.3089 59.9985C50.6044 61.5477 50.9911 63.0938 51.4689 64.6399C51.9436 66.0096 52.717 67.2282 53.7859 68.2988C55.2131 69.7284 56.9328 70.44 58.9542 70.44C62.6985 70.44 65.8454 68.5066 68.4013 64.6399Z" fill="#FFFDF8"/>
<path d="M58.9541 72.4933C58.4008 72.4933 57.8444 72.4618 57.3005 72.402C55.474 72.1595 53.7166 71.6337 52.0787 70.8433C50.3937 70.0624 48.8029 69.0485 47.3536 67.8393C45.7031 66.372 44.3513 64.6149 43.3233 62.6123C41.8709 59.58 41.1353 56.3461 41.1353 52.9926C41.1353 49.6391 41.8709 46.4053 43.317 43.3824C44.3545 41.4238 45.7063 39.7014 47.3442 38.2435C48.7966 36.9714 50.3905 35.926 52.085 35.1387C53.7198 34.3515 55.474 33.8288 57.2942 33.5832C57.8601 33.5202 58.4166 33.4888 58.9573 33.4888C62.3525 33.4888 65.3737 34.8648 67.9579 37.5822V15.9435L61.1233 17.6974L60.5637 15.3169L76.7793 10.9463V69.905H81.8596V72.4051H67.9579V68.3998C65.3737 71.1173 62.3525 72.4933 58.9573 72.4933H58.9541ZM58.9541 34.3799C58.4449 34.3799 57.9198 34.4082 57.398 34.4649C55.6815 34.6948 54.0184 35.1923 52.4623 35.9417C50.8401 36.6974 49.3153 37.6956 47.9289 38.911C46.3728 40.2965 45.087 41.9339 44.1093 43.7823C42.726 46.6666 42.0218 49.7714 42.0218 52.9895C42.0218 56.2076 42.726 59.3123 44.1156 62.2124C45.0901 64.1048 46.3759 65.7737 47.9321 67.1592C49.3122 68.3117 50.8369 69.2815 52.456 70.0341C54.0184 70.7866 55.6815 71.2841 57.4074 71.514C57.9104 71.5707 58.4323 71.599 58.9541 71.599C62.4217 71.599 65.4869 70.0309 68.0585 66.9388L68.8476 65.991V71.5077H80.9668V70.7929H75.8865V12.1145L61.6263 15.9561L61.7804 16.6079L68.8476 14.7942V39.9879L68.0585 39.0401C65.4869 35.948 62.4249 34.3799 58.9541 34.3799ZM58.9541 70.8874C56.8227 70.8874 54.9773 70.1222 53.4714 68.6139C52.3585 67.4993 51.5411 66.2114 51.0476 64.785C50.5634 63.2169 50.1704 61.6393 49.8718 60.0806C48.8532 55.4109 48.8532 50.631 49.8718 45.8889C50.1704 44.3396 50.5634 42.7904 51.0413 41.2947C51.538 39.862 52.3208 38.5773 53.3708 37.4657C54.8798 35.9543 56.7221 35.1576 58.8504 35.0947H58.9541C62.8996 35.0947 66.2068 37.1445 68.7753 41.1908L68.8444 41.301V64.7724L68.769 64.8857C66.1377 68.869 62.8367 70.8874 58.951 70.8874H58.9541ZM58.8661 35.9889C56.9578 36.0456 55.3671 36.732 54.0121 38.0892C53.0596 39.1 52.3428 40.2776 51.8901 41.5812C51.4248 43.0329 51.0413 44.5443 50.7489 46.0715C49.7555 50.6971 49.7555 55.3479 50.7489 59.9043C51.0444 61.4441 51.4311 62.987 51.8964 64.5079C52.3396 65.7894 53.0847 66.964 54.1033 67.9842C55.4551 69.3382 57.0427 69.9963 58.9573 69.9963C62.4877 69.9963 65.5152 68.1479 67.9579 64.5047V41.5624C65.5718 37.8625 62.5443 35.9858 58.9573 35.9858H58.8693L58.8661 35.9889Z" fill="#FFFDF8"/>
<path d="M117.325 43.6187C118.752 46.5943 119.463 49.7179 119.463 52.9896C119.463 56.2612 118.749 59.388 117.325 62.3605C116.376 64.3254 115.068 66.0194 113.405 67.449C111.977 68.6393 110.434 69.6217 108.771 70.3931C107.167 71.1678 105.501 71.6747 103.782 71.9109C103.247 71.9707 102.713 71.999 102.178 71.999C101.644 71.999 101.109 71.9707 100.575 71.9109C98.7925 71.6747 97.098 71.1678 95.4947 70.3931C93.8316 69.6217 92.288 68.6393 90.8608 67.449C89.2575 66.0194 87.9496 64.3254 86.9405 62.3605C85.5132 59.3848 84.8027 56.2612 84.8027 52.9896C84.8027 49.7179 85.5164 46.5943 86.9405 43.6187C87.9496 41.6538 89.2575 39.9597 90.8608 38.5301C92.288 37.3399 93.8316 36.3575 95.4947 35.586C97.098 34.8145 98.7925 34.3076 100.575 34.0683C101.644 33.9486 102.713 33.9486 103.782 34.0683C105.504 34.3076 107.167 34.8145 108.771 35.586C110.434 36.3606 111.977 37.343 113.405 38.5301C115.068 39.9597 116.376 41.6538 117.325 43.6187ZM110.821 59.9516C111.77 55.3103 111.77 50.6689 110.821 46.0275C110.522 44.4814 110.107 42.9637 109.572 41.4743C109.098 40.0447 108.353 38.7978 107.344 37.724C105.916 36.2945 104.193 35.5828 102.175 35.5828H101.996C100.034 35.6427 98.3429 36.3858 96.9157 37.8154C95.9034 38.886 95.1614 40.1077 94.6867 41.4743C94.1523 42.9637 93.7656 44.4783 93.5267 46.0275C92.5144 50.6689 92.5144 55.3103 93.5267 59.9516C93.7625 61.5009 94.1492 63.0186 94.6867 64.5048C95.1614 65.9344 95.9034 67.1813 96.9157 68.2551C98.3995 69.6847 100.154 70.3963 102.172 70.3963H102.26C104.278 70.3365 106.004 69.5933 107.428 68.1638C108.378 67.0932 109.091 65.8746 109.566 64.5048C110.101 63.0186 110.516 61.5009 110.814 59.9516H110.821Z" fill="#FFFDF8"/>
<path d="M102.175 72.4492C101.622 72.4492 101.065 72.4177 100.521 72.3579C98.6949 72.1154 96.9375 71.5895 95.2965 70.7992C93.6114 70.0183 92.0207 69.0043 90.5714 67.7952C88.9209 66.3278 87.5691 64.5708 86.5411 62.5681C85.0887 59.5358 84.353 56.3177 84.353 52.9926C84.353 49.6674 85.0887 46.4493 86.5348 43.4264C87.5691 41.4112 88.9241 39.6573 90.562 38.1994C92.0238 36.9808 93.6146 35.97 95.3028 35.1828C96.9375 34.3956 98.6918 33.8697 100.512 33.6273C101.619 33.5045 102.732 33.5045 103.829 33.6273C105.602 33.8729 107.325 34.3956 108.962 35.1859C110.648 35.97 112.241 36.9839 113.688 38.1899C115.395 39.6573 116.753 41.4175 117.724 43.4264C119.173 46.4493 119.906 49.6705 119.906 52.9926C119.906 56.3146 119.17 59.5358 117.724 62.5587C116.75 64.5708 115.395 66.331 113.691 67.7921C112.238 69.0044 110.644 70.0183 108.953 70.8023C107.318 71.5895 105.595 72.1154 103.835 72.3579C103.279 72.4208 102.722 72.4523 102.169 72.4523L102.175 72.4492ZM102.178 34.4271C101.659 34.4271 101.138 34.4554 100.619 34.5121C98.9024 34.7419 97.2393 35.2395 95.6832 35.9889C94.0578 36.7446 92.5331 37.7144 91.1404 38.8764C89.5937 40.2524 88.3079 41.9213 87.3302 43.8263C85.9469 46.7169 85.2396 49.8059 85.2396 52.9926C85.2396 56.1792 85.9438 59.2713 87.3333 62.1714C88.3079 64.0638 89.5937 65.7327 91.1499 67.1182C92.53 68.2707 94.0547 69.2405 95.6769 69.9931C97.2393 70.7457 98.9024 71.2432 100.628 71.473C101.631 71.5864 102.706 71.5864 103.728 71.473C105.385 71.2463 107.02 70.7488 108.576 69.9962C110.204 69.2405 111.729 68.2707 113.119 67.1088C114.722 65.7296 116.005 64.067 116.922 62.1682C118.312 59.2713 119.016 56.1823 119.016 52.9894C119.016 49.7965 118.312 46.7106 116.922 43.8106C116.005 41.9118 114.722 40.2492 113.112 38.8701C111.729 37.7144 110.201 36.7446 108.582 35.9889C107.02 35.2363 105.385 34.7388 103.719 34.5089C103.209 34.4522 102.697 34.4239 102.178 34.4239V34.4271ZM102.175 70.8433C100.044 70.8433 98.173 70.0813 96.6074 68.5761C95.5417 67.4488 94.7589 66.1295 94.2653 64.6464C93.7246 63.1444 93.3285 61.5857 93.0896 60.0207C92.0741 55.3668 92.0741 50.6152 93.0958 45.9329C93.3285 44.3963 93.7278 42.8376 94.2716 41.3261C94.7652 39.9092 95.5448 38.6213 96.5949 37.5098C98.1039 35.9983 99.9147 35.2017 101.983 35.1387H102.175C104.31 35.1387 106.152 35.9039 107.658 37.4121C108.717 38.5331 109.497 39.8525 109.994 41.3356C110.528 42.825 110.956 44.3774 111.257 45.9455C112.213 50.6183 112.213 55.3636 111.257 60.0428C110.956 61.6109 110.531 63.1633 109.994 64.659C109.503 66.0696 108.755 67.3512 107.768 68.4628C106.246 69.9868 104.407 70.7834 102.279 70.8433H102.178H102.175ZM101.996 36.033C100.147 36.0896 98.5849 36.7761 97.2299 38.1332C96.2773 39.144 95.5606 40.3217 95.1079 41.6253C94.5829 43.0895 94.1993 44.5915 93.9698 46.0998C92.9732 50.6845 92.9732 55.3038 93.9635 59.8602C94.1993 61.3968 94.5829 62.8988 95.1047 64.3567C95.5606 65.7264 96.2773 66.9324 97.2362 67.9495C98.6132 69.272 100.276 69.9521 102.169 69.9521H102.257C104.137 69.8986 105.775 69.1901 107.111 67.8519C108 66.8474 108.689 65.6666 109.145 64.3598C109.67 62.9019 110.082 61.3936 110.377 59.8696V59.8633C111.311 55.3038 111.311 50.6782 110.377 46.1187C110.082 44.5915 109.67 43.0832 109.148 41.6284C108.692 40.2587 107.975 39.0527 107.016 38.0356C105.693 36.71 104.061 36.033 102.172 36.033H101.993H101.996Z" fill="#FFFDF8"/>
<path d="M136.574 60.3543H144.414V61.9602H120.71V60.3543H128.551V5.3726L121.6 7.15799L121.245 5.64026L128.551 3.67538L136.571 1.53418V60.3543H136.574Z" fill="#FFFDF8"/>
<path d="M144.861 62.4074H120.264V59.9072H128.105V5.9489L121.27 7.70595L120.711 5.32544L137.017 0.958008V59.9135H144.858V62.4137L144.861 62.4074ZM121.157 61.5163H143.971V60.8015H136.131V2.11678L121.783 5.9615L121.937 6.61331L129.004 4.79958V60.8046H121.163V61.5194L121.157 61.5163Z" fill="#FFFDF8"/>
<path d="M177.389 43.398H153.506V43.5775C153.566 46.0777 153.861 48.518 154.396 50.8954C154.751 52.4446 155.257 53.9309 155.911 55.3573C156.625 56.727 157.574 57.8574 158.762 58.7486C160.246 59.7027 161.85 60.238 163.575 60.3545H164.735C166.754 60.3545 168.64 59.9986 170.394 59.2839C172.145 58.5691 173.541 57.722 174.582 56.7396C175.619 55.7572 176.424 54.8346 176.987 53.9718C177.55 53.109 177.832 52.4698 177.832 52.0542V51.2512H179.436V52.0542C179.436 52.7091 179.093 53.5719 178.411 54.6425C177.729 55.7131 176.808 56.7994 175.648 57.9015C174.487 59.0036 172.928 59.9546 170.97 60.7575C169.008 61.5605 166.93 61.9635 164.732 61.9635C162.356 61.9635 160.039 61.6675 157.781 61.0724C155.879 60.5969 154.097 59.794 152.434 58.6635C150.532 57.2969 149.048 55.5997 147.979 53.575C146.376 50.4829 145.574 47.2364 145.574 43.8452C145.574 42.8344 145.603 41.8236 145.662 40.8097C145.782 39.9186 145.929 39.0558 146.109 38.2213C146.288 37.4499 146.524 36.6753 146.822 35.9007C147.001 35.2457 147.269 34.5939 147.624 33.9358C148.633 31.9142 149.969 30.1572 151.635 28.6709C153.119 27.4209 154.723 26.4101 156.449 25.6355C158.112 24.8042 159.863 24.2689 161.705 24.0296C162.239 23.9697 162.802 23.9414 163.399 23.9414H164.289C166.307 24.0611 168.241 24.4484 170.08 25.1002C171.862 25.815 173.466 26.7974 174.893 28.0443C176.556 29.4739 177.832 31.2278 178.725 33.3092C179.914 35.9857 180.508 38.8133 180.508 41.789L180.596 42.5919V43.3949H177.386L177.389 43.398ZM153.506 41.7921H172.576C172.516 39.6509 172.337 37.5066 172.042 35.3654C171.862 33.8791 171.535 32.3897 171.061 30.9035C170.586 29.5369 169.841 28.375 168.832 27.4209C167.345 26.2306 165.682 25.6071 163.843 25.5473H163.22C161.139 25.6071 159.357 26.3503 157.873 27.7798C156.804 28.9103 156.002 30.1887 155.468 31.6183C154.873 33.1675 154.427 34.7419 154.132 36.3478C154.072 36.5871 154.012 37.0941 153.952 37.8655C153.893 38.045 153.833 38.3284 153.773 38.7126C153.713 39.0999 153.685 39.3833 153.685 39.5596C153.685 39.7359 153.669 40.0508 153.641 40.4979C153.61 40.9451 153.566 41.2568 153.506 41.4363V41.7921Z" fill="#FFFDF8"/>
<path d="M164.732 62.4076C162.327 62.4076 159.951 62.1022 157.668 61.5008C155.732 61.0159 153.883 60.1846 152.186 59.0289C150.227 57.6214 148.684 55.8581 147.586 53.7799C145.955 50.6342 145.128 47.2901 145.128 43.8421C145.128 42.8188 145.159 41.7891 145.219 40.7815V40.75C145.342 39.8589 145.493 38.9741 145.675 38.127C145.857 37.3304 146.102 36.5369 146.401 35.7591C146.587 35.0821 146.87 34.3988 147.234 33.7218C148.259 31.6719 149.642 29.855 151.34 28.3373C152.858 27.0589 154.512 26.0166 156.266 25.2294C157.948 24.3855 159.765 23.8313 161.648 23.5889C162.214 23.5259 162.802 23.4976 163.4 23.4976H164.289C166.37 23.6204 168.36 24.0203 170.231 24.6847C172.07 25.4215 173.73 26.4386 175.189 27.7138C176.893 29.1781 178.222 31.0044 179.137 33.1393C180.338 35.8504 180.951 38.7568 180.954 41.7702L181.042 42.5984V43.8484H153.959C154.031 46.2038 154.323 48.5433 154.833 50.8011C155.182 52.3125 155.682 53.7861 156.317 55.1748C156.983 56.4532 157.895 57.5396 159.017 58.3866C160.429 59.2872 161.972 59.8036 163.607 59.9138H164.736C166.688 59.9138 168.536 59.5642 170.228 58.8747C171.919 58.1851 173.284 57.3601 174.277 56.4186C175.286 55.4645 176.072 54.5608 176.616 53.7326C177.289 52.703 177.389 52.2432 177.389 52.0574V50.8074H179.885V52.0574C179.885 52.8037 179.527 53.7295 178.791 54.8851C178.09 55.984 177.138 57.1082 175.959 58.226C174.767 59.3596 173.148 60.3515 171.143 61.1702C169.137 61.992 166.983 62.4076 164.736 62.4076H164.732ZM146.106 40.8508C146.049 41.8363 146.018 42.844 146.018 43.8421C146.018 47.1453 146.81 50.3508 148.372 53.3642C149.403 55.3133 150.856 56.9759 152.692 58.2953C154.295 59.3848 156.046 60.1751 157.885 60.6348C160.099 61.2174 162.4 61.5134 164.729 61.5134C166.861 61.5134 168.901 61.1198 170.8 60.342C172.702 59.5643 174.23 58.6322 175.34 57.5742C176.465 56.5036 177.37 55.4361 178.034 54.4002C178.669 53.4051 178.989 52.6148 178.989 52.0511V51.6953H178.276V52.0511C178.276 52.5675 177.983 53.2571 177.358 54.2144C176.776 55.1024 175.943 56.0596 174.884 57.0609C173.809 58.0748 172.353 58.9628 170.558 59.6934C168.76 60.427 166.798 60.7986 164.732 60.7986H163.572C161.752 60.6758 160.061 60.109 158.52 59.1203L158.492 59.1014C157.257 58.1725 156.254 56.9822 155.512 55.5589C154.839 54.0916 154.32 52.5613 153.959 50.99C153.418 48.5874 153.116 46.0936 153.057 43.5808V42.9447H180.146V42.6141L180.058 41.786C180.058 38.889 179.47 36.096 178.314 33.4888C177.452 31.4735 176.204 29.7574 174.598 28.3814C173.214 27.1691 171.636 26.2024 169.91 25.5128C168.134 24.883 166.226 24.502 164.258 24.3824H163.393C162.827 24.3824 162.274 24.4107 161.749 24.4706C159.973 24.7004 158.25 25.2263 156.644 26.0324C154.946 26.7944 153.365 27.7926 151.918 29.0112C150.315 30.4439 149.001 32.1726 148.02 34.1343C147.674 34.7704 147.417 35.4001 147.25 36.0173L147.237 36.0614C146.951 36.8045 146.719 37.5665 146.543 38.3223C146.37 39.1346 146.222 39.988 146.106 40.8539V40.8508ZM173.032 42.2362H153.057V41.3609L153.079 41.2916C153.104 41.2129 153.154 40.9988 153.192 40.4635C153.22 40.0163 153.236 39.7203 153.236 39.5566C153.236 39.3519 153.267 39.0528 153.33 38.6403C153.387 38.2624 153.446 37.979 153.509 37.7743C153.569 36.9997 153.629 36.4959 153.695 36.2346C153.99 34.6381 154.446 33.0196 155.047 31.4515C155.597 29.9779 156.439 28.6364 157.546 27.4651C159.121 25.9505 161.02 25.157 163.205 25.094H163.84C165.786 25.157 167.552 25.8214 169.109 27.0652L169.137 27.0904C170.193 28.0886 170.982 29.3197 171.479 30.7493C171.963 32.2702 172.3 33.8005 172.482 35.3057C172.777 37.4469 172.96 39.6259 173.019 41.7734L173.032 42.2331V42.2362ZM153.984 41.3451H172.114C172.042 39.3771 171.869 37.3902 171.598 35.4253C171.422 33.9674 171.099 32.4938 170.636 31.0359C170.193 29.7574 169.486 28.6522 168.54 27.7548C167.141 26.6401 165.556 26.045 163.827 25.9883H163.217C161.274 26.045 159.574 26.7534 158.178 28.0949C157.169 29.1623 156.392 30.4029 155.88 31.7695C155.295 33.2873 154.855 34.8522 154.562 36.4235C154.518 36.5998 154.459 36.9682 154.389 37.894L154.367 38.0011C154.333 38.1081 154.276 38.3285 154.207 38.7725C154.138 39.2228 154.122 39.4464 154.122 39.5534C154.122 39.7392 154.107 40.0447 154.075 40.5201C154.05 40.8665 154.019 41.1342 153.978 41.3388L153.984 41.3451Z" fill="#FFFDF8"/>
<path d="M189.33 21.6676L197.35 19.5264V33.0947H205.19V34.7006H197.35L197.262 58.6222H197.35C197.35 60.0518 197.409 61.5664 197.529 63.1754C197.589 64.6648 197.677 65.7039 197.796 66.2991C197.915 67.2532 198.271 68.1159 198.865 68.8874C199.755 69.958 200.883 70.4366 202.251 70.317V71.9229H200.915C200.616 71.8631 200.201 71.8032 199.667 71.7434C199.547 71.6836 199.355 71.6237 199.088 71.5639C198.821 71.5041 198.626 71.4757 198.51 71.4757C198.39 71.4159 198.211 71.3561 197.975 71.2963C197.736 71.2364 197.56 71.1766 197.441 71.1168C196.133 70.5815 194.945 69.8982 193.876 69.0637C192.568 68.053 191.559 66.8029 190.845 65.3135C189.833 63.1723 189.33 60.9398 189.33 58.6191V34.6974H181.489V33.0915H189.33V21.6676Z" fill="#FFFDF8"/>
<path d="M202.697 72.3671L200.83 72.3577C200.534 72.301 200.129 72.2411 199.619 72.1845L199.544 72.175L199.475 72.1404C199.424 72.1152 199.292 72.0648 198.994 71.9955C198.673 71.9263 198.55 71.9168 198.513 71.9168H198.409L198.318 71.8727C198.255 71.8412 198.123 71.7909 197.871 71.7247C197.614 71.6618 197.412 71.5956 197.262 71.5201C195.925 70.9722 194.696 70.2637 193.608 69.4135C192.253 68.3649 191.191 67.0519 190.452 65.5058C189.418 63.3142 188.893 60.9967 188.893 58.6193V35.1448H181.052V32.6446H188.893V21.3214L197.805 18.9409V32.6415H205.646V35.1416H197.802L197.717 58.169H197.805V58.6162C197.805 60.0394 197.865 61.5603 197.981 63.1347C198.041 64.6084 198.126 65.6349 198.242 66.2048L198.249 66.2395C198.356 67.1086 198.686 67.9052 199.23 68.6106C200.019 69.5583 200.999 69.974 202.226 69.8669L202.71 69.826V72.3671H202.697ZM200.959 71.476H201.807V70.7801C200.506 70.7706 199.402 70.229 198.525 69.1742C197.878 68.3335 197.488 67.3951 197.359 66.3717C197.236 65.7483 197.145 64.706 197.085 63.1946C196.979 61.7744 196.919 60.3858 196.909 59.0696H196.815L196.906 34.2568H204.747V33.542H196.906V20.1091L189.776 22.0142V33.542H181.936V34.2568H189.776V58.6256C189.776 60.8707 190.273 63.0592 191.247 65.1279C191.927 66.5449 192.901 67.7509 194.146 68.7145C195.177 69.5174 196.34 70.1881 197.607 70.7077L197.639 70.7234C197.689 70.7486 197.815 70.8021 198.079 70.8651C198.299 70.9218 198.475 70.9753 198.613 71.0351C198.755 71.0446 198.94 71.0761 199.182 71.1296C199.437 71.1863 199.635 71.2461 199.786 71.3091C200.264 71.3626 200.657 71.4193 200.959 71.476Z" fill="#FFFDF8"/>
<path d="M240.39 35.0504C241.104 35.825 241.073 36.9838 240.302 38.533C239.708 39.5438 238.995 40.4381 238.165 41.2095C237.451 41.8645 236.917 42.1007 236.561 41.9243C236.322 41.8047 236.087 41.6567 235.848 41.4772L234.958 40.8537C234.068 40.2586 233.116 39.8429 232.107 39.6036C230.62 39.188 229.136 39.2163 227.652 39.6918C225.69 40.2869 224.115 41.4488 222.93 43.1744V70.3992H230.862V72.0051H207.158V70.3992H215.001V34.7292H211.185L210.723 33.0981H222.87L223.021 40.5892C225.338 37.7931 228.249 35.8597 231.755 34.7859C233.298 34.3104 234.873 34.0711 236.477 34.0711C237.13 34.0711 237.753 34.131 238.347 34.2506C238.881 34.3104 239.416 34.4584 239.95 34.6978C240.07 34.8174 240.218 34.9371 240.397 35.0536L240.39 35.0504Z" fill="#FFFDF8"/>
<path d="M231.302 72.4489H206.705V69.9487H214.549V35.1699H210.842L210.129 32.6445H223.301L223.436 39.4271C225.671 37.034 228.419 35.3305 231.616 34.3543C233.198 33.8663 234.829 33.6207 236.47 33.6207C237.14 33.6207 237.794 33.6836 238.41 33.8033C238.979 33.8694 239.557 34.03 240.126 34.2819L240.205 34.3166L240.265 34.3764C240.359 34.4709 240.485 34.5716 240.639 34.6755L240.721 34.7448C241.569 35.6643 241.563 37.0057 240.702 38.7281C240.073 39.7987 239.325 40.7339 238.467 41.5337C238.146 41.8297 237.171 42.7239 236.36 42.3209C236.099 42.1918 235.835 42.0249 235.577 41.8328L234.7 41.2188C233.864 40.6614 232.956 40.2615 232.003 40.038C230.591 39.6444 229.177 39.6727 227.784 40.1167C225.967 40.6677 224.486 41.7446 223.37 43.3128V69.9487H231.302V72.4489ZM207.598 71.5578H230.412V70.843H222.481V43.0357L222.559 42.9223C223.801 41.1212 225.47 39.89 227.52 39.2665C229.076 38.769 230.661 38.7375 232.226 39.1752C233.264 39.4208 234.273 39.8616 235.206 40.482L236.106 41.1117C236.332 41.2818 236.549 41.4172 236.763 41.5242C236.854 41.5715 237.2 41.4927 237.866 40.8819C238.658 40.145 239.353 39.276 239.922 38.3061C240.582 36.9836 240.645 36.0201 240.101 35.3903C239.944 35.2833 239.812 35.1793 239.699 35.0723C239.231 34.8708 238.759 34.7448 238.297 34.6944L238.259 34.6881C237.693 34.5748 237.093 34.5181 236.473 34.5181C234.924 34.5181 233.377 34.7511 231.88 35.214C228.476 36.2531 225.609 38.1581 223.361 40.8756L222.597 41.7982L222.433 33.5482H211.311L211.518 34.2882H215.442V70.8524H207.601V71.5672L207.598 71.5578Z" fill="#FFFDF8"/>
<path d="M281.832 68.4785L282.9 69.6404C282.247 70.2355 281.505 70.711 280.672 71.07C280.018 71.3093 279.364 71.5454 278.71 71.7847L278.175 71.8729L277.641 71.9611C277.286 72.0209 276.927 72.0492 276.572 72.0492C273.956 71.9894 271.819 70.9786 270.156 69.0138C269.741 68.4785 269.382 67.9117 269.087 67.3166L265.968 69.1019C265.078 69.5774 264.154 69.9647 263.205 70.2639C262.431 70.563 261.57 70.8306 260.621 71.0668C259.134 71.4825 257.621 71.7501 256.075 71.8698C254.053 71.9296 252.183 71.5139 250.46 70.6197C249.152 69.9049 248.055 69.0138 247.162 67.9432C246.568 67.2284 246.062 66.4569 245.647 65.6225C245.468 65.2068 245.292 64.7597 245.112 64.2842C244.399 62.0832 244.279 59.8507 244.757 57.5898C245.053 56.2201 245.619 54.9417 246.452 53.7514C247.58 52.0857 249.064 50.8356 250.906 50.0011L251.975 49.554C252.095 49.4942 252.286 49.4186 252.554 49.3304C252.821 49.2423 252.984 49.195 253.044 49.195L254.113 48.8392L255.273 48.5716C255.688 48.4519 256.342 48.2882 257.235 48.0804C258.124 47.8725 258.75 47.7088 259.105 47.5891C259.58 47.4695 260.055 47.3215 260.533 47.142C263.265 46.4272 265.641 45.8038 267.663 45.2685C267.603 44.3175 267.455 43.3351 267.216 42.3243C266.977 41.3135 266.682 40.3311 266.327 39.3801C265.912 38.4292 265.314 37.5948 264.544 36.88C263.415 35.9889 262.139 35.5417 260.712 35.5417C258.87 35.5417 257.175 36.0487 255.631 37.0595C254.563 37.8341 253.817 38.8448 253.402 40.0949C253.164 40.986 253.047 41.8803 253.047 42.7714C253.107 43.3666 253.076 43.9617 252.959 44.5568C252.959 44.6166 252.899 44.6765 252.78 44.7363C252.365 45.0921 251.324 45.2433 249.661 45.1834C249.008 45.1834 248.382 45.1236 247.791 45.004C247.313 44.8843 246.838 44.708 246.364 44.4686C245.474 43.9333 245.084 43.3099 245.204 42.5951C245.499 41.6441 246.005 40.7499 246.719 39.9186C247.549 38.7882 248.561 37.8372 249.749 37.0626C251.233 35.992 252.837 35.2174 254.563 34.7419C256.046 34.3263 257.562 34.087 259.108 34.0271C259.643 33.9673 260.177 33.939 260.712 33.939C262.375 33.9988 264.01 34.2066 265.613 34.5624C266.977 34.8616 268.285 35.2772 269.533 35.8125C271.077 36.5871 272.353 37.6577 273.365 39.0275C274.969 41.2285 275.742 43.6688 275.682 46.3453V61.9667C275.742 63.0971 275.89 64.1992 276.129 65.2698C276.248 66.1043 276.484 66.8757 276.842 67.5905C277.022 67.9463 277.229 68.2738 277.465 68.5729C277.584 68.6926 277.732 68.8122 277.911 68.9287C277.971 68.9886 278.059 69.0169 278.179 69.0169C278.358 69.0767 278.474 69.1051 278.534 69.1051C279.782 69.5207 280.879 69.3129 281.832 68.4816V68.4785ZM265.166 67.6755L268.373 65.8901C267.958 64.5802 267.751 63.2735 267.751 61.9635V46.9688C265.729 47.5041 263.472 48.0992 260.979 48.7542H260.8C257.709 49.6453 255.421 51.3142 253.937 53.7514C253.343 54.7653 252.896 55.8359 252.601 56.9664C252.481 57.5615 252.393 58.1881 252.334 58.8399C252.334 59.6743 252.422 60.4773 252.601 61.2488C252.601 61.3086 252.613 61.4125 252.645 61.5605C252.673 61.7085 252.689 61.8155 252.689 61.8722C252.749 62.1115 252.808 62.3194 252.868 62.4957C252.988 62.735 253.135 63.0027 253.314 63.2986C253.61 63.8339 253.968 64.3409 254.383 64.8164C255.213 65.7075 256.134 66.4821 257.147 67.1371C258.156 67.8518 259.256 68.299 260.445 68.4753C262.108 68.7146 263.683 68.447 265.166 67.6724V67.6755Z" fill="#FFFDF8"/>
<path d="M276.572 72.4933C273.828 72.4335 271.558 71.3566 269.816 69.3004C269.474 68.8596 269.169 68.403 268.908 67.9307L266.188 69.4862C265.267 69.9774 264.311 70.3805 263.337 70.6859C262.579 70.9787 261.693 71.2558 260.728 71.4951C259.231 71.9139 257.675 72.191 256.109 72.3107C254 72.3737 252.038 71.936 250.256 71.0134C248.898 70.2702 247.744 69.335 246.82 68.2235C246.203 67.4835 245.675 66.6743 245.248 65.8147C245.056 65.3707 244.874 64.9141 244.694 64.4323C243.952 62.1463 243.83 59.8161 244.32 57.4891C244.628 56.0659 245.222 54.7213 246.084 53.487C247.25 51.7677 248.81 50.4515 250.721 49.5887L251.802 49.1384C251.916 49.0818 252.129 48.9967 252.412 48.9023C252.705 48.8047 252.852 48.7669 252.95 48.7511L254.012 48.3985L255.172 48.1308C255.562 48.0175 256.213 47.8569 257.131 47.6396C258.011 47.4349 258.628 47.2743 258.964 47.161L258.998 47.1515C259.451 47.0382 259.913 46.8933 260.375 46.7201L260.419 46.7075C262.991 46.0368 265.248 45.4417 267.188 44.9285C267.119 44.1192 266.981 43.2785 266.779 42.422C266.547 41.4301 266.251 40.4571 265.905 39.5314C265.528 38.6686 264.968 37.8814 264.252 37.2138C263.199 36.3857 262.039 35.9826 260.709 35.9826C258.964 35.9826 257.339 36.4676 255.874 37.4279C254.902 38.1301 254.207 39.0779 253.824 40.2304C253.607 41.046 253.491 41.9024 253.491 42.7463C253.55 43.3698 253.519 43.9964 253.399 44.6136C253.384 44.7647 253.299 44.9568 253.025 45.1079C252.491 45.5236 251.413 45.6873 249.643 45.6244H249.639C248.97 45.6244 248.313 45.5614 247.7 45.4386C247.175 45.3095 246.662 45.1174 246.162 44.8655L246.134 44.8497C244.814 44.0562 244.66 43.1431 244.767 42.5196L244.779 42.4598C245.09 41.4616 245.625 40.5107 246.37 39.6384C247.228 38.4734 248.285 37.4815 249.507 36.6848C251.007 35.6016 252.676 34.7987 254.443 34.3075C255.955 33.8855 257.518 33.6399 259.09 33.5769C259.612 33.5171 260.168 33.4888 260.712 33.4888C262.416 33.5486 264.091 33.7627 265.71 34.1248C267.1 34.4271 268.445 34.8585 269.709 35.4001C271.331 36.2125 272.674 37.3398 273.724 38.7568C275.381 41.0302 276.189 43.5839 276.129 46.3517V61.9636C276.185 63.0374 276.333 64.1237 276.563 65.1691L276.569 65.2038C276.679 65.9847 276.905 66.7184 277.239 67.3891C277.399 67.7102 277.588 68.0094 277.795 68.2739C277.886 68.3652 278.009 68.4597 278.153 68.5573L278.172 68.5699H278.223L278.314 68.5951C278.49 68.6549 278.546 68.6612 278.55 68.6612H278.622L278.672 68.6832C279.769 69.0485 280.706 68.8753 281.536 68.1448L281.863 67.8582L283.532 69.6688L283.199 69.9711C282.511 70.5977 281.718 71.1047 280.848 71.4794L278.785 72.2225L277.716 72.402C277.342 72.465 276.956 72.4965 276.575 72.4965L276.572 72.4933ZM269.275 66.6932L269.486 67.1151C269.769 67.6788 270.112 68.2267 270.508 68.7368C272.089 70.6009 274.079 71.5424 276.582 71.599C276.905 71.599 277.239 71.5707 277.566 71.5172L278.594 71.344L280.514 70.645C281.137 70.3773 281.725 70.0246 282.253 69.5995L281.778 69.0831C280.797 69.7853 279.675 69.9396 278.44 69.5429C278.348 69.5303 278.241 69.5051 278.091 69.4578C277.871 69.4421 277.723 69.3602 277.628 69.2784C277.434 69.1461 277.273 69.017 277.141 68.8848L277.11 68.8501C276.855 68.5321 276.629 68.1763 276.434 67.789C276.06 67.0395 275.805 66.2177 275.679 65.3486C275.437 64.2591 275.286 63.1287 275.227 61.9888V46.3454C275.283 43.7697 274.532 41.3986 272.995 39.2889C272.033 37.9853 270.797 36.9493 269.323 36.2125C268.134 35.7024 266.842 35.293 265.506 35.0002C263.937 34.6507 262.315 34.4429 260.684 34.3862C260.19 34.3862 259.668 34.4145 259.143 34.4744C257.612 34.5342 256.116 34.7703 254.67 35.1734C253.003 35.6363 251.431 36.392 249.998 37.4248C248.844 38.1774 247.863 39.1 247.065 40.1832L247.046 40.2084C246.383 40.983 245.905 41.8237 245.628 42.6991C245.593 42.9132 245.556 43.4643 246.568 44.0783C247.005 44.2956 247.448 44.4624 247.885 44.5726C248.423 44.6797 249.023 44.7364 249.649 44.7364C251.758 44.812 252.331 44.5254 252.478 44.3963L252.532 44.3554C252.623 43.8453 252.642 43.3289 252.591 42.8156V42.7715C252.591 41.8426 252.714 40.9043 252.962 39.9785C253.412 38.6214 254.217 37.5256 255.361 36.6974C256.99 35.63 258.782 35.0947 260.702 35.0947C262.224 35.0947 263.607 35.5764 264.811 36.5305L264.836 36.5526C265.651 37.3051 266.286 38.1963 266.726 39.2007C267.094 40.1863 267.402 41.194 267.644 42.2236C267.886 43.2596 268.04 44.2767 268.1 45.2433L268.122 45.6086L267.766 45.7031C265.751 46.2384 263.381 46.8587 260.658 47.5735C260.177 47.753 259.696 47.9041 259.222 48.0238C258.851 48.1466 258.231 48.3103 257.326 48.5213C256.421 48.7322 255.786 48.8928 255.386 49.0062L254.226 49.2739L253.107 49.6486H253.035C253.054 49.6486 252.975 49.6643 252.686 49.7588C252.368 49.8658 252.224 49.9288 252.164 49.9571L251.067 50.4169C249.322 51.2072 247.885 52.4164 246.81 54.0034C246.012 55.1433 245.468 56.3808 245.185 57.6844C244.729 59.8539 244.845 62.0298 245.531 64.1458C245.7 64.596 245.876 65.04 246.052 65.4462C246.439 66.2177 246.93 66.9703 247.499 67.6567C248.351 68.6801 249.416 69.546 250.667 70.2293C252.305 71.0795 254.119 71.4794 256.056 71.4259C257.543 71.3125 259.042 71.0448 260.495 70.6386C261.435 70.4025 262.287 70.138 263.038 69.8483C263.988 69.5492 264.89 69.1713 265.751 68.7116L269.269 66.6995L269.275 66.6932ZM261.598 69.0044C261.196 69.0044 260.79 68.9761 260.382 68.9162C259.127 68.7273 257.955 68.2518 256.892 67.4993C255.874 66.8412 254.915 66.0351 254.06 65.1188C253.616 64.6118 253.239 64.0765 252.928 63.5129C252.746 63.2106 252.595 62.9366 252.472 62.691L252.45 62.6343C252.384 62.4391 252.321 62.2155 252.261 61.9731L252.249 61.866C252.249 61.866 252.249 61.8125 252.211 61.6393C252.183 61.5008 252.164 61.3874 252.161 61.2992C251.982 60.5089 251.89 59.6807 251.89 58.8305V58.7896C251.953 58.1221 252.044 57.4765 252.167 56.8657C252.478 55.6754 252.944 54.5576 253.557 53.5153C255.097 50.9837 257.493 49.2361 260.68 48.3135L260.74 48.2946H260.922C263.397 47.6459 265.635 47.0571 267.638 46.5249L268.197 46.3769V61.951C268.197 63.2106 268.401 64.4858 268.801 65.7422L268.911 66.0917L265.374 68.0598C264.176 68.6832 262.912 68.9981 261.598 68.9981V69.0044ZM253.283 62.3226C253.39 62.5399 253.531 62.7886 253.698 63.0689C253.987 63.5884 254.327 64.0733 254.72 64.5205C255.515 65.3738 256.417 66.1295 257.389 66.7593C258.351 67.4394 259.398 67.8645 260.511 68.0314C262.067 68.255 263.563 67.9999 264.956 67.2757L267.845 65.6698C267.487 64.4386 267.307 63.1917 267.307 61.9573V47.542C265.431 48.0395 263.362 48.5843 261.092 49.1794L260.979 49.1951H260.863C257.926 50.0548 255.726 51.667 254.317 53.9782C253.748 54.9449 253.315 55.9872 253.032 57.0735C252.922 57.6182 252.837 58.226 252.78 58.8526C252.78 59.6429 252.868 60.4113 253.035 61.1418L253.047 61.2425C253.047 61.2425 253.047 61.2992 253.082 61.463C253.11 61.6141 253.129 61.7212 253.132 61.803C253.179 61.992 253.23 62.1683 253.28 62.3194L253.283 62.3226Z" fill="#FFFDF8"/>
</svg>
