<svg width="62" height="61" viewBox="0 0 62 61" fill="none" xmlns="http://www.w3.org/2000/svg">
<g clip-path="url(#clip0_83_2986)">
<path d="M24.7464 24.0434C24.7464 21.6119 22.8504 21.0361 20.7443 21.0361H15.2646V27.189H21.1728C23.2628 27.189 24.7464 26.2822 24.7464 24.0434Z" fill="white"/>
<path d="M43.0546 27.2314C40.5219 27.2314 38.8342 28.7983 38.6685 31.31H47.277C47.0425 28.7682 45.7146 27.2314 43.0566 27.2314H43.0546Z" fill="white"/>
<path d="M21.6174 31.5708H15.2524V38.8371H21.4941C23.8751 38.8371 25.8135 37.9985 25.8135 35.3484C25.8115 32.6441 24.1904 31.5848 21.6174 31.5708Z" fill="white"/>
<path d="M51.0226 0.266602H10.9795C4.90761 0.266602 0 5.13754 0 11.164V49.3692C0 55.3957 4.90761 60.2666 10.9795 60.2666H51.0226C57.0944 60.2666 62.002 55.3957 62.002 49.3692V11.164C62.002 5.13754 57.0944 0.266602 51.0226 0.266602ZM37.6014 17.9167H48.3687V20.5107H37.6014V17.9167ZM22.2945 43.3427H9.41097V16.9698H21.9347C26.4886 16.9698 30.432 18.2457 30.432 23.4918C30.432 26.144 29.1869 27.448 26.8059 28.5734C30.0722 29.4942 31.6488 32.353 31.6488 35.6632C31.6508 41.0216 27.1253 43.3146 22.2945 43.3427ZM52.5486 34.62H38.6808C38.6808 37.6693 40.2998 39.4688 43.4004 39.4688C45.0053 39.4688 47.069 38.6182 47.5804 36.9812H52.2434C50.8043 41.3626 47.829 43.4089 43.2347 43.4089C37.1749 43.4089 33.3952 39.3304 33.3952 33.3801C33.3952 27.4299 37.369 23.2732 43.2347 23.2732C49.1003 23.2732 52.589 27.9836 52.589 33.6289C52.589 33.9599 52.5607 34.303 52.5486 34.6179V34.62Z" fill="white"/>
</g>
<defs>
<clipPath id="clip0_83_2986">
<rect width="62" height="60" fill="white" transform="translate(0 0.266602)"/>
</clipPath>
</defs>
</svg>
