<svg width="1440" height="266" viewBox="0 0 1440 266" fill="none" xmlns="http://www.w3.org/2000/svg">
<rect x="-77.3389" width="1673" height="59" transform="rotate(5.50614 -77.3389 0)" fill="#A9FE4B"/>
<path d="M-11.5755 46.5248L-9.82916 28.4088L-4.26495 28.9452C-2.12554 29.1514 -0.41008 29.6912 0.881418 30.5644C2.19183 31.4221 3.10916 32.5641 3.6334 33.9903C4.17655 35.4009 4.35665 37.0552 4.1737 38.9531C3.99408 40.8164 3.50296 42.3885 2.70035 43.6694C1.915 44.952 0.79726 45.8891 -0.652862 46.4807C-2.08573 47.0739 -3.87187 47.2674 -6.01129 47.0612L-11.5755 46.5248ZM-9.22694 44.9228L-5.88842 45.2446C-4.16308 45.4109 -2.7562 45.2679 -1.66778 44.8156C-0.560438 44.3477 0.277711 43.6013 0.846668 42.5765C1.41729 41.5345 1.77578 40.2543 1.92214 38.736C2.15997 36.2688 1.76691 34.385 0.742947 33.0848C-0.279353 31.7673 -2.02412 30.9896 -4.49135 30.7518L-7.82987 30.43L-9.22694 44.9228ZM6.44449 48.2619L8.19082 30.1459L19.3969 31.2261L19.2247 33.0118L10.1926 32.1412L9.6263 38.0159L17.5197 38.7768L17.3501 40.5367L9.45665 39.7758L8.79055 46.6857L17.8227 47.5564L17.6505 49.3421L6.44449 48.2619ZM26.7939 50.537C25.5689 50.4189 24.4777 50.0873 23.5202 49.5423C22.58 48.9989 21.8573 48.2762 21.3522 47.3742C20.866 46.4567 20.682 45.3854 20.8001 44.1604L23.0775 44.38C22.9611 45.5877 23.2656 46.5835 23.9911 47.3674C24.7182 48.134 25.7115 48.5781 26.971 48.6995C28.0752 48.8059 29.0154 48.6266 29.7916 48.1616C30.5851 47.6983 31.0292 46.9749 31.124 45.9915C31.1889 45.3186 31.1196 44.7721 30.9164 44.352C30.732 43.9163 30.4193 43.5466 29.9784 43.2429C29.5392 42.9219 28.9775 42.6066 28.2934 42.2968C27.6093 41.9871 26.8 41.6217 25.8654 41.2008C25.0327 40.8071 24.3249 40.3819 23.742 39.9252C23.1764 39.4701 22.7571 38.9421 22.4842 38.3412C22.2129 37.723 22.1164 37.0084 22.1946 36.1975C22.2804 35.1261 22.6084 34.2522 23.1786 33.5758C23.7678 32.8838 24.512 32.3896 25.4112 32.0932C26.3294 31.7812 27.3147 31.6759 28.3672 31.7774C29.4369 31.8805 30.3753 32.1712 31.1825 32.6495C32.0085 33.1123 32.6438 33.7481 33.0882 34.5572C33.5343 35.349 33.7144 36.2806 33.6285 37.3519L31.3511 37.1324C31.4392 36.218 31.1838 35.4358 30.5847 34.786C29.9873 34.119 29.1623 33.7347 28.1099 33.6332C27.1815 33.5089 26.3654 33.6653 25.6616 34.1025C24.9577 34.5396 24.5592 35.2413 24.4661 36.2075C24.4045 36.8459 24.4849 37.3673 24.7071 37.7718C24.9482 38.1608 25.3833 38.5249 26.0123 38.8641C26.6413 39.2034 27.5147 39.6271 28.6324 40.1354C29.434 40.4913 30.1476 40.8561 30.7733 41.2299C31.4006 41.5864 31.9186 41.9933 32.3273 42.4506C32.7376 42.8907 33.0361 43.407 33.2228 43.9997C33.4111 44.5751 33.4662 45.2682 33.388 46.0791C33.2833 47.1661 32.9096 48.0617 32.2671 48.766C31.6434 49.4546 30.8466 49.9525 29.8767 50.2595C28.9257 50.5509 27.8981 50.6434 26.7939 50.537ZM36.0144 51.1124L37.7608 32.9963L39.9347 33.2059L38.1884 51.3219L36.0144 51.1124ZM49.7895 52.7537C48.0642 52.5874 46.6014 52.0458 45.4011 51.1291C44.2198 50.1968 43.3428 48.9978 42.7701 47.5321C42.2164 46.0508 42.0268 44.4043 42.2014 42.5927C42.3744 40.7984 42.8742 39.2271 43.7007 37.8788C44.5272 36.5306 45.6352 35.5142 47.0246 34.8297C48.4157 34.1279 50.0429 33.8668 51.9063 34.0465C53.9422 34.2427 55.5856 34.8974 56.8365 36.0106C58.1048 37.1254 58.8541 38.5646 59.0846 40.3282L56.5743 40.0862C56.4375 38.976 55.9427 38.0576 55.0898 37.3311C54.2541 36.6062 53.1289 36.1756 51.7142 36.0392C50.2821 35.9012 49.0428 36.1126 47.9962 36.6734C46.9495 37.2342 46.122 38.0513 45.5135 39.1245C44.924 40.1821 44.5618 41.4097 44.4271 42.8073C44.2908 44.222 44.4187 45.5143 44.8109 46.684C45.2032 47.8537 45.843 48.8034 46.7304 49.5333C47.6178 50.2631 48.7257 50.6921 50.0542 50.8202C51.9866 51.0064 53.4986 50.5862 54.5901 49.5596C55.6833 48.5157 56.3938 47.0169 56.7214 45.0633L50.1996 44.4346L50.3643 42.7266L59.1117 43.5698L58.1787 53.2489L56.1859 53.0568L56.2917 50.0632C55.5346 51.0524 54.6541 51.786 53.6503 52.2639C52.6465 52.7418 51.3595 52.905 49.7895 52.7537ZM61.6165 53.5803L63.3628 35.4643L65.5367 35.6739L73.7904 51.1231L75.19 36.6044L77.3639 36.814L75.6176 54.93L73.4437 54.7204L65.19 39.2712L63.7904 53.7899L61.6165 53.5803ZM105.08 58.0313L106.202 51.8182L99.9206 51.9441L105.025 48.3091L100.714 43.7143L106.85 45.0894L106.936 38.7766L110.401 44.0212L114.856 39.54L113.683 45.7481L119.969 45.5704L114.859 49.2572L119.175 53.8002L113.034 52.4769L113 58.7947L109.488 53.4933L105.08 58.0313ZM142.441 61.3716L144.187 43.2556L150.166 43.8319C151.442 43.9549 152.52 44.2503 153.398 44.718C154.275 45.1858 154.928 45.8233 155.355 46.6307C155.782 47.4381 155.941 48.4111 155.831 49.5499C155.718 50.7231 155.357 51.6635 154.749 52.3711C154.159 53.0803 153.38 53.5712 152.413 53.8437C151.464 54.1179 150.385 54.1968 149.178 54.0803L145.373 53.7136L144.615 61.5811L142.441 61.3716ZM145.55 51.8761L149.303 52.2379C150.752 52.3776 151.806 52.2005 152.463 51.7066C153.121 51.1954 153.502 50.405 153.605 49.3353C153.71 48.2483 153.487 47.3997 152.937 46.7894C152.388 46.1618 151.389 45.7782 149.939 45.6385L146.187 45.2767L145.55 51.8761ZM157.428 62.8163L159.175 44.7003L164.532 45.2167C165.808 45.3398 166.877 45.6343 167.738 46.1004C168.6 46.5492 169.237 47.1678 169.648 47.9563C170.06 48.7448 170.211 49.7084 170.101 50.8471C169.965 52.2619 169.491 53.2958 168.679 53.9489C167.884 54.6037 166.847 54.9826 165.566 55.0854L169.954 64.0238L167.263 63.7643L163.378 55.2925L160.376 55.0031L159.602 63.0259L157.428 62.8163ZM160.553 53.1656L163.684 53.4674C164.65 53.5606 165.429 53.5224 166.02 53.353C166.613 53.1664 167.053 52.8431 167.341 52.3833C167.629 51.9235 167.807 51.3399 167.875 50.6325C167.945 49.9079 167.883 49.2924 167.688 48.786C167.493 48.2796 167.121 47.8868 166.574 47.6077C166.028 47.3112 165.272 47.1165 164.305 47.0233L161.174 46.7214L160.553 53.1656ZM180.464 65.3503C179.083 65.2173 177.864 64.8646 176.804 64.2923C175.747 63.7028 174.87 62.9479 174.175 62.0276C173.481 61.1074 172.981 60.0579 172.677 58.8793C172.39 57.7023 172.31 56.4496 172.438 55.121C172.566 53.7925 172.884 52.578 173.39 51.4776C173.914 50.3788 174.605 49.4441 175.463 48.6735C176.321 47.9029 177.316 47.3371 178.447 46.9761C179.598 46.5994 180.872 46.4784 182.27 46.6132C183.65 46.7462 184.861 47.0981 185.903 47.6687C186.964 48.2237 187.842 48.9614 188.537 49.8816C189.234 50.7846 189.733 51.8341 190.036 53.03C190.34 54.2086 190.427 55.4794 190.295 56.8424C190.164 58.2054 189.836 59.445 189.31 60.561C188.786 61.6598 188.095 62.5945 187.237 63.3651C186.381 64.1184 185.378 64.6748 184.229 65.0342C183.099 65.378 181.844 65.4834 180.464 65.3503ZM180.648 63.4352C182.063 63.5716 183.302 63.3688 184.364 62.8269C185.426 62.285 186.27 61.4782 186.896 60.4067C187.539 59.3368 187.93 58.0772 188.07 56.6279C188.213 55.1441 188.07 53.8243 187.642 52.6685C187.232 51.4972 186.557 50.5527 185.616 49.8351C184.675 49.1175 183.498 48.6905 182.083 48.5542C180.685 48.4194 179.455 48.623 178.393 49.165C177.331 49.7069 176.478 50.5128 175.835 51.5827C175.194 52.6353 174.804 53.8863 174.664 55.3356C174.526 56.7676 174.669 58.0788 175.094 59.2691C175.521 60.4421 176.204 61.396 177.143 62.1309C178.082 62.8657 179.251 63.3005 180.648 63.4352ZM200.318 67.2642C198.593 67.0979 197.13 66.5564 195.93 65.6397C194.749 64.7074 193.872 63.5083 193.299 62.0426C192.745 60.5613 192.556 58.9149 192.73 57.1033C192.903 55.3089 193.403 53.7376 194.229 52.3894C195.056 51.0411 196.164 50.0247 197.553 49.3402C198.944 48.6385 200.572 48.3774 202.435 48.557C204.471 48.7533 206.114 49.408 207.365 50.5212C208.634 51.636 209.383 53.0752 209.613 54.8388L207.103 54.5968C206.966 53.4866 206.471 52.5682 205.619 51.8417C204.783 51.1168 203.658 50.6862 202.243 50.5498C200.811 50.4118 199.572 50.6231 198.525 51.184C197.478 51.7448 196.651 52.5618 196.042 53.6351C195.453 54.6927 195.091 55.9203 194.956 57.3178C194.82 58.7326 194.947 60.0248 195.34 61.1945C195.732 62.3642 196.372 63.314 197.259 64.0439C198.147 64.7737 199.255 65.2027 200.583 65.3307C202.515 65.517 204.027 65.0968 205.119 64.0701C206.212 63.0262 206.923 61.5275 207.25 59.5739L200.728 58.9452L200.893 57.2371L209.641 58.0804L208.707 67.7595L206.715 67.5674L206.82 64.5737C206.063 65.563 205.183 66.2966 204.179 66.7744C203.175 67.2523 201.888 67.4156 200.318 67.2642ZM212.145 68.0909L213.892 49.9749L219.249 50.4913C220.526 50.6144 221.594 50.9089 222.455 51.375C223.317 51.8238 223.954 52.4424 224.366 53.2309C224.777 54.0193 224.928 54.9829 224.818 56.1217C224.682 57.5364 224.208 58.5704 223.396 59.2235C222.602 59.8783 221.564 60.2571 220.283 60.36L224.671 69.2984L221.98 69.0389L218.095 60.567L215.093 60.2776L214.319 68.3004L212.145 68.0909ZM215.27 58.4402L218.401 58.742C219.367 58.8352 220.146 58.797 220.737 58.6276C221.33 58.4409 221.77 58.1177 222.058 57.6579C222.346 57.1981 222.524 56.6145 222.593 55.9071C222.662 55.1825 222.6 54.567 222.405 54.0606C222.21 53.5542 221.839 53.1614 221.291 52.8822C220.745 52.5858 219.989 52.391 219.022 52.2979L215.891 51.996L215.27 58.4402ZM226.348 69.4599L234.771 51.9876L237.074 52.2096L241.979 70.9668L239.676 70.7447L238.469 65.9267L230.756 65.1832L228.625 69.6795L226.348 69.4599ZM231.573 63.4858L237.991 64.1045L235.645 54.8406L231.573 63.4858ZM244.672 71.2264L246.419 53.1104L248.955 53.3549L254.005 66.5363L261.429 54.5573L263.991 54.8043L262.245 72.9203L260.071 72.7108L261.438 58.5285L254.523 69.5639L252.893 69.4068L248.211 57.2796L246.846 71.436L244.672 71.2264ZM264.94 73.1802L273.364 55.7078L275.667 55.9298L280.572 74.687L278.268 74.465L277.061 69.6469L269.349 68.9035L267.218 73.3997L264.94 73.1802ZM270.165 67.206L276.584 67.8247L274.238 58.5608L270.165 67.206ZM290.144 75.9232C288.315 75.7469 286.793 75.1909 285.577 74.2553C284.363 73.3024 283.487 72.0861 282.951 70.6065C282.414 69.1268 282.232 67.4985 282.403 65.7214C282.573 63.9615 283.053 62.4058 283.845 61.0542C284.655 59.7043 285.746 58.6777 287.12 57.9742C288.494 57.2708 290.104 57.0081 291.95 57.186C294.02 57.3856 295.654 58.0481 296.852 59.1736C298.068 60.2834 298.772 61.7443 298.963 63.5564L296.556 63.3243C296.388 62.1763 295.905 61.2242 295.108 60.4682C294.329 59.6965 293.215 59.2409 291.765 59.1012C290.333 58.9631 289.11 59.1848 288.097 59.7662C287.085 60.3304 286.283 61.1499 285.692 62.2248C285.118 63.3013 284.763 64.5384 284.629 65.9359C284.491 67.3679 284.609 68.668 284.984 69.836C285.376 71.0057 286.015 71.9641 286.901 72.7112C287.788 73.4411 288.931 73.8733 290.328 74.0081C291.778 74.1478 292.957 73.9306 293.865 73.3564C294.793 72.7667 295.448 71.933 295.83 70.8554L298.237 71.0874C297.707 72.7951 296.739 74.0775 295.333 74.9345C293.944 75.7932 292.214 76.1228 290.144 75.9232ZM287.664 82.1359L287.796 80.7643L290.177 80.9938C291.351 81.1069 291.977 80.7494 292.057 79.9212C292.132 79.1448 291.583 78.7001 290.409 78.587L289.141 78.4647L289.466 75.1003L290.915 75.24L290.715 77.3104C291.373 77.3564 291.943 77.4897 292.427 77.7105C292.909 77.9485 293.27 78.2706 293.509 78.6768C293.766 79.0846 293.868 79.5646 293.814 80.1167C293.763 80.6516 293.581 81.0955 293.268 81.4485C292.971 81.8203 292.58 82.0873 292.094 82.2495C291.608 82.4116 291.055 82.4627 290.433 82.4029L287.664 82.1359ZM299.287 76.4911L307.71 59.0187L310.013 59.2407L314.918 77.9979L312.615 77.7759L311.408 72.9578L303.695 72.2144L301.564 76.7106L299.287 76.4911ZM304.512 70.5169L310.93 71.1356L308.584 61.8718L304.512 70.5169ZM310.412 57.8164C309.946 57.7715 309.577 57.6314 309.303 57.3961C309.03 57.1608 308.773 56.9357 308.532 56.721C308.294 56.489 307.967 56.3531 307.553 56.3132C306.932 56.2533 306.532 56.6066 306.354 57.373L305.086 57.2507C305.291 56.3825 305.631 55.7534 306.103 55.3637C306.576 54.9739 307.141 54.8106 307.796 54.8739C308.262 54.9188 308.632 55.0589 308.905 55.2942C309.18 55.5122 309.437 55.7373 309.676 55.9693C309.932 56.2029 310.258 56.3389 310.655 56.3771C310.931 56.4037 311.182 56.3321 311.407 56.1623C311.633 55.9925 311.79 55.7116 311.88 55.3198L313.148 55.442C312.963 56.2775 312.625 56.8979 312.133 57.3032C311.641 57.7085 311.068 57.8796 310.412 57.8164ZM325.811 79.3614C324.431 79.2284 323.211 78.8757 322.152 78.3034C321.094 77.7139 320.218 76.959 319.523 76.0387C318.828 75.1185 318.329 74.069 318.024 72.8904C317.737 71.7134 317.658 70.4607 317.786 69.1322C317.914 67.8037 318.231 66.5892 318.738 65.4887C319.262 64.3899 319.953 63.4552 320.81 62.6846C321.668 61.9141 322.663 61.3482 323.795 60.9872C324.946 60.6105 326.22 60.4896 327.618 60.6243C328.998 60.7573 330.209 61.1092 331.251 61.6798C332.312 62.2348 333.19 62.9725 333.885 63.8927C334.581 64.7957 335.081 65.8452 335.384 67.0411C335.688 68.2197 335.774 69.4905 335.643 70.8536C335.512 72.2166 335.183 73.4561 334.658 74.5722C334.134 75.671 333.443 76.6057 332.585 77.3762C331.729 78.1295 330.726 78.6859 329.577 79.0453C328.447 79.3891 327.192 79.4945 325.811 79.3614ZM325.996 77.4463C327.411 77.5827 328.649 77.3799 329.712 76.838C330.774 76.2961 331.618 75.4894 332.243 74.4178C332.886 73.3479 333.278 72.0883 333.417 70.639C333.56 69.1552 333.418 67.8354 332.989 66.6797C332.58 65.5083 331.905 64.5638 330.964 63.8462C330.023 63.1287 328.845 62.7017 327.43 62.5653C326.033 62.4306 324.803 62.6342 323.741 63.1761C322.679 63.718 321.826 64.5239 321.183 65.5938C320.542 66.6465 320.151 67.8974 320.012 69.3467C319.874 70.7787 320.017 72.0899 320.442 73.2802C320.869 74.4532 321.552 75.4071 322.491 76.142C323.43 76.8768 324.598 77.3116 325.996 77.4463ZM363.527 82.9449L364.648 76.7318L358.367 76.8577L363.471 73.2227L359.16 68.6278L365.297 70.003L365.383 63.6901L368.848 68.9348L373.302 64.4535L372.129 70.6616L378.415 70.4839L373.306 74.1707L377.622 78.7138L371.48 77.3904L371.446 83.7083L367.935 78.4069L363.527 82.9449ZM406.629 87.152C405.404 87.0339 404.313 86.7024 403.355 86.1573C402.415 85.6139 401.692 84.8912 401.187 83.9893C400.701 83.0717 400.517 82.0005 400.635 80.7755L402.912 80.995C402.796 82.2027 403.101 83.1986 403.826 83.9825C404.553 84.7491 405.546 85.1931 406.806 85.3145C407.91 85.421 408.85 85.2417 409.627 84.7767C410.42 84.3134 410.864 83.59 410.959 82.6065C411.024 81.9337 410.955 81.3872 410.751 80.967C410.567 80.5313 410.254 80.1616 409.813 79.8579C409.374 79.537 408.813 79.2216 408.128 78.9119C407.444 78.6021 406.635 78.2368 405.7 77.8159C404.868 77.4221 404.16 76.9969 403.577 76.5402C403.011 76.0852 402.592 75.5572 402.319 74.9562C402.048 74.338 401.951 73.6234 402.03 72.8125C402.115 71.7412 402.443 70.8673 403.014 70.1909C403.603 69.4989 404.347 69.0047 405.246 68.7082C406.164 68.3962 407.15 68.291 408.202 68.3924C409.272 68.4955 410.21 68.7863 411.017 69.2646C411.844 69.7273 412.479 70.3632 412.923 71.1722C413.369 71.964 413.549 72.8956 413.464 73.967L411.186 73.7474C411.274 72.833 411.019 72.0509 410.42 71.4011C409.822 70.734 408.997 70.3498 407.945 70.2483C407.017 70.124 406.2 70.2804 405.497 70.7175C404.793 71.1547 404.394 71.8564 404.301 72.8225C404.24 73.4609 404.32 73.9824 404.542 74.3869C404.783 74.7758 405.218 75.1399 405.847 75.4792C406.476 75.8184 407.35 76.2422 408.467 76.7504C409.269 77.1063 409.983 77.4711 410.608 77.8449C411.236 78.2014 411.754 78.6083 412.162 79.0657C412.573 79.5057 412.871 80.0221 413.058 80.6147C413.246 81.1901 413.301 81.8833 413.223 82.6942C413.118 83.7811 412.745 84.6767 412.102 85.381C411.478 86.0697 410.682 86.5675 409.712 86.8745C408.761 87.166 407.733 87.2585 406.629 87.152ZM424.049 88.8313C422.669 88.6983 421.449 88.3456 420.39 87.7733C419.332 87.1838 418.456 86.4289 417.761 85.5086C417.066 84.5883 416.567 83.5389 416.262 82.3603C415.975 81.1833 415.896 79.9305 416.024 78.602C416.152 77.2735 416.469 76.059 416.976 74.9586C417.5 73.8598 418.191 72.9251 419.048 72.1545C419.906 71.3839 420.901 70.8181 422.033 70.4571C423.184 70.0804 424.458 69.9594 425.856 70.0942C427.236 70.2272 428.447 70.5791 429.489 71.1497C430.55 71.7047 431.428 72.4423 432.123 73.3626C432.819 74.2656 433.319 75.3151 433.622 76.5109C433.926 77.6896 434.012 78.9604 433.881 80.3234C433.75 81.6864 433.421 82.926 432.896 84.042C432.372 85.1408 431.681 86.0755 430.823 86.8461C429.967 87.5994 428.964 88.1558 427.815 88.5152C426.685 88.859 425.43 88.9644 424.049 88.8313ZM424.234 86.9162C425.649 87.0526 426.887 86.8498 427.949 86.3079C429.012 85.766 429.856 84.9592 430.481 83.8877C431.124 82.8178 431.516 81.5582 431.655 80.1089C431.798 78.6251 431.656 77.3053 431.227 76.1495C430.818 74.9782 430.143 74.0337 429.202 73.3161C428.261 72.5985 427.083 72.1715 425.668 72.0352C424.271 71.9004 423.041 72.104 421.979 72.646C420.917 73.1879 420.064 73.9938 419.421 75.0637C418.78 76.1163 418.389 77.3673 418.25 78.8166C418.111 80.2486 418.255 81.5598 418.68 82.7501C419.107 83.9231 419.79 84.877 420.729 85.6119C421.668 86.3467 422.836 86.7815 424.234 86.9162ZM444.059 90.7602C442.23 90.5839 440.708 90.0279 439.492 89.0923C438.278 88.1394 437.403 86.9231 436.866 85.4435C436.33 83.9638 436.147 82.3355 436.318 80.5584C436.488 78.7985 436.969 77.2428 437.761 75.8913C438.57 74.5413 439.662 73.5147 441.036 72.8113C442.409 72.1078 444.019 71.8451 445.865 72.0231C447.936 72.2226 449.57 72.8852 450.767 74.0106C451.984 75.1204 452.688 76.5814 452.879 78.3934L450.472 78.1614C450.304 77.0133 449.821 76.0612 449.023 75.3052C448.244 74.5336 447.13 74.0779 445.681 73.9382C444.249 73.8001 443.026 74.0218 442.012 74.6032C441 75.1674 440.198 75.9869 439.607 77.0618C439.033 78.1384 438.679 79.3754 438.544 80.7729C438.406 82.205 438.525 83.505 438.9 84.673C439.292 85.8427 439.931 86.8011 440.817 87.5482C441.704 88.2781 442.846 88.7104 444.244 88.8451C445.693 88.9848 446.872 88.7676 447.781 88.1934C448.708 87.6037 449.363 86.7701 449.746 85.6925L452.153 85.9245C451.622 87.6321 450.654 88.9145 449.248 89.7715C447.859 90.6302 446.13 90.9598 444.059 90.7602ZM454.771 91.4793L456.517 73.3633L458.691 73.5728L456.945 91.6889L454.771 91.4793ZM459.647 91.9494L468.07 74.477L470.374 74.699L475.279 93.4562L472.975 93.2342L471.768 88.4161L464.056 87.6727L461.924 92.1689L459.647 91.9494ZM464.872 85.9752L471.291 86.5939L468.945 77.33L464.872 85.9752ZM477.972 93.7158L479.718 75.5998L481.892 75.8094L480.313 92.1914L488.75 93.0047L488.582 94.7387L477.972 93.7158ZM498.418 95.6868L500.164 77.5708L502.7 77.8152L507.751 90.9967L515.175 79.0177L517.737 79.2647L515.99 97.3807L513.817 97.1712L515.184 82.9889L508.269 94.0243L506.638 93.8672L501.956 81.74L500.592 95.8963L498.418 95.6868ZM519.825 97.7503L521.571 79.6343L532.777 80.7145L532.605 82.5003L523.573 81.6296L523.006 87.5043L530.9 88.2653L530.73 90.0251L522.837 89.2642L522.171 96.1742L531.203 97.0448L531.031 98.8306L519.825 97.7503ZM534.433 99.1585L536.179 81.0425L541.743 81.5788C543.883 81.7851 545.598 82.3248 546.889 83.1981C548.2 84.0558 549.117 85.1978 549.641 86.624C550.185 88.0346 550.365 89.6889 550.182 91.5867C550.002 93.4501 549.511 95.0222 548.708 96.3031C547.923 97.5857 546.805 98.5228 545.355 99.1143C543.922 99.7076 542.136 99.9011 539.997 99.6949L534.433 99.1585ZM536.781 97.5565L540.12 97.8783C541.845 98.0446 543.252 97.9016 544.34 97.4493C545.448 96.9814 546.286 96.235 546.855 95.2102C547.425 94.1682 547.784 92.888 547.93 91.3697C548.168 88.9025 547.775 87.0187 546.751 85.7185C545.729 84.401 543.984 83.6233 541.517 83.3855L538.178 83.0636L536.781 97.5565ZM552.453 100.896L554.199 82.7796L556.373 82.9891L554.626 101.105L552.453 100.896ZM557.329 101.366L565.752 83.8933L568.056 84.1153L572.96 102.872L570.657 102.65L569.45 97.8324L561.738 97.0889L559.606 101.585L557.329 101.366ZM562.554 95.3915L568.973 96.0102L566.627 86.7463L562.554 95.3915ZM607.871 106.499L608.992 100.286L602.711 100.412L607.815 96.7768L603.504 92.1819L609.641 93.5571L609.727 87.2442L613.192 92.4888L617.646 88.0076L616.473 94.2157L622.759 94.038L617.65 97.7248L621.966 102.268L615.824 100.944L615.79 107.262L612.279 101.961L607.871 106.499ZM645.231 109.839L646.978 91.7232L649.152 91.9327L647.405 110.049L645.231 109.839ZM651.247 110.419L652.993 92.303L658.557 92.8394C660.697 93.0456 662.412 93.5854 663.703 94.4587C665.014 95.3164 665.931 96.4583 666.455 97.8845C666.999 99.2952 667.179 100.949 666.996 102.847C666.816 104.711 666.325 106.283 665.522 107.564C664.737 108.846 663.619 109.783 662.169 110.375C660.736 110.968 658.95 111.162 656.811 110.955L651.247 110.419ZM653.595 108.817L656.934 109.139C658.659 109.305 660.066 109.162 661.154 108.71C662.262 108.242 663.1 107.496 663.669 106.471C664.239 105.429 664.598 104.149 664.744 102.63C664.982 100.163 664.589 98.2793 663.565 96.979C662.543 95.6615 660.798 94.8838 658.331 94.646L654.992 94.3242L653.595 108.817ZM669.267 112.156L671.013 94.0401L682.219 95.1203L682.047 96.9061L673.015 96.0354L672.448 101.91L680.342 102.671L680.172 104.431L672.279 103.67L671.613 110.58L680.645 111.451L680.473 113.236L669.267 112.156ZM683.875 113.564L685.621 95.4483L687.795 95.6578L696.049 111.107L697.448 96.5884L699.622 96.7979L697.876 114.914L695.702 114.704L687.448 99.2552L686.049 113.774L683.875 113.564ZM705.962 115.693L707.536 99.3632L702.127 98.8418L702.299 97.056L715.291 98.3084L715.119 100.094L709.71 99.5727L708.136 115.903L705.962 115.693ZM716.199 116.68L717.946 98.5643L720.12 98.7739L718.373 116.89L716.199 116.68ZM722.214 117.26L723.961 99.1441L729.525 99.6805C731.664 99.8867 733.38 100.427 734.671 101.3C735.982 102.157 736.899 103.299 737.423 104.726C737.967 106.136 738.147 107.791 737.964 109.688C737.784 111.552 737.293 113.124 736.49 114.405C735.705 115.687 734.587 116.624 733.137 117.216C731.704 117.809 729.918 118.003 727.779 117.797L722.214 117.26ZM724.563 115.658L727.902 115.98C729.627 116.146 731.034 116.003 732.122 115.551C733.23 115.083 734.068 114.337 734.637 113.312C735.207 112.27 735.566 110.99 735.712 109.471C735.95 107.004 735.557 105.12 734.533 103.82C733.511 102.503 731.766 101.725 729.299 101.487L725.96 101.165L724.563 115.658ZM737.807 118.763L746.23 101.291L748.533 101.513L753.438 120.27L751.135 120.048L749.928 115.23L742.215 114.487L740.084 118.983L737.807 118.763ZM743.032 112.789L749.45 113.408L747.104 104.144L743.032 112.789ZM756.131 120.53L757.878 102.414L763.442 102.95C765.581 103.156 767.297 103.696 768.588 104.569C769.899 105.427 770.816 106.569 771.34 107.995C771.884 109.406 772.064 111.06 771.881 112.958C771.701 114.821 771.21 116.393 770.407 117.674C769.622 118.957 768.504 119.894 767.054 120.486C765.621 121.079 763.835 121.272 761.696 121.066L756.131 120.53ZM758.48 118.928L761.819 119.249C763.544 119.416 764.951 119.273 766.039 118.82C767.147 118.353 767.985 117.606 768.554 116.581C769.124 115.539 769.483 114.259 769.629 112.741C769.867 110.274 769.474 108.39 768.45 107.09C767.428 105.772 765.683 104.994 763.216 104.757L759.877 104.435L758.48 118.928ZM774.151 122.267L775.898 104.151L787.104 105.231L786.932 107.017L777.9 106.146L777.333 112.021L785.227 112.782L785.057 114.542L777.164 113.781L776.498 120.691L785.53 121.561L785.358 123.347L774.151 122.267ZM814.38 126.406L815.502 120.193L809.221 120.319L814.325 116.684L810.014 112.089L816.15 113.464L816.236 107.151L819.701 112.396L824.156 107.915L822.983 114.123L829.269 113.945L824.159 117.632L828.475 122.175L822.334 120.851L822.3 127.169L818.788 121.868L814.38 126.406ZM851.741 129.746L853.487 111.63L864.693 112.71L864.521 114.496L855.489 113.625L854.923 119.5L862.816 120.261L862.647 122.021L854.753 121.26L854.087 128.17L863.119 129.041L862.947 130.826L851.741 129.746ZM866.349 131.154L868.095 113.038L873.66 113.575C875.799 113.781 877.514 114.321 878.806 115.194C880.116 116.052 881.034 117.194 881.558 118.62C882.101 120.03 882.281 121.685 882.098 123.583C881.919 125.446 881.428 127.018 880.625 128.299C879.84 129.582 878.722 130.519 877.272 131.11C875.839 131.703 874.053 131.897 871.913 131.691L866.349 131.154ZM868.698 129.552L872.036 129.874C873.761 130.04 875.168 129.897 876.257 129.445C877.364 128.977 878.202 128.231 878.771 127.206C879.342 126.164 879.7 124.884 879.847 123.366C880.085 120.898 879.691 119.015 878.668 117.714C877.645 116.397 875.9 115.619 873.433 115.381L870.095 115.059L868.698 129.552ZM884.369 132.891L886.115 114.775L888.289 114.985L886.543 133.101L884.369 132.891ZM894.628 133.88L896.203 117.55L890.794 117.029L890.966 115.243L903.958 116.495L903.786 118.281L898.377 117.76L896.802 134.09L894.628 133.88ZM912.156 135.883C910.776 135.75 909.556 135.398 908.497 134.825C907.439 134.236 906.563 133.481 905.868 132.561C905.173 131.64 904.673 130.591 904.369 129.412C904.082 128.235 904.002 126.983 904.13 125.654C904.258 124.326 904.576 123.111 905.082 122.011C905.606 120.912 906.297 119.977 907.155 119.207C908.013 118.436 909.008 117.87 910.14 117.509C911.29 117.133 912.565 117.012 913.962 117.146C915.342 117.279 916.554 117.631 917.596 118.202C918.657 118.757 919.535 119.494 920.229 120.415C920.926 121.318 921.426 122.367 921.728 123.563C922.033 124.742 922.119 126.013 921.988 127.376C921.856 128.739 921.528 129.978 921.002 131.094C920.478 132.193 919.788 133.128 918.93 133.898C918.073 134.652 917.071 135.208 915.922 135.567C914.791 135.911 913.536 136.016 912.156 135.883ZM912.341 133.968C913.755 134.105 914.994 133.902 916.056 133.36C917.118 132.818 917.962 132.011 918.588 130.94C919.231 129.87 919.622 128.61 919.762 127.161C919.905 125.677 919.762 124.357 919.334 123.202C918.924 122.03 918.249 121.086 917.308 120.368C916.368 119.651 915.19 119.224 913.775 119.087C912.377 118.953 911.148 119.156 910.085 119.698C909.023 120.24 908.171 121.046 907.528 122.116C906.886 123.168 906.496 124.419 906.356 125.869C906.218 127.301 906.362 128.612 906.787 129.802C907.213 130.975 907.896 131.929 908.836 132.664C909.775 133.399 910.943 133.834 912.341 133.968ZM924.251 136.736L925.997 118.62L931.354 119.136C932.631 119.259 933.7 119.554 934.56 120.02C935.422 120.469 936.059 121.087 936.471 121.876C936.882 122.664 937.033 123.628 936.924 124.767C936.787 126.181 936.313 127.215 935.501 127.869C934.707 128.523 933.669 128.902 932.388 129.005L936.777 137.943L934.085 137.684L930.2 129.212L927.198 128.923L926.425 136.945L924.251 136.736ZM927.375 127.085L930.507 127.387C931.473 127.48 932.251 127.442 932.842 127.273C933.435 127.086 933.875 126.763 934.163 126.303C934.452 125.843 934.63 125.26 934.698 124.552C934.768 123.827 934.705 123.212 934.51 122.706C934.315 122.199 933.944 121.806 933.396 121.527C932.85 121.231 932.094 121.036 931.128 120.943L927.996 120.641L927.375 127.085ZM939.592 138.215L941.338 120.099L943.512 120.308L941.766 138.424L939.592 138.215ZM944.468 138.685L952.891 121.212L955.195 121.434L960.099 140.192L957.796 139.97L956.589 135.152L948.877 134.408L946.745 138.904L944.468 138.685ZM949.693 132.711L956.112 133.329L953.766 124.065L949.693 132.711ZM962.793 140.451L964.539 122.335L966.713 122.545L965.134 138.927L973.571 139.74L973.403 141.474L962.793 140.451ZM1002.01 144.493L1003.13 138.28L996.851 138.406L1001.96 134.771L997.644 130.176L1003.78 131.551L1003.87 125.238L1007.33 130.483L1011.79 126.002L1010.61 132.21L1016.9 132.032L1011.79 135.719L1016.11 140.262L1009.96 138.938L1009.93 145.256L1006.42 139.955L1002.01 144.493ZM1039.37 147.833L1041.12 129.717L1043.29 129.927L1041.55 148.043L1039.37 147.833ZM1045.39 148.413L1047.13 130.297L1049.67 130.542L1054.72 143.723L1062.14 131.744L1064.71 131.991L1062.96 150.107L1060.78 149.897L1062.15 135.715L1055.24 146.751L1053.61 146.593L1048.92 134.466L1047.56 148.623L1045.39 148.413ZM1066.79 150.477L1068.54 132.361L1074.52 132.937C1075.79 133.06 1076.87 133.355 1077.75 133.823C1078.63 134.291 1079.28 134.928 1079.71 135.736C1080.13 136.543 1080.29 137.516 1080.18 138.655C1080.07 139.828 1079.71 140.768 1079.1 141.476C1078.51 142.185 1077.73 142.676 1076.77 142.949C1075.82 143.223 1074.74 143.302 1073.53 143.185L1069.73 142.819L1068.97 150.686L1066.79 150.477ZM1069.9 140.981L1073.66 141.343C1075.1 141.483 1076.16 141.305 1076.81 140.812C1077.47 140.3 1077.85 139.51 1077.96 138.44C1078.06 137.353 1077.84 136.505 1077.29 135.894C1076.74 135.267 1075.74 134.883 1074.29 134.743L1070.54 134.382L1069.9 140.981ZM1081.78 151.921L1083.53 133.805L1088.88 134.322C1090.16 134.445 1091.23 134.739 1092.09 135.205C1092.95 135.654 1093.59 136.273 1094 137.061C1094.41 137.85 1094.56 138.813 1094.45 139.952C1094.32 141.367 1093.84 142.401 1093.03 143.054C1092.24 143.709 1091.2 144.088 1089.92 144.19L1094.31 153.129L1091.61 152.869L1087.73 144.397L1084.73 144.108L1083.95 152.131L1081.78 151.921ZM1084.9 142.271L1088.04 142.572C1089 142.666 1089.78 142.627 1090.37 142.458C1090.96 142.271 1091.4 141.948 1091.69 141.488C1091.98 141.029 1092.16 140.445 1092.23 139.738C1092.3 139.013 1092.23 138.397 1092.04 137.891C1091.84 137.385 1091.47 136.992 1090.93 136.713C1090.38 136.416 1089.62 136.221 1088.66 136.128L1085.53 135.826L1084.9 142.271ZM1097.12 153.4L1098.87 135.284L1110.07 136.364L1109.9 138.15L1100.87 137.279L1100.3 143.154L1108.2 143.915L1108.03 145.675L1100.13 144.914L1099.47 151.824L1108.5 152.695L1108.33 154.48L1097.12 153.4ZM1117.47 155.675C1116.25 155.557 1115.15 155.226 1114.2 154.681C1113.26 154.137 1112.53 153.414 1112.03 152.512C1111.54 151.595 1111.36 150.524 1111.48 149.299L1113.75 149.518C1113.64 150.726 1113.94 151.722 1114.67 152.506C1115.39 153.272 1116.39 153.716 1117.65 153.838C1118.75 153.944 1119.69 153.765 1120.47 153.3C1121.26 152.837 1121.71 152.113 1121.8 151.13C1121.87 150.457 1121.8 149.91 1121.59 149.49C1121.41 149.055 1121.1 148.685 1120.66 148.381C1120.22 148.06 1119.65 147.745 1118.97 147.435C1118.29 147.125 1117.48 146.76 1116.54 146.339C1115.71 145.945 1115 145.52 1114.42 145.063C1113.85 144.608 1113.43 144.08 1113.16 143.479C1112.89 142.861 1112.79 142.147 1112.87 141.336C1112.96 140.264 1113.29 139.39 1113.86 138.714C1114.44 138.022 1115.19 137.528 1116.09 137.231C1117.01 136.919 1117.99 136.814 1119.04 136.916C1120.11 137.019 1121.05 137.309 1121.86 137.788C1122.69 138.251 1123.32 138.886 1123.76 139.695C1124.21 140.487 1124.39 141.419 1124.31 142.49L1122.03 142.271C1122.12 141.356 1121.86 140.574 1121.26 139.924C1120.66 139.257 1119.84 138.873 1118.79 138.771C1117.86 138.647 1117.04 138.804 1116.34 139.241C1115.63 139.678 1115.24 140.38 1115.14 141.346C1115.08 141.984 1115.16 142.506 1115.38 142.91C1115.62 143.299 1116.06 143.663 1116.69 144.002C1117.32 144.342 1118.19 144.765 1119.31 145.274C1120.11 145.63 1120.82 145.994 1121.45 146.368C1122.08 146.725 1122.6 147.132 1123 147.589C1123.41 148.029 1123.71 148.545 1123.9 149.138C1124.09 149.713 1124.14 150.406 1124.06 151.217C1123.96 152.304 1123.59 153.2 1122.94 153.904C1122.32 154.593 1121.52 155.091 1120.55 155.398C1119.6 155.689 1118.57 155.782 1117.47 155.675ZM1132.43 157.117C1131.21 156.999 1130.12 156.668 1129.16 156.123C1128.22 155.579 1127.5 154.857 1126.99 153.955C1126.5 153.037 1126.32 151.966 1126.44 150.741L1128.72 150.96C1128.6 152.168 1128.9 153.164 1129.63 153.948C1130.36 154.715 1131.35 155.159 1132.61 155.28C1133.71 155.386 1134.65 155.207 1135.43 154.742C1136.22 154.279 1136.67 153.555 1136.76 152.572C1136.83 151.899 1136.76 151.353 1136.55 150.933C1136.37 150.497 1136.06 150.127 1135.62 149.823C1135.18 149.502 1134.62 149.187 1133.93 148.877C1133.25 148.568 1132.44 148.202 1131.5 147.781C1130.67 147.388 1129.96 146.962 1129.38 146.506C1128.81 146.051 1128.4 145.523 1128.12 144.922C1127.85 144.303 1127.75 143.589 1127.83 142.778C1127.92 141.707 1128.25 140.833 1128.82 140.156C1129.41 139.464 1130.15 138.97 1131.05 138.674C1131.97 138.362 1132.95 138.256 1134.01 138.358C1135.08 138.461 1136.01 138.752 1136.82 139.23C1137.65 139.693 1138.28 140.329 1138.73 141.138C1139.17 141.93 1139.35 142.861 1139.27 143.932L1136.99 143.713C1137.08 142.798 1136.82 142.016 1136.22 141.367C1135.63 140.699 1134.8 140.315 1133.75 140.214C1132.82 140.089 1132 140.246 1131.3 140.683C1130.6 141.12 1130.2 141.822 1130.1 142.788C1130.04 143.426 1130.12 143.948 1130.35 144.352C1130.59 144.741 1131.02 145.105 1131.65 145.445C1132.28 145.784 1133.15 146.208 1134.27 146.716C1135.07 147.072 1135.79 147.437 1136.41 147.81C1137.04 148.167 1137.56 148.574 1137.97 149.031C1138.38 149.471 1138.67 149.988 1138.86 150.58C1139.05 151.156 1139.1 151.849 1139.03 152.66C1138.92 153.747 1138.55 154.642 1137.91 155.346C1137.28 156.035 1136.49 156.533 1135.52 156.84C1134.56 157.131 1133.54 157.224 1132.43 157.117ZM1140.51 157.583L1148.94 140.111L1151.24 140.333L1156.15 159.09L1153.84 158.868L1152.64 154.05L1144.92 153.306L1142.79 157.803L1140.51 157.583ZM1145.74 151.609L1152.16 152.228L1149.81 142.964L1145.74 151.609ZM1151.64 138.908C1151.17 138.864 1150.8 138.723 1150.53 138.488C1150.26 138.253 1150 138.028 1149.76 137.813C1149.52 137.581 1149.19 137.445 1148.78 137.405C1148.16 137.345 1147.76 137.699 1147.58 138.465L1146.31 138.343C1146.52 137.474 1146.86 136.845 1147.33 136.456C1147.8 136.066 1148.37 135.903 1149.02 135.966C1149.49 136.011 1149.86 136.151 1150.13 136.386C1150.41 136.604 1150.66 136.829 1150.9 137.061C1151.16 137.295 1151.49 137.431 1151.88 137.469C1152.16 137.496 1152.41 137.424 1152.63 137.254C1152.86 137.084 1153.02 136.804 1153.11 136.412L1154.38 136.534C1154.19 137.369 1153.85 137.99 1153.36 138.395C1152.87 138.801 1152.3 138.972 1151.64 138.908ZM1167.04 160.453C1165.66 160.32 1164.44 159.968 1163.38 159.395C1162.32 158.806 1161.45 158.051 1160.75 157.131C1160.06 156.211 1159.56 155.161 1159.25 153.982C1158.96 152.805 1158.89 151.553 1159.01 150.224C1159.14 148.896 1159.46 147.681 1159.97 146.581C1160.49 145.482 1161.18 144.547 1162.04 143.777C1162.9 143.006 1163.89 142.44 1165.02 142.079C1166.17 141.703 1167.45 141.582 1168.85 141.716C1170.23 141.849 1171.44 142.201 1172.48 142.772C1173.54 143.327 1174.42 144.065 1175.11 144.985C1175.81 145.888 1176.31 146.937 1176.61 148.133C1176.92 149.312 1177 150.583 1176.87 151.946C1176.74 153.309 1176.41 154.548 1175.89 155.664C1175.36 156.763 1174.67 157.698 1173.81 158.468C1172.96 159.222 1171.95 159.778 1170.8 160.137C1169.67 160.481 1168.42 160.587 1167.04 160.453ZM1167.22 158.538C1168.64 158.675 1169.88 158.472 1170.94 157.93C1172 157.388 1172.85 156.581 1173.47 155.51C1174.11 154.44 1174.51 153.18 1174.64 151.731C1174.79 150.247 1174.65 148.927 1174.22 147.772C1173.81 146.6 1173.13 145.656 1172.19 144.938C1171.25 144.221 1170.07 143.794 1168.66 143.657C1167.26 143.523 1166.03 143.726 1164.97 144.268C1163.91 144.81 1163.05 145.616 1162.41 146.686C1161.77 147.738 1161.38 148.989 1161.24 150.439C1161.1 151.871 1161.24 153.182 1161.67 154.372C1162.1 155.545 1162.78 156.499 1163.72 157.234C1164.66 157.969 1165.83 158.404 1167.22 158.538ZM1204.75 164.037L1205.88 157.824L1199.59 157.95L1204.7 154.315L1200.39 149.72L1206.52 151.095L1206.61 144.782L1210.08 150.027L1214.53 145.546L1213.36 151.754L1219.64 151.576L1214.53 155.263L1218.85 159.806L1212.71 158.482L1212.67 164.8L1209.16 159.499L1204.75 164.037ZM1242.12 167.377L1243.86 149.261L1249.43 149.798C1251.57 150.004 1253.28 150.543 1254.57 151.417C1255.88 152.274 1256.8 153.416 1257.32 154.843C1257.87 156.253 1258.05 157.908 1257.86 159.805C1257.68 161.669 1257.19 163.241 1256.39 164.522C1255.61 165.804 1254.49 166.741 1253.04 167.333C1251.6 167.926 1249.82 168.12 1247.68 167.914L1242.12 167.377ZM1244.46 165.775L1247.8 166.097C1249.53 166.263 1250.93 166.12 1252.02 165.668C1253.13 165.2 1253.97 164.454 1254.54 163.429C1255.11 162.387 1255.47 161.107 1255.61 159.588C1255.85 157.121 1255.46 155.237 1254.43 153.937C1253.41 152.62 1251.67 151.842 1249.2 151.604L1245.86 151.282L1244.46 165.775ZM1260.14 169.114L1261.88 150.998L1264.06 151.208L1262.31 169.324L1260.14 169.114ZM1273.91 170.756C1272.18 170.589 1270.72 170.048 1269.52 169.131C1268.34 168.199 1267.46 167 1266.89 165.534C1266.34 164.053 1266.15 162.406 1266.32 160.595C1266.49 158.8 1266.99 157.229 1267.82 155.881C1268.65 154.532 1269.76 153.516 1271.15 152.832C1272.54 152.13 1274.16 151.869 1276.03 152.048C1278.06 152.245 1279.71 152.899 1280.96 154.012C1282.23 155.127 1282.97 156.567 1283.21 158.33L1280.69 158.088C1280.56 156.978 1280.06 156.059 1279.21 155.333C1278.37 154.608 1277.25 154.177 1275.83 154.041C1274.4 153.903 1273.16 154.114 1272.12 154.675C1271.07 155.236 1270.24 156.053 1269.63 157.126C1269.04 158.184 1268.68 159.412 1268.55 160.809C1268.41 162.224 1268.54 163.516 1268.93 164.686C1269.32 165.856 1269.96 166.805 1270.85 167.535C1271.74 168.265 1272.85 168.694 1274.17 168.822C1276.11 169.008 1277.62 168.588 1278.71 167.561C1279.8 166.518 1280.51 165.019 1280.84 163.065L1274.32 162.437L1274.48 160.728L1283.23 161.572L1282.3 171.251L1280.31 171.059L1280.41 168.065C1279.66 169.054 1278.77 169.788 1277.77 170.266C1276.77 170.744 1275.48 170.907 1273.91 170.756ZM1285.74 171.582L1287.48 153.466L1289.66 153.676L1287.91 171.792L1285.74 171.582ZM1296 172.571L1297.57 156.241L1292.16 155.719L1292.33 153.934L1305.33 155.186L1305.15 156.972L1299.74 156.45L1298.17 172.781L1296 172.571ZM1303.05 173.251L1311.47 155.779L1313.77 156.001L1318.68 174.758L1316.38 174.536L1315.17 169.718L1307.46 168.974L1305.33 173.47L1303.05 173.251ZM1308.27 167.277L1314.69 167.895L1312.35 158.632L1308.27 167.277ZM1321.37 175.017L1323.12 156.901L1325.29 157.111L1323.71 173.493L1332.15 174.306L1331.98 176.04L1321.37 175.017ZM1360.59 179.059L1361.71 172.846L1355.43 172.972L1360.54 169.337L1356.22 164.742L1362.36 166.117L1362.45 159.804L1365.91 165.049L1370.37 160.568L1369.19 166.776L1375.48 166.598L1370.37 170.285L1374.69 174.828L1368.54 173.505L1368.51 179.822L1365 174.521L1360.59 179.059ZM1397.95 182.399L1399.7 164.283L1405.26 164.82C1407.4 165.026 1409.12 165.566 1410.41 166.439C1411.72 167.297 1412.64 168.439 1413.16 169.865C1413.7 171.275 1413.88 172.93 1413.7 174.828C1413.52 176.691 1413.03 178.263 1412.23 179.544C1411.44 180.827 1410.32 181.764 1408.87 182.355C1407.44 182.948 1405.65 183.142 1403.52 182.936L1397.95 182.399ZM1400.3 180.797L1403.64 181.119C1405.36 181.285 1406.77 181.142 1407.86 180.69C1408.97 180.222 1409.8 179.476 1410.37 178.451C1410.94 177.409 1411.3 176.129 1411.45 174.611C1411.69 172.143 1411.29 170.26 1410.27 168.959C1409.25 167.642 1407.5 166.864 1405.04 166.626L1401.7 166.304L1400.3 180.797ZM1415.97 184.136L1417.72 166.02L1419.89 166.23L1418.15 184.346L1415.97 184.136ZM1427.45 185.243L1422.39 166.471L1424.74 166.698L1428.94 183.062L1436.23 167.805L1438.54 168.027L1429.98 185.487L1427.45 185.243ZM1445.79 187.324C1444.2 187.171 1442.95 186.728 1442.03 185.995C1441.11 185.245 1440.46 184.321 1440.1 183.223C1439.75 182.11 1439.64 180.933 1439.76 179.691L1440.86 168.252L1443.04 168.461L1441.93 179.926C1441.76 181.686 1442.06 183.003 1442.83 183.879C1443.6 184.754 1444.67 185.257 1446.03 185.388C1447.39 185.52 1448.53 185.229 1449.43 184.515C1450.34 183.801 1450.87 182.564 1451.04 180.804L1452.15 169.339L1454.32 169.549L1453.22 180.988C1453.09 182.316 1452.79 183.41 1452.3 184.269C1451.82 185.128 1451.22 185.792 1450.49 186.262C1449.78 186.734 1449.02 187.052 1448.2 187.217C1447.39 187.365 1446.58 187.401 1445.79 187.324ZM1456.26 188.02L1458 169.904L1460.18 170.113L1458.6 186.495L1467.04 187.309L1466.87 189.043L1456.26 188.02ZM1475.92 190.229C1474.2 190.063 1472.73 189.521 1471.53 188.604C1470.35 187.672 1469.47 186.473 1468.9 185.007C1468.35 183.526 1468.16 181.879 1468.33 180.068C1468.51 178.274 1469.01 176.702 1469.83 175.354C1470.66 174.006 1471.77 172.989 1473.16 172.305C1474.55 171.603 1476.17 171.342 1478.04 171.522C1480.07 171.718 1481.72 172.373 1482.97 173.486C1484.24 174.601 1484.99 176.04 1485.22 177.803L1482.71 177.561C1482.57 176.451 1482.07 175.533 1481.22 174.806C1480.39 174.081 1479.26 173.651 1477.85 173.514C1476.41 173.376 1475.17 173.588 1474.13 174.149C1473.08 174.709 1472.25 175.526 1471.64 176.6C1471.06 177.657 1470.69 178.885 1470.56 180.282C1470.42 181.697 1470.55 182.989 1470.94 184.159C1471.33 185.329 1471.97 186.279 1472.86 187.008C1473.75 187.738 1474.86 188.167 1476.19 188.295C1478.12 188.482 1479.63 188.061 1480.72 187.035C1481.81 185.991 1482.53 184.492 1482.85 182.538L1476.33 181.91L1476.5 180.202L1485.24 181.045L1484.31 190.724L1482.32 190.532L1482.42 187.538C1481.67 188.528 1480.79 189.261 1479.78 189.739C1478.78 190.217 1477.49 190.38 1475.92 190.229ZM1486.61 190.946L1495.03 173.473L1497.34 173.695L1502.24 192.453L1499.94 192.231L1498.73 187.412L1491.02 186.669L1488.89 191.165L1486.61 190.946ZM1491.83 184.972L1498.25 185.59L1495.91 176.326L1491.83 184.972ZM1511.81 193.689C1509.98 193.512 1508.46 192.956 1507.25 192.021C1506.03 191.068 1505.16 189.852 1504.62 188.372C1504.08 186.892 1503.9 185.264 1504.07 183.487C1504.24 181.727 1504.72 180.171 1505.51 178.82C1506.32 177.47 1507.42 176.443 1508.79 175.74C1510.16 175.036 1511.77 174.774 1513.62 174.952C1515.69 175.151 1517.32 175.814 1518.52 176.939C1519.74 178.049 1520.44 179.51 1520.63 181.322L1518.23 181.09C1518.06 179.942 1517.57 178.99 1516.78 178.234C1516 177.462 1514.88 177.006 1513.43 176.867C1512 176.729 1510.78 176.95 1509.77 177.532C1508.75 178.096 1507.95 178.915 1507.36 179.99C1506.79 181.067 1506.43 182.304 1506.3 183.701C1506.16 185.133 1506.28 186.434 1506.65 187.602C1507.05 188.771 1507.68 189.73 1508.57 190.477C1509.46 191.207 1510.6 191.639 1512 191.774C1513.45 191.913 1514.63 191.696 1515.53 191.122C1516.46 190.532 1517.12 189.699 1517.5 188.621L1519.91 188.853C1519.38 190.561 1518.41 191.843 1517 192.7C1515.61 193.559 1513.88 193.888 1511.81 193.689ZM1509.33 199.901L1509.47 198.53L1511.85 198.759C1513.02 198.872 1513.65 198.515 1513.73 197.687C1513.8 196.91 1513.25 196.466 1512.08 196.353L1510.81 196.23L1511.13 192.866L1512.58 193.006L1512.38 195.076C1513.04 195.122 1513.61 195.255 1514.1 195.476C1514.58 195.714 1514.94 196.036 1515.18 196.442C1515.43 196.85 1515.54 197.33 1515.48 197.882C1515.43 198.417 1515.25 198.861 1514.94 199.214C1514.64 199.586 1514.25 199.853 1513.76 200.015C1513.28 200.177 1512.72 200.228 1512.1 200.168L1509.33 199.901ZM1520.96 194.257L1529.38 176.784L1531.68 177.006L1536.59 195.763L1534.28 195.541L1533.08 190.723L1525.36 189.98L1523.23 194.476L1520.96 194.257ZM1526.18 188.282L1532.6 188.901L1530.25 179.637L1526.18 188.282ZM1532.08 175.582C1531.62 175.537 1531.25 175.397 1530.97 175.162C1530.7 174.926 1530.44 174.701 1530.2 174.487C1529.96 174.255 1529.64 174.119 1529.22 174.079C1528.6 174.019 1528.2 174.372 1528.02 175.139L1526.75 175.016C1526.96 174.148 1527.3 173.519 1527.77 173.129C1528.25 172.739 1528.81 172.576 1529.47 172.639C1529.93 172.684 1530.3 172.824 1530.57 173.06C1530.85 173.278 1531.11 173.503 1531.34 173.735C1531.6 173.968 1531.93 174.104 1532.32 174.143C1532.6 174.169 1532.85 174.098 1533.08 173.928C1533.3 173.758 1533.46 173.477 1533.55 173.085L1534.82 173.208C1534.63 174.043 1534.29 174.663 1533.8 175.069C1533.31 175.474 1532.74 175.645 1532.08 175.582ZM1547.48 197.127C1546.1 196.994 1544.88 196.641 1543.82 196.069C1542.76 195.479 1541.89 194.725 1541.19 193.804C1540.5 192.884 1540 191.835 1539.69 190.656C1539.41 189.479 1539.33 188.226 1539.45 186.898C1539.58 185.569 1539.9 184.355 1540.41 183.254C1540.93 182.155 1541.62 181.221 1542.48 180.45C1543.34 179.68 1544.33 179.114 1545.46 178.753C1546.61 178.376 1547.89 178.255 1549.29 178.39C1550.67 178.523 1551.88 178.875 1552.92 179.445C1553.98 180 1554.86 180.738 1555.55 181.658C1556.25 182.561 1556.75 183.611 1557.05 184.807C1557.36 185.985 1557.44 187.256 1557.31 188.619C1557.18 189.982 1556.85 191.222 1556.33 192.338C1555.8 193.437 1555.11 194.371 1554.25 195.142C1553.4 195.895 1552.4 196.451 1551.25 196.811C1550.12 197.155 1548.86 197.26 1547.48 197.127ZM1547.67 195.212C1549.08 195.348 1550.32 195.145 1551.38 194.604C1552.44 194.062 1553.29 193.255 1553.91 192.183C1554.56 191.113 1554.95 189.854 1555.09 188.405C1555.23 186.921 1555.09 185.601 1554.66 184.445C1554.25 183.274 1553.57 182.329 1552.63 181.612C1551.69 180.894 1550.51 180.467 1549.1 180.331C1547.7 180.196 1546.47 180.4 1545.41 180.942C1544.35 181.484 1543.5 182.289 1542.85 183.359C1542.21 184.412 1541.82 185.663 1541.68 187.112C1541.54 188.544 1541.69 189.855 1542.11 191.046C1542.54 192.219 1543.22 193.173 1544.16 193.908C1545.1 194.642 1546.27 195.077 1547.67 195.212Z" fill="black"/>
<rect x="-216" y="207.356" width="1673" height="59" transform="rotate(-6.33903 -216 207.356)" fill="#1E1E1E"/>
<path d="M-142.087 239.391L-144.097 221.302L-138.541 220.685C-136.405 220.447 -134.615 220.624 -133.172 221.213C-131.713 221.784 -130.581 222.713 -129.775 224.001C-128.954 225.27 -128.438 226.852 -128.228 228.747C-128.021 230.608 -128.179 232.247 -128.701 233.666C-129.207 235.082 -130.108 236.229 -131.406 237.105C-132.687 237.98 -134.395 238.536 -136.531 238.773L-142.087 239.391ZM-140.117 237.341L-136.784 236.97C-135.061 236.779 -133.714 236.35 -132.741 235.684C-131.754 234.999 -131.086 234.096 -130.74 232.977C-130.395 231.84 -130.307 230.513 -130.476 228.997C-130.749 226.534 -131.521 224.771 -132.79 223.708C-134.061 222.629 -135.928 222.226 -138.392 222.499L-141.725 222.87L-140.117 237.341ZM-124.094 237.392L-126.104 219.303L-114.915 218.06L-114.717 219.843L-123.735 220.845L-123.083 226.711L-115.202 225.835L-115.007 227.593L-122.888 228.468L-122.122 235.368L-113.103 234.366L-112.905 236.149L-124.094 237.392ZM-103.711 235.441C-104.934 235.577 -106.07 235.477 -107.119 235.14C-108.151 234.801 -109.007 234.242 -109.686 233.463C-110.35 232.665 -110.75 231.654 -110.886 230.431L-108.612 230.178C-108.478 231.384 -107.976 232.296 -107.105 232.915C-106.236 233.516 -105.173 233.746 -103.915 233.607C-102.813 233.484 -101.929 233.116 -101.265 232.501C-100.583 231.885 -100.297 231.086 -100.406 230.104C-100.481 229.432 -100.661 228.911 -100.946 228.542C-101.216 228.153 -101.598 227.856 -102.092 227.649C-102.587 227.425 -103.202 227.232 -103.935 227.069C-104.668 226.906 -105.535 226.715 -106.536 226.495C-107.432 226.28 -108.212 226.009 -108.876 225.682C-109.523 225.353 -110.042 224.922 -110.433 224.39C-110.825 223.841 -111.066 223.161 -111.156 222.351C-111.292 221.285 -111.15 220.363 -110.731 219.584C-110.297 218.785 -109.67 218.149 -108.85 217.674C-108.016 217.18 -107.073 216.875 -106.022 216.758C-104.954 216.64 -103.976 216.732 -103.088 217.034C-102.184 217.317 -101.432 217.809 -100.831 218.51C-100.232 219.193 -99.8645 220.068 -99.7286 221.134L-102.003 221.387C-102.104 220.474 -102.515 219.761 -103.234 219.248C-103.956 218.717 -104.842 218.511 -105.893 218.627C-106.827 218.696 -107.594 219.017 -108.193 219.589C-108.792 220.162 -109.038 220.93 -108.931 221.895C-108.86 222.532 -108.674 223.026 -108.374 223.376C-108.058 223.708 -107.557 223.975 -106.872 224.178C-106.187 224.38 -105.245 224.616 -104.047 224.884C-103.189 225.068 -102.416 225.278 -101.727 225.516C-101.04 225.736 -100.449 226.028 -99.9555 226.391C-99.4636 226.738 -99.0654 227.182 -98.7611 227.724C-98.4587 228.248 -98.2625 228.915 -98.1725 229.725C-98.052 230.81 -98.2338 231.763 -98.7181 232.585C-99.1871 233.387 -99.8647 234.037 -100.751 234.537C-101.622 235.017 -102.609 235.319 -103.711 235.441ZM-94.5689 234.112L-96.5784 216.023L-94.4077 215.782L-92.3982 233.871L-94.5689 234.112ZM-80.7503 232.891C-82.473 233.082 -84.0158 232.852 -85.3787 232.201C-86.7262 231.531 -87.8306 230.538 -88.692 229.221C-89.538 227.885 -90.0615 226.312 -90.2625 224.504C-90.4615 222.712 -90.2949 221.072 -89.7628 219.582C-89.2306 218.093 -88.3548 216.871 -87.1355 215.916C-85.9181 214.944 -84.3791 214.354 -82.5186 214.147C-80.4857 213.921 -78.7429 214.225 -77.2901 215.058C-75.82 215.888 -74.7912 217.143 -74.2036 218.822L-76.7102 219.1C-77.0719 218.042 -77.7447 217.244 -78.7286 216.708C-79.6952 216.171 -80.8849 215.98 -82.2975 216.137C-83.7274 216.296 -84.8969 216.757 -85.8062 217.521C-86.7154 218.285 -87.3576 219.254 -87.7328 220.429C-88.0927 221.586 -88.1951 222.861 -88.0401 224.257C-87.8832 225.669 -87.4927 226.908 -86.8687 227.972C-86.2447 229.036 -85.4236 229.835 -84.4053 230.367C-83.387 230.899 -82.2146 231.091 -80.888 230.944C-78.9586 230.73 -77.5651 230.008 -76.7075 228.779C-75.8519 227.533 -75.4642 225.92 -75.5446 223.941L-82.0565 224.665L-82.246 222.959L-73.5117 221.989L-72.4381 231.653L-74.4278 231.874L-74.9388 228.923C-75.4767 230.046 -76.1879 230.945 -77.0722 231.619C-77.9566 232.293 -79.1826 232.716 -80.7503 232.891ZM-69.0054 231.272L-71.0149 213.183L-68.8443 212.942L-57.5951 226.368L-59.2056 211.871L-57.0349 211.63L-55.0254 229.719L-57.1961 229.96L-68.4453 216.534L-66.8348 231.031L-69.0054 231.272ZM-25.5535 226.706L-25.7314 220.396L-31.8529 221.808L-27.6034 217.203L-32.7657 213.591L-26.4778 213.677L-27.6893 207.481L-23.2218 211.903L-19.7819 206.602L-19.6557 212.919L-13.54 211.455L-17.7838 216.112L-12.6271 219.672L-18.9094 219.638L-17.6461 225.828L-22.1711 221.36L-25.5535 226.706ZM11.6973 222.307L9.68783 204.218L15.6571 203.555C16.9319 203.413 18.0469 203.481 19.0021 203.759C19.9572 204.036 20.7267 204.526 21.3105 205.229C21.8943 205.931 22.2494 206.851 22.3757 207.988C22.5058 209.16 22.346 210.154 21.8961 210.971C21.4635 211.787 20.8022 212.427 19.9121 212.892C19.0392 213.355 17.9998 213.654 16.7939 213.788L12.9953 214.21L13.868 222.066L11.6973 222.307ZM12.7915 212.375L16.5384 211.959C17.9855 211.798 18.9799 211.409 19.5216 210.79C20.0614 210.155 20.272 209.303 20.1533 208.235C20.0328 207.15 19.6404 206.365 18.9762 205.881C18.3101 205.379 17.2535 205.209 15.8064 205.369L12.0594 205.786L12.7915 212.375ZM26.6619 220.644L24.6524 202.556L30.0015 201.961C31.2763 201.82 32.3827 201.889 33.3206 202.168C34.2567 202.43 35.007 202.905 35.5716 203.592C36.1363 204.279 36.4818 205.192 36.6081 206.329C36.765 207.741 36.5133 208.85 35.8529 209.656C35.2097 210.46 34.2718 211.044 33.0391 211.408L39.169 219.255L36.4815 219.553L30.9402 212.059L27.9426 212.392L28.8326 220.403L26.6619 220.644ZM27.7388 210.558L30.8656 210.21C31.8303 210.103 32.5845 209.906 33.1281 209.619C33.6698 209.315 34.0345 208.908 34.2221 208.399C34.4097 207.889 34.4642 207.282 34.3858 206.575C34.3054 205.852 34.1178 205.262 33.823 204.807C33.5283 204.351 33.0842 204.043 32.4908 203.882C31.8955 203.704 31.1155 203.669 30.1508 203.776L27.024 204.123L27.7388 210.558ZM49.727 218.396C48.3488 218.549 47.0826 218.454 45.9284 218.112C44.7722 217.752 43.7596 217.193 42.8906 216.435C42.0216 215.677 41.3172 214.752 40.7775 213.661C40.2549 212.568 39.92 211.358 39.7726 210.032C39.6253 208.705 39.6865 207.452 39.9565 206.27C40.2436 205.088 40.7279 204.031 41.4094 203.101C42.0908 202.17 42.9484 201.412 43.982 200.827C45.031 200.222 46.2532 199.842 47.6486 199.687C49.0268 199.534 50.2844 199.63 51.4214 199.974C52.5737 200.3 53.5843 200.841 54.4533 201.599C55.3204 202.34 56.0248 203.265 56.5665 204.373C57.1063 205.464 57.4518 206.69 57.6029 208.051C57.7541 209.412 57.6871 210.693 57.4019 211.893C57.1147 213.076 56.6304 214.132 55.949 215.062C55.2656 215.976 54.3985 216.726 53.3476 217.313C52.312 217.882 51.1052 218.243 49.727 218.396ZM49.5145 216.484C50.9272 216.327 52.0977 215.874 53.0261 215.126C53.9544 214.377 54.6148 213.414 55.0073 212.237C55.4169 211.058 55.5414 209.745 55.3806 208.298C55.216 206.816 54.8055 205.554 54.1489 204.511C53.5077 203.448 52.6531 202.663 51.585 202.153C50.5169 201.644 49.2765 201.468 47.8639 201.625C46.4685 201.78 45.3066 202.232 44.3782 202.98C43.4498 203.729 42.7808 204.692 42.3712 205.871C41.9596 207.033 41.8342 208.338 41.995 209.785C42.1538 211.215 42.5634 212.469 43.2238 213.546C43.8822 214.607 44.7464 215.4 45.8164 215.927C46.8864 216.453 48.1191 216.639 49.5145 216.484ZM69.5517 216.194C67.829 216.385 66.2862 216.155 64.9233 215.504C63.5758 214.834 62.4713 213.841 61.61 212.524C60.7639 211.188 60.2405 209.615 60.0395 207.806C59.8405 206.015 60.007 204.374 60.5392 202.885C61.0714 201.396 61.9471 200.174 63.1664 199.219C64.3839 198.246 65.9228 197.657 67.7834 197.45C69.8162 197.224 71.5591 197.528 73.0119 198.36C74.4819 199.191 75.5108 200.446 76.0984 202.125L73.5918 202.403C73.23 201.345 72.5572 200.547 71.5734 200.011C70.6067 199.473 69.4171 199.283 68.0044 199.44C66.5746 199.599 65.405 200.06 64.4958 200.824C63.5866 201.587 62.9443 202.557 62.5691 203.732C62.2093 204.888 62.1068 206.164 62.2618 207.56C62.4188 208.972 62.8092 210.211 63.4332 211.275C64.0572 212.339 64.8784 213.137 65.8967 213.67C66.915 214.202 68.0874 214.394 69.4139 214.247C71.3434 214.032 72.7369 213.311 73.5945 212.082C74.4501 210.836 74.8378 209.223 74.7574 207.244L68.2455 207.967L68.056 206.262L76.7903 205.292L77.8639 214.956L75.8741 215.177L75.3631 212.226C74.8252 213.349 74.1141 214.248 73.2298 214.922C72.3454 215.595 71.1194 216.019 69.5517 216.194ZM81.2965 214.575L79.287 196.486L84.6361 195.892C85.9109 195.75 87.0173 195.819 87.9553 196.099C88.8913 196.361 89.6416 196.836 90.2063 197.523C90.7709 198.21 91.1164 199.122 91.2427 200.259C91.3996 201.672 91.1479 202.781 90.4875 203.587C89.8443 204.391 88.9064 204.975 87.6737 205.338L93.8036 213.185L91.1161 213.484L85.5748 205.99L82.5772 206.323L83.4672 214.334L81.2965 214.575ZM82.3734 204.488L85.5002 204.141C86.4649 204.034 87.2191 203.837 87.7627 203.55C88.3044 203.245 88.6691 202.838 88.8567 202.329C89.0443 201.82 89.0988 201.212 89.0204 200.506C88.94 199.782 88.7524 199.193 88.4577 198.737C88.1629 198.282 87.7188 197.974 87.1254 197.813C86.5301 197.635 85.7501 197.599 84.7854 197.707L81.6586 198.054L82.3734 204.488ZM95.4774 212.999L100.135 194.17L102.435 193.915L111.085 211.266L108.786 211.521L106.615 207.053L98.9143 207.909L97.7514 212.747L95.4774 212.999ZM99.3652 206.08L105.774 205.368L101.576 196.783L99.3652 206.08ZM113.774 210.967L111.765 192.878L114.297 192.597L121.946 204.461L126.753 191.213L129.311 190.929L131.321 209.018L129.15 209.259L127.577 195.098L123.074 207.318L121.446 207.499L114.375 196.591L115.945 210.726L113.774 210.967ZM134.012 208.719L138.669 189.889L140.969 189.634L149.62 206.985L147.32 207.24L145.149 202.773L137.449 203.628L136.286 208.466L134.012 208.719ZM137.9 201.799L144.308 201.087L140.111 192.502L137.9 201.799ZM159.242 206.23C157.416 206.433 155.812 206.201 154.43 205.535C153.046 204.851 151.939 203.841 151.111 202.503C150.282 201.165 149.769 199.609 149.572 197.834C149.377 196.077 149.528 194.456 150.026 192.97C150.54 191.483 151.398 190.254 152.598 189.284C153.798 188.313 155.32 187.726 157.164 187.521C159.231 187.291 160.966 187.604 162.369 188.46C163.787 189.296 164.776 190.582 165.335 192.316L162.932 192.583C162.532 191.494 161.864 190.661 160.928 190.085C160.007 189.49 158.823 189.272 157.376 189.433C155.946 189.592 154.795 190.06 153.922 190.837C153.047 191.597 152.431 192.564 152.073 193.737C151.732 194.908 151.639 196.192 151.794 197.587C151.953 199.017 152.336 200.265 152.943 201.331C153.567 202.396 154.389 203.202 155.409 203.752C156.427 204.284 157.634 204.473 159.029 204.318C160.477 204.157 161.586 203.702 162.357 202.954C163.144 202.186 163.614 201.236 163.767 200.103L166.17 199.836C166.002 201.616 165.317 203.07 164.117 204.197C162.934 205.323 161.309 206 159.242 206.23ZM158.09 212.819L157.938 211.45L160.316 211.186C161.487 211.055 162.027 210.577 161.935 209.75C161.849 208.975 161.22 208.652 160.049 208.782L158.782 208.923L158.409 205.564L159.856 205.403L160.086 207.47C160.739 207.38 161.324 207.394 161.843 207.51C162.364 207.644 162.783 207.886 163.101 208.234C163.436 208.58 163.634 209.029 163.695 209.581C163.754 210.115 163.667 210.586 163.434 210.996C163.219 211.421 162.891 211.763 162.449 212.021C162.007 212.279 161.476 212.443 160.855 212.512L158.09 212.819ZM168.307 204.909L172.964 186.079L175.264 185.824L183.915 203.175L181.615 203.43L179.444 198.963L171.744 199.818L170.581 204.656L168.307 204.909ZM172.194 197.989L178.603 197.277L174.406 188.692L172.194 197.989ZM175.362 184.348C174.897 184.4 174.506 184.339 174.19 184.164C173.874 183.99 173.577 183.823 173.297 183.662C173.016 183.484 172.669 183.418 172.255 183.464C171.635 183.533 171.316 183.96 171.299 184.747L170.033 184.888C170.056 183.996 170.259 183.311 170.641 182.832C171.024 182.354 171.543 182.078 172.198 182.005C172.663 181.954 173.053 182.015 173.369 182.189C173.683 182.346 173.981 182.513 174.262 182.691C174.561 182.868 174.908 182.934 175.304 182.89C175.58 182.859 175.811 182.737 175.996 182.525C176.182 182.313 176.279 182.005 176.286 181.603L177.553 181.463C177.543 182.318 177.339 182.995 176.941 183.493C176.543 183.99 176.016 184.275 175.362 184.348ZM194.856 202.273C193.477 202.427 192.211 202.332 191.057 201.989C189.901 201.629 188.888 201.07 188.019 200.312C187.15 199.554 186.446 198.63 185.906 197.539C185.384 196.446 185.049 195.236 184.901 193.909C184.754 192.583 184.815 191.329 185.085 190.148C185.372 188.965 185.857 187.909 186.538 186.978C187.22 186.048 188.077 185.29 189.111 184.704C190.16 184.099 191.382 183.72 192.777 183.565C194.155 183.411 195.413 183.507 196.55 183.852C197.702 184.177 198.713 184.719 199.582 185.477C200.449 186.218 201.154 187.142 201.695 188.251C202.235 189.342 202.58 190.568 202.732 191.929C202.883 193.29 202.816 194.57 202.531 195.77C202.243 196.953 201.759 198.01 201.078 198.94C200.394 199.853 199.527 200.603 198.476 201.191C197.441 201.76 196.234 202.12 194.856 202.273ZM194.643 200.361C196.056 200.204 197.226 199.752 198.155 199.003C199.083 198.255 199.744 197.292 200.136 196.115C200.546 194.936 200.67 193.623 200.509 192.175C200.345 190.694 199.934 189.432 199.278 188.388C198.636 187.326 197.782 186.54 196.714 186.031C195.646 185.522 194.405 185.346 192.993 185.503C191.597 185.658 190.435 186.109 189.507 186.858C188.579 187.606 187.91 188.57 187.5 189.749C187.088 190.911 186.963 192.215 187.124 193.662C187.283 195.092 187.692 196.346 188.352 197.424C189.011 198.484 189.875 199.278 190.945 199.804C192.015 200.331 193.248 200.516 194.643 200.361ZM232.504 198.039L232.326 191.728L226.204 193.14L230.454 188.535L225.291 184.923L231.579 185.009L230.368 178.813L234.835 183.235L238.275 177.935L238.401 184.251L244.517 182.787L240.273 187.444L245.43 191.005L239.148 190.97L240.411 197.16L235.886 192.693L232.504 198.039ZM275.551 193.309C274.328 193.445 273.192 193.344 272.143 193.007C271.112 192.669 270.256 192.11 269.576 191.33C268.912 190.532 268.512 189.522 268.376 188.298L270.65 188.046C270.784 189.252 271.287 190.164 272.158 190.782C273.027 191.383 274.09 191.614 275.348 191.474C276.45 191.352 277.334 190.983 277.998 190.369C278.679 189.752 278.965 188.953 278.856 187.971C278.782 187.299 278.602 186.779 278.317 186.409C278.047 186.021 277.665 185.723 277.171 185.516C276.675 185.292 276.061 185.099 275.328 184.936C274.594 184.774 273.727 184.582 272.726 184.362C271.83 184.148 271.05 183.877 270.386 183.55C269.739 183.22 269.221 182.79 268.83 182.257C268.438 181.708 268.197 181.029 268.107 180.219C267.971 179.153 268.112 178.23 268.532 177.451C268.966 176.653 269.593 176.016 270.412 175.542C271.247 175.048 272.19 174.743 273.24 174.626C274.309 174.507 275.287 174.599 276.175 174.902C277.078 175.185 277.831 175.677 278.432 176.377C279.031 177.061 279.398 177.935 279.534 179.002L277.26 179.254C277.159 178.341 276.748 177.628 276.028 177.115C275.307 176.585 274.42 176.378 273.37 176.495C272.435 176.564 271.669 176.884 271.07 177.457C270.471 178.029 270.225 178.798 270.332 179.762C270.403 180.4 270.588 180.894 270.889 181.244C271.205 181.575 271.705 181.842 272.39 182.045C273.076 182.248 274.017 182.483 275.216 182.751C276.073 182.935 276.847 183.146 277.536 183.383C278.223 183.603 278.813 183.895 279.307 184.259C279.799 184.605 280.197 185.049 280.502 185.591C280.804 186.116 281 186.783 281.09 187.592C281.211 188.678 281.029 189.631 280.544 190.452C280.076 191.254 279.398 191.905 278.512 192.405C277.641 192.885 276.654 193.186 275.551 193.309ZM292.946 191.377C291.567 191.53 290.301 191.435 289.147 191.092C287.991 190.732 286.978 190.173 286.109 189.415C285.24 188.657 284.536 187.733 283.996 186.642C283.474 185.549 283.139 184.339 282.991 183.012C282.844 181.686 282.905 180.432 283.175 179.251C283.462 178.068 283.947 177.012 284.628 176.081C285.309 175.151 286.167 174.393 287.201 173.807C288.25 173.203 289.472 172.823 290.867 172.668C292.245 172.515 293.503 172.61 294.64 172.955C295.792 173.28 296.803 173.822 297.672 174.58C298.539 175.321 299.243 176.245 299.785 177.354C300.325 178.445 300.67 179.671 300.822 181.032C300.973 182.393 300.906 183.673 300.621 184.873C300.333 186.056 299.849 187.113 299.168 188.043C298.484 188.956 297.617 189.707 296.566 190.294C295.531 190.863 294.324 191.223 292.946 191.377ZM292.733 189.464C294.146 189.307 295.316 188.855 296.245 188.106C297.173 187.358 297.834 186.395 298.226 185.218C298.636 184.039 298.76 182.726 298.599 181.279C298.435 179.797 298.024 178.535 297.368 177.491C296.726 176.429 295.872 175.643 294.804 175.134C293.736 174.625 292.495 174.449 291.083 174.606C289.687 174.761 288.525 175.212 287.597 175.961C286.668 176.709 285.999 177.673 285.59 178.852C285.178 180.014 285.053 181.319 285.214 182.766C285.372 184.195 285.782 185.449 286.442 186.527C287.101 187.587 287.965 188.381 289.035 188.907C290.105 189.434 291.338 189.619 292.733 189.464ZM312.925 189.157C311.099 189.36 309.495 189.128 308.113 188.462C306.729 187.779 305.623 186.768 304.794 185.43C303.965 184.092 303.452 182.536 303.255 180.761C303.06 179.004 303.211 177.383 303.709 175.898C304.224 174.41 305.082 173.181 306.282 172.211C307.482 171.24 309.004 170.653 310.847 170.448C312.914 170.218 314.649 170.531 316.053 171.387C317.471 172.224 318.46 173.509 319.018 175.243L316.615 175.51C316.215 174.421 315.547 173.588 314.611 173.012C313.69 172.417 312.507 172.2 311.059 172.36C309.63 172.519 308.478 172.987 307.605 173.764C306.731 174.524 306.114 175.491 305.756 176.664C305.415 177.836 305.323 179.119 305.478 180.514C305.636 181.944 306.019 183.192 306.626 184.259C307.25 185.323 308.072 186.13 309.092 186.679C310.111 187.211 311.318 187.4 312.713 187.245C314.16 187.084 315.269 186.629 316.041 185.881C316.827 185.113 317.297 184.163 317.451 183.03L319.854 182.763C319.685 184.543 319.001 185.997 317.801 187.124C316.618 188.25 314.993 188.927 312.925 189.157ZM323.556 187.662L321.547 169.573L323.717 169.332L325.727 187.421L323.556 187.662ZM328.425 187.121L333.083 168.292L335.383 168.036L344.033 185.387L341.733 185.643L339.563 181.175L331.862 182.031L330.699 186.869L328.425 187.121ZM332.313 180.202L338.722 179.49L334.524 170.905L332.313 180.202ZM346.722 185.089L344.713 167L346.883 166.759L348.701 183.116L357.125 182.18L357.317 183.912L346.722 185.089ZM367.138 182.821L365.128 164.732L367.661 164.451L375.309 176.315L380.116 163.067L382.674 162.783L384.684 180.871L382.513 181.113L380.94 166.952L376.438 179.171L374.81 179.352L367.738 168.444L369.308 182.579L367.138 182.821ZM388.512 180.446L386.503 162.357L397.692 161.114L397.89 162.897L388.871 163.899L389.523 169.765L397.405 168.89L397.6 170.647L389.718 171.522L390.485 178.422L399.503 177.42L399.701 179.203L388.512 180.446ZM403.098 178.826L401.089 160.737L406.645 160.12C408.781 159.882 410.57 160.059 412.014 160.648C413.472 161.219 414.604 162.148 415.41 163.436C416.231 164.705 416.747 166.287 416.958 168.182C417.164 170.043 417.007 171.682 416.484 173.101C415.979 174.517 415.077 175.664 413.779 176.54C412.499 177.415 410.79 177.971 408.654 178.209L403.098 178.826ZM405.068 176.776L408.401 176.405C410.124 176.214 411.472 175.785 412.444 175.119C413.432 174.434 414.099 173.531 414.445 172.412C414.79 171.275 414.878 169.948 414.71 168.432C414.436 165.969 413.665 164.206 412.395 163.143C411.125 162.064 409.257 161.661 406.794 161.934L403.46 162.305L405.068 176.776ZM421.091 176.827L419.082 158.738L421.252 158.497L423.262 176.586L421.091 176.827ZM425.96 176.286L430.618 157.457L432.917 157.201L441.568 174.552L439.268 174.808L437.098 170.34L429.397 171.195L428.234 176.033L425.96 176.286ZM429.848 169.366L436.256 168.654L432.059 160.069L429.848 169.366ZM476.479 170.935L476.301 164.624L470.18 166.037L474.429 161.432L469.267 157.819L475.555 157.906L474.343 151.71L478.811 156.131L482.251 150.831L482.377 157.148L488.493 155.684L484.249 160.341L489.406 163.901L483.123 163.867L484.387 170.057L479.862 165.589L476.479 170.935ZM513.73 166.536L511.721 148.447L513.891 148.206L515.901 166.294L513.73 166.536ZM519.736 165.868L517.727 147.78L523.282 147.162C525.419 146.925 527.208 147.101 528.652 147.691C530.11 148.261 531.242 149.191 532.048 150.479C532.869 151.748 533.385 153.33 533.596 155.225C533.802 157.086 533.644 158.725 533.122 160.143C532.617 161.56 531.715 162.706 530.417 163.583C529.137 164.458 527.428 165.014 525.292 165.251L519.736 165.868ZM521.706 163.818L525.039 163.448C526.762 163.257 528.11 162.828 529.082 162.162C530.07 161.477 530.737 160.574 531.083 159.454C531.428 158.317 531.516 156.991 531.348 155.475C531.074 153.011 530.303 151.248 529.033 150.186C527.762 149.106 525.895 148.703 523.432 148.977L520.098 149.347L521.706 163.818ZM537.729 163.87L535.719 145.781L546.909 144.538L547.107 146.321L538.088 147.323L538.74 153.189L546.621 152.313L546.817 154.07L538.935 154.946L539.702 161.845L548.72 160.843L548.918 162.626L537.729 163.87ZM552.315 162.249L550.306 144.16L552.476 143.919L563.725 157.345L562.115 142.848L564.286 142.607L566.295 160.696L564.124 160.937L552.875 147.511L554.486 162.008L552.315 162.249ZM574.369 159.799L572.558 143.493L567.157 144.093L566.959 142.31L579.931 140.869L580.129 142.652L574.728 143.252L576.54 159.558L574.369 159.799ZM584.591 158.664L582.582 140.575L584.752 140.334L586.762 158.422L584.591 158.664ZM590.597 157.996L588.588 139.908L594.143 139.29C596.28 139.053 598.069 139.229 599.513 139.819C600.971 140.389 602.103 141.319 602.909 142.607C603.73 143.876 604.246 145.458 604.457 147.353C604.663 149.214 604.505 150.853 603.983 152.271C603.477 153.688 602.576 154.834 601.278 155.711C599.997 156.586 598.289 157.142 596.153 157.379L590.597 157.996ZM592.567 155.946L595.9 155.576C597.623 155.385 598.971 154.956 599.943 154.29C600.931 153.605 601.598 152.702 601.944 151.582C602.289 150.445 602.377 149.119 602.209 147.603C601.935 145.139 601.163 143.376 599.894 142.314C598.623 141.234 596.756 140.831 594.293 141.105L590.959 141.475L592.567 155.946ZM606.166 156.267L610.823 137.437L613.123 137.182L621.774 154.533L619.474 154.788L617.303 150.321L609.603 151.176L608.44 156.014L606.166 156.267ZM610.054 149.347L616.462 148.635L612.265 140.05L610.054 149.347ZM624.463 154.234L622.453 136.145L628.009 135.528C630.146 135.291 631.935 135.467 633.378 136.057C634.837 136.627 635.969 137.556 636.775 138.845C637.596 140.114 638.112 141.696 638.323 143.591C638.529 145.451 638.371 147.091 637.849 148.509C637.343 149.926 636.442 151.072 635.144 151.949C633.863 152.824 632.155 153.38 630.019 153.617L624.463 154.234ZM626.433 152.184L629.766 151.814C631.489 151.622 632.836 151.194 633.809 150.528C634.797 149.842 635.464 148.94 635.81 147.82C636.155 146.683 636.243 145.357 636.074 143.841C635.801 141.377 635.029 139.614 633.76 138.552C632.489 137.472 630.622 137.069 628.159 137.343L624.825 137.713L626.433 152.184ZM642.456 152.235L640.446 134.147L651.635 132.904L651.834 134.687L642.815 135.689L643.467 141.554L651.348 140.679L651.543 142.436L643.662 143.312L644.428 150.211L653.447 149.209L653.645 150.992L642.456 152.235ZM682.678 148.029L682.5 141.718L676.378 143.13L680.628 138.525L675.465 134.913L681.753 134.999L680.542 128.803L685.009 133.225L688.449 127.925L688.575 134.241L694.691 132.777L690.447 137.434L695.604 140.994L689.322 140.96L690.585 147.15L686.06 142.683L682.678 148.029ZM719.928 143.629L717.919 125.54L729.108 124.297L729.306 126.08L720.288 127.082L720.939 132.948L728.821 132.072L729.016 133.83L721.135 134.705L721.901 141.605L730.92 140.603L731.118 142.386L719.928 143.629ZM734.514 142.008L732.505 123.92L738.061 123.303C740.197 123.065 741.987 123.241 743.43 123.831C744.889 124.401 746.021 125.331 746.827 126.619C747.648 127.888 748.164 129.47 748.374 131.365C748.581 133.226 748.423 134.865 747.9 136.284C747.395 137.7 746.493 138.847 745.195 139.723C743.915 140.598 742.207 141.154 740.07 141.391L734.514 142.008ZM736.484 139.958L739.818 139.588C741.54 139.397 742.888 138.968 743.86 138.302C744.848 137.617 745.515 136.714 745.862 135.594C746.206 134.457 746.294 133.131 746.126 131.615C745.852 129.151 745.081 127.388 743.812 126.326C742.541 125.246 740.674 124.843 738.21 125.117L734.877 125.487L736.484 139.958ZM752.507 140.01L750.498 121.921L752.668 121.68L754.678 139.769L752.507 140.01ZM762.751 138.872L760.94 122.566L755.539 123.166L755.341 121.383L768.313 119.942L768.511 121.725L763.111 122.325L764.922 138.63L762.751 138.872ZM780.317 137.234C778.938 137.387 777.672 137.293 776.518 136.95C775.362 136.59 774.349 136.031 773.48 135.273C772.611 134.515 771.907 133.59 771.367 132.499C770.845 131.406 770.51 130.197 770.362 128.87C770.215 127.544 770.276 126.29 770.546 125.109C770.833 123.926 771.318 122.869 771.999 121.939C772.68 121.009 773.538 120.251 774.572 119.665C775.621 119.06 776.843 118.68 778.238 118.525C779.616 118.372 780.874 118.468 782.011 118.812C783.163 119.138 784.174 119.68 785.043 120.438C785.91 121.178 786.615 122.103 787.156 123.211C787.696 124.302 788.041 125.528 788.193 126.889C788.344 128.25 788.277 129.531 787.992 130.731C787.704 131.914 787.22 132.971 786.539 133.901C785.855 134.814 784.988 135.564 783.937 136.152C782.902 136.72 781.695 137.081 780.317 137.234ZM780.104 135.322C781.517 135.165 782.687 134.712 783.616 133.964C784.544 133.216 785.205 132.253 785.597 131.076C786.007 129.896 786.131 128.583 785.97 127.136C785.806 125.655 785.395 124.392 784.739 123.349C784.097 122.287 783.243 121.501 782.175 120.992C781.107 120.483 779.866 120.306 778.454 120.463C777.058 120.618 775.896 121.07 774.968 121.819C774.04 122.567 773.37 123.531 772.961 124.71C772.549 125.872 772.424 127.176 772.585 128.623C772.743 130.053 773.153 131.307 773.813 132.385C774.472 133.445 775.336 134.238 776.406 134.765C777.476 135.291 778.709 135.477 780.104 135.322ZM792.329 135.586L790.319 117.497L795.668 116.903C796.943 116.761 798.05 116.83 798.988 117.11C799.924 117.372 800.674 117.847 801.239 118.534C801.803 119.221 802.149 120.133 802.275 121.27C802.432 122.683 802.18 123.792 801.52 124.598C800.877 125.402 799.939 125.986 798.706 126.349L804.836 134.196L802.148 134.495L796.607 127.001L793.61 127.334L794.499 135.345L792.329 135.586ZM793.406 125.499L796.532 125.152C797.497 125.045 798.251 124.848 798.795 124.561C799.337 124.256 799.701 123.849 799.889 123.34C800.077 122.831 800.131 122.223 800.053 121.517C799.972 120.793 799.785 120.204 799.49 119.748C799.195 119.293 798.751 118.985 798.158 118.824C797.562 118.646 796.782 118.61 795.818 118.718L792.691 119.065L793.406 125.499ZM807.647 133.884L805.637 115.795L807.808 115.554L809.817 133.643L807.647 133.884ZM812.516 133.343L817.173 114.514L819.473 114.258L828.124 131.609L825.824 131.865L823.653 127.397L815.953 128.253L814.79 133.091L812.516 133.343ZM816.403 126.424L822.812 125.712L818.614 117.127L816.403 126.424ZM830.813 131.311L828.803 113.222L830.974 112.981L832.791 129.338L841.215 128.402L841.408 130.134L830.813 131.311ZM870.025 127.216L869.847 120.905L863.726 122.318L867.975 117.712L862.813 114.1L869.101 114.187L867.889 107.99L872.357 112.412L875.797 107.112L875.923 113.429L882.039 111.964L877.795 116.621L882.952 120.182L876.669 120.147L877.932 126.338L873.408 121.87L870.025 127.216ZM907.276 122.816L905.266 104.728L907.437 104.486L909.447 122.575L907.276 122.816ZM913.282 122.149L911.272 104.06L913.805 103.779L921.454 115.643L926.26 102.395L928.819 102.111L930.828 120.2L928.657 120.441L927.084 106.28L922.582 118.5L920.954 118.681L913.882 107.773L915.453 121.908L913.282 122.149ZM934.656 119.775L932.647 101.686L938.616 101.023C939.891 100.881 941.006 100.949 941.961 101.227C942.916 101.504 943.686 101.994 944.27 102.697C944.853 103.399 945.208 104.319 945.335 105.456C945.465 106.628 945.305 107.622 944.855 108.439C944.423 109.255 943.761 109.895 942.871 110.36C941.998 110.823 940.959 111.122 939.753 111.256L935.954 111.678L936.827 119.533L934.656 119.775ZM935.75 109.843L939.497 109.427C940.945 109.266 941.939 108.877 942.481 108.258C943.02 107.623 943.231 106.771 943.112 105.703C942.992 104.618 942.599 103.833 941.935 103.349C941.269 102.847 940.213 102.677 938.765 102.837L935.018 103.254L935.75 109.843ZM949.621 118.112L947.611 100.023L952.961 99.4292C954.235 99.2876 955.342 99.3565 956.28 99.636C957.216 99.8983 957.966 100.373 958.531 101.06C959.095 101.747 959.441 102.659 959.567 103.796C959.724 105.209 959.472 106.318 958.812 107.124C958.169 107.928 957.231 108.512 955.998 108.876L962.128 116.723L959.441 117.021L953.899 109.527L950.902 109.86L951.792 117.871L949.621 118.112ZM950.698 108.026L953.825 107.678C954.789 107.571 955.544 107.374 956.087 107.087C956.629 106.782 956.994 106.376 957.181 105.867C957.369 105.357 957.423 104.75 957.345 104.043C957.264 103.32 957.077 102.73 956.782 102.275C956.487 101.819 956.043 101.511 955.45 101.35C954.855 101.172 954.075 101.137 953.11 101.244L949.983 101.591L950.698 108.026ZM964.939 116.411L962.929 98.3218L974.118 97.0788L974.317 98.8618L965.298 99.8637L965.95 105.73L973.831 104.854L974.026 106.611L966.145 107.487L966.911 114.386L975.93 113.384L976.128 115.167L964.939 116.411ZM985.322 114.46C984.099 114.596 982.963 114.495 981.914 114.159C980.882 113.82 980.026 113.261 979.347 112.482C978.683 111.683 978.283 110.673 978.147 109.45L980.421 109.197C980.555 110.403 981.057 111.315 981.928 111.933C982.797 112.534 983.86 112.765 985.118 112.625C986.221 112.503 987.104 112.134 987.768 111.52C988.45 110.904 988.736 110.104 988.627 109.123C988.552 108.451 988.372 107.93 988.087 107.561C987.817 107.172 987.435 106.874 986.941 106.668C986.446 106.444 985.831 106.25 985.098 106.088C984.365 105.925 983.498 105.733 982.497 105.513C981.601 105.299 980.821 105.028 980.157 104.701C979.51 104.371 978.991 103.941 978.601 103.409C978.208 102.859 977.967 102.18 977.877 101.37C977.741 100.304 977.883 99.3812 978.302 98.6022C978.737 97.804 979.363 97.1675 980.183 96.6928C981.017 96.199 981.96 95.8937 983.011 95.777C984.079 95.6583 985.057 95.7502 985.945 96.0527C986.849 96.336 987.601 96.8279 988.202 97.5285C988.801 98.2119 989.169 99.0867 989.305 100.153L987.031 100.405C986.929 99.4924 986.519 98.7794 985.799 98.2664C985.077 97.7362 984.191 97.5294 983.14 97.6461C982.206 97.715 981.439 98.0356 980.84 98.608C980.241 99.1803 979.995 99.9488 980.102 100.914C980.173 101.551 980.359 102.045 980.659 102.395C980.975 102.726 981.476 102.993 982.161 103.196C982.846 103.399 983.788 103.635 984.986 103.903C985.844 104.086 986.617 104.297 987.306 104.534C987.993 104.754 988.584 105.046 989.078 105.41C989.57 105.757 989.968 106.201 990.272 106.742C990.574 107.267 990.771 107.934 990.861 108.744C990.981 109.829 990.799 110.782 990.315 111.603C989.846 112.405 989.168 113.056 988.282 113.556C987.411 114.036 986.424 114.338 985.322 114.46ZM1000.26 112.8C999.038 112.936 997.902 112.836 996.853 112.499C995.821 112.16 994.966 111.601 994.286 110.822C993.622 110.024 993.222 109.013 993.086 107.79L995.36 107.537C995.494 108.743 995.997 109.655 996.867 110.274C997.736 110.875 998.8 111.105 1000.06 110.966C1001.16 110.843 1002.04 110.475 1002.71 109.86C1003.39 109.244 1003.68 108.445 1003.57 107.463C1003.49 106.791 1003.31 106.27 1003.03 105.901C1002.76 105.512 1002.37 105.215 1001.88 105.008C1001.38 104.784 1000.77 104.591 1000.04 104.428C999.304 104.265 998.437 104.074 997.436 103.854C996.54 103.639 995.76 103.368 995.096 103.041C994.449 102.712 993.93 102.281 993.54 101.749C993.148 101.2 992.906 100.52 992.816 99.7104C992.681 98.6442 992.822 97.7216 993.241 96.9425C993.676 96.1444 994.303 95.5079 995.122 95.0332C995.957 94.5394 996.899 94.2341 997.95 94.1174C999.018 93.9987 999.996 94.0906 1000.88 94.3931C1001.79 94.6764 1002.54 95.1683 1003.14 95.8689C1003.74 96.5523 1004.11 97.427 1004.24 98.4932L1001.97 98.7459C1001.87 97.8328 1001.46 97.1198 1000.74 96.6068C1000.02 96.0765 999.13 95.8698 998.079 95.9865C997.145 96.0554 996.379 96.376 995.78 96.9483C995.18 97.5207 994.934 98.2892 995.042 99.2539C995.112 99.8913 995.298 100.385 995.599 100.735C995.914 101.067 996.415 101.334 997.1 101.537C997.785 101.739 998.727 101.975 999.925 102.243C1000.78 102.427 1001.56 102.637 1002.25 102.875C1002.93 103.095 1003.52 103.387 1004.02 103.75C1004.51 104.097 1004.91 104.541 1005.21 105.083C1005.51 105.607 1005.71 106.274 1005.8 107.084C1005.92 108.169 1005.74 109.123 1005.25 109.944C1004.79 110.746 1004.11 111.396 1003.22 111.896C1002.35 112.376 1001.36 112.678 1000.26 112.8ZM1008.27 111.597L1012.92 92.7678L1015.22 92.5123L1023.87 109.863L1021.57 110.119L1019.4 105.651L1011.7 106.507L1010.54 111.345L1008.27 111.597ZM1012.15 104.678L1018.56 103.966L1014.37 95.3807L1012.15 104.678ZM1015.32 91.0365C1014.86 91.0882 1014.47 91.0269 1014.15 90.8528C1013.83 90.6786 1013.54 90.5111 1013.26 90.3503C1012.98 90.1723 1012.63 90.1062 1012.21 90.1521C1011.59 90.221 1011.28 90.6488 1011.26 91.4356L1009.99 91.5762C1010.02 90.6842 1010.22 89.999 1010.6 89.5204C1010.98 89.0419 1011.5 88.7663 1012.16 88.6936C1012.62 88.6419 1013.01 88.7031 1013.33 88.8773C1013.64 89.0343 1013.94 89.2018 1014.22 89.3798C1014.52 89.5559 1014.87 89.622 1015.26 89.578C1015.54 89.5473 1015.77 89.4258 1015.96 89.2133C1016.14 89.0009 1016.24 88.6936 1016.25 88.2917L1017.51 88.151C1017.5 89.0066 1017.3 89.6833 1016.9 90.1809C1016.5 90.6786 1015.98 90.9638 1015.32 91.0365ZM1034.82 108.962C1033.44 109.115 1032.17 109.02 1031.02 108.677C1029.86 108.318 1028.85 107.759 1027.98 107.001C1027.11 106.243 1026.41 105.318 1025.87 104.227C1025.34 103.134 1025.01 101.924 1024.86 100.598C1024.71 99.2712 1024.78 98.0174 1025.05 96.8364C1025.33 95.6535 1025.82 94.5969 1026.5 93.6666C1027.18 92.7364 1028.04 91.9784 1029.07 91.3927C1030.12 90.7878 1031.34 90.4079 1032.74 90.2529C1034.12 90.0998 1035.37 90.1955 1036.51 90.5401C1037.66 90.8655 1038.67 91.4072 1039.54 92.1652C1040.41 92.906 1041.11 93.8306 1041.66 94.9389C1042.19 96.03 1042.54 97.256 1042.69 98.6169C1042.84 99.9779 1042.78 101.258 1042.49 102.459C1042.2 103.642 1041.72 104.698 1041.04 105.628C1040.35 106.541 1039.49 107.292 1038.44 107.879C1037.4 108.448 1036.19 108.809 1034.82 108.962ZM1034.6 107.05C1036.02 106.893 1037.19 106.44 1038.11 105.692C1039.04 104.943 1039.7 103.98 1040.1 102.803C1040.51 101.624 1040.63 100.311 1040.47 98.8638C1040.3 97.3823 1039.89 96.1199 1039.24 95.0766C1038.6 94.0143 1037.74 93.2285 1036.67 92.7193C1035.61 92.2101 1034.37 92.034 1032.95 92.1909C1031.56 92.346 1030.4 92.7977 1029.47 93.5461C1028.54 94.2945 1027.87 95.2583 1027.46 96.4374C1027.05 97.5992 1026.92 98.9037 1027.08 100.351C1027.24 101.781 1027.65 103.034 1028.31 104.112C1028.97 105.173 1029.83 105.966 1030.9 106.492C1031.97 107.019 1033.21 107.205 1034.6 107.05ZM1072.46 104.727L1072.29 98.4162L1066.16 99.8287L1070.41 95.2234L1065.25 91.6113L1071.54 91.6975L1070.33 85.5014L1074.8 89.9232L1078.23 84.623L1078.36 90.9397L1084.48 89.4755L1080.23 94.1325L1085.39 97.6929L1079.11 97.6583L1080.37 103.849L1075.85 99.381L1072.46 104.727ZM1109.71 100.327L1107.7 82.2386L1113.26 81.6214C1115.4 81.3841 1117.19 81.5602 1118.63 82.1498C1120.09 82.7203 1121.22 83.6496 1122.03 84.9378C1122.85 86.2069 1123.36 87.789 1123.57 89.684C1123.78 91.5445 1123.62 93.184 1123.1 94.6024C1122.59 96.0188 1121.69 97.1654 1120.4 98.042C1119.11 98.9168 1117.41 99.4728 1115.27 99.7101L1109.71 100.327ZM1111.68 98.2773L1115.02 97.907C1116.74 97.7156 1118.09 97.2869 1119.06 96.6208C1120.05 95.9355 1120.71 95.033 1121.06 93.9132C1121.41 92.7762 1121.49 91.4497 1121.33 89.9337C1121.05 87.4702 1120.28 85.7073 1119.01 84.6449C1117.74 83.5653 1115.87 83.1623 1113.41 83.436L1110.08 83.8063L1111.68 98.2773ZM1127.71 98.3285L1125.7 80.2398L1127.87 79.9986L1129.88 98.0873L1127.71 98.3285ZM1141.53 97.1073C1139.8 97.2987 1138.26 97.0689 1136.9 96.4181C1135.55 95.7481 1134.45 94.7547 1133.58 93.4377C1132.74 92.1016 1132.21 90.5291 1132.01 88.7203C1131.81 86.9286 1131.98 85.2882 1132.51 83.799C1133.05 82.3098 1133.92 81.0876 1135.14 80.1325C1136.36 79.1601 1137.9 78.5706 1139.76 78.3639C1141.79 78.1381 1143.53 78.4415 1144.99 79.2742C1146.46 80.105 1147.48 81.3597 1148.07 83.0384L1145.57 83.3169C1145.2 82.2584 1144.53 81.4611 1143.55 80.9251C1142.58 80.3872 1141.39 80.1968 1139.98 80.3537C1138.55 80.5125 1137.38 80.9738 1136.47 81.7375C1135.56 82.5013 1134.92 83.4708 1134.54 84.646C1134.18 85.8022 1134.08 87.078 1134.24 88.4734C1134.39 89.886 1134.78 91.1245 1135.41 92.1888C1136.03 93.253 1136.85 94.0513 1137.87 94.5834C1138.89 95.1156 1140.06 95.308 1141.39 95.1606C1143.32 94.9462 1144.71 94.2246 1145.57 92.9958C1146.42 91.7497 1146.81 90.137 1146.73 88.1578L1140.22 88.8812L1140.03 87.1757L1148.76 86.2054L1149.84 95.87L1147.85 96.091L1147.34 93.1394C1146.8 94.263 1146.09 95.1616 1145.2 95.8354C1144.32 96.5092 1143.09 96.9331 1141.53 97.1073ZM1153.27 95.4886L1151.26 77.3999L1153.43 77.1588L1155.44 95.2475L1153.27 95.4886ZM1163.51 94.3506L1161.7 78.0449L1156.3 78.6449L1156.1 76.8619L1169.08 75.4208L1169.27 77.2038L1163.87 77.8038L1165.69 94.1095L1163.51 94.3506ZM1170.56 93.5684L1175.21 74.7391L1177.51 74.4836L1186.16 91.8345L1183.86 92.09L1181.69 87.6224L1173.99 88.4778L1172.83 93.3158L1170.56 93.5684ZM1174.44 86.6489L1180.85 85.9369L1176.65 77.3519L1174.44 86.6489ZM1188.85 91.5358L1186.84 73.4471L1189.01 73.2059L1190.83 89.5633L1199.25 88.6275L1199.45 90.3588L1188.85 91.5358ZM1228.06 87.4413L1227.89 81.1303L1221.77 82.5429L1226.01 77.9375L1220.85 74.3254L1227.14 74.4117L1225.93 68.2155L1230.4 72.6373L1233.84 67.3371L1233.96 73.6538L1240.08 72.1896L1235.83 76.8466L1240.99 80.4071L1234.71 80.3725L1235.97 86.5628L1231.45 82.0951L1228.06 87.4413ZM1265.32 83.0415L1263.31 64.9527L1268.86 64.3355C1271 64.0982 1272.79 64.2744 1274.23 64.864C1275.69 65.4344 1276.82 66.3637 1277.63 67.652C1278.45 68.9211 1278.96 70.5031 1279.18 72.3981C1279.38 74.2587 1279.22 75.8982 1278.7 77.3165C1278.2 78.733 1277.29 79.8795 1276 80.7562C1274.72 81.6309 1273.01 82.187 1270.87 82.4243L1265.32 83.0415ZM1267.29 80.9915L1270.62 80.6211C1272.34 80.4298 1273.69 80.001 1274.66 79.3349C1275.65 78.6497 1276.32 77.7472 1276.66 76.6274C1277.01 75.4904 1277.1 74.1639 1276.93 72.6479C1276.65 70.1844 1275.88 68.4214 1274.61 67.3591C1273.34 66.2794 1271.47 65.8765 1269.01 66.1502L1265.68 66.5205L1267.29 80.9915ZM1283.31 81.0426L1281.3 62.9539L1283.47 62.7128L1285.48 80.8015L1283.31 81.0426ZM1294.77 79.7697L1285.96 62.436L1288.31 62.1747L1295.78 77.3292L1299.79 60.9001L1302.09 60.6447L1297.3 79.4884L1294.77 79.7697ZM1313.15 78.0417C1311.56 78.2178 1310.24 78.0416 1309.19 77.5133C1308.14 76.9678 1307.32 76.1954 1306.74 75.1962C1306.17 74.1778 1305.82 73.0485 1305.68 71.8081L1304.41 60.3864L1306.58 60.1452L1307.85 71.5928C1308.05 73.35 1308.61 74.5779 1309.54 75.2766C1310.48 75.9753 1311.62 76.2491 1312.98 76.0979C1314.35 75.9467 1315.39 75.4289 1316.13 74.5446C1316.87 73.6603 1317.14 72.3395 1316.95 70.5823L1315.68 59.1348L1317.85 58.8936L1319.12 70.3154C1319.26 71.6419 1319.19 72.775 1318.89 73.7149C1318.6 74.6547 1318.14 75.429 1317.53 76.0377C1316.93 76.6444 1316.25 77.1124 1315.49 77.4417C1314.72 77.7536 1313.94 77.9537 1313.15 78.0417ZM1323.53 76.574L1321.52 58.4853L1323.69 58.2441L1325.51 74.6015L1333.94 73.6657L1334.13 75.397L1323.53 76.574ZM1343.23 74.6996C1341.51 74.891 1339.97 74.6612 1338.6 74.0104C1337.26 73.3404 1336.15 72.347 1335.29 71.03C1334.44 69.6939 1333.92 68.1214 1333.72 66.3126C1333.52 64.5209 1333.69 62.8805 1334.22 61.3913C1334.75 59.9021 1335.63 58.6799 1336.85 57.7248C1338.06 56.7524 1339.6 56.1629 1341.46 55.9562C1343.5 55.7304 1345.24 56.0338 1346.69 56.8665C1348.16 57.6973 1349.19 58.952 1349.78 60.6307L1347.27 60.9092C1346.91 59.8507 1346.24 59.0534 1345.25 58.5174C1344.29 57.9795 1343.1 57.7891 1341.68 57.946C1340.26 58.1048 1339.09 58.5661 1338.18 59.3299C1337.27 60.0936 1336.62 61.0631 1336.25 62.2384C1335.89 63.3945 1335.79 64.6703 1335.94 66.0657C1336.1 67.4783 1336.49 68.7168 1337.11 69.7811C1337.74 70.8453 1338.56 71.6436 1339.58 72.1757C1340.6 72.7079 1341.77 72.9003 1343.09 72.7529C1345.02 72.5386 1346.42 71.817 1347.27 70.5881C1348.13 69.342 1348.52 67.7293 1348.44 65.7501L1341.93 66.4735L1341.74 64.768L1350.47 63.7977L1351.54 73.4623L1349.55 73.6833L1349.04 70.7317C1348.51 71.8553 1347.79 72.754 1346.91 73.4277C1346.03 74.1015 1344.8 74.5254 1343.23 74.6996ZM1353.84 73.2072L1358.5 54.3779L1360.8 54.1224L1369.45 71.4733L1367.15 71.7288L1364.98 67.2612L1357.28 68.1166L1356.11 72.9546L1353.84 73.2072ZM1357.73 66.2877L1364.14 65.5758L1359.94 56.9907L1357.73 66.2877ZM1379.07 70.7183C1377.24 70.9212 1375.64 70.6896 1374.26 70.0234C1372.87 69.34 1371.77 68.3293 1370.94 66.9913C1370.11 65.6533 1369.6 64.0971 1369.4 62.3227C1369.2 60.5655 1369.36 58.9442 1369.85 57.4589C1370.37 55.9716 1371.23 54.7427 1372.43 53.7723C1373.63 52.8018 1375.15 52.2142 1376.99 52.0094C1379.06 51.7798 1380.79 52.0928 1382.2 52.9484C1383.62 53.7849 1384.6 55.0703 1385.16 56.8045L1382.76 57.0715C1382.36 55.9824 1381.69 55.1497 1380.76 54.5735C1379.84 53.9782 1378.65 53.7609 1377.2 53.9217C1375.77 54.0805 1374.62 54.5485 1373.75 55.3256C1372.88 56.0855 1372.26 57.0522 1371.9 58.2255C1371.56 59.397 1371.47 60.6804 1371.62 62.0758C1371.78 63.5057 1372.16 64.7537 1372.77 65.8199C1373.39 66.8842 1374.22 67.691 1375.24 68.2404C1376.26 68.7726 1377.46 68.9611 1378.86 68.8061C1380.3 68.6453 1381.41 68.1908 1382.19 67.4423C1382.97 66.6748 1383.44 65.7244 1383.6 64.5912L1386 64.3243C1385.83 66.1044 1385.15 67.5582 1383.95 68.6856C1382.76 69.8111 1381.14 70.4887 1379.07 70.7183ZM1377.92 77.3078L1377.77 75.9382L1380.14 75.6741C1381.32 75.544 1381.86 75.0654 1381.76 74.2385C1381.68 73.4633 1381.05 73.1407 1379.88 73.2709L1378.61 73.4115L1378.24 70.0522L1379.68 69.8914L1379.91 71.9587C1380.57 71.8688 1381.15 71.8822 1381.67 71.999C1382.19 72.133 1382.61 72.3741 1382.93 72.7225C1383.26 73.069 1383.46 73.5179 1383.52 74.0691C1383.58 74.6032 1383.5 75.075 1383.26 75.4847C1383.05 75.9096 1382.72 76.2513 1382.28 76.5097C1381.83 76.7681 1381.3 76.9317 1380.68 77.0006L1377.92 77.3078ZM1388.13 69.3974L1392.79 50.568L1395.09 50.3125L1403.74 67.6635L1401.44 67.919L1399.27 63.4513L1391.57 64.3068L1390.41 69.1448L1388.13 69.3974ZM1392.02 62.4778L1398.43 61.7659L1394.23 53.1809L1392.02 62.4778ZM1395.19 48.8367C1394.72 48.8884 1394.33 48.8272 1394.02 48.653C1393.7 48.4788 1393.4 48.3113 1393.13 48.1505C1392.84 47.9725 1392.5 47.9064 1392.08 47.9523C1391.46 48.0212 1391.14 48.449 1391.13 49.2358L1389.86 49.3764C1389.88 48.4844 1390.09 47.7992 1390.47 47.3206C1390.85 46.8421 1391.37 46.5665 1392.03 46.4938C1392.49 46.4421 1392.88 46.5034 1393.2 46.6775C1393.51 46.8345 1393.81 47.002 1394.09 47.18C1394.39 47.3561 1394.74 47.4222 1395.13 47.3782C1395.41 47.3475 1395.64 47.226 1395.82 47.0135C1396.01 46.8011 1396.11 46.4938 1396.11 46.0919L1397.38 45.9512C1397.37 46.8068 1397.17 47.4835 1396.77 47.9811C1396.37 48.4788 1395.84 48.764 1395.19 48.8367ZM1414.68 66.762C1413.31 66.9151 1412.04 66.8203 1410.89 66.4777C1409.73 66.1178 1408.72 65.5588 1407.85 64.8008C1406.98 64.0428 1406.27 63.1182 1405.73 62.0272C1405.21 60.9342 1404.88 59.7244 1404.73 58.3979C1404.58 57.0714 1404.64 55.8176 1404.91 54.6366C1405.2 53.4537 1405.68 52.3971 1406.37 51.4668C1407.05 50.5366 1407.91 49.7786 1408.94 49.1929C1409.99 48.588 1411.21 48.2081 1412.61 48.0531C1413.98 47.9 1415.24 47.9957 1416.38 48.3403C1417.53 48.6657 1418.54 49.2074 1419.41 49.9654C1420.28 50.7062 1420.98 51.6308 1421.52 52.7391C1422.06 53.8302 1422.41 55.0562 1422.56 56.4171C1422.71 57.7781 1422.64 59.0587 1422.36 60.2588C1422.07 61.4418 1421.59 62.4984 1420.91 63.4286C1420.22 64.3417 1419.36 65.092 1418.3 65.6796C1417.27 66.2481 1416.06 66.6089 1414.68 66.762ZM1414.47 64.8497C1415.88 64.6928 1417.05 64.2401 1417.98 63.4917C1418.91 62.7433 1419.57 61.7805 1419.96 60.6033C1420.37 59.4242 1420.5 58.1111 1420.34 56.664C1420.17 55.1825 1419.76 53.9201 1419.11 52.8769C1418.46 51.8145 1417.61 51.0287 1416.54 50.5195C1415.47 50.0103 1414.23 49.8342 1412.82 49.9912C1411.43 50.1462 1410.26 50.5979 1409.34 51.3463C1408.41 52.0947 1407.74 53.0585 1407.33 54.2376C1406.92 55.3995 1406.79 56.7039 1406.95 58.151C1407.11 59.5809 1407.52 60.8347 1408.18 61.9124C1408.84 62.9728 1409.7 63.7662 1410.77 64.2927C1411.84 64.8191 1413.08 65.0048 1414.47 64.8497Z" fill="#A9FE4B"/>
</svg>
