<svg width="375" height="64" viewBox="0 0 375 64" fill="none" xmlns="http://www.w3.org/2000/svg">
<g clip-path="url(#clip0_328_206)">
<g filter="url(#filter0_d_328_206)">
<rect x="-290.561" y="-28" width="825.737" height="29.1204" transform="rotate(5.50614 -290.561 -28)" fill="#A9FE4B"/>
<path d="M-352.286 -15.0163L-351.48 -23.3775L-348.912 -23.13C-347.925 -23.0348 -347.133 -22.7857 -346.537 -22.3826C-345.932 -21.9868 -345.509 -21.4597 -345.267 -20.8015C-345.016 -20.1504 -344.933 -19.3869 -345.017 -18.511C-345.1 -17.6509 -345.327 -16.9254 -345.697 -16.3342C-346.06 -15.7422 -346.576 -15.3097 -347.245 -15.0367C-347.906 -14.7629 -348.731 -14.6736 -349.718 -14.7687L-352.286 -15.0163ZM-351.202 -15.7557L-349.661 -15.6072C-348.865 -15.5304 -348.216 -15.5964 -347.713 -15.8052C-347.202 -16.0211 -346.815 -16.3656 -346.553 -16.8386C-346.289 -17.3195 -346.124 -17.9104 -346.056 -18.6111C-345.947 -19.7499 -346.128 -20.6193 -346.601 -21.2194C-347.073 -21.8275 -347.878 -22.1864 -349.017 -22.2962L-350.557 -22.4447L-351.202 -15.7557ZM-343.969 -14.2146L-343.163 -22.5758L-337.991 -22.0772L-338.071 -21.2531L-342.239 -21.6549L-342.501 -18.9435L-338.858 -18.5923L-338.936 -17.7801L-342.579 -18.1313L-342.886 -14.942L-338.718 -14.5402L-338.797 -13.716L-343.969 -14.2146ZM-334.577 -13.1645C-335.143 -13.219 -335.646 -13.3721 -336.088 -13.6236C-336.522 -13.8744 -336.856 -14.208 -337.089 -14.6243C-337.313 -15.0478 -337.398 -15.5422 -337.344 -16.1076L-336.292 -16.0062C-336.346 -15.4488 -336.206 -14.9892 -335.871 -14.6274C-335.535 -14.2736 -335.077 -14.0686 -334.495 -14.0126C-333.986 -13.9635 -333.552 -14.0462 -333.194 -14.2608C-332.827 -14.4747 -332.622 -14.8086 -332.579 -15.2625C-332.549 -15.573 -332.581 -15.8252 -332.675 -16.0191C-332.76 -16.2202 -332.904 -16.3909 -333.107 -16.531C-333.31 -16.6792 -333.569 -16.8247 -333.885 -16.9677C-334.201 -17.1106 -334.574 -17.2793 -335.006 -17.4735C-335.39 -17.6553 -335.717 -17.8515 -335.986 -18.0623C-336.247 -18.2723 -336.44 -18.516 -336.566 -18.7934C-336.691 -19.0787 -336.736 -19.4085 -336.7 -19.7828C-336.66 -20.2772 -336.509 -20.6806 -336.246 -20.9928C-335.974 -21.3122 -335.63 -21.5402 -335.215 -21.6771C-334.792 -21.8211 -334.337 -21.8696 -333.851 -21.8228C-333.357 -21.7752 -332.924 -21.641 -332.552 -21.4203C-332.17 -21.2067 -331.877 -20.9132 -331.672 -20.5398C-331.466 -20.1744 -331.383 -19.7444 -331.423 -19.2499L-332.474 -19.3513C-332.433 -19.7733 -332.551 -20.1343 -332.828 -20.4342C-333.103 -20.7421 -333.484 -20.9194 -333.97 -20.9663C-334.398 -21.0236 -334.775 -20.9514 -335.1 -20.7497C-335.425 -20.5479 -335.609 -20.2241 -335.652 -19.7781C-335.68 -19.4835 -335.643 -19.2428 -335.54 -19.0561C-335.429 -18.8766 -335.228 -18.7086 -334.938 -18.552C-334.648 -18.3954 -334.245 -18.1999 -333.729 -17.9653C-333.359 -17.801 -333.029 -17.6326 -332.741 -17.4601C-332.451 -17.2956 -332.212 -17.1078 -332.023 -16.8967C-331.834 -16.6936 -331.696 -16.4553 -331.61 -16.1818C-331.523 -15.9162 -331.498 -15.5963 -331.534 -15.222C-331.582 -14.7203 -331.755 -14.307 -332.051 -13.9819C-332.339 -13.6641 -332.707 -13.4343 -333.154 -13.2926C-333.593 -13.1581 -334.068 -13.1154 -334.577 -13.1645ZM-330.322 -12.899L-329.516 -21.2602L-328.512 -21.1635L-329.318 -12.8023L-330.322 -12.899ZM-323.964 -12.1414C-324.76 -12.2182 -325.435 -12.4681 -325.989 -12.8912C-326.534 -13.3215 -326.939 -13.8749 -327.204 -14.5514C-327.459 -15.2351 -327.547 -15.995 -327.466 -16.8311C-327.386 -17.6593 -327.156 -18.3845 -326.774 -19.0068C-326.393 -19.629 -325.881 -20.0981 -325.24 -20.4141C-324.598 -20.7379 -323.847 -20.8584 -322.987 -20.7755C-322.047 -20.685 -321.289 -20.3828 -320.711 -19.869C-320.126 -19.3545 -319.78 -18.6902 -319.674 -17.8763L-320.832 -17.988C-320.896 -18.5004 -321.124 -18.9242 -321.518 -19.2596C-321.903 -19.5941 -322.423 -19.7929 -323.076 -19.8558C-323.736 -19.9195 -324.308 -19.822 -324.792 -19.5631C-325.275 -19.3043 -325.657 -18.9272 -325.937 -18.4318C-326.209 -17.9437 -326.377 -17.3771 -326.439 -16.7321C-326.502 -16.0791 -326.443 -15.4827 -326.262 -14.9428C-326.081 -14.403 -325.785 -13.9646 -325.376 -13.6278C-324.966 -13.2909 -324.455 -13.0929 -323.842 -13.0338C-322.95 -12.9479 -322.252 -13.1418 -321.748 -13.6156C-321.244 -14.0975 -320.916 -14.7892 -320.764 -15.6908L-323.775 -15.981L-323.699 -16.7693L-319.661 -16.3802L-320.092 -11.9129L-321.012 -12.0015L-320.963 -13.3832C-321.312 -12.9266 -321.719 -12.5881 -322.182 -12.3675C-322.645 -12.1469 -323.239 -12.0716 -323.964 -12.1414ZM-318.505 -11.7599L-317.699 -20.1212L-316.696 -20.0244L-312.886 -12.894L-312.241 -19.595L-311.237 -19.4982L-312.043 -11.137L-313.047 -11.2337L-316.856 -18.3641L-317.502 -11.6632L-318.505 -11.7599ZM-298.445 -9.70561L-297.927 -12.5732L-300.826 -12.5151L-298.471 -14.1928L-300.46 -16.3135L-297.628 -15.6788L-297.588 -18.5924L-295.989 -16.1718L-293.933 -18.2401L-294.475 -15.3748L-291.573 -15.4568L-293.932 -13.7552L-291.94 -11.6584L-294.774 -12.2692L-294.79 -9.35327L-296.411 -11.8001L-298.445 -9.70561ZM-281.202 -8.16395L-280.396 -16.5252L-277.636 -16.2592C-277.047 -16.2024 -276.55 -16.0661 -276.145 -15.8502C-275.74 -15.6343 -275.438 -15.3401 -275.241 -14.9674C-275.044 -14.5948 -274.971 -14.1457 -275.022 -13.6201C-275.074 -13.0786 -275.24 -12.6446 -275.521 -12.318C-275.793 -11.9907 -276.153 -11.7641 -276.599 -11.6383C-277.037 -11.5118 -277.535 -11.4754 -278.092 -11.5291L-279.848 -11.6984L-280.198 -8.06723L-281.202 -8.16395ZM-279.766 -12.5465L-278.034 -12.3795C-277.366 -12.315 -276.879 -12.3968 -276.576 -12.6247C-276.272 -12.8606 -276.096 -13.2254 -276.049 -13.7192C-276 -14.2208 -276.103 -14.6125 -276.357 -14.8942C-276.611 -15.1838 -277.072 -15.3609 -277.741 -15.4254L-279.473 -15.5923L-279.766 -12.5465ZM-274.284 -7.49715L-273.478 -15.8584L-271.006 -15.62C-270.417 -15.5632 -269.923 -15.4273 -269.526 -15.2122C-269.128 -15.005 -268.834 -14.7195 -268.644 -14.3556C-268.454 -13.9917 -268.385 -13.547 -268.435 -13.0214C-268.498 -12.3684 -268.717 -11.8912 -269.092 -11.5898C-269.458 -11.2876 -269.937 -11.1127 -270.529 -11.0652L-268.503 -6.93986L-269.745 -7.05961L-271.539 -10.9697L-272.924 -11.1033L-273.281 -7.40043L-274.284 -7.49715ZM-272.842 -11.9513L-271.397 -11.812C-270.951 -11.769 -270.592 -11.7866 -270.319 -11.8648C-270.046 -11.951 -269.842 -12.1002 -269.709 -12.3124C-269.576 -12.5246 -269.494 -12.7939 -269.463 -13.1204C-269.43 -13.4549 -269.459 -13.739 -269.549 -13.9727C-269.639 -14.2064 -269.811 -14.3877 -270.063 -14.5165C-270.315 -14.6533 -270.664 -14.7432 -271.11 -14.7862L-272.556 -14.9256L-272.842 -11.9513ZM-263.653 -6.32761C-264.29 -6.38902 -264.853 -6.55179 -265.342 -6.81592C-265.83 -7.08802 -266.234 -7.43643 -266.555 -7.86117C-266.876 -8.2859 -267.106 -8.77026 -267.247 -9.31425C-267.379 -9.85747 -267.416 -10.4357 -267.357 -11.0488C-267.298 -11.662 -267.151 -12.2225 -266.917 -12.7304C-266.676 -13.2376 -266.357 -13.6689 -265.961 -14.0246C-265.565 -14.3802 -265.106 -14.6414 -264.583 -14.808C-264.052 -14.9819 -263.464 -15.0377 -262.819 -14.9755C-262.182 -14.9141 -261.623 -14.7517 -261.142 -14.4884C-260.652 -14.2322 -260.247 -13.8917 -259.926 -13.467C-259.605 -13.0502 -259.374 -12.5659 -259.235 -12.0139C-259.094 -11.4699 -259.054 -10.8834 -259.115 -10.2543C-259.176 -9.62524 -259.327 -9.05315 -259.57 -8.53805C-259.812 -8.0309 -260.13 -7.59951 -260.526 -7.24386C-260.922 -6.89618 -261.384 -6.6394 -261.915 -6.47352C-262.436 -6.31484 -263.016 -6.2662 -263.653 -6.32761ZM-263.567 -7.21152C-262.915 -7.14857 -262.343 -7.24216 -261.853 -7.49227C-261.362 -7.74238 -260.973 -8.11472 -260.684 -8.60929C-260.387 -9.1031 -260.207 -9.68445 -260.142 -10.3534C-260.076 -11.0382 -260.142 -11.6473 -260.34 -12.1807C-260.529 -12.7214 -260.84 -13.1573 -261.275 -13.4885C-261.709 -13.8197 -262.252 -14.0167 -262.905 -14.0797C-263.55 -14.1419 -264.118 -14.0479 -264.608 -13.7978C-265.099 -13.5477 -265.492 -13.1757 -265.789 -12.6819C-266.085 -12.1961 -266.265 -11.6187 -266.33 -10.9498C-266.393 -10.2889 -266.327 -9.68371 -266.131 -9.13435C-265.934 -8.59295 -265.619 -8.15267 -265.185 -7.81352C-264.752 -7.47436 -264.212 -7.27369 -263.567 -7.21152ZM-254.489 -5.44426C-255.285 -5.52102 -255.96 -5.77096 -256.514 -6.19406C-257.06 -6.62436 -257.464 -7.17776 -257.729 -7.85424C-257.984 -8.53792 -258.072 -9.29782 -257.991 -10.1339C-257.911 -10.9621 -257.681 -11.6873 -257.299 -12.3096C-256.918 -12.9319 -256.406 -13.401 -255.765 -13.7169C-255.123 -14.0408 -254.372 -14.1613 -253.512 -14.0784C-252.572 -13.9878 -251.814 -13.6856 -251.237 -13.1718C-250.651 -12.6573 -250.305 -11.993 -250.199 -11.1791L-251.358 -11.2908C-251.421 -11.8032 -251.649 -12.2271 -252.043 -12.5624C-252.428 -12.8969 -252.948 -13.0957 -253.601 -13.1586C-254.262 -13.2223 -254.834 -13.1248 -255.317 -12.8659C-255.8 -12.6071 -256.182 -12.23 -256.463 -11.7346C-256.735 -11.2465 -256.902 -10.6799 -256.964 -10.0349C-257.027 -9.38195 -256.968 -8.78553 -256.787 -8.24567C-256.606 -7.7058 -256.31 -7.26745 -255.901 -6.93059C-255.491 -6.59374 -254.98 -6.39576 -254.367 -6.33665C-253.475 -6.25068 -252.777 -6.44462 -252.273 -6.91846C-251.769 -7.40027 -251.441 -8.092 -251.29 -8.99365L-254.3 -9.28381L-254.224 -10.0722L-250.186 -9.68298L-250.617 -5.21568L-251.537 -5.30434L-251.488 -6.68604C-251.837 -6.22946 -252.244 -5.89089 -252.707 -5.67032C-253.17 -5.44976 -253.764 -5.37441 -254.489 -5.44426ZM-249.03 -5.06273L-248.224 -13.424L-245.752 -13.1856C-245.163 -13.1288 -244.669 -12.9929 -244.272 -12.7778C-243.874 -12.5706 -243.58 -12.2851 -243.39 -11.9212C-243.2 -11.5573 -243.131 -11.1126 -243.181 -10.587C-243.244 -9.93402 -243.463 -9.45681 -243.838 -9.15537C-244.204 -8.85316 -244.683 -8.67831 -245.275 -8.63083L-243.249 -4.50544L-244.491 -4.62519L-246.285 -8.53528L-247.67 -8.66885L-248.027 -4.96601L-249.03 -5.06273ZM-247.588 -9.51692L-246.143 -9.37759C-245.697 -9.33461 -245.338 -9.35221 -245.065 -9.4304C-244.791 -9.51655 -244.588 -9.66573 -244.455 -9.87795C-244.322 -10.0902 -244.24 -10.3595 -244.209 -10.686C-244.176 -11.0205 -244.205 -11.3045 -244.295 -11.5383C-244.385 -11.772 -244.557 -11.9533 -244.809 -12.0821C-245.061 -12.2189 -245.41 -12.3088 -245.856 -12.3518L-247.302 -12.4911L-247.588 -9.51692ZM-242.475 -4.43086L-238.588 -12.495L-237.525 -12.3926L-235.261 -3.7354L-236.324 -3.83787L-236.881 -6.0616L-240.441 -6.40472L-241.424 -4.32953L-242.475 -4.43086ZM-240.064 -7.18817L-237.102 -6.90262L-238.184 -11.1782L-240.064 -7.18817ZM-234.018 -3.61557L-233.212 -11.9768L-232.041 -11.864L-229.71 -5.78024L-226.284 -11.309L-225.102 -11.195L-225.908 -2.83375L-226.911 -2.93047L-226.28 -9.47613L-229.471 -4.38286L-230.224 -4.4554L-232.385 -10.0526L-233.015 -3.51885L-234.018 -3.61557ZM-224.664 -2.71383L-220.776 -10.778L-219.713 -10.6755L-217.449 -2.01837L-218.512 -2.12085L-219.069 -4.34457L-222.629 -4.6877L-223.612 -2.61251L-224.664 -2.71383ZM-222.252 -5.47115L-219.29 -5.18559L-220.372 -9.46121L-222.252 -5.47115ZM-213.031 -1.44783C-213.875 -1.5292 -214.578 -1.7858 -215.139 -2.21763C-215.699 -2.65743 -216.103 -3.21879 -216.351 -3.9017C-216.599 -4.58461 -216.683 -5.33616 -216.604 -6.15636C-216.525 -6.9686 -216.304 -7.68662 -215.938 -8.31042C-215.564 -8.93346 -215.061 -9.4073 -214.427 -9.73196C-213.793 -10.0566 -213.049 -10.1779 -212.197 -10.0957C-211.242 -10.0036 -210.488 -9.69785 -209.935 -9.17842C-209.374 -8.66619 -209.049 -7.99191 -208.961 -7.15559L-210.071 -7.26268C-210.149 -7.79256 -210.372 -8.23197 -210.74 -8.58091C-211.1 -8.93705 -211.614 -9.14736 -212.283 -9.21184C-212.944 -9.27555 -213.508 -9.17324 -213.976 -8.90489C-214.443 -8.64452 -214.813 -8.26627 -215.086 -7.77017C-215.351 -7.27329 -215.514 -6.70235 -215.577 -6.05734C-215.64 -5.3964 -215.586 -4.79639 -215.412 -4.25729C-215.231 -3.71743 -214.937 -3.27509 -214.528 -2.93028C-214.118 -2.59342 -213.591 -2.39391 -212.946 -2.33173C-212.277 -2.26725 -211.733 -2.3675 -211.313 -2.63249C-210.885 -2.90467 -210.583 -3.28943 -210.407 -3.78679L-209.296 -3.67971C-209.54 -2.89155 -209.987 -2.2997 -210.636 -1.90414C-211.277 -1.50782 -212.075 -1.35571 -213.031 -1.44783ZM-214.175 1.41959L-214.114 0.786528L-213.016 0.89246C-212.474 0.944658 -212.185 0.779643 -212.148 0.397415C-212.113 0.0390757 -212.367 -0.166193 -212.908 -0.218391L-213.494 -0.274811L-213.344 -1.82761L-212.675 -1.76313L-212.767 -0.807563C-212.464 -0.786356 -212.201 -0.724807 -211.977 -0.622915C-211.755 -0.51306 -211.588 -0.364398 -211.478 -0.176928C-211.359 0.0113096 -211.312 0.232838 -211.337 0.487657C-211.361 0.734512 -211.445 0.939393 -211.589 1.1023C-211.726 1.27394 -211.907 1.39717 -212.131 1.472C-212.355 1.54683 -212.611 1.57043 -212.897 1.5428L-214.175 1.41959ZM-208.811 -1.18572L-204.924 -9.24989L-203.86 -9.14741L-201.597 -0.490252L-202.66 -0.592729L-203.217 -2.81645L-206.776 -3.15958L-207.76 -1.08439L-208.811 -1.18572ZM-206.4 -3.94303L-203.437 -3.65748L-204.52 -7.9331L-206.4 -3.94303ZM-203.677 -9.8048C-203.892 -9.82552 -204.062 -9.89019 -204.188 -9.9988C-204.314 -10.1074 -204.433 -10.2113 -204.544 -10.3104C-204.654 -10.4174 -204.805 -10.4802 -204.996 -10.4986C-205.283 -10.5262 -205.467 -10.3632 -205.55 -10.0095L-206.135 -10.0659C-206.04 -10.4666 -205.883 -10.7569 -205.665 -10.9368C-205.447 -11.1167 -205.186 -11.1921 -204.884 -11.1629C-204.669 -11.1422 -204.498 -11.0775 -204.372 -10.9689C-204.245 -10.8683 -204.127 -10.7644 -204.016 -10.6573C-203.898 -10.5495 -203.747 -10.4867 -203.564 -10.4691C-203.437 -10.4568 -203.321 -10.4899 -203.217 -10.5682C-203.113 -10.6466 -203.04 -10.7762 -202.999 -10.9571L-202.414 -10.9007C-202.499 -10.5151 -202.655 -10.2287 -202.882 -10.0417C-203.109 -9.85458 -203.374 -9.77563 -203.677 -9.8048ZM-196.569 0.139059C-197.206 0.0776491 -197.769 -0.0851212 -198.258 -0.349252C-198.746 -0.621346 -199.151 -0.969761 -199.471 -1.39449C-199.792 -1.81923 -200.023 -2.30359 -200.163 -2.84758C-200.296 -3.3908 -200.332 -3.96898 -200.273 -4.58214C-200.214 -5.1953 -200.068 -5.75583 -199.834 -6.26374C-199.592 -6.77088 -199.273 -7.20228 -198.877 -7.55792C-198.481 -7.91357 -198.022 -8.17472 -197.5 -8.34136C-196.969 -8.5152 -196.38 -8.57103 -195.735 -8.50885C-195.098 -8.44744 -194.539 -8.28506 -194.058 -8.0217C-193.569 -7.76553 -193.164 -7.42508 -192.843 -7.00034C-192.521 -6.58357 -192.291 -6.09921 -192.151 -5.54726C-192.011 -5.00327 -191.971 -4.41674 -192.031 -3.78765C-192.092 -3.15857 -192.244 -2.58648 -192.486 -2.07137C-192.728 -1.56423 -193.047 -1.13284 -193.443 -0.777189C-193.838 -0.429503 -194.301 -0.172723 -194.831 -0.00684724C-195.353 0.151833 -195.932 0.200468 -196.569 0.139059ZM-196.484 -0.744844C-195.831 -0.681899 -195.259 -0.775483 -194.769 -1.0256C-194.279 -1.27571 -193.889 -1.64805 -193.6 -2.14262C-193.304 -2.63643 -193.123 -3.21778 -193.059 -3.88668C-192.993 -4.5715 -193.058 -5.18063 -193.256 -5.71407C-193.445 -6.2547 -193.757 -6.69061 -194.191 -7.0218C-194.625 -7.35299 -195.169 -7.55006 -195.822 -7.61301C-196.467 -7.67518 -197.034 -7.58122 -197.525 -7.3311C-198.015 -7.08099 -198.409 -6.70903 -198.705 -6.21523C-199.001 -5.72939 -199.181 -5.15202 -199.246 -4.48312C-199.31 -3.82218 -199.243 -3.21703 -199.047 -2.66767C-198.85 -2.12628 -198.535 -1.686 -198.102 -1.34684C-197.668 -1.00769 -197.129 -0.807021 -196.484 -0.744844ZM-179.162 1.79295L-178.644 -1.07463L-181.543 -1.01652L-179.188 -2.69421L-181.177 -4.81491L-178.345 -4.18023L-178.305 -7.09386L-176.706 -4.67325L-174.65 -6.74152L-175.192 -3.87625L-172.29 -3.95825L-174.649 -2.25667L-172.657 -0.159855L-175.491 -0.770648L-175.507 2.14528L-177.128 -0.301516L-179.162 1.79295ZM-159.269 3.73471C-159.834 3.68021 -160.338 3.52718 -160.78 3.27562C-161.214 3.02482 -161.547 2.69128 -161.78 2.27499C-162.005 1.8515 -162.09 1.35707 -162.035 0.791693L-160.984 0.893019C-161.038 1.45044 -160.897 1.91004 -160.562 2.27184C-160.227 2.62567 -159.768 2.83061 -159.187 2.88664C-158.677 2.93577 -158.243 2.85303 -157.885 2.63841C-157.519 2.42456 -157.314 2.09069 -157.27 1.6368C-157.24 1.32624 -157.272 1.07401 -157.366 0.880109C-157.451 0.679016 -157.595 0.508383 -157.799 0.368211C-158.002 0.220076 -158.261 0.0745304 -158.577 -0.0684252C-158.892 -0.211381 -159.266 -0.380001 -159.697 -0.574287C-160.082 -0.756003 -160.408 -0.952254 -160.677 -1.16304C-160.938 -1.37306 -161.132 -1.61675 -161.258 -1.89412C-161.383 -2.17945 -161.428 -2.50924 -161.391 -2.88351C-161.352 -3.37799 -161.2 -3.78132 -160.937 -4.09351C-160.665 -4.41289 -160.322 -4.64099 -159.907 -4.7778C-159.483 -4.9218 -159.028 -4.97039 -158.543 -4.92356C-158.049 -4.87597 -157.616 -4.74179 -157.243 -4.52103C-156.862 -4.30746 -156.569 -4.01397 -156.364 -3.64057C-156.158 -3.27513 -156.075 -2.84517 -156.114 -2.35069L-157.165 -2.45201C-157.125 -2.87406 -157.243 -3.23504 -157.519 -3.53495C-157.795 -3.84283 -158.176 -4.02018 -158.661 -4.067C-159.09 -4.12438 -159.466 -4.05219 -159.791 -3.85043C-160.116 -3.64867 -160.3 -3.32482 -160.343 -2.87889C-160.372 -2.58426 -160.334 -2.34359 -160.232 -2.15689C-160.121 -1.97738 -159.92 -1.80934 -159.629 -1.65276C-159.339 -1.49618 -158.936 -1.3006 -158.42 -1.06602C-158.05 -0.901762 -157.721 -0.733382 -157.432 -0.560877C-157.143 -0.396335 -156.903 -0.208527 -156.715 0.00254469C-156.525 0.205654 -156.388 0.443973 -156.302 0.717501C-156.215 0.983067 -156.189 1.30298 -156.225 1.67725C-156.274 2.17892 -156.446 2.59228 -156.743 2.91733C-157.03 3.23517 -157.398 3.46495 -157.846 3.60665C-158.285 3.74115 -158.759 3.78384 -159.269 3.73471ZM-151.229 4.50977C-151.866 4.44836 -152.429 4.28559 -152.917 4.02146C-153.406 3.74936 -153.81 3.40095 -154.131 2.97622C-154.451 2.55148 -154.682 2.06712 -154.823 1.52313C-154.955 0.979915 -154.992 0.401727 -154.933 -0.211431C-154.873 -0.824589 -154.727 -1.38512 -154.493 -1.89303C-154.251 -2.40017 -153.933 -2.83157 -153.537 -3.18721C-153.141 -3.54286 -152.681 -3.80401 -152.159 -3.97065C-151.628 -4.14449 -151.04 -4.20032 -150.395 -4.13814C-149.758 -4.07673 -149.199 -3.91435 -148.718 -3.65099C-148.228 -3.39482 -147.823 -3.05437 -147.502 -2.62963C-147.181 -2.21286 -146.95 -1.7285 -146.811 -1.17655C-146.67 -0.632564 -146.63 -0.0460282 -146.691 0.583056C-146.751 1.21214 -146.903 1.78423 -147.146 2.29934C-147.387 2.80648 -147.706 3.23787 -148.102 3.59352C-148.497 3.94121 -148.96 4.19799 -149.49 4.36386C-150.012 4.52254 -150.591 4.57118 -151.229 4.50977ZM-151.143 3.62587C-150.49 3.68881 -149.919 3.59523 -149.428 3.34512C-148.938 3.095 -148.549 2.72266 -148.26 2.22809C-147.963 1.73428 -147.783 1.15293 -147.718 0.484033C-147.652 -0.200793 -147.718 -0.809922 -147.916 -1.34336C-148.105 -1.88399 -148.416 -2.3199 -148.85 -2.65109C-149.285 -2.98228 -149.828 -3.17935 -150.481 -3.2423C-151.126 -3.30447 -151.694 -3.21051 -152.184 -2.96039C-152.674 -2.71028 -153.068 -2.33832 -153.365 -1.84452C-153.661 -1.35868 -153.841 -0.781307 -153.905 -0.112408C-153.969 0.548528 -153.903 1.15368 -153.707 1.70304C-153.51 2.24443 -153.194 2.68471 -152.761 3.02387C-152.328 3.36302 -151.788 3.56369 -151.143 3.62587ZM-141.993 5.40003C-142.837 5.31866 -143.54 5.06206 -144.101 4.63022C-144.661 4.19043 -145.065 3.62907 -145.313 2.94616C-145.561 2.26325 -145.645 1.5117 -145.566 0.691497C-145.488 -0.120738 -145.266 -0.838757 -144.9 -1.46256C-144.527 -2.0856 -144.023 -2.55944 -143.389 -2.8841C-142.755 -3.20876 -142.012 -3.33002 -141.16 -3.24788C-140.204 -3.15577 -139.45 -2.85 -138.897 -2.33056C-138.336 -1.81833 -138.011 -1.14405 -137.923 -0.307735L-139.034 -0.414818C-139.111 -0.9447 -139.334 -1.38411 -139.702 -1.73305C-140.062 -2.08919 -140.576 -2.2995 -141.245 -2.36398C-141.906 -2.42769 -142.47 -2.32538 -142.938 -2.05704C-143.405 -1.79666 -143.775 -1.41842 -144.048 -0.922308C-144.313 -0.425433 -144.476 0.14551 -144.539 0.79052C-144.602 1.45146 -144.548 2.05147 -144.375 2.59057C-144.194 3.13043 -143.899 3.57277 -143.49 3.91758C-143.08 4.25444 -142.553 4.45395 -141.908 4.51613C-141.239 4.58061 -140.695 4.48036 -140.276 4.21537C-139.847 3.94319 -139.545 3.55843 -139.369 3.06107L-138.258 3.16815C-138.503 3.9563 -138.949 4.54816 -139.598 4.94372C-140.239 5.34004 -141.038 5.49215 -141.993 5.40003ZM-137.049 5.73192L-136.243 -2.62932L-135.24 -2.5326L-136.046 5.82864L-137.049 5.73192ZM-134.799 5.94888L-130.911 -2.1153L-129.848 -2.01282L-127.584 6.64434L-128.647 6.54186L-129.205 4.31814L-132.764 3.97501L-133.748 6.0502L-134.799 5.94888ZM-132.387 3.19156L-129.425 3.47712L-130.508 -0.798504L-132.387 3.19156ZM-126.341 6.76416L-125.535 -1.59708L-124.532 -1.50036L-125.261 6.06059L-121.367 6.43596L-121.444 7.23625L-126.341 6.76416ZM-116.905 7.67383L-116.099 -0.687408L-114.928 -0.574568L-112.597 5.50917L-109.171 -0.0195785L-107.988 0.094413L-108.794 8.45566L-109.798 8.35894L-109.167 1.81328L-112.358 6.90655L-113.11 6.83401L-115.271 1.23684L-115.901 7.77055L-116.905 7.67383ZM-107.025 8.62624L-106.219 0.264995L-101.047 0.763565L-101.126 1.58774L-105.295 1.1859L-105.556 3.89733L-101.913 4.24851L-101.991 5.06075L-105.634 4.70956L-105.942 7.89878L-101.773 8.30063L-101.853 9.12481L-107.025 8.62624ZM-100.282 9.27617L-99.4764 0.914924L-96.9083 1.16248C-95.9209 1.25767 -95.1291 1.50679 -94.5331 1.90984C-93.9283 2.3057 -93.5049 2.83276 -93.2629 3.49101C-93.0122 4.14207 -92.9291 4.90557 -93.0135 5.78151C-93.0964 6.64152 -93.3231 7.36712 -93.6936 7.9583C-94.056 8.55025 -94.5719 8.98275 -95.2412 9.25579C-95.9025 9.5296 -96.7269 9.61891 -97.7143 9.52372L-100.282 9.27617ZM-99.1985 8.53676L-97.6576 8.6853C-96.8613 8.76206 -96.212 8.69606 -95.7096 8.4873C-95.1985 8.27134 -94.8117 7.92687 -94.5491 7.45388C-94.2857 6.97293 -94.1203 6.38208 -94.0527 5.68133C-93.943 4.54261 -94.1244 3.67319 -94.597 3.07308C-95.0688 2.465 -95.8741 2.10607 -97.0128 1.9963L-98.5537 1.84777L-99.1985 8.53676ZM-91.9655 10.0779L-91.1595 1.71665L-90.1561 1.81337L-90.9621 10.1746L-91.9655 10.0779ZM-89.7149 10.2948L-85.8271 2.23068L-84.7641 2.33315L-82.5003 10.9903L-83.5634 10.8878L-84.1206 8.66411L-87.6801 8.32098L-88.6637 10.3962L-89.7149 10.2948ZM-87.3032 7.53753L-84.3409 7.82309L-85.4236 3.54747L-87.3032 7.53753ZM-66.3879 12.6641L-65.8703 9.79649L-68.7693 9.8546L-66.4134 8.17691L-68.4031 6.0562L-65.571 6.69089L-65.5312 3.77726L-63.9321 6.19787L-61.8762 4.12959L-62.4176 6.99486L-59.5163 6.91287L-61.8745 8.61445L-59.8825 10.7113L-62.717 10.1005L-62.7328 13.0164L-64.3535 10.5696L-66.3879 12.6641ZM-49.1445 14.2057L-48.3385 5.84448L-47.3351 5.9412L-48.1411 14.3024L-49.1445 14.2057ZM-46.3683 14.4733L-45.5623 6.1121L-42.9942 6.35966C-42.0067 6.45484 -41.215 6.70396 -40.6189 7.10702C-40.0141 7.50288 -39.5907 8.02993 -39.3488 8.68819C-39.0981 9.33924 -39.015 10.1027 -39.0994 10.9787C-39.1823 11.8387 -39.409 12.5643 -39.7794 13.1555C-40.1419 13.7474 -40.6578 14.1799 -41.327 14.453C-41.9884 14.7268 -42.8127 14.8161 -43.8002 14.7209L-46.3683 14.4733ZM-45.2843 13.7339L-43.7435 13.8825C-42.9471 13.9592 -42.2978 13.8932 -41.7955 13.6845C-41.2844 13.4685 -40.8976 13.124 -40.635 12.6511C-40.3716 12.1701 -40.2061 11.5793 -40.1386 10.8785C-40.0288 9.73979 -40.2102 8.87037 -40.6828 8.27025C-41.1547 7.66217 -41.9599 7.30325 -43.0987 7.19348L-44.6395 7.04494L-45.2843 13.7339ZM-38.0513 15.2751L-37.2453 6.91383L-32.0733 7.4124L-32.1528 8.23658L-36.3214 7.83473L-36.5828 10.5462L-32.9397 10.8973L-33.018 11.7096L-36.6611 11.3584L-36.9685 14.5476L-32.7999 14.9495L-32.8793 15.7736L-38.0513 15.2751ZM-31.3092 15.925L-30.5032 7.56376L-29.4998 7.66048L-25.6904 14.7909L-25.0445 8.08996L-24.0411 8.18668L-24.8471 16.5479L-25.8505 16.4512L-29.6599 9.32078L-30.3058 16.0217L-31.3092 15.925ZM-21.115 16.9077L-20.3884 9.37063L-22.8849 9.12998L-22.8054 8.3058L-16.8092 8.88382L-16.8886 9.708L-19.3851 9.46735L-20.1116 17.0044L-21.115 16.9077ZM-16.39 17.3632L-15.584 9.00192L-14.5807 9.09864L-15.3867 17.4599L-16.39 17.3632ZM-13.6138 17.6308L-12.8078 9.26954L-10.2397 9.51709C-9.25232 9.61228 -8.46057 9.8614 -7.8645 10.2645C-7.25969 10.6603 -6.83631 11.1874 -6.59435 11.8456C-6.34367 12.4967 -6.26054 13.2602 -6.34498 14.1361C-6.42788 14.9961 -6.65455 15.7217 -7.02499 16.3129C-7.38746 16.9049 -7.90334 17.3374 -8.57263 17.6104C-9.23395 17.8842 -10.0583 17.9735 -11.0457 17.8783L-13.6138 17.6308ZM-12.5299 16.8914L-10.989 17.0399C-10.1927 17.1167 -9.5434 17.0507 -9.04105 16.8419C-8.52997 16.626 -8.14313 16.2815 -7.88054 15.8085C-7.61717 15.3275 -7.45172 14.7367 -7.38416 14.0359C-7.27439 12.8972 -7.45581 12.0278 -7.92841 11.4277C-8.40024 10.8196 -9.20551 10.4607 -10.3442 10.3509L-11.8851 10.2024L-12.5299 16.8914ZM-6.41739 18.3245L-2.52967 10.2603L-1.4666 10.3628L0.797168 19.02L-0.265904 18.9175L-0.823102 16.6938L-4.3826 16.3506L-5.36626 18.4258L-6.41739 18.3245ZM-4.00569 15.5672L-1.04342 15.8527L-2.12616 11.5771L-4.00569 15.5672ZM2.04016 19.1398L2.84616 10.7785L5.41425 11.0261C6.40168 11.1213 7.19343 11.3704 7.7895 11.7735C8.39431 12.1693 8.81769 12.6964 9.05965 13.3546C9.31033 14.0057 9.39346 14.7692 9.30902 15.6451C9.22611 16.5051 8.99945 17.2307 8.62901 17.8219C8.26654 18.4139 7.75066 18.8464 7.08137 19.1194C6.42005 19.3932 5.59568 19.4825 4.60825 19.3873L2.04016 19.1398ZM3.12411 18.4004L4.66496 18.5489C5.46127 18.6257 6.1106 18.5597 6.61295 18.3509C7.12403 18.135 7.51087 17.7905 7.77346 17.3175C8.03683 16.8365 8.20228 16.2457 8.26983 15.5449C8.3796 14.4062 8.19819 13.5368 7.72559 12.9367C7.25376 12.3286 6.44849 11.9697 5.30976 11.8599L3.76891 11.7114L3.12411 18.4004ZM10.3571 19.9415L11.1631 11.5803L16.3351 12.0788L16.2557 12.903L12.087 12.5012L11.8256 15.2126L15.4687 15.5638L15.3904 16.376L11.7473 16.0248L11.4399 19.214L15.6085 19.6159L15.5291 20.4401L10.3571 19.9415ZM28.9242 21.8519L29.4418 18.9843L26.5428 19.0424L28.8987 17.3647L26.909 15.244L29.7411 15.8787L29.7809 12.9651L31.38 15.3857L33.4359 13.3174L32.8945 16.1827L35.7958 16.1007L33.4376 17.8023L35.4296 19.8991L32.5951 19.2883L32.5793 22.2042L30.9586 19.7574L28.9242 21.8519ZM46.1676 23.3935L46.9736 15.0323L52.1457 15.5309L52.0662 16.3551L47.8975 15.9532L47.6362 18.6646L51.2793 19.0158L51.201 19.8281L47.5579 19.4769L47.2504 22.6661L51.4191 23.0679L51.3397 23.8921L46.1676 23.3935ZM52.9098 24.0435L53.7158 15.6822L56.2839 15.9298C57.2713 16.025 58.0631 16.2741 58.6592 16.6772C59.264 17.073 59.6874 17.6001 59.9293 18.2583C60.18 18.9094 60.2631 19.6729 60.1787 20.5488C60.0958 21.4088 59.8691 22.1344 59.4987 22.7256C59.1362 23.3176 58.6203 23.7501 57.951 24.0231C57.2897 24.2969 56.4653 24.3862 55.4779 24.291L52.9098 24.0435ZM53.9938 23.3041L55.5346 23.4526C56.3309 23.5294 56.9803 23.4634 57.4826 23.2546C57.9937 23.0387 58.3805 22.6942 58.6431 22.2212C58.9065 21.7402 59.0719 21.1494 59.1395 20.4486C59.2493 19.3099 59.0679 18.4405 58.5953 17.8404C58.1234 17.2323 57.3182 16.8734 56.1794 16.7636L54.6386 16.6151L53.9938 23.3041ZM61.2267 24.8452L62.0327 16.484L63.0361 16.5807L62.2301 24.9419L61.2267 24.8452ZM65.9619 25.3017L66.6884 17.7646L64.192 17.5239L64.2714 16.6998L70.2676 17.2778L70.1882 18.102L67.6918 17.8613L66.9652 25.3984L65.9619 25.3017ZM74.0514 26.2261C73.4144 26.1647 72.8514 26.002 72.3625 25.7378C71.8744 25.4657 71.4699 25.1173 71.1492 24.6926C70.8285 24.2679 70.5979 23.7835 70.4574 23.2395C70.3249 22.6963 70.2883 22.1181 70.3474 21.5049C70.4065 20.8918 70.5529 20.3312 70.7867 19.8233C71.0285 19.3162 71.3474 18.8848 71.7433 18.5292C72.1393 18.1735 72.5985 17.9124 73.1209 17.7457C73.652 17.5719 74.2401 17.516 74.8851 17.5782C75.5221 17.6396 76.0811 17.802 76.5621 18.0654C77.0517 18.3216 77.457 18.662 77.7777 19.0867C78.0992 19.5035 78.3298 19.9879 78.4694 20.5398C78.6099 21.0838 78.6498 21.6703 78.5892 22.2994C78.5285 22.9285 78.3769 23.5006 78.1344 24.0157C77.8926 24.5228 77.5737 24.9542 77.1778 25.3099C76.7826 25.6576 76.3198 25.9144 75.7895 26.0802C75.2678 26.2389 74.6885 26.2875 74.0514 26.2261ZM74.1366 25.3422C74.7896 25.4052 75.3612 25.3116 75.8515 25.0615C76.3418 24.8114 76.7313 24.439 77.0201 23.9445C77.3168 23.4507 77.4974 22.8693 77.5619 22.2004C77.6279 21.5156 77.5621 20.9064 77.3643 20.373C77.1754 19.8324 76.8637 19.3965 76.4295 19.0653C75.9953 18.7341 75.4517 18.537 74.7987 18.4741C74.1537 18.4119 73.5861 18.5059 73.0958 18.756C72.6056 19.0061 72.212 19.378 71.9153 19.8719C71.6193 20.3577 71.4391 20.9351 71.3746 21.604C71.3109 22.2649 71.3771 22.87 71.5733 23.4194C71.7703 23.9608 72.0855 24.4011 72.5189 24.7402C72.9524 25.0794 73.4916 25.2801 74.1366 25.3422ZM79.6336 26.6196L80.4396 18.2583L82.9121 18.4967C83.5014 18.5535 83.9946 18.6894 84.3918 18.9045C84.7898 19.1117 85.0838 19.3972 85.2737 19.7611C85.4637 20.125 85.5333 20.5698 85.4827 21.0953C85.4197 21.7483 85.2009 22.2255 84.8263 22.5269C84.4596 22.8292 83.9806 23.004 83.3893 23.0515L85.4148 27.1769L84.1726 27.0571L82.3795 23.147L80.9939 23.0135L80.637 26.7163L79.6336 26.6196ZM81.0756 22.1654L82.5209 22.3047C82.9669 22.3477 83.3262 22.3301 83.599 22.2519C83.8725 22.1658 84.0758 22.0166 84.2087 21.8044C84.3417 21.5921 84.4239 21.3228 84.4554 20.9963C84.4877 20.6618 84.4588 20.3778 84.3688 20.1441C84.2788 19.9103 84.1074 19.7291 83.8546 19.6002C83.6026 19.4634 83.2536 19.3735 82.8077 19.3305L81.3624 19.1912L81.0756 22.1654ZM86.7141 27.3021L87.5201 18.9409L88.5234 19.0376L87.7174 27.3988L86.7141 27.3021ZM88.9647 27.5191L92.8524 19.4549L93.9155 19.5574L96.1792 28.2145L95.1162 28.1121L94.559 25.8883L90.9995 25.5452L90.0158 27.6204L88.9647 27.5191ZM91.3764 24.7618L94.3387 25.0473L93.2559 20.7717L91.3764 24.7618ZM97.4222 28.3344L98.2282 19.9731L99.2316 20.0698L98.5027 27.6308L102.397 28.0061L102.32 28.8064L97.4222 28.3344ZM115.523 30.1998L116.04 27.3322L113.141 27.3903L115.497 25.7126L113.508 23.5919L116.34 24.2266L116.379 21.3129L117.979 23.7336L120.035 21.6653L119.493 24.5306L122.394 24.4486L120.036 26.1501L122.028 28.247L119.194 27.6362L119.178 30.5521L117.557 28.1053L115.523 30.1998ZM132.766 31.7414L133.572 23.3802L134.576 23.4769L133.77 31.8381L132.766 31.7414ZM135.542 32.009L136.348 23.6478L137.519 23.7606L139.85 29.8444L143.276 24.3156L144.459 24.4296L143.653 32.7909L142.649 32.6941L143.28 26.1485L140.089 31.2418L139.336 31.1692L137.176 25.572L136.546 32.1058L135.542 32.009ZM145.422 32.9614L146.228 24.6002L148.988 24.8662C149.577 24.923 150.074 25.0593 150.479 25.2752C150.884 25.4911 151.186 25.7853 151.383 26.158C151.58 26.5306 151.653 26.9797 151.602 27.5053C151.55 28.0467 151.384 28.4808 151.103 28.8074C150.831 29.1347 150.471 29.3613 150.025 29.487C149.587 29.6136 149.089 29.65 148.532 29.5962L146.776 29.427L146.426 33.0582L145.422 32.9614ZM146.858 28.5789L148.589 28.7459C149.258 28.8104 149.744 28.7286 150.048 28.5007C150.352 28.2648 150.528 27.8999 150.575 27.4062C150.624 26.9046 150.521 26.5129 150.267 26.2312C150.013 25.9415 149.552 25.7645 148.883 25.7L147.151 25.533L146.858 28.5789ZM152.34 33.6282L153.146 25.267L155.618 25.5053C156.207 25.5621 156.701 25.6981 157.098 25.9132C157.496 26.1203 157.79 26.4059 157.98 26.7698C158.17 27.1337 158.239 27.5784 158.189 28.104C158.126 28.7569 157.907 29.2342 157.532 29.5356C157.166 29.8378 156.687 30.0127 156.095 30.0601L158.121 34.1855L156.879 34.0658L155.085 30.1557L153.7 30.0221L153.343 33.725L152.34 33.6282ZM153.782 29.174L155.227 29.3134C155.673 29.3564 156.032 29.3388 156.305 29.2606C156.578 29.1744 156.782 29.0252 156.915 28.813C157.048 28.6008 157.13 28.3314 157.161 28.0049C157.194 27.6705 157.165 27.3864 157.075 27.1527C156.985 26.919 156.813 26.7377 156.561 26.6089C156.309 26.472 155.96 26.3821 155.514 26.3392L154.068 26.1998L153.782 29.174ZM159.42 34.3108L160.226 25.9495L165.398 26.4481L165.319 27.2723L161.15 26.8704L160.889 29.5819L164.532 29.933L164.453 30.7453L160.81 30.3941L160.503 33.5833L164.671 33.9852L164.592 34.8093L159.42 34.3108ZM168.812 35.3608C168.247 35.3063 167.743 35.1533 167.301 34.9017C166.867 34.6509 166.534 34.3174 166.301 33.9011C166.076 33.4776 165.991 32.9832 166.046 32.4178L167.097 32.5191C167.043 33.0765 167.184 33.5361 167.518 33.8979C167.854 34.2518 168.312 34.4567 168.894 34.5127C169.403 34.5619 169.837 34.4791 170.196 34.2645C170.562 34.0507 170.767 33.7168 170.811 33.2629C170.84 32.9523 170.809 32.7001 170.715 32.5062C170.63 32.3051 170.485 32.1345 170.282 31.9943C170.079 31.8462 169.82 31.7006 169.504 31.5577C169.188 31.4147 168.815 31.2461 168.384 31.0518C167.999 30.8701 167.672 30.6738 167.403 30.463C167.142 30.253 166.949 30.0093 166.823 29.732C166.698 29.4466 166.653 29.1168 166.689 28.7426C166.729 28.2481 166.88 27.8448 167.143 27.5326C167.415 27.2132 167.759 26.9851 168.174 26.8483C168.598 26.7043 169.052 26.6557 169.538 26.7025C170.032 26.7501 170.465 26.8843 170.838 27.1051C171.219 27.3186 171.512 27.6121 171.717 27.9855C171.923 28.351 172.006 28.7809 171.966 29.2754L170.915 29.1741C170.956 28.752 170.838 28.3911 170.562 28.0911C170.286 27.7833 169.905 27.6059 169.419 27.5591C168.991 27.5017 168.614 27.5739 168.289 27.7757C167.965 27.9774 167.781 28.3013 167.738 28.7472C167.709 29.0418 167.746 29.2825 167.849 29.4692C167.96 29.6487 168.161 29.8168 168.451 29.9733C168.742 30.1299 169.145 30.3255 169.661 30.5601C170.031 30.7243 170.36 30.8927 170.649 31.0652C170.938 31.2298 171.177 31.4176 171.366 31.6286C171.555 31.8317 171.693 32.0701 171.779 32.3436C171.866 32.6092 171.892 32.9291 171.855 33.3033C171.807 33.805 171.635 34.2184 171.338 34.5434C171.05 34.8613 170.683 35.091 170.235 35.2327C169.796 35.3672 169.322 35.4099 168.812 35.3608ZM175.718 36.0265C175.152 35.972 174.648 35.8189 174.207 35.5674C173.773 35.3166 173.439 34.983 173.206 34.5667C172.982 34.1433 172.897 33.6488 172.951 33.0835L174.002 33.1848C173.949 33.7422 174.089 34.2018 174.424 34.5636C174.76 34.9174 175.218 35.1224 175.799 35.1784C176.309 35.2275 176.743 35.1448 177.101 34.9302C177.467 34.7163 177.672 34.3825 177.716 33.9286C177.746 33.618 177.714 33.3658 177.62 33.1719C177.535 32.9708 177.391 32.8001 177.187 32.66C176.985 32.5118 176.725 32.3663 176.41 32.2233C176.094 32.0804 175.72 31.9118 175.289 31.7175C174.905 31.5358 174.578 31.3395 174.309 31.1287C174.048 30.9187 173.854 30.675 173.728 30.3976C173.603 30.1123 173.559 29.7825 173.595 29.4082C173.634 28.9138 173.786 28.5104 174.049 28.1982C174.321 27.8789 174.664 27.6508 175.079 27.514C175.503 27.37 175.958 27.3214 176.444 27.3682C176.937 27.4158 177.37 27.55 177.743 27.7707C178.124 27.9843 178.417 28.2778 178.623 28.6512C178.828 29.0166 178.912 29.4466 178.872 29.9411L177.821 29.8397C177.862 29.4177 177.744 29.0567 177.467 28.7568C177.191 28.4489 176.811 28.2716 176.325 28.2248C175.896 28.1674 175.52 28.2396 175.195 28.4413C174.87 28.6431 174.686 28.9669 174.643 29.4129C174.615 29.7075 174.652 29.9482 174.754 30.1349C174.866 30.3144 175.066 30.4824 175.357 30.639C175.647 30.7956 176.05 30.9912 176.566 31.2257C176.936 31.39 177.265 31.5584 177.554 31.7309C177.844 31.8954 178.083 32.0832 178.271 32.2943C178.461 32.4974 178.599 32.7357 178.685 33.0093C178.772 33.2748 178.797 33.5947 178.761 33.969C178.713 34.4707 178.54 34.884 178.244 35.2091C177.956 35.5269 177.588 35.7567 177.14 35.8984C176.701 36.0329 176.227 36.0756 175.718 36.0265ZM179.448 36.2414L183.335 28.1772L184.398 28.2797L186.662 36.9368L185.599 36.8344L185.042 34.6106L181.482 34.2675L180.499 36.3427L179.448 36.2414ZM181.859 33.4841L184.822 33.7696L183.739 29.494L181.859 33.4841ZM184.582 27.6223C184.367 27.6016 184.197 27.5369 184.071 27.4283C183.944 27.3197 183.826 27.2158 183.715 27.1167C183.605 27.0097 183.454 26.9469 183.263 26.9285C182.976 26.9008 182.792 27.0639 182.709 27.4176L182.124 27.3612C182.219 26.9605 182.375 26.6701 182.594 26.4903C182.812 26.3104 183.072 26.235 183.375 26.2642C183.59 26.2849 183.761 26.3496 183.887 26.4582C184.014 26.5588 184.132 26.6627 184.243 26.7698C184.361 26.8776 184.511 26.9403 184.695 26.958C184.822 26.9703 184.938 26.9372 185.042 26.8588C185.146 26.7805 185.218 26.6509 185.26 26.47L185.845 26.5264C185.76 26.912 185.604 27.1983 185.377 27.3854C185.15 27.5725 184.885 27.6515 184.582 27.6223ZM191.69 37.5661C191.053 37.5047 190.49 37.342 190.001 37.0778C189.513 36.8057 189.108 36.4573 188.787 36.0326C188.467 35.6079 188.236 35.1235 188.096 34.5795C187.963 34.0363 187.927 33.4581 187.986 32.8449C188.045 32.2318 188.191 31.6713 188.425 31.1633C188.667 30.6562 188.986 30.2248 189.382 29.8692C189.778 29.5135 190.237 29.2524 190.759 29.0857C191.29 28.9119 191.878 28.8561 192.523 28.9182C193.16 28.9796 193.719 29.142 194.2 29.4054C194.69 29.6616 195.095 30.002 195.416 30.4267C195.737 30.8435 195.968 31.3279 196.108 31.8798C196.248 32.4238 196.288 33.0104 196.227 33.6394C196.167 34.2685 196.015 34.8406 195.773 35.3557C195.531 35.8629 195.212 36.2943 194.816 36.6499C194.421 36.9976 193.958 37.2544 193.428 37.4202C192.906 37.5789 192.327 37.6276 191.69 37.5661ZM191.775 36.6822C192.428 36.7452 193 36.6516 193.49 36.4015C193.98 36.1514 194.37 35.779 194.658 35.2845C194.955 34.7907 195.136 34.2093 195.2 33.5404C195.266 32.8556 195.2 32.2465 195.003 31.713C194.814 31.1724 194.502 30.7365 194.068 30.4053C193.634 30.0741 193.09 29.877 192.437 29.8141C191.792 29.7519 191.224 29.8459 190.734 30.096C190.244 30.3461 189.85 30.7181 189.554 31.2119C189.258 31.6977 189.077 32.2751 189.013 32.944C188.949 33.6049 189.015 34.2101 189.212 34.7594C189.409 35.3008 189.724 35.7411 190.157 36.0802C190.591 36.4194 191.13 36.6201 191.775 36.6822ZM209.097 39.22L209.614 36.3525L206.715 36.4106L209.071 34.7329L207.082 32.6122L209.914 33.2469L209.954 30.3332L211.553 32.7538L213.609 30.6856L213.067 33.5508L215.968 33.4688L213.61 35.1704L215.602 37.2672L212.768 36.6564L212.752 39.5724L211.131 37.1256L209.097 39.22ZM226.34 40.7617L227.146 32.4005L229.714 32.648C230.702 32.7432 231.494 32.9923 232.09 33.3954C232.694 33.7912 233.118 34.3183 233.36 34.9765C233.61 35.6276 233.694 36.3911 233.609 37.267C233.526 38.1271 233.3 38.8527 232.929 39.4438C232.567 40.0358 232.051 40.4683 231.381 40.7413C230.72 41.0151 229.896 41.1044 228.908 41.0093L226.34 40.7617ZM227.424 40.0223L228.965 40.1708C229.761 40.2476 230.411 40.1816 230.913 39.9728C231.424 39.7569 231.811 39.4124 232.074 38.9394C232.337 38.4585 232.502 37.8676 232.57 37.1669C232.68 36.0281 232.498 35.1587 232.026 34.5586C231.554 33.9505 230.749 33.5916 229.61 33.4818L228.069 33.3333L227.424 40.0223ZM234.657 41.5634L235.463 33.2022L236.467 33.2989L235.661 41.6601L234.657 41.5634ZM241.015 42.321C240.219 42.2442 239.543 41.9943 238.989 41.5712C238.444 41.1409 238.04 40.5875 237.775 39.911C237.52 39.2273 237.432 38.4674 237.513 37.6313C237.593 36.8031 237.823 36.0779 238.205 35.4556C238.586 34.8334 239.098 34.3643 239.739 34.0483C240.381 33.7245 241.132 33.604 241.992 33.6869C242.932 33.7774 243.69 34.0796 244.267 34.5934C244.853 35.1079 245.199 35.7722 245.305 36.5861L244.146 36.4745C244.083 35.962 243.855 35.5382 243.461 35.2028C243.076 34.8683 242.556 34.6695 241.903 34.6066C241.242 34.5429 240.67 34.6405 240.187 34.8993C239.704 35.1581 239.322 35.5352 239.041 36.0306C238.769 36.5187 238.602 37.0853 238.54 37.7303C238.477 38.3833 238.536 38.9797 238.717 39.5196C238.898 40.0594 239.193 40.4978 239.603 40.8346C240.013 41.1715 240.524 41.3695 241.137 41.4286C242.029 41.5145 242.727 41.3206 243.231 40.8468C243.735 40.3649 244.063 39.6732 244.214 38.7716L241.204 38.4814L241.28 37.6931L245.317 38.0822L244.887 42.5495L243.967 42.4609L244.016 41.0792C243.666 41.5358 243.26 41.8743 242.797 42.0949C242.334 42.3155 241.74 42.3908 241.015 42.321ZM246.474 42.7025L247.28 34.3412L248.283 34.438L247.477 42.7992L246.474 42.7025ZM251.209 43.1589L251.935 35.6219L249.439 35.3812L249.518 34.557L255.514 35.1351L255.435 35.9592L252.939 35.7186L252.212 43.2557L251.209 43.1589ZM254.463 43.4727L258.351 35.4085L259.414 35.511L261.678 44.1681L260.615 44.0657L260.057 41.8419L256.498 41.4988L255.514 43.574L254.463 43.4727ZM256.875 40.7154L259.837 41.0009L258.754 36.7253L256.875 40.7154ZM262.921 44.288L263.727 35.9267L264.73 36.0234L264.001 43.5844L267.895 43.9597L267.818 44.76L262.921 44.288ZM281.021 46.1534L281.539 43.2858L278.64 43.3439L280.996 41.6662L279.006 39.5455L281.838 40.1802L281.878 37.2665L283.477 39.6872L285.533 37.6189L284.992 40.4842L287.893 40.4022L285.535 42.1037L287.527 44.2006L284.692 43.5898L284.676 46.5057L283.056 44.0589L281.021 46.1534ZM298.265 47.695L299.071 39.3338L301.639 39.5813C302.626 39.6765 303.418 39.9256 304.014 40.3287C304.619 40.7245 305.042 41.2516 305.284 41.9099C305.535 42.5609 305.618 43.3244 305.534 44.2004C305.451 45.0604 305.224 45.786 304.854 46.3772C304.491 46.9691 303.975 47.4016 303.306 47.6746C302.645 47.9484 301.82 48.0378 300.833 47.9426L298.265 47.695ZM299.349 46.9556L300.889 47.1041C301.686 47.1809 302.335 47.1149 302.837 46.9061C303.349 46.6902 303.735 46.3457 303.998 45.8727C304.261 45.3918 304.427 44.8009 304.494 44.1002C304.604 42.9615 304.423 42.092 303.95 41.4919C303.478 40.8838 302.673 40.5249 301.534 40.4152L299.993 40.2666L299.349 46.9556ZM306.582 48.4967L307.388 40.1355L308.391 40.2322L307.585 48.5935L306.582 48.4967ZM311.878 49.0073L309.543 40.3432L310.63 40.448L312.566 48.0007L315.933 40.9593L316.996 41.0617L313.049 49.1202L311.878 49.0073ZM320.345 49.9681C319.612 49.8975 319.033 49.693 318.607 49.3546C318.183 49.0083 317.886 48.5818 317.718 48.0754C317.559 47.5617 317.507 47.0182 317.562 46.4449L318.071 41.1653L319.074 41.262L318.564 46.5535C318.486 47.3658 318.624 47.9738 318.979 48.3777C319.334 48.7817 319.826 49.0139 320.455 49.0746C321.084 49.1352 321.607 49.0008 322.025 48.6714C322.442 48.3419 322.69 47.7711 322.769 46.9588L323.279 41.6674L324.282 41.7641L323.773 47.0436C323.714 47.6568 323.573 48.1615 323.35 48.558C323.127 48.9544 322.848 49.2611 322.514 49.478C322.187 49.6957 321.836 49.8426 321.458 49.9188C321.082 49.987 320.711 50.0034 320.345 49.9681ZM325.175 50.2891L325.981 41.9279L326.984 42.0246L326.256 49.5855L330.15 49.9609L330.072 50.7612L325.175 50.2891ZM334.251 51.3086C333.454 51.2319 332.779 50.9819 332.225 50.5588C331.68 50.1285 331.275 49.5751 331.011 48.8987C330.755 48.215 330.668 47.4551 330.749 46.619C330.828 45.7908 331.059 45.0656 331.44 44.4433C331.822 43.821 332.333 43.3519 332.975 43.036C333.617 42.7121 334.368 42.5916 335.228 42.6745C336.167 42.7651 336.926 43.0673 337.503 43.5811C338.088 44.0956 338.434 44.7599 338.541 45.5738L337.382 45.4621C337.319 44.9497 337.091 44.5258 336.697 44.1905C336.311 43.856 335.792 43.6572 335.139 43.5943C334.478 43.5306 333.906 43.6281 333.423 43.887C332.94 44.1458 332.558 44.5229 332.277 45.0182C332.005 45.5064 331.838 46.073 331.776 46.718C331.713 47.3709 331.772 47.9674 331.953 48.5072C332.134 49.0471 332.429 49.4854 332.839 49.8223C333.248 50.1592 333.76 50.3571 334.373 50.4162C335.265 50.5022 335.963 50.3083 336.466 49.8344C336.971 49.3526 337.299 48.6609 337.45 47.7592L334.44 47.4691L334.516 46.6807L338.553 47.0699L338.123 51.5372L337.203 51.4485L337.252 50.0669C336.902 50.5234 336.496 50.862 336.033 51.0826C335.569 51.3031 334.975 51.3785 334.251 51.3086ZM339.184 51.6395L343.071 43.5753L344.135 43.6778L346.398 52.335L345.335 52.2325L344.778 50.0088L341.219 49.6656L340.235 51.7408L339.184 51.6395ZM341.595 48.8822L344.558 49.1677L343.475 44.8921L341.595 48.8822ZM350.816 52.9055C349.972 52.8241 349.269 52.5675 348.708 52.1357C348.148 51.6959 347.744 51.1345 347.496 50.4516C347.249 49.7687 347.164 49.0172 347.244 48.197C347.322 47.3847 347.544 46.6667 347.909 46.0429C348.283 45.4199 348.787 44.946 349.421 44.6214C350.055 44.2967 350.798 44.1755 351.65 44.2576C352.605 44.3497 353.36 44.6555 353.912 45.1749C354.474 45.6871 354.798 46.3614 354.887 47.1977L353.776 47.0907C353.698 46.5608 353.475 46.1214 353.107 45.7724C352.748 45.4163 352.234 45.206 351.565 45.1415C350.904 45.0778 350.339 45.1801 349.871 45.4484C349.404 45.7088 349.034 46.0871 348.761 46.5832C348.496 47.08 348.333 47.651 348.271 48.296C348.207 48.9569 348.262 49.5569 348.435 50.096C348.616 50.6359 348.911 51.0782 349.32 51.4231C349.729 51.7599 350.256 51.9594 350.901 52.0216C351.57 52.0861 352.114 51.9858 352.534 51.7208C352.962 51.4487 353.264 51.0639 353.441 50.5665L354.552 50.6736C354.307 51.4618 353.86 52.0536 353.211 52.4492C352.57 52.8455 351.772 52.9976 350.816 52.9055ZM349.672 55.7729L349.733 55.1399L350.832 55.2458C351.373 55.298 351.662 55.133 351.699 54.7507C351.734 54.3924 351.48 54.1871 350.939 54.1349L350.354 54.0785L350.503 52.5257L351.172 52.5902L351.08 53.5458C351.383 53.567 351.647 53.6285 351.87 53.7304C352.092 53.8403 352.259 53.9889 352.369 54.1764C352.488 54.3646 352.535 54.5862 352.51 54.841C352.487 55.0878 352.402 55.2927 352.258 55.4556C352.121 55.6273 351.94 55.7505 351.716 55.8253C351.492 55.9002 351.237 55.9238 350.95 55.8961L349.672 55.7729ZM355.036 53.1676L358.924 45.1034L359.987 45.2059L362.251 53.8631L361.188 53.7606L360.63 51.5369L357.071 51.1938L356.087 53.2689L355.036 53.1676ZM357.448 50.4103L360.41 50.6959L359.327 46.4202L357.448 50.4103ZM360.171 44.5485C359.956 44.5278 359.785 44.4631 359.659 44.3545C359.533 44.2459 359.414 44.1421 359.303 44.043C359.193 43.9359 359.042 43.8731 358.851 43.8547C358.565 43.8271 358.38 43.9901 358.298 44.3439L357.712 44.2875C357.807 43.8867 357.964 43.5964 358.182 43.4165C358.4 43.2366 358.661 43.1613 358.963 43.1904C359.178 43.2112 359.349 43.2758 359.475 43.3844C359.602 43.4851 359.721 43.5889 359.831 43.696C359.949 43.8038 360.1 43.8666 360.283 43.8842C360.41 43.8965 360.526 43.8635 360.63 43.7851C360.734 43.7067 360.807 43.5771 360.848 43.3962L361.434 43.4527C361.348 43.8383 361.192 44.1246 360.965 44.3117C360.738 44.4987 360.473 44.5777 360.171 44.5485ZM367.278 54.4924C366.641 54.431 366.078 54.2682 365.589 54.0041C365.101 53.732 364.697 53.3836 364.376 52.9588C364.055 52.5341 363.825 52.0497 363.684 51.5058C363.552 50.9625 363.515 50.3843 363.574 49.7712C363.633 49.158 363.78 48.5975 364.013 48.0896C364.255 47.5825 364.574 47.1511 364.97 46.7954C365.366 46.4398 365.825 46.1786 366.348 46.012C366.879 45.8381 367.467 45.7823 368.112 45.8445C368.749 45.9059 369.308 46.0683 369.789 46.3316C370.278 46.5878 370.684 46.9283 371.004 47.353C371.326 47.7698 371.556 48.2541 371.696 48.8061C371.837 49.3501 371.876 49.9366 371.816 50.5657C371.755 51.1948 371.604 51.7669 371.361 52.282C371.119 52.7891 370.8 53.2205 370.404 53.5761C370.009 53.9238 369.547 54.1806 369.016 54.3465C368.495 54.5052 367.915 54.5538 367.278 54.4924ZM367.363 53.6085C368.016 53.6714 368.588 53.5778 369.078 53.3277C369.568 53.0776 369.958 52.7053 370.247 52.2107C370.544 51.7169 370.724 51.1356 370.789 50.4667C370.855 49.7818 370.789 49.1727 370.591 48.6393C370.402 48.0986 370.09 47.6627 369.656 47.3315C369.222 47.0003 368.678 46.8033 368.025 46.7403C367.38 46.6781 366.813 46.7721 366.323 47.0222C365.832 47.2723 365.439 47.6443 365.142 48.1381C364.846 48.6239 364.666 49.2013 364.601 49.8702C364.538 50.5312 364.604 51.1363 364.8 51.6857C364.997 52.2271 365.312 52.6673 365.746 53.0065C366.179 53.3456 366.718 53.5463 367.363 53.6085Z" fill="black"/>
</g>
<g filter="url(#filter1_d_328_206)">
<rect x="-359" y="74.3441" width="825.737" height="29.1204" transform="rotate(-6.33903 -359 74.3441)" fill="#1E1E1E"/>
<path d="M15.3116 51.5214L14.3842 43.1727L16.9484 42.8878C17.9343 42.7783 18.7604 42.8596 19.4265 43.1317C20.0997 43.395 20.6222 43.8239 20.9941 44.4185C21.3731 45.0042 21.6112 45.7344 21.7084 46.609C21.8038 47.4678 21.7309 48.2244 21.4897 48.8791C21.2564 49.5328 20.8403 50.062 20.2413 50.4666C19.6503 50.8703 18.8618 51.127 17.8758 51.2365L15.3116 51.5214ZM16.2207 50.5752L17.7592 50.4043C18.5544 50.3159 19.1763 50.1181 19.6251 49.8106C20.081 49.4944 20.3889 49.0778 20.5488 48.561C20.7078 48.0362 20.7485 47.424 20.6707 46.7243C20.5444 45.5873 20.1884 44.7736 19.6027 44.2833C19.0161 43.785 18.1543 43.5991 17.0173 43.7254L15.4787 43.8963L16.2207 50.5752ZM23.616 50.5988L22.6885 42.2502L27.8528 41.6765L27.9442 42.4994L23.7818 42.9618L24.0826 45.6692L27.7202 45.2651L27.8103 46.0761L24.1727 46.4802L24.5264 49.6646L28.6888 49.2022L28.7802 50.0251L23.616 50.5988ZM33.0236 49.6986C32.459 49.7613 31.9347 49.7149 31.4506 49.5594C30.9744 49.4031 30.5795 49.1451 30.2659 48.7855C29.9593 48.4171 29.7747 47.9506 29.712 47.3861L30.7615 47.2695C30.8234 47.8261 31.0553 48.2471 31.4572 48.5324C31.8583 48.8098 32.3491 48.9163 32.9295 48.8518C33.4384 48.7953 33.8461 48.6252 34.1526 48.3416C34.4672 48.0572 34.5992 47.6883 34.5489 47.2351C34.5144 46.925 34.4314 46.6847 34.2998 46.5142C34.1752 46.3349 33.999 46.1975 33.771 46.1021C33.5422 45.9987 33.2586 45.9095 32.9203 45.8344C32.5819 45.7593 32.1817 45.6709 31.7197 45.5693C31.3062 45.4704 30.9462 45.3454 30.6397 45.1943C30.3411 45.0423 30.1016 44.8435 29.9214 44.5979C29.7403 44.3444 29.629 44.0308 29.5875 43.657C29.5248 43.165 29.5902 42.7391 29.7837 42.3796C29.9842 42.0112 30.2735 41.7174 30.6517 41.4984C31.0369 41.2704 31.472 41.1295 31.957 41.0757C32.4499 41.0209 32.9014 41.0633 33.3113 41.2029C33.7283 41.3337 34.0755 41.5607 34.3529 41.8841C34.6294 42.1995 34.799 42.6032 34.8617 43.0953L33.8122 43.2119C33.7654 42.7905 33.5759 42.4614 33.2437 42.2246C32.9106 41.9799 32.5016 41.8845 32.0166 41.9383C31.5855 41.9701 31.2316 42.1181 30.9551 42.3823C30.6786 42.6464 30.5651 43.0011 30.6145 43.4464C30.6472 43.7406 30.7329 43.9685 30.8716 44.1302C31.0174 44.283 31.2484 44.4063 31.5647 44.4999C31.8809 44.5936 32.3156 44.7022 32.8686 44.8259C33.2644 44.9107 33.6213 45.0079 33.9394 45.1175C34.2565 45.2191 34.5291 45.3538 34.757 45.5217C34.984 45.6816 35.1678 45.8866 35.3082 46.1366C35.4478 46.3786 35.5384 46.6865 35.5799 47.0602C35.6355 47.5611 35.5516 48.0011 35.3281 48.3801C35.1116 48.7503 34.7989 49.0506 34.3898 49.2812C33.9879 49.5029 33.5324 49.6421 33.0236 49.6986ZM37.2431 49.085L36.3157 40.7363L37.3175 40.625L38.245 48.9737L37.2431 49.085ZM43.6209 48.5213C42.8258 48.6097 42.1138 48.5036 41.4848 48.2033C40.8628 47.894 40.3531 47.4355 39.9555 46.8277C39.5651 46.211 39.3234 45.4853 39.2307 44.6504C39.1388 43.8235 39.2157 43.0664 39.4613 42.3791C39.7069 41.6917 40.1111 41.1277 40.6739 40.6868C41.2358 40.238 41.9461 39.966 42.8048 39.8706C43.743 39.7663 44.5474 39.9064 45.2179 40.2907C45.8964 40.6741 46.3713 41.2532 46.6425 42.028L45.4856 42.1565C45.3186 41.668 45.0081 41.3 44.554 41.0527C44.1079 40.8044 43.5588 40.7165 42.9068 40.7889C42.2469 40.8622 41.7071 41.0751 41.2874 41.4276C40.8678 41.7801 40.5714 42.2276 40.3982 42.77C40.2321 43.3036 40.1848 43.8924 40.2564 44.5365C40.3288 45.1884 40.509 45.76 40.797 46.2513C41.085 46.7425 41.464 47.1109 41.934 47.3565C42.404 47.6021 42.9451 47.6909 43.5573 47.6229C44.4479 47.5239 45.091 47.1909 45.4868 46.6237C45.8817 46.0486 46.0607 45.3043 46.0236 44.3908L43.0181 44.7247L42.9306 43.9375L46.9618 43.4897L47.4573 47.9503L46.539 48.0523L46.3031 46.69C46.0549 47.2086 45.7267 47.6234 45.3185 47.9343C44.9103 48.2453 44.3445 48.441 43.6209 48.5213ZM49.0416 47.7743L48.1142 39.4256L49.116 39.3143L54.3079 45.511L53.5646 38.8201L54.5665 38.7088L55.4939 47.0575L54.4921 47.1688L49.3002 40.9721L50.0435 47.663L49.0416 47.7743ZM69.0964 45.6671L69.0143 42.7544L66.189 43.4063L68.1503 41.2808L65.7676 39.6136L68.6698 39.6534L68.1106 36.7937L70.1726 38.8345L71.7602 36.3883L71.8184 39.3037L74.6411 38.6279L72.6824 40.7773L75.0624 42.4205L72.1629 42.4046L72.7459 45.2617L70.6575 43.1997L69.0964 45.6671ZM86.2891 43.6364L85.3616 35.2878L88.1167 34.9817C88.705 34.9164 89.2196 34.9477 89.6605 35.0758C90.1013 35.204 90.4565 35.4301 90.7259 35.7544C90.9954 36.0786 91.1592 36.5031 91.2175 37.0279C91.2776 37.5685 91.2038 38.0275 90.9962 38.4047C90.7965 38.7811 90.4913 39.0766 90.0805 39.2912C89.6776 39.505 89.1979 39.6428 88.6413 39.7047L86.8881 39.8994L87.2909 43.5251L86.2891 43.6364ZM86.794 39.0526L88.5234 38.8605C89.1913 38.7863 89.6503 38.6066 89.9003 38.3212C90.1494 38.0279 90.2466 37.6348 90.1918 37.1418C90.1362 36.6409 89.9551 36.2787 89.6485 36.0551C89.3411 35.8237 88.8534 35.745 88.1855 35.8192L86.4562 36.0114L86.794 39.0526ZM93.1958 42.8692L92.2683 34.5205L94.7371 34.2462C95.3255 34.1809 95.8362 34.2127 96.2691 34.3417C96.7011 34.4627 97.0474 34.6818 97.308 34.999C97.5686 35.3162 97.728 35.7371 97.7863 36.2619C97.8588 36.9139 97.7426 37.4259 97.4378 37.7978C97.1409 38.1688 96.708 38.4383 96.1391 38.6061L98.9683 42.2279L97.7279 42.3657L95.1704 38.9069L93.7869 39.0606L94.1976 42.7579L93.1958 42.8692ZM93.6928 38.2138L95.1359 38.0535C95.5812 38.004 95.9293 37.913 96.1802 37.7805C96.4302 37.6401 96.5985 37.4523 96.6851 37.2173C96.7717 36.9823 96.7969 36.7018 96.7607 36.3759C96.7236 36.0419 96.637 35.7698 96.5009 35.5595C96.3649 35.3493 96.1599 35.207 95.8861 35.1328C95.6113 35.0506 95.2513 35.0343 94.806 35.0838L93.3629 35.2441L93.6928 38.2138ZM103.841 41.8314C103.205 41.9021 102.621 41.8584 102.088 41.7002C101.554 41.5341 101.087 41.2761 100.686 40.9263C100.285 40.5764 99.9598 40.1497 99.7107 39.6461C99.4695 39.1417 99.3149 38.5833 99.2469 37.9711C99.1789 37.3589 99.2072 36.7802 99.3317 36.2351C99.4643 35.6891 99.6878 35.2015 100.002 34.7721C100.317 34.3428 100.713 33.9929 101.19 33.7226C101.674 33.4435 102.238 33.2681 102.882 33.1966C103.518 33.1259 104.098 33.1701 104.623 33.3291C105.155 33.4793 105.622 33.7293 106.023 34.0792C106.423 34.4211 106.748 34.8478 106.998 35.3593C107.247 35.8629 107.406 36.4288 107.476 37.0569C107.546 37.685 107.515 38.2761 107.383 38.83C107.251 39.3759 107.027 39.8636 106.713 40.293C106.397 40.7144 105.997 41.0607 105.512 41.3319C105.034 41.5943 104.477 41.7608 103.841 41.8314ZM103.743 40.9489C104.395 40.8764 104.935 40.6675 105.364 40.3221C105.792 39.9767 106.097 39.5323 106.278 38.989C106.467 38.4448 106.525 37.8387 106.451 37.1708C106.375 36.487 106.185 35.9044 105.882 35.4229C105.586 34.9326 105.192 34.5699 104.699 34.3349C104.206 34.0999 103.633 34.0186 102.981 34.091C102.337 34.1626 101.801 34.3711 101.373 34.7165C100.944 35.0619 100.635 35.5067 100.446 36.0509C100.256 36.5872 100.198 37.1893 100.273 37.8572C100.346 38.5171 100.535 39.0958 100.84 39.5931C101.144 40.0826 101.542 40.4488 102.036 40.6917C102.53 40.9347 103.099 41.0204 103.743 40.9489ZM112.991 40.815C112.196 40.9033 111.484 40.7973 110.855 40.4969C110.233 40.1877 109.723 39.7291 109.326 39.1213C108.935 38.5047 108.694 37.7789 108.601 36.944C108.509 36.1171 108.586 35.36 108.831 34.6727C109.077 33.9854 109.481 33.4213 110.044 32.9805C110.606 32.5317 111.316 32.2596 112.175 32.1642C113.113 32.06 113.918 32.2 114.588 32.5843C115.267 32.9678 115.741 33.5469 116.013 34.3217L114.856 34.4502C114.689 33.9616 114.378 33.5937 113.924 33.3463C113.478 33.098 112.929 33.0101 112.277 33.0825C111.617 33.1559 111.077 33.3688 110.658 33.7212C110.238 34.0737 109.942 34.5212 109.768 35.0636C109.602 35.5972 109.555 36.1861 109.627 36.8301C109.699 37.4821 109.879 38.0537 110.167 38.5449C110.455 39.0361 110.834 39.4045 111.304 39.6501C111.774 39.8957 112.315 39.9845 112.927 39.9165C113.818 39.8176 114.461 39.4845 114.857 38.9174C115.252 38.3422 115.431 37.5979 115.394 36.6844L112.388 37.0183L112.301 36.2312L116.332 35.7833L116.827 40.2439L115.909 40.3459L115.673 38.9836C115.425 39.5022 115.097 39.917 114.689 40.2279C114.28 40.5389 113.715 40.7346 112.991 40.815ZM118.412 40.0679L117.484 31.7193L119.953 31.445C120.542 31.3796 121.052 31.4114 121.485 31.5404C121.917 31.6615 122.263 31.8806 122.524 32.1977C122.785 32.5149 122.944 32.9359 123.002 33.4606C123.075 34.1126 122.959 34.6246 122.654 34.9965C122.357 35.3676 121.924 35.637 121.355 35.8049L124.184 39.4266L122.944 39.5644L120.386 36.1057L119.003 36.2593L119.414 39.9566L118.412 40.0679ZM118.909 35.4126L120.352 35.2522C120.797 35.2028 121.145 35.1118 121.396 34.9793C121.646 34.8388 121.814 34.6511 121.901 34.4161C121.988 34.1811 122.013 33.9006 121.977 33.5746C121.94 33.2406 121.853 32.9685 121.717 32.7583C121.581 32.548 121.376 32.4058 121.102 32.3316C120.827 32.2494 120.467 32.233 120.022 32.2825L118.579 32.4428L118.909 35.4126ZM124.957 39.3408L127.106 30.6503L128.168 30.5324L132.16 38.5405L131.099 38.6585L130.097 36.5965L126.543 36.9913L126.006 39.2242L124.957 39.3408ZM126.751 36.1472L129.709 35.8186L127.772 31.8563L126.751 36.1472ZM133.402 38.4027L132.474 30.054L133.643 29.9242L137.173 35.3999L139.392 29.2856L140.572 29.1544L141.5 37.503L140.498 37.6143L139.772 31.0785L137.694 36.7185L136.942 36.8019L133.679 31.7675L134.403 38.2914L133.402 38.4027ZM142.742 37.365L144.892 28.6746L145.953 28.5567L149.946 36.5648L148.884 36.6827L147.882 34.6207L144.328 35.0155L143.791 37.2485L142.742 37.365ZM144.536 34.1714L147.494 33.8428L145.557 29.8805L144.536 34.1714ZM154.387 36.2163C153.544 36.31 152.803 36.203 152.166 35.8956C151.527 35.5802 151.016 35.1137 150.634 34.4962C150.251 33.8786 150.014 33.1604 149.923 32.3414C149.833 31.5304 149.903 30.7821 150.133 30.0966C150.371 29.4101 150.766 28.843 151.32 28.3951C151.874 27.9472 152.577 27.676 153.427 27.5814C154.381 27.4754 155.182 27.6199 155.83 28.0148C156.484 28.4009 156.941 28.9942 157.199 29.7946L156.09 29.9178C155.905 29.4151 155.597 29.0308 155.165 28.7649C154.74 28.4901 154.193 28.3898 153.525 28.464C152.865 28.5373 152.334 28.7533 151.931 29.112C151.527 29.4627 151.243 29.9088 151.078 30.4504C150.92 30.9911 150.878 31.5834 150.949 32.2275C151.022 32.8874 151.199 33.4634 151.479 33.9555C151.767 34.4467 152.147 34.8191 152.617 35.0727C153.087 35.3183 153.644 35.4053 154.289 35.3338C154.956 35.2596 155.468 35.0497 155.824 34.7043C156.188 34.3501 156.404 33.9114 156.475 33.3884L157.584 33.2652C157.507 34.0868 157.191 34.7578 156.637 35.2781C156.091 35.7976 155.341 36.1103 154.387 36.2163ZM153.855 39.2576L153.785 38.6255L154.882 38.5036C155.423 38.4435 155.672 38.2227 155.63 37.841C155.59 37.4832 155.3 37.3343 154.759 37.3944L154.174 37.4593L154.002 35.9089L154.67 35.8347L154.776 36.7888C155.077 36.7473 155.348 36.7535 155.587 36.8074C155.827 36.8692 156.021 36.9805 156.168 37.1413C156.322 37.3012 156.414 37.5084 156.442 37.7628C156.469 38.0093 156.429 38.2271 156.321 38.4162C156.222 38.6123 156.071 38.77 155.867 38.8892C155.663 39.0085 155.417 39.084 155.131 39.1158L153.855 39.2576ZM158.57 35.6067L160.72 26.9162L161.781 26.7983L165.774 34.8064L164.713 34.9243L163.711 32.8623L160.157 33.2571L159.62 35.4901L158.57 35.6067ZM160.365 32.413L163.322 32.0844L161.385 28.1221L160.365 32.413ZM161.826 26.1171C161.612 26.141 161.432 26.1127 161.286 26.0323C161.14 25.9519 161.003 25.8746 160.874 25.8004C160.744 25.7182 160.583 25.6877 160.393 25.7089C160.106 25.7407 159.959 25.9382 159.951 26.3013L159.367 26.3662C159.378 25.9545 159.471 25.6382 159.648 25.4174C159.825 25.1965 160.064 25.0693 160.366 25.0357C160.581 25.0119 160.761 25.0402 160.907 25.1206C161.052 25.193 161.189 25.2703 161.319 25.3525C161.457 25.4338 161.617 25.4642 161.8 25.4439C161.927 25.4298 162.034 25.3737 162.119 25.2756C162.205 25.1776 162.25 25.0358 162.253 24.8503L162.838 24.7853C162.833 25.1802 162.739 25.4925 162.555 25.7222C162.372 25.9519 162.129 26.0836 161.826 26.1171ZM170.824 34.3903C170.188 34.461 169.603 34.4172 169.07 34.2591C168.537 34.093 168.07 33.835 167.668 33.4851C167.267 33.1353 166.942 32.7086 166.693 32.205C166.452 31.7006 166.297 31.1422 166.229 30.53C166.161 29.9177 166.19 29.3391 166.314 28.794C166.447 28.248 166.67 27.7604 166.985 27.331C167.299 26.9017 167.695 26.5518 168.172 26.2815C168.656 26.0023 169.22 25.827 169.864 25.7554C170.501 25.6848 171.081 25.7289 171.606 25.888C172.138 26.0382 172.604 26.2882 173.005 26.6381C173.405 26.98 173.73 27.4067 173.98 27.9182C174.23 28.4218 174.389 28.9876 174.459 29.6158C174.529 30.2439 174.498 30.8349 174.366 31.3889C174.233 31.9348 174.01 32.4225 173.695 32.8518C173.38 33.2732 172.98 33.6195 172.495 33.8908C172.017 34.1531 171.46 34.3196 170.824 34.3903ZM170.726 33.5077C171.378 33.4353 171.918 33.2264 172.346 32.881C172.775 32.5355 173.08 32.0912 173.261 31.5479C173.45 31.0036 173.507 30.3976 173.433 29.7297C173.357 29.0459 173.168 28.4633 172.865 27.9818C172.569 27.4915 172.174 27.1288 171.681 26.8938C171.188 26.6588 170.616 26.5775 169.964 26.6499C169.32 26.7215 168.784 26.93 168.355 27.2754C167.927 27.6208 167.618 28.0656 167.429 28.6098C167.239 29.1461 167.181 29.7481 167.255 30.416C167.328 31.076 167.517 31.6546 167.822 32.152C168.126 32.6415 168.525 33.0077 169.019 33.2506C169.513 33.4936 170.082 33.5793 170.726 33.5077ZM188.2 32.4359L188.118 29.5231L185.292 30.175L187.254 28.0495L184.871 26.3824L187.773 26.4222L187.214 23.5624L189.276 25.6033L190.863 23.157L190.922 26.0724L193.744 25.3966L191.786 27.546L194.166 29.1893L191.266 29.1733L191.849 32.0304L189.761 29.9684L188.2 32.4359ZM208.068 30.2528C207.503 30.3155 206.979 30.2692 206.495 30.1137C206.019 29.9573 205.624 29.6993 205.31 29.3397C205.004 28.9713 204.819 28.5049 204.756 27.9403L205.806 27.8237C205.868 28.3803 206.1 28.8013 206.502 29.0866C206.903 29.3641 207.393 29.4705 207.974 29.406C208.483 29.3495 208.89 29.1795 209.197 28.8959C209.511 28.6114 209.644 28.2426 209.593 27.7894C209.559 27.4793 209.476 27.239 209.344 27.0685C209.22 26.8891 209.043 26.7517 208.815 26.6563C208.587 26.5529 208.303 26.4637 207.965 26.3886C207.626 26.3135 207.226 26.2252 206.764 26.1236C206.351 26.0246 205.991 25.8996 205.684 25.7485C205.385 25.5965 205.146 25.3978 204.966 25.1522C204.785 24.8986 204.673 24.585 204.632 24.2113C204.569 23.7192 204.634 23.2934 204.828 22.9338C205.028 22.5654 205.318 22.2717 205.696 22.0526C206.081 21.8247 206.516 21.6838 207.001 21.6299C207.494 21.5751 207.946 21.6175 208.356 21.7571C208.773 21.8879 209.12 22.1149 209.397 22.4383C209.674 22.7537 209.843 23.1574 209.906 23.6495L208.856 23.7661C208.81 23.3447 208.62 23.0156 208.288 22.7788C207.955 22.5341 207.546 22.4387 207.061 22.4926C206.63 22.5244 206.276 22.6723 205.999 22.9365C205.723 23.2006 205.609 23.5553 205.659 24.0006C205.691 24.2948 205.777 24.5227 205.916 24.6844C206.062 24.8372 206.293 24.9605 206.609 25.0541C206.925 25.1478 207.36 25.2565 207.913 25.3801C208.309 25.465 208.666 25.5622 208.984 25.6717C209.301 25.7733 209.573 25.908 209.801 26.0759C210.028 26.2358 210.212 26.4408 210.353 26.6908C210.492 26.9329 210.583 27.2408 210.624 27.6145C210.68 28.1154 210.596 28.5553 210.372 28.9343C210.156 29.3045 209.843 29.6049 209.434 29.8354C209.032 30.0572 208.577 30.1963 208.068 30.2528ZM216.096 29.361C215.46 29.4316 214.875 29.3879 214.343 29.2298C213.809 29.0637 213.342 28.8057 212.941 28.4558C212.54 28.106 212.215 27.6793 211.965 27.1757C211.724 26.6712 211.57 26.1129 211.502 25.5006C211.434 24.8884 211.462 24.3098 211.587 23.7647C211.719 23.2187 211.943 22.731 212.257 22.3017C212.572 21.8723 212.967 21.5225 213.444 21.2522C213.929 20.973 214.493 20.7976 215.137 20.7261C215.773 20.6554 216.353 20.6996 216.878 20.8587C217.41 21.0089 217.876 21.2589 218.277 21.6087C218.678 21.9506 219.003 22.3774 219.253 22.8889C219.502 23.3925 219.661 23.9583 219.731 24.5864C219.801 25.2146 219.77 25.8056 219.638 26.3595C219.506 26.9055 219.282 27.3932 218.968 27.8225C218.652 28.2439 218.252 28.5902 217.767 28.8614C217.289 29.1238 216.732 29.2903 216.096 29.361ZM215.998 28.4784C216.65 28.406 217.19 28.1971 217.619 27.8516C218.047 27.5062 218.352 27.0618 218.533 26.5185C218.722 25.9743 218.78 25.3683 218.705 24.7004C218.629 24.0166 218.44 23.434 218.137 22.9525C217.841 22.4621 217.446 22.0995 216.954 21.8645C216.461 21.6295 215.888 21.5482 215.236 21.6206C214.592 21.6921 214.056 21.9006 213.627 22.2461C213.199 22.5915 212.89 23.0363 212.701 23.5805C212.511 24.1167 212.453 24.7188 212.527 25.3867C212.601 26.0466 212.79 26.6253 213.094 27.1227C213.398 27.6121 213.797 27.9783 214.291 28.2213C214.785 28.4643 215.354 28.55 215.998 28.4784ZM225.317 28.3366C224.475 28.4302 223.734 28.3233 223.096 28.0158C222.458 27.7004 221.947 27.234 221.565 26.6164C221.182 25.9989 220.945 25.2806 220.854 24.4617C220.764 23.6506 220.834 22.9024 221.064 22.2168C221.301 21.5304 221.697 20.9632 222.251 20.5153C222.805 20.0674 223.507 19.7962 224.358 19.7017C225.312 19.5957 226.113 19.7402 226.761 20.1351C227.415 20.5212 227.872 21.1144 228.13 21.9148L227.02 22.038C226.836 21.5353 226.527 21.151 226.095 20.8851C225.67 20.6103 225.124 20.5101 224.456 20.5843C223.796 20.6576 223.265 20.8736 222.862 21.2322C222.458 21.583 222.174 22.0291 222.009 22.5707C221.851 23.1113 221.808 23.7037 221.88 24.3477C221.953 25.0077 222.13 25.5837 222.41 26.0758C222.698 26.567 223.077 26.9393 223.548 27.1929C224.018 27.4385 224.575 27.5255 225.219 27.454C225.887 27.3798 226.399 27.17 226.755 26.8246C227.118 26.4703 227.335 26.0317 227.406 25.5087L228.515 25.3855C228.437 26.2071 228.122 26.878 227.568 27.3984C227.022 27.9178 226.272 28.2306 225.317 28.3366ZM230.224 27.6466L229.296 19.298L230.298 19.1867L231.226 27.5353L230.224 27.6466ZM232.471 27.397L234.621 18.7065L235.682 18.5886L239.675 26.5967L238.613 26.7146L237.612 24.6526L234.057 25.0475L233.521 27.2804L232.471 27.397ZM234.266 24.2033L237.223 23.8747L235.286 19.9124L234.266 24.2033ZM240.916 26.4588L239.989 18.1102L240.99 17.9989L241.829 25.5485L245.717 25.1165L245.806 25.9156L240.916 26.4588ZM250.338 25.4121L249.411 17.0634L250.58 16.9336L254.11 22.4093L256.328 16.295L257.509 16.1638L258.437 24.5124L257.435 24.6237L256.709 18.0879L254.631 23.7279L253.879 23.8113L250.616 18.7769L251.34 25.3008L250.338 25.4121ZM260.204 24.3162L259.276 15.9675L264.44 15.3938L264.532 16.2168L260.369 16.6792L260.67 19.3865L264.308 18.9824L264.398 19.7934L260.76 20.1975L261.114 23.3819L265.276 22.9195L265.368 23.7425L260.204 24.3162ZM266.936 23.5683L266.008 15.2197L268.572 14.9348C269.558 14.8253 270.384 14.9066 271.05 15.1787C271.724 15.442 272.246 15.8709 272.618 16.4655C272.997 17.0512 273.235 17.7814 273.332 18.656C273.428 19.5147 273.355 20.2714 273.114 20.926C272.88 21.5798 272.464 22.1089 271.865 22.5136C271.274 22.9173 270.486 23.1739 269.5 23.2834L266.936 23.5683ZM267.845 22.6221L269.383 22.4512C270.178 22.3629 270.8 22.165 271.249 21.8576C271.705 21.5413 272.013 21.1248 272.173 20.608C272.332 20.0832 272.372 19.471 272.295 18.7713C272.168 17.6343 271.812 16.8206 271.227 16.3303C270.64 15.832 269.778 15.646 268.641 15.7723L267.103 15.9432L267.845 22.6221ZM275.24 22.6458L274.313 14.2971L275.314 14.1858L276.242 22.5345L275.24 22.6458ZM277.487 22.3961L279.637 13.7056L280.698 13.5877L284.691 21.5958L283.629 21.7138L282.628 19.6518L279.074 20.0466L278.537 22.2795L277.487 22.3961ZM279.282 19.2025L282.239 18.8739L280.302 14.9116L279.282 19.2025ZM300.804 19.9266L300.722 17.0138L297.896 17.6658L299.858 15.5402L297.475 13.8731L300.377 13.9129L299.818 11.0532L301.88 13.094L303.468 10.6477L303.526 13.5631L306.348 12.8874L304.39 15.0368L306.77 16.68L303.87 16.6641L304.453 19.5212L302.365 17.4591L300.804 19.9266ZM317.996 17.8959L317.069 9.54727L318.071 9.43597L318.998 17.7846L317.996 17.8959ZM320.769 17.588L319.841 9.23932L322.405 8.95446C323.391 8.84493 324.217 8.92623 324.883 9.19834C325.557 9.46163 326.079 9.89055 326.451 10.4851C326.83 11.0709 327.068 11.801 327.165 12.6757C327.261 13.5344 327.188 14.2911 326.947 14.9457C326.713 15.5994 326.297 16.1286 325.698 16.5332C325.107 16.9369 324.319 17.1936 323.333 17.3031L320.769 17.588ZM321.678 16.6418L323.216 16.4709C324.011 16.3826 324.633 16.1847 325.082 15.8772C325.538 15.561 325.846 15.1444 326.006 14.6276C326.165 14.1029 326.205 13.4906 326.128 12.7909C326.001 11.6539 325.645 10.8403 325.06 10.3499C324.473 9.85165 323.611 9.66566 322.474 9.79197L320.936 9.96289L321.678 16.6418ZM329.073 16.6654L328.145 8.31678L333.31 7.74309L333.401 8.56602L329.239 9.02843L329.539 11.7358L333.177 11.3317L333.267 12.1427L329.63 12.5468L329.983 15.7312L334.146 15.2688L334.237 16.0917L329.073 16.6654ZM335.805 15.9176L334.877 7.56892L335.879 7.45762L341.071 13.6543L340.328 6.96342L341.33 6.85213L342.257 15.2008L341.255 15.3121L336.063 9.11543L336.807 15.8063L335.805 15.9176ZM345.984 14.7868L345.148 7.26108L342.655 7.538L342.564 6.71506L348.551 6.04994L348.642 6.87288L346.15 7.14979L346.986 14.6755L345.984 14.7868ZM350.702 14.2627L349.774 5.91404L350.776 5.80275L351.703 14.1514L350.702 14.2627ZM353.474 13.9547L352.546 5.6061L355.11 5.32124C356.096 5.21171 356.922 5.293 357.588 5.56512C358.262 5.8284 358.784 6.25733 359.156 6.8519C359.535 7.43764 359.773 8.16781 359.87 9.04243C359.966 9.90115 359.893 10.6578 359.652 11.3125C359.418 11.9662 359.002 12.4954 358.403 12.9C357.812 13.3037 357.024 13.5604 356.038 13.6699L353.474 13.9547ZM354.383 13.0086L355.921 12.8377C356.716 12.7493 357.338 12.5515 357.787 12.244C358.243 11.9278 358.551 11.5112 358.711 10.9944C358.87 10.4696 358.91 9.8574 358.833 9.1577C358.706 8.0207 358.35 7.20703 357.765 6.7167C357.178 6.21842 356.316 6.03244 355.179 6.15875L353.641 6.32967L354.383 13.0086ZM360.659 13.1565L362.809 4.46601L363.87 4.34809L367.863 12.3562L366.801 12.4741L365.8 10.4121L362.245 10.807L361.709 13.0399L360.659 13.1565ZM362.454 9.96284L365.411 9.63426L363.474 5.67194L362.454 9.96284ZM369.104 12.2183L368.177 3.86971L370.741 3.58484C371.727 3.47532 372.553 3.55661 373.219 3.82873C373.892 4.09201 374.415 4.52094 374.786 5.11551C375.165 5.70124 375.404 6.43142 375.501 7.30604C375.596 8.16476 375.523 8.92143 375.282 9.57607C375.049 10.2298 374.633 10.759 374.034 11.1636C373.443 11.5673 372.654 11.824 371.668 11.9335L369.104 12.2183ZM370.013 11.2722L371.552 11.1013C372.347 11.0129 372.969 10.8151 373.417 10.5076C373.873 10.1914 374.181 9.77482 374.341 9.25801C374.5 8.73324 374.541 8.12101 374.463 7.42131C374.337 6.28431 373.981 5.47064 373.395 4.98031C372.808 4.48203 371.947 4.29605 370.81 4.42236L369.271 4.59327L370.013 11.2722ZM377.408 11.2958L376.481 2.94717L381.645 2.37347L381.737 3.19641L377.574 3.65881L377.875 6.36616L381.513 5.96205L381.603 6.77306L377.965 7.17717L378.319 10.3616L382.481 9.89917L382.573 10.7221L377.408 11.2958ZM395.972 9.35427L395.89 6.44153L393.065 7.09346L395.026 4.96791L392.644 3.30079L395.546 3.3406L394.987 0.480857L397.048 2.52167L398.636 0.0754259L398.694 2.99082L401.517 2.31504L399.558 4.46444L401.938 6.1077L399.039 6.09174L399.622 8.94884L397.533 6.88682L395.972 9.35427ZM413.165 7.32359L412.238 -1.02506L417.402 -1.59875L417.493 -0.775816L413.331 -0.313413L413.632 2.39393L417.269 1.98983L417.359 2.80084L413.722 3.20494L414.075 6.38935L418.238 5.92695L418.329 6.74989L413.165 7.32359ZM419.897 6.57572L418.97 -1.77292L421.534 -2.05778C422.52 -2.16731 423.346 -2.08602 424.012 -1.8139C424.685 -1.55062 425.208 -1.12169 425.579 -0.527119C425.958 0.0586176 426.197 0.788796 426.294 1.66342C426.389 2.52213 426.316 3.27881 426.075 3.93344C425.842 4.58719 425.426 5.11637 424.827 5.52098C424.236 5.92471 423.447 6.18133 422.461 6.29086L419.897 6.57572ZM420.806 5.62956L422.345 5.45865C423.14 5.37032 423.762 5.17244 424.21 4.865C424.666 4.54874 424.974 4.1322 425.134 3.61538C425.293 3.09061 425.334 2.47838 425.256 1.77868C425.13 0.641679 424.774 -0.171987 424.188 -0.662315C423.601 -1.16059 422.74 -1.34658 421.603 -1.22027L420.064 -1.04935L420.806 5.62956ZM428.201 5.65318L427.274 -2.69546L428.276 -2.80675L429.203 5.54189L428.201 5.65318ZM432.929 5.12795L432.093 -2.39776L429.601 -2.12084L429.509 -2.94378L435.496 -3.6089L435.588 -2.78596L433.095 -2.50905L433.931 5.01665L432.929 5.12795ZM441.036 4.37221C440.4 4.44288 439.816 4.39913 439.283 4.24099C438.75 4.07489 438.282 3.81691 437.881 3.46705C437.48 3.1172 437.155 2.69048 436.906 2.18691C436.665 1.68245 436.51 1.12411 436.442 0.511875C436.374 -0.100358 436.402 -0.679019 436.527 -1.22411C436.66 -1.77008 436.883 -2.25774 437.198 -2.68709C437.512 -3.11644 437.908 -3.46628 438.385 -3.73661C438.869 -4.01577 439.433 -4.19112 440.077 -4.26267C440.713 -4.33333 441.294 -4.28915 441.818 -4.13012C442.35 -3.97992 442.817 -3.72989 443.218 -3.38004C443.618 -3.03813 443.943 -2.61142 444.193 -2.09989C444.442 -1.59632 444.602 -1.03047 444.672 -0.402331C444.741 0.225805 444.71 0.816834 444.579 1.37076C444.446 1.91673 444.223 2.40439 443.908 2.83374C443.593 3.25514 443.193 3.60144 442.708 3.87265C442.23 4.13503 441.673 4.30155 441.036 4.37221ZM440.938 3.48964C441.59 3.41721 442.131 3.20829 442.559 2.86287C442.988 2.51744 443.292 2.07307 443.474 1.52976C443.663 0.985552 443.72 0.379505 443.646 -0.288386C443.57 -0.97218 443.38 -1.55482 443.077 -2.03631C442.781 -2.52663 442.387 -2.88929 441.894 -3.1243C441.401 -3.35931 440.829 -3.4406 440.177 -3.36817C439.533 -3.29662 438.996 -3.08814 438.568 -2.74272C438.139 -2.3973 437.831 -1.95249 437.641 -1.40828C437.451 -0.872032 437.394 -0.26996 437.468 0.397931C437.541 1.05787 437.73 1.63654 438.035 2.13393C438.339 2.62336 438.738 2.98956 439.232 3.23252C439.725 3.47548 440.294 3.56119 440.938 3.48964ZM446.58 3.61144L445.653 -4.73721L448.122 -5.01147C448.71 -5.07683 449.221 -5.04502 449.654 -4.91603C450.086 -4.79498 450.432 -4.57588 450.693 -4.25872C450.953 -3.94155 451.113 -3.52058 451.171 -2.99581C451.243 -2.34382 451.127 -1.83186 450.822 -1.45994C450.526 -1.08889 450.093 -0.819449 449.524 -0.651604L452.353 2.97017L451.113 3.10796L448.555 -0.350808L447.172 -0.197115L447.582 3.50014L446.58 3.61144ZM447.078 -1.04391L448.521 -1.20422C448.966 -1.25369 449.314 -1.34468 449.565 -1.47719C449.815 -1.61765 449.983 -1.80538 450.07 -2.04038C450.156 -2.27538 450.182 -2.55587 450.145 -2.88187C450.108 -3.21581 450.022 -3.48792 449.886 -3.69818C449.75 -3.90845 449.545 -4.05069 449.271 -4.1249C448.996 -4.20707 448.636 -4.22342 448.191 -4.17396L446.748 -4.01364L447.078 -1.04391ZM453.65 2.82605L452.723 -5.5226L453.725 -5.63389L454.652 2.71475L453.65 2.82605ZM455.898 2.5764L458.047 -6.11408L459.109 -6.232L463.101 1.77614L462.04 1.89406L461.038 -0.16794L457.484 0.226892L456.947 2.45981L455.898 2.5764ZM457.692 -0.617243L460.65 -0.945827L458.712 -4.90815L457.692 -0.617243ZM464.342 1.63826L463.415 -6.71038L464.417 -6.82167L465.255 0.727884L469.143 0.295954L469.232 1.09504L464.342 1.63826ZM482.44 -0.25152L482.358 -3.16426L479.533 -2.51233L481.494 -4.63788L479.112 -6.305L482.014 -6.26519L481.455 -9.12493L483.517 -7.08412L485.104 -9.53037L485.162 -6.61497L487.985 -7.29076L486.026 -5.14136L488.406 -3.49809L485.507 -3.51405L486.09 -0.656951L484.001 -2.71897L482.44 -0.25152ZM499.633 -2.2822L498.706 -10.6308L499.707 -10.7421L500.635 -2.3935L499.633 -2.2822ZM502.405 -2.59015L501.478 -10.9388L502.646 -11.0686L506.177 -5.59293L508.395 -11.7073L509.576 -11.8384L510.503 -3.48978L509.501 -3.37849L508.775 -9.91428L506.697 -4.27436L505.946 -4.19089L502.682 -9.22531L503.407 -2.70144L502.405 -2.59015ZM512.27 -3.68607L511.343 -12.0347L514.098 -12.3408C514.686 -12.4061 515.201 -12.3748 515.642 -12.2467C516.082 -12.1185 516.438 -11.8924 516.707 -11.5681C516.976 -11.2439 517.14 -10.8194 517.199 -10.2946C517.259 -9.75396 517.185 -9.29501 516.977 -8.91778C516.778 -8.54143 516.472 -8.24592 516.062 -8.03125C515.659 -7.81746 515.179 -7.67965 514.622 -7.61782L512.869 -7.42306L513.272 -3.79736L512.27 -3.68607ZM512.775 -8.26985L514.504 -8.46197C515.172 -8.53616 515.631 -8.71594 515.881 -9.00128C516.131 -9.29459 516.228 -9.68772 516.173 -10.1807C516.117 -10.6816 515.936 -11.0438 515.63 -11.2673C515.322 -11.4988 514.835 -11.5775 514.167 -11.5033L512.437 -11.3111L512.775 -8.26985ZM519.177 -4.45334L518.249 -12.802L520.718 -13.0762C521.307 -13.1416 521.817 -13.1098 522.25 -12.9808C522.682 -12.8598 523.028 -12.6407 523.289 -12.3235C523.55 -12.0063 523.709 -11.5854 523.767 -11.0606C523.84 -10.4086 523.724 -9.89664 523.419 -9.52471C523.122 -9.15367 522.689 -8.88422 522.12 -8.71638L524.949 -5.09461L523.709 -4.95682L521.151 -8.41558L519.768 -8.26189L520.179 -4.56464L519.177 -4.45334ZM519.674 -9.10868L521.117 -9.269C521.562 -9.31846 521.91 -9.40945 522.161 -9.54197C522.411 -9.68243 522.58 -9.87016 522.666 -10.1052C522.753 -10.3402 522.778 -10.6206 522.742 -10.9466C522.705 -11.2806 522.618 -11.5527 522.482 -11.763C522.346 -11.9732 522.141 -12.1155 521.867 -12.1897C521.592 -12.2718 521.232 -12.2882 520.787 -12.2387L519.344 -12.0784L519.674 -9.10868ZM526.247 -5.23873L525.319 -13.5874L530.483 -14.1611L530.575 -13.3381L526.412 -12.8757L526.713 -10.1684L530.351 -10.5725L530.441 -9.76148L526.803 -9.35737L527.157 -6.17296L531.319 -6.63536L531.411 -5.81243L526.247 -5.23873ZM535.654 -6.13893C535.09 -6.07622 534.565 -6.12261 534.081 -6.27811C533.605 -6.43449 533.21 -6.69247 532.897 -7.05204C532.59 -7.42044 532.405 -7.88691 532.343 -8.45144L533.392 -8.56803C533.454 -8.01146 533.686 -7.59049 534.088 -7.30512C534.489 -7.02771 534.98 -6.92124 535.56 -6.98572C536.069 -7.04226 536.477 -7.21231 536.783 -7.49589C537.098 -7.78036 537.23 -8.1492 537.18 -8.60241C537.145 -8.9125 537.062 -9.1528 536.93 -9.32331C536.806 -9.50265 536.63 -9.64004 536.402 -9.73545C536.173 -9.83882 535.889 -9.92806 535.551 -10.0032C535.213 -10.0783 534.812 -10.1666 534.35 -10.2682C533.937 -10.3672 533.577 -10.4922 533.27 -10.6433C532.972 -10.7952 532.732 -10.994 532.552 -11.2396C532.371 -11.4932 532.26 -11.8068 532.218 -12.1805C532.155 -12.6726 532.221 -13.0984 532.414 -13.458C532.615 -13.8264 532.904 -14.1201 533.282 -14.3392C533.668 -14.5671 534.103 -14.708 534.588 -14.7619C535.081 -14.8167 535.532 -14.7742 535.942 -14.6346C536.359 -14.5039 536.706 -14.2768 536.984 -13.9535C537.26 -13.6381 537.43 -13.2343 537.492 -12.7423L536.443 -12.6257C536.396 -13.0471 536.207 -13.3762 535.874 -13.6129C535.541 -13.8577 535.132 -13.9531 534.647 -13.8992C534.216 -13.8674 533.862 -13.7194 533.586 -13.4553C533.309 -13.1911 533.196 -12.8364 533.245 -12.3912C533.278 -12.097 533.364 -11.8691 533.502 -11.7074C533.648 -11.5545 533.879 -11.4313 534.195 -11.3376C534.512 -11.244 534.946 -11.1353 535.499 -11.0116C535.895 -10.9268 536.252 -10.8296 536.57 -10.7201C536.887 -10.6185 537.16 -10.4837 537.388 -10.3159C537.615 -10.156 537.798 -9.95099 537.939 -9.70097C538.078 -9.4589 538.169 -9.15101 538.211 -8.77731C538.266 -8.27639 538.182 -7.83644 537.959 -7.45744C537.742 -7.08728 537.43 -6.78691 537.021 -6.55634C536.619 -6.3346 536.163 -6.19546 535.654 -6.13893ZM542.549 -6.90491C541.985 -6.8422 541.46 -6.88859 540.976 -7.04409C540.5 -7.20047 540.105 -7.45845 539.792 -7.81802C539.485 -8.18642 539.3 -8.65289 539.238 -9.21742L540.287 -9.33401C540.349 -8.77743 540.581 -8.35646 540.983 -8.0711C541.384 -7.79369 541.875 -7.68722 542.455 -7.7517C542.964 -7.80823 543.372 -7.97829 543.678 -8.26187C543.993 -8.54634 544.125 -8.91518 544.075 -9.36839C544.04 -9.67848 543.957 -9.91878 543.826 -10.0893C543.701 -10.2686 543.525 -10.406 543.297 -10.5014C543.068 -10.6048 542.784 -10.694 542.446 -10.7691C542.108 -10.8442 541.707 -10.9326 541.245 -11.0342C540.832 -11.1332 540.472 -11.2582 540.165 -11.4092C539.867 -11.5612 539.627 -11.76 539.447 -12.0056C539.266 -12.2591 539.155 -12.5728 539.113 -12.9465C539.051 -13.4386 539.116 -13.8644 539.309 -14.2239C539.51 -14.5923 539.799 -14.8861 540.177 -15.1052C540.563 -15.3331 540.998 -15.474 541.483 -15.5279C541.976 -15.5826 542.427 -15.5402 542.837 -15.4006C543.254 -15.2699 543.601 -15.0428 543.879 -14.7195C544.155 -14.4041 544.325 -14.0003 544.387 -13.5082L543.338 -13.3916C543.291 -13.8131 543.102 -14.1421 542.769 -14.3789C542.436 -14.6236 542.027 -14.7191 541.542 -14.6652C541.111 -14.6334 540.757 -14.4854 540.481 -14.2213C540.204 -13.9571 540.091 -13.6024 540.14 -13.1572C540.173 -12.863 540.259 -12.635 540.397 -12.4734C540.543 -12.3205 540.774 -12.1973 541.09 -12.1036C541.407 -12.01 541.841 -11.9013 542.394 -11.7776C542.79 -11.6928 543.147 -11.5956 543.465 -11.486C543.782 -11.3844 544.055 -11.2497 544.283 -11.0818C544.51 -10.9219 544.694 -10.717 544.834 -10.4669C544.974 -10.2249 545.064 -9.91699 545.106 -9.54329C545.161 -9.04237 545.077 -8.60242 544.854 -8.22342C544.637 -7.85326 544.325 -7.55289 543.916 -7.32232C543.514 -7.10058 543.058 -6.96144 542.549 -6.90491ZM546.244 -7.46025L548.394 -16.1507L549.455 -16.2686L553.448 -8.26052L552.386 -8.1426L551.385 -10.2046L547.83 -9.80976L547.294 -7.57685L546.244 -7.46025ZM548.038 -10.6539L550.996 -10.9825L549.059 -14.9448L548.038 -10.6539ZM549.5 -16.9498C549.286 -16.9259 549.105 -16.9542 548.96 -17.0346C548.814 -17.115 548.676 -17.1923 548.547 -17.2665C548.418 -17.3487 548.257 -17.3792 548.066 -17.358C547.78 -17.3262 547.633 -17.1287 547.625 -16.7656L547.041 -16.7007C547.051 -17.1124 547.145 -17.4287 547.322 -17.6495C547.498 -17.8704 547.738 -17.9976 548.04 -18.0312C548.255 -18.055 548.435 -18.0267 548.581 -17.9463C548.725 -17.8739 548.863 -17.7966 548.993 -17.7144C549.131 -17.6331 549.291 -17.6027 549.474 -17.623C549.601 -17.6371 549.707 -17.6932 549.793 -17.7913C549.879 -17.8893 549.923 -18.0311 549.927 -18.2167L550.511 -18.2816C550.507 -17.8867 550.413 -17.5744 550.229 -17.3447C550.045 -17.115 549.802 -16.9834 549.5 -16.9498ZM558.497 -8.6766C557.861 -8.60594 557.277 -8.64968 556.744 -8.80783C556.211 -8.97393 555.743 -9.23191 555.342 -9.58176C554.941 -9.93162 554.616 -10.3583 554.367 -10.8619C554.126 -11.3664 553.971 -11.9247 553.903 -12.5369C553.835 -13.1492 553.863 -13.7278 553.988 -14.2729C554.121 -14.8189 554.344 -15.3066 554.659 -15.7359C554.973 -16.1653 555.369 -16.5151 555.846 -16.7854C556.33 -17.0646 556.894 -17.2399 557.538 -17.3115C558.174 -17.3821 558.755 -17.338 559.279 -17.1789C559.811 -17.0287 560.278 -16.7787 560.679 -16.4289C561.079 -16.0869 561.404 -15.6602 561.654 -15.1487C561.903 -14.6451 562.063 -14.0793 562.133 -13.4511C562.202 -12.823 562.171 -12.232 562.04 -11.6781C561.907 -11.1321 561.684 -10.6444 561.369 -10.2151C561.054 -9.79368 560.654 -9.44737 560.169 -9.17616C559.691 -8.91378 559.134 -8.74726 558.497 -8.6766ZM558.399 -9.55917C559.051 -9.6316 559.592 -9.84053 560.02 -10.1859C560.449 -10.5314 560.753 -10.9757 560.935 -11.5191C561.124 -12.0633 561.181 -12.6693 561.107 -13.3372C561.031 -14.021 560.841 -14.6036 560.538 -15.0851C560.242 -15.5754 559.848 -15.9381 559.355 -16.1731C558.862 -16.4081 558.29 -16.4894 557.638 -16.417C556.994 -16.3454 556.457 -16.137 556.029 -15.7915C555.6 -15.4461 555.292 -15.0013 555.102 -14.4571C554.913 -13.9208 554.855 -13.3188 554.929 -12.6509C555.002 -11.9909 555.191 -11.4123 555.496 -10.9149C555.8 -10.4255 556.199 -10.0593 556.693 -9.81629C557.186 -9.57333 557.755 -9.48763 558.399 -9.55917ZM575.873 -10.6311L575.791 -13.5438L572.966 -12.8919L574.927 -15.0174L572.545 -16.6845L575.447 -16.6447L574.888 -19.5045L576.95 -17.4637L578.537 -19.9099L578.595 -16.9945L581.418 -17.6703L579.459 -15.5209L581.839 -13.8776L578.94 -13.8936L579.523 -11.0365L577.435 -13.0985L575.873 -10.6311ZM593.066 -12.6617L592.139 -21.0104L594.703 -21.2952C595.689 -21.4048 596.515 -21.3235 597.181 -21.0514C597.854 -20.7881 598.377 -20.3591 598.749 -19.7646C599.128 -19.1788 599.366 -18.4487 599.463 -17.574C599.558 -16.7153 599.485 -15.9587 599.244 -15.304C599.011 -14.6503 598.595 -14.1211 597.996 -13.7165C597.405 -13.3128 596.616 -13.0561 595.63 -12.9466L593.066 -12.6617ZM593.975 -13.6079L595.514 -13.7788C596.309 -13.8671 596.931 -14.065 597.38 -14.3725C597.835 -14.6887 598.143 -15.1053 598.303 -15.6221C598.462 -16.1468 598.503 -16.7591 598.425 -17.4588C598.299 -18.5958 597.943 -19.4094 597.357 -19.8998C596.771 -20.3981 595.909 -20.584 594.772 -20.4577L593.233 -20.2868L593.975 -13.6079ZM601.37 -13.5843L600.443 -21.9329L601.445 -22.0442L602.372 -13.6956L601.37 -13.5843ZM607.748 -14.1479C606.953 -14.0596 606.241 -14.1656 605.612 -14.466C604.99 -14.7752 604.48 -15.2337 604.083 -15.8416C603.692 -16.4582 603.451 -17.184 603.358 -18.0188C603.266 -18.8458 603.343 -19.6029 603.589 -20.2902C603.834 -20.9775 604.238 -21.5416 604.801 -21.9824C605.363 -22.4312 606.073 -22.7033 606.932 -22.7987C607.87 -22.9029 608.675 -22.7629 609.345 -22.3786C610.024 -21.9951 610.499 -21.416 610.77 -20.6412L609.613 -20.5127C609.446 -21.0013 609.135 -21.3692 608.681 -21.6166C608.235 -21.8649 607.686 -21.9528 607.034 -21.8803C606.374 -21.807 605.834 -21.5941 605.415 -21.2416C604.995 -20.8891 604.699 -20.4417 604.526 -19.8992C604.359 -19.3656 604.312 -18.7768 604.384 -18.1328C604.456 -17.4808 604.636 -16.9092 604.924 -16.418C605.212 -15.9268 605.591 -15.5584 606.061 -15.3128C606.531 -15.0672 607.072 -14.9784 607.685 -15.0464C608.575 -15.1453 609.218 -15.4784 609.614 -16.0455C610.009 -16.6206 610.188 -17.3649 610.151 -18.2784L607.145 -17.9446L607.058 -18.7317L611.089 -19.1795L611.585 -14.719L610.666 -14.617L610.43 -15.9792C610.182 -15.4607 609.854 -15.0459 609.446 -14.7349C609.038 -14.424 608.472 -14.2283 607.748 -14.1479ZM613.169 -14.895L612.242 -23.2436L613.243 -23.3549L614.171 -15.0063L613.169 -14.895ZM617.897 -15.4202L617.061 -22.9459L614.568 -22.669L614.477 -23.4919L620.464 -24.1571L620.555 -23.3341L618.063 -23.0572L618.899 -15.5315L617.897 -15.4202ZM621.147 -15.7812L623.296 -24.4717L624.358 -24.5896L628.35 -16.5815L627.289 -16.4636L626.287 -18.5256L622.733 -18.1307L622.196 -15.8978L621.147 -15.7812ZM622.941 -18.9749L625.899 -19.3034L623.961 -23.2658L622.941 -18.9749ZM629.591 -16.7194L628.664 -25.068L629.666 -25.1793L630.504 -17.6297L634.393 -18.0617L634.481 -17.2626L629.591 -16.7194ZM647.689 -18.6091L647.607 -21.5219L644.782 -20.87L646.743 -22.9955L644.361 -24.6626L647.263 -24.6228L646.704 -27.4826L648.766 -25.4417L650.353 -27.888L650.411 -24.9726L653.234 -25.6484L651.275 -23.499L653.655 -21.8557L650.756 -21.8717L651.339 -19.0146L649.251 -21.0766L647.689 -18.6091ZM664.882 -20.6398L663.955 -28.9885L666.519 -29.2733C667.505 -29.3829 668.331 -29.3016 668.997 -29.0294C669.67 -28.7662 670.193 -28.3372 670.565 -27.7427C670.944 -27.1569 671.182 -26.4267 671.279 -25.5521C671.374 -24.6934 671.301 -23.9367 671.06 -23.2821C670.827 -22.6284 670.411 -22.0992 669.812 -21.6946C669.221 -21.2908 668.432 -21.0342 667.446 -20.9247L664.882 -20.6398ZM665.791 -21.586L667.33 -21.7569C668.125 -21.8452 668.747 -22.0431 669.196 -22.3505C669.651 -22.6668 669.959 -23.0833 670.119 -23.6002C670.278 -24.1249 670.319 -24.7372 670.241 -25.4369C670.115 -26.5739 669.759 -27.3875 669.173 -27.8779C668.587 -28.3761 667.725 -28.5621 666.588 -28.4358L665.049 -28.2649L665.791 -21.586ZM673.187 -21.5624L672.259 -29.911L673.261 -30.0223L674.188 -21.6737L673.187 -21.5624ZM678.475 -22.1499L674.411 -30.1501L675.496 -30.2706L678.942 -23.2763L680.792 -30.8589L681.853 -30.9768L679.644 -22.2797L678.475 -22.1499ZM686.958 -22.9474C686.227 -22.8661 685.618 -22.9474 685.132 -23.1913C684.646 -23.4431 684.268 -23.7996 683.999 -24.2607C683.738 -24.7307 683.575 -25.252 683.512 -25.8244L682.926 -31.096L683.928 -31.2073L684.515 -25.9238C684.605 -25.1128 684.865 -24.5461 685.295 -24.2236C685.726 -23.9011 686.255 -23.7748 686.883 -23.8446C687.511 -23.9143 687.996 -24.1533 688.337 -24.5615C688.678 -24.9696 688.803 -25.5792 688.713 -26.3902L688.126 -31.6737L689.128 -31.785L689.714 -26.5134C689.782 -25.9012 689.747 -25.3782 689.61 -24.9444C689.473 -24.5106 689.263 -24.1533 688.981 -23.8723C688.706 -23.5923 688.392 -23.3763 688.038 -23.2244C687.684 -23.0804 687.324 -22.988 686.958 -22.9474ZM691.752 -23.6248L690.825 -31.9735L691.826 -32.0847L692.665 -24.5352L696.553 -24.9671L696.642 -24.168L691.752 -23.6248ZM700.844 -24.4899C700.048 -24.4016 699.336 -24.5076 698.707 -24.808C698.085 -25.1172 697.576 -25.5757 697.178 -26.1836C696.788 -26.8002 696.546 -27.526 696.453 -28.3609C696.361 -29.1878 696.438 -29.9449 696.684 -30.6322C696.93 -31.3195 697.334 -31.8836 697.897 -32.3244C698.458 -32.7732 699.169 -33.0453 700.027 -33.1407C700.966 -33.2449 701.77 -33.1049 702.441 -32.7206C703.119 -32.3371 703.594 -31.758 703.865 -30.9832L702.708 -30.8547C702.541 -31.3433 702.231 -31.7112 701.777 -31.9586C701.331 -32.2069 700.781 -32.2948 700.129 -32.2223C699.47 -32.149 698.93 -31.9361 698.51 -31.5836C698.09 -31.2312 697.794 -30.7837 697.621 -30.2413C697.455 -29.7077 697.407 -29.1188 697.479 -28.4748C697.551 -27.8228 697.732 -27.2512 698.02 -26.76C698.308 -26.2688 698.687 -25.9004 699.157 -25.6548C699.627 -25.4092 700.168 -25.3204 700.78 -25.3884C701.671 -25.4873 702.314 -25.8204 702.709 -26.3875C703.104 -26.9627 703.283 -27.707 703.246 -28.6205L700.241 -28.2866L700.153 -29.0737L704.184 -29.5216L704.68 -25.061L703.762 -24.959L703.526 -26.3213C703.278 -25.8027 702.949 -25.3879 702.541 -25.0769C702.133 -24.766 701.567 -24.5703 700.844 -24.4899ZM705.739 -25.1787L707.889 -33.8692L708.951 -33.9871L712.943 -25.979L711.882 -25.861L710.88 -27.923L707.326 -27.5282L706.789 -25.2953L705.739 -25.1787ZM707.534 -28.3723L710.492 -28.7009L708.554 -32.6632L707.534 -28.3723ZM717.384 -26.3274C716.541 -26.2338 715.801 -26.3407 715.163 -26.6482C714.524 -26.9636 714.014 -27.43 713.631 -28.0476C713.249 -28.6651 713.012 -29.3834 712.921 -30.2023C712.831 -31.0133 712.901 -31.7616 713.13 -32.4472C713.368 -33.1336 713.764 -33.7008 714.318 -34.1487C714.872 -34.5966 715.574 -34.8678 716.425 -34.9623C717.379 -35.0683 718.18 -34.9238 718.827 -34.5289C719.482 -34.1428 719.938 -33.5496 720.196 -32.7492L719.087 -32.626C718.902 -33.1286 718.594 -33.513 718.162 -33.7789C717.737 -34.0536 717.191 -34.1539 716.523 -34.0797C715.863 -34.0064 715.332 -33.7904 714.929 -33.4317C714.525 -33.081 714.241 -32.6349 714.075 -32.0933C713.918 -31.5527 713.875 -30.9603 713.947 -30.3163C714.02 -29.6563 714.197 -29.0803 714.477 -28.5882C714.765 -28.097 715.144 -27.7246 715.615 -27.4711C716.085 -27.2255 716.642 -27.1384 717.286 -27.21C717.954 -27.2842 718.466 -27.494 718.822 -27.8394C719.185 -28.1937 719.402 -28.6323 719.473 -29.1553L720.582 -29.2785C720.504 -28.4569 720.188 -27.7859 719.634 -27.2656C719.088 -26.7461 718.338 -26.4334 717.384 -26.3274ZM716.853 -23.2861L716.782 -23.9183L717.88 -24.0402C718.42 -24.1002 718.67 -24.3211 718.627 -24.7027C718.587 -25.0605 718.297 -25.2094 717.756 -25.1493L717.172 -25.0844L717 -26.6349L717.668 -26.7091L717.774 -25.7549C718.075 -25.7964 718.345 -25.7903 718.585 -25.7364C718.825 -25.6745 719.019 -25.5632 719.165 -25.4024C719.32 -25.2425 719.411 -25.0353 719.439 -24.7809C719.467 -24.5344 719.427 -24.3166 719.319 -24.1276C719.22 -23.9315 719.068 -23.7738 718.864 -23.6545C718.66 -23.5352 718.415 -23.4597 718.129 -23.4279L716.853 -23.2861ZM721.568 -26.9371L723.718 -35.6276L724.779 -35.7455L728.772 -27.7373L727.71 -27.6194L726.708 -29.6814L723.154 -29.2866L722.617 -27.0537L721.568 -26.9371ZM723.362 -30.1307L726.32 -30.4593L724.383 -34.4216L723.362 -30.1307ZM724.824 -36.4266C724.609 -36.4028 724.429 -36.431 724.283 -36.5114C724.138 -36.5918 724 -36.6691 723.871 -36.7434C723.741 -36.8255 723.581 -36.856 723.39 -36.8348C723.104 -36.803 722.957 -36.6056 722.949 -36.2425L722.365 -36.1775C722.375 -36.5892 722.469 -36.9055 722.645 -37.1264C722.822 -37.3472 723.062 -37.4744 723.364 -37.508C723.578 -37.5318 723.759 -37.5036 723.904 -37.4232C724.049 -37.3507 724.187 -37.2734 724.317 -37.1913C724.454 -37.11 724.615 -37.0795 724.798 -37.0998C724.925 -37.1139 725.031 -37.17 725.117 -37.2681C725.203 -37.3662 725.247 -37.508 725.251 -37.6935L725.835 -37.7584C725.831 -37.3635 725.737 -37.0512 725.553 -36.8215C725.369 -36.5918 725.126 -36.4602 724.824 -36.4266ZM733.821 -28.1534C733.185 -28.0828 732.601 -28.1265 732.068 -28.2847C731.534 -28.4508 731.067 -28.7087 730.666 -29.0586C730.265 -29.4084 729.94 -29.8352 729.691 -30.3387C729.45 -30.8432 729.295 -31.4015 729.227 -32.0138C729.159 -32.626 729.187 -33.2047 729.312 -33.7497C729.444 -34.2957 729.668 -34.7834 729.982 -35.2127C730.297 -35.6421 730.693 -35.9919 731.17 -36.2622C731.654 -36.5414 732.218 -36.7168 732.862 -36.7883C733.498 -36.859 734.079 -36.8148 734.603 -36.6558C735.135 -36.5056 735.602 -36.2555 736.003 -35.9057C736.403 -35.5638 736.728 -35.1371 736.978 -34.6255C737.227 -34.122 737.387 -33.5561 737.456 -32.928C737.526 -32.2998 737.495 -31.7088 737.364 -31.1549C737.231 -30.6089 737.007 -30.1213 736.693 -29.6919C736.378 -29.2705 735.977 -28.9242 735.492 -28.653C735.014 -28.3906 734.457 -28.2241 733.821 -28.1534ZM733.723 -29.036C734.375 -29.1084 734.915 -29.3174 735.344 -29.6628C735.772 -30.0082 736.077 -30.4526 736.258 -30.9959C736.447 -31.5401 736.505 -32.1461 736.431 -32.814C736.355 -33.4978 736.165 -34.0805 735.862 -34.562C735.566 -35.0523 735.172 -35.4149 734.679 -35.6499C734.186 -35.885 733.613 -35.9662 732.961 -35.8938C732.317 -35.8223 731.781 -35.6138 731.353 -35.2684C730.924 -34.9229 730.615 -34.4781 730.426 -33.9339C730.236 -33.3977 730.178 -32.7956 730.253 -32.1277C730.326 -31.4678 730.515 -30.8891 730.82 -30.3917C731.124 -29.9023 731.523 -29.5361 732.016 -29.2931C732.51 -29.0502 733.079 -28.9645 733.723 -29.036Z" fill="#A9FE4B"/>
</g>
</g>
<defs>
<filter id="filter0_d_328_206" x="-372.584" y="-44" width="923.951" height="148.218" filterUnits="userSpaceOnUse" color-interpolation-filters="sRGB">
<feFlood flood-opacity="0" result="BackgroundImageFix"/>
<feColorMatrix in="SourceAlpha" type="matrix" values="0 0 0 0 0 0 0 0 0 0 0 0 0 0 0 0 0 0 127 0" result="hardAlpha"/>
<feOffset dy="4"/>
<feGaussianBlur stdDeviation="10"/>
<feComposite in2="hardAlpha" operator="out"/>
<feColorMatrix type="matrix" values="0 0 0 0 0 0 0 0 0 0 0 0 0 0 0 0 0 0 0.5 0"/>
<feBlend mode="normal" in2="BackgroundImageFix" result="effect1_dropShadow_328_206"/>
<feBlend mode="normal" in="SourceGraphic" in2="effect1_dropShadow_328_206" result="shape"/>
</filter>
<filter id="filter1_d_328_206" x="-379" y="-54.9987" width="1137.26" height="182.285" filterUnits="userSpaceOnUse" color-interpolation-filters="sRGB">
<feFlood flood-opacity="0" result="BackgroundImageFix"/>
<feColorMatrix in="SourceAlpha" type="matrix" values="0 0 0 0 0 0 0 0 0 0 0 0 0 0 0 0 0 0 127 0" result="hardAlpha"/>
<feOffset dy="4"/>
<feGaussianBlur stdDeviation="10"/>
<feComposite in2="hardAlpha" operator="out"/>
<feColorMatrix type="matrix" values="0 0 0 0 0 0 0 0 0 0 0 0 0 0 0 0 0 0 0.8 0"/>
<feBlend mode="normal" in2="BackgroundImageFix" result="effect1_dropShadow_328_206"/>
<feBlend mode="normal" in="SourceGraphic" in2="effect1_dropShadow_328_206" result="shape"/>
</filter>
<clipPath id="clip0_328_206">
<rect width="375" height="64" fill="white"/>
</clipPath>
</defs>
</svg>
