<svg width="375" height="188" viewBox="0 0 375 188" fill="none" xmlns="http://www.w3.org/2000/svg">
<g filter="url(#filter0_d_328_206)">
<rect x="-290.561" y="32" width="825.737" height="29.1204" transform="rotate(5.50614 -290.561 32)" fill="#A9FE4B"/>
<path d="M-352.286 44.9837L-351.48 36.6225L-348.912 36.87C-347.925 36.9652 -347.133 37.2143 -346.537 37.6174C-345.932 38.0132 -345.509 38.5403 -345.267 39.1985C-345.016 39.8496 -344.933 40.6131 -345.017 41.489C-345.1 42.3491 -345.327 43.0746 -345.697 43.6658C-346.06 44.2578 -346.576 44.6903 -347.245 44.9633C-347.906 45.2371 -348.731 45.3264 -349.718 45.2313L-352.286 44.9837ZM-351.202 44.2443L-349.661 44.3928C-348.865 44.4696 -348.216 44.4036 -347.713 44.1948C-347.202 43.9789 -346.815 43.6344 -346.553 43.1614C-346.289 42.6805 -346.124 42.0896 -346.056 41.3889C-345.947 40.2501 -346.128 39.3807 -346.601 38.7806C-347.073 38.1725 -347.878 37.8136 -349.017 37.7038L-350.557 37.5553L-351.202 44.2443ZM-343.969 45.7854L-343.163 37.4242L-337.991 37.9228L-338.071 38.7469L-342.239 38.3451L-342.501 41.0565L-338.858 41.4077L-338.936 42.2199L-342.579 41.8687L-342.886 45.058L-338.718 45.4598L-338.797 46.284L-343.969 45.7854ZM-334.577 46.8355C-335.143 46.781 -335.646 46.6279 -336.088 46.3764C-336.522 46.1256 -336.856 45.792 -337.089 45.3757C-337.313 44.9522 -337.398 44.4578 -337.344 43.8924L-336.292 43.9938C-336.346 44.5512 -336.206 45.0108 -335.871 45.3726C-335.535 45.7264 -335.077 45.9314 -334.495 45.9874C-333.986 46.0365 -333.552 45.9538 -333.194 45.7392C-332.827 45.5253 -332.622 45.1914 -332.579 44.7375C-332.549 44.427 -332.581 44.1748 -332.675 43.9809C-332.76 43.7798 -332.904 43.6091 -333.107 43.469C-333.31 43.3208 -333.569 43.1753 -333.885 43.0323C-334.201 42.8894 -334.574 42.7207 -335.006 42.5265C-335.39 42.3447 -335.717 42.1485 -335.986 41.9377C-336.247 41.7277 -336.44 41.484 -336.566 41.2066C-336.691 40.9213 -336.736 40.5915 -336.7 40.2172C-336.66 39.7228 -336.509 39.3194 -336.246 39.0072C-335.974 38.6878 -335.63 38.4598 -335.215 38.3229C-334.792 38.1789 -334.337 38.1304 -333.851 38.1772C-333.357 38.2248 -332.924 38.359 -332.552 38.5797C-332.17 38.7933 -331.877 39.0868 -331.672 39.4602C-331.466 39.8256 -331.383 40.2556 -331.423 40.7501L-332.474 40.6487C-332.433 40.2267 -332.551 39.8657 -332.828 39.5658C-333.103 39.2579 -333.484 39.0806 -333.97 39.0337C-334.398 38.9764 -334.775 39.0486 -335.1 39.2503C-335.425 39.4521 -335.609 39.7759 -335.652 40.2219C-335.68 40.5165 -335.643 40.7572 -335.54 40.9439C-335.429 41.1234 -335.228 41.2914 -334.938 41.448C-334.648 41.6046 -334.245 41.8001 -333.729 42.0347C-333.359 42.199 -333.029 42.3674 -332.741 42.5399C-332.451 42.7044 -332.212 42.8922 -332.023 43.1033C-331.834 43.3064 -331.696 43.5447 -331.61 43.8182C-331.523 44.0838 -331.498 44.4037 -331.534 44.778C-331.582 45.2797 -331.755 45.693 -332.051 46.0181C-332.339 46.3359 -332.707 46.5657 -333.154 46.7074C-333.593 46.8419 -334.068 46.8846 -334.577 46.8355ZM-330.322 47.101L-329.516 38.7398L-328.512 38.8365L-329.318 47.1977L-330.322 47.101ZM-323.964 47.8586C-324.76 47.7818 -325.435 47.5319 -325.989 47.1088C-326.534 46.6785 -326.939 46.1251 -327.204 45.4486C-327.459 44.7649 -327.547 44.005 -327.466 43.1689C-327.386 42.3407 -327.156 41.6155 -326.774 40.9932C-326.393 40.371 -325.881 39.9019 -325.24 39.5859C-324.598 39.2621 -323.847 39.1416 -322.987 39.2245C-322.047 39.315 -321.289 39.6172 -320.711 40.131C-320.126 40.6455 -319.78 41.3098 -319.674 42.1237L-320.832 42.012C-320.896 41.4996 -321.124 41.0758 -321.518 40.7404C-321.903 40.4059 -322.423 40.2071 -323.076 40.1442C-323.736 40.0805 -324.308 40.178 -324.792 40.4369C-325.275 40.6957 -325.657 41.0728 -325.937 41.5682C-326.209 42.0563 -326.377 42.6229 -326.439 43.2679C-326.502 43.9209 -326.443 44.5173 -326.262 45.0572C-326.081 45.597 -325.785 46.0354 -325.376 46.3722C-324.966 46.7091 -324.455 46.9071 -323.842 46.9662C-322.95 47.0521 -322.252 46.8582 -321.748 46.3844C-321.244 45.9025 -320.916 45.2108 -320.764 44.3092L-323.775 44.019L-323.699 43.2307L-319.661 43.6198L-320.092 48.0871L-321.012 47.9985L-320.963 46.6168C-321.312 47.0734 -321.719 47.4119 -322.182 47.6325C-322.645 47.8531 -323.239 47.9284 -323.964 47.8586ZM-318.505 48.2401L-317.699 39.8788L-316.696 39.9756L-312.886 47.106L-312.241 40.405L-311.237 40.5018L-312.043 48.863L-313.047 48.7663L-316.856 41.6359L-317.502 48.3368L-318.505 48.2401ZM-298.445 50.2944L-297.927 47.4268L-300.826 47.4849L-298.471 45.8072L-300.46 43.6865L-297.628 44.3212L-297.588 41.4076L-295.989 43.8282L-293.933 41.7599L-294.475 44.6252L-291.573 44.5432L-293.932 46.2448L-291.94 48.3416L-294.774 47.7308L-294.79 50.6467L-296.411 48.1999L-298.445 50.2944ZM-281.202 51.8361L-280.396 43.4748L-277.636 43.7408C-277.047 43.7976 -276.55 43.9339 -276.145 44.1498C-275.74 44.3657 -275.438 44.6599 -275.241 45.0326C-275.044 45.4052 -274.971 45.8543 -275.022 46.3799C-275.074 46.9214 -275.24 47.3554 -275.521 47.682C-275.793 48.0093 -276.153 48.2359 -276.599 48.3617C-277.037 48.4882 -277.535 48.5246 -278.092 48.4709L-279.848 48.3016L-280.198 51.9328L-281.202 51.8361ZM-279.766 47.4535L-278.034 47.6205C-277.366 47.685 -276.879 47.6032 -276.576 47.3753C-276.272 47.1394 -276.096 46.7746 -276.049 46.2808C-276 45.7792 -276.103 45.3875 -276.357 45.1058C-276.611 44.8162 -277.072 44.6391 -277.741 44.5746L-279.473 44.4077L-279.766 47.4535ZM-274.284 52.5028L-273.478 44.1416L-271.006 44.38C-270.417 44.4368 -269.923 44.5727 -269.526 44.7878C-269.128 44.995 -268.834 45.2805 -268.644 45.6444C-268.454 46.0083 -268.385 46.453 -268.435 46.9786C-268.498 47.6316 -268.717 48.1088 -269.092 48.4102C-269.458 48.7124 -269.937 48.8873 -270.529 48.9348L-268.503 53.0601L-269.745 52.9404L-271.539 49.0303L-272.924 48.8967L-273.281 52.5996L-274.284 52.5028ZM-272.842 48.0487L-271.397 48.188C-270.951 48.231 -270.592 48.2134 -270.319 48.1352C-270.046 48.049 -269.842 47.8998 -269.709 47.6876C-269.576 47.4754 -269.494 47.2061 -269.463 46.8796C-269.43 46.5451 -269.459 46.261 -269.549 46.0273C-269.639 45.7936 -269.811 45.6123 -270.063 45.4835C-270.315 45.3467 -270.664 45.2568 -271.11 45.2138L-272.556 45.0744L-272.842 48.0487ZM-263.653 53.6724C-264.29 53.611 -264.853 53.4482 -265.342 53.1841C-265.83 52.912 -266.234 52.5636 -266.555 52.1388C-266.876 51.7141 -267.106 51.2297 -267.247 50.6858C-267.379 50.1425 -267.416 49.5643 -267.357 48.9512C-267.298 48.338 -267.151 47.7775 -266.917 47.2696C-266.676 46.7624 -266.357 46.3311 -265.961 45.9754C-265.565 45.6198 -265.106 45.3586 -264.583 45.192C-264.052 45.0181 -263.464 44.9623 -262.819 45.0245C-262.182 45.0859 -261.623 45.2483 -261.142 45.5116C-260.652 45.7678 -260.247 46.1083 -259.926 46.533C-259.605 46.9498 -259.374 47.4341 -259.235 47.9861C-259.094 48.5301 -259.054 49.1166 -259.115 49.7457C-259.176 50.3748 -259.327 50.9469 -259.57 51.462C-259.812 51.9691 -260.13 52.4005 -260.526 52.7561C-260.922 53.1038 -261.384 53.3606 -261.915 53.5265C-262.436 53.6852 -263.016 53.7338 -263.653 53.6724ZM-263.567 52.7885C-262.915 52.8514 -262.343 52.7578 -261.853 52.5077C-261.362 52.2576 -260.973 51.8853 -260.684 51.3907C-260.387 50.8969 -260.207 50.3155 -260.142 49.6466C-260.076 48.9618 -260.142 48.3527 -260.34 47.8193C-260.529 47.2786 -260.84 46.8427 -261.275 46.5115C-261.709 46.1803 -262.252 45.9833 -262.905 45.9203C-263.55 45.8581 -264.118 45.9521 -264.608 46.2022C-265.099 46.4523 -265.492 46.8243 -265.789 47.3181C-266.085 47.8039 -266.265 48.3813 -266.33 49.0502C-266.393 49.7111 -266.327 50.3163 -266.131 50.8657C-265.934 51.4071 -265.619 51.8473 -265.185 52.1865C-264.752 52.5256 -264.212 52.7263 -263.567 52.7885ZM-254.489 54.5557C-255.285 54.479 -255.96 54.229 -256.514 53.8059C-257.06 53.3756 -257.464 52.8222 -257.729 52.1458C-257.984 51.4621 -258.072 50.7022 -257.991 49.8661C-257.911 49.0379 -257.681 48.3127 -257.299 47.6904C-256.918 47.0681 -256.406 46.599 -255.765 46.2831C-255.123 45.9592 -254.372 45.8387 -253.512 45.9216C-252.572 46.0122 -251.814 46.3144 -251.237 46.8282C-250.651 47.3427 -250.305 48.007 -250.199 48.8209L-251.358 48.7092C-251.421 48.1968 -251.649 47.7729 -252.043 47.4376C-252.428 47.1031 -252.948 46.9043 -253.601 46.8414C-254.262 46.7777 -254.834 46.8752 -255.317 47.1341C-255.8 47.3929 -256.182 47.77 -256.463 48.2654C-256.735 48.7535 -256.902 49.3201 -256.964 49.9651C-257.027 50.6181 -256.968 51.2145 -256.787 51.7543C-256.606 52.2942 -256.31 52.7326 -255.901 53.0694C-255.491 53.4063 -254.98 53.6042 -254.367 53.6633C-253.475 53.7493 -252.777 53.5554 -252.273 53.0815C-251.769 52.5997 -251.441 51.908 -251.29 51.0063L-254.3 50.7162L-254.224 49.9278L-250.186 50.317L-250.617 54.7843L-251.537 54.6957L-251.488 53.314C-251.837 53.7705 -252.244 54.1091 -252.707 54.3297C-253.17 54.5502 -253.764 54.6256 -254.489 54.5557ZM-249.03 54.9373L-248.224 46.576L-245.752 46.8144C-245.163 46.8712 -244.669 47.0071 -244.272 47.2222C-243.874 47.4294 -243.58 47.7149 -243.39 48.0788C-243.2 48.4427 -243.131 48.8874 -243.181 49.413C-243.244 50.066 -243.463 50.5432 -243.838 50.8446C-244.204 51.1468 -244.683 51.3217 -245.275 51.3692L-243.249 55.4946L-244.491 55.3748L-246.285 51.4647L-247.67 51.3312L-248.027 55.034L-249.03 54.9373ZM-247.588 50.4831L-246.143 50.6224C-245.697 50.6654 -245.338 50.6478 -245.065 50.5696C-244.791 50.4835 -244.588 50.3343 -244.455 50.122C-244.322 49.9098 -244.24 49.6405 -244.209 49.314C-244.176 48.9795 -244.205 48.6955 -244.295 48.4617C-244.385 48.228 -244.557 48.0467 -244.809 47.9179C-245.061 47.7811 -245.41 47.6912 -245.856 47.6482L-247.302 47.5089L-247.588 50.4831ZM-242.475 55.5691L-238.588 47.505L-237.525 47.6074L-235.261 56.2646L-236.324 56.1621L-236.881 53.9384L-240.441 53.5953L-241.424 55.6705L-242.475 55.5691ZM-240.064 52.8118L-237.102 53.0974L-238.184 48.8218L-240.064 52.8118ZM-234.018 56.3844L-233.212 48.0232L-232.041 48.136L-229.71 54.2198L-226.284 48.691L-225.102 48.805L-225.908 57.1662L-226.911 57.0695L-226.28 50.5239L-229.471 55.6171L-230.224 55.5446L-232.385 49.9474L-233.015 56.4811L-234.018 56.3844ZM-224.664 57.2862L-220.776 49.222L-219.713 49.3245L-217.449 57.9816L-218.512 57.8792L-219.069 55.6554L-222.629 55.3123L-223.612 57.3875L-224.664 57.2862ZM-222.252 54.5289L-219.29 54.8144L-220.372 50.5388L-222.252 54.5289ZM-213.031 58.5522C-213.875 58.4708 -214.578 58.2142 -215.139 57.7824C-215.699 57.3426 -216.103 56.7812 -216.351 56.0983C-216.599 55.4154 -216.683 54.6638 -216.604 53.8436C-216.525 53.0314 -216.304 52.3134 -215.938 51.6896C-215.564 51.0665 -215.061 50.5927 -214.427 50.268C-213.793 49.9434 -213.049 49.8221 -212.197 49.9043C-211.242 49.9964 -210.488 50.3021 -209.935 50.8216C-209.374 51.3338 -209.049 52.0081 -208.961 52.8444L-210.071 52.7373C-210.149 52.2074 -210.372 51.768 -210.74 51.4191C-211.1 51.063 -211.614 50.8526 -212.283 50.7882C-212.944 50.7244 -213.508 50.8268 -213.976 51.0951C-214.443 51.3555 -214.813 51.7337 -215.086 52.2298C-215.351 52.7267 -215.514 53.2977 -215.577 53.9427C-215.64 54.6036 -215.586 55.2036 -215.412 55.7427C-215.231 56.2826 -214.937 56.7249 -214.528 57.0697C-214.118 57.4066 -213.591 57.6061 -212.946 57.6683C-212.277 57.7327 -211.733 57.6325 -211.313 57.3675C-210.885 57.0953 -210.583 56.7106 -210.407 56.2132L-209.296 56.3203C-209.54 57.1084 -209.987 57.7003 -210.636 58.0959C-211.277 58.4922 -212.075 58.6443 -213.031 58.5522ZM-214.175 61.4196L-214.114 60.7865L-213.016 60.8925C-212.474 60.9447 -212.185 60.7796 -212.148 60.3974C-212.113 60.0391 -212.367 59.8338 -212.908 59.7816L-213.494 59.7252L-213.344 58.1724L-212.675 58.2369L-212.767 59.1924C-212.464 59.2136 -212.201 59.2752 -211.977 59.3771C-211.755 59.4869 -211.588 59.6356 -211.478 59.8231C-211.359 60.0113 -211.312 60.2328 -211.337 60.4877C-211.361 60.7345 -211.445 60.9394 -211.589 61.1023C-211.726 61.2739 -211.907 61.3972 -212.131 61.472C-212.355 61.5468 -212.611 61.5704 -212.897 61.5428L-214.175 61.4196ZM-208.811 58.8143L-204.924 50.7501L-203.86 50.8526L-201.597 59.5097L-202.66 59.4073L-203.217 57.1835L-206.776 56.8404L-207.76 58.9156L-208.811 58.8143ZM-206.4 56.057L-203.437 56.3425L-204.52 52.0669L-206.4 56.057ZM-203.677 50.1952C-203.892 50.1745 -204.062 50.1098 -204.188 50.0012C-204.314 49.8926 -204.433 49.7887 -204.544 49.6896C-204.654 49.5826 -204.805 49.5198 -204.996 49.5014C-205.283 49.4738 -205.467 49.6368 -205.55 49.9905L-206.135 49.9341C-206.04 49.5334 -205.883 49.2431 -205.665 49.0632C-205.447 48.8833 -205.186 48.8079 -204.884 48.8371C-204.669 48.8578 -204.498 48.9225 -204.372 49.0311C-204.245 49.1317 -204.127 49.2356 -204.016 49.3427C-203.898 49.4505 -203.747 49.5133 -203.564 49.5309C-203.437 49.5432 -203.321 49.5101 -203.217 49.4318C-203.113 49.3534 -203.04 49.2238 -202.999 49.0429L-202.414 49.0993C-202.499 49.4849 -202.655 49.7713 -202.882 49.9583C-203.109 50.1454 -203.374 50.2244 -203.677 50.1952ZM-196.569 60.1391C-197.206 60.0776 -197.769 59.9149 -198.258 59.6507C-198.746 59.3787 -199.151 59.0302 -199.471 58.6055C-199.792 58.1808 -200.023 57.6964 -200.163 57.1524C-200.296 56.6092 -200.332 56.031 -200.273 55.4179C-200.214 54.8047 -200.068 54.2442 -199.834 53.7363C-199.592 53.2291 -199.273 52.7977 -198.877 52.4421C-198.481 52.0864 -198.022 51.8253 -197.5 51.6586C-196.969 51.4848 -196.38 51.429 -195.735 51.4911C-195.098 51.5526 -194.539 51.7149 -194.058 51.9783C-193.569 52.2345 -193.164 52.5749 -192.843 52.9997C-192.521 53.4164 -192.291 53.9008 -192.151 54.4527C-192.011 54.9967 -191.971 55.5833 -192.031 56.2123C-192.092 56.8414 -192.244 57.4135 -192.486 57.9286C-192.728 58.4358 -193.047 58.8672 -193.443 59.2228C-193.838 59.5705 -194.301 59.8273 -194.831 59.9932C-195.353 60.1518 -195.932 60.2005 -196.569 60.1391ZM-196.484 59.2552C-195.831 59.3181 -195.259 59.2245 -194.769 58.9744C-194.279 58.7243 -193.889 58.352 -193.6 57.8574C-193.304 57.3636 -193.123 56.7822 -193.059 56.1133C-192.993 55.4285 -193.058 54.8194 -193.256 54.2859C-193.445 53.7453 -193.757 53.3094 -194.191 52.9782C-194.625 52.647 -195.169 52.4499 -195.822 52.387C-196.467 52.3248 -197.034 52.4188 -197.525 52.6689C-198.015 52.919 -198.409 53.291 -198.705 53.7848C-199.001 54.2706 -199.181 54.848 -199.246 55.5169C-199.31 56.1778 -199.243 56.783 -199.047 57.3323C-198.85 57.8737 -198.535 58.314 -198.102 58.6532C-197.668 58.9923 -197.129 59.193 -196.484 59.2552ZM-179.162 61.7929L-178.644 58.9254L-181.543 58.9835L-179.188 57.3058L-181.177 55.1851L-178.345 55.8198L-178.305 52.9061L-176.706 55.3267L-174.65 53.2585L-175.192 56.1237L-172.29 56.0418L-174.649 57.7433L-172.657 59.8401L-175.491 59.2294L-175.507 62.1453L-177.128 59.6985L-179.162 61.7929ZM-159.269 63.7347C-159.834 63.6802 -160.338 63.5272 -160.78 63.2756C-161.214 63.0248 -161.547 62.6913 -161.78 62.275C-162.005 61.8515 -162.09 61.3571 -162.035 60.7917L-160.984 60.893C-161.038 61.4504 -160.897 61.91 -160.562 62.2718C-160.227 62.6257 -159.768 62.8306 -159.187 62.8866C-158.677 62.9358 -158.243 62.853 -157.885 62.6384C-157.519 62.4246 -157.314 62.0907 -157.27 61.6368C-157.24 61.3262 -157.272 61.074 -157.366 60.8801C-157.451 60.679 -157.595 60.5084 -157.799 60.3682C-158.002 60.2201 -158.261 60.0745 -158.577 59.9316C-158.892 59.7886 -159.266 59.62 -159.697 59.4257C-160.082 59.244 -160.408 59.0477 -160.677 58.837C-160.938 58.6269 -161.132 58.3833 -161.258 58.1059C-161.383 57.8206 -161.428 57.4908 -161.391 57.1165C-161.352 56.622 -161.2 56.2187 -160.937 55.9065C-160.665 55.5871 -160.322 55.359 -159.907 55.2222C-159.483 55.0782 -159.028 55.0296 -158.543 55.0764C-158.049 55.124 -157.616 55.2582 -157.243 55.479C-156.862 55.6925 -156.569 55.986 -156.364 56.3594C-156.158 56.7249 -156.075 57.1548 -156.114 57.6493L-157.165 57.548C-157.125 57.1259 -157.243 56.765 -157.519 56.465C-157.795 56.1572 -158.176 55.9798 -158.661 55.933C-159.09 55.8756 -159.466 55.9478 -159.791 56.1496C-160.116 56.3513 -160.3 56.6752 -160.343 57.1211C-160.372 57.4157 -160.334 57.6564 -160.232 57.8431C-160.121 58.0226 -159.92 58.1907 -159.629 58.3472C-159.339 58.5038 -158.936 58.6994 -158.42 58.934C-158.05 59.0982 -157.721 59.2666 -157.432 59.4391C-157.143 59.6037 -156.903 59.7915 -156.715 60.0025C-156.525 60.2057 -156.388 60.444 -156.302 60.7175C-156.215 60.9831 -156.189 61.303 -156.225 61.6772C-156.274 62.1789 -156.446 62.5923 -156.743 62.9173C-157.03 63.2352 -157.398 63.4649 -157.846 63.6066C-158.285 63.7412 -158.759 63.7838 -159.269 63.7347ZM-151.229 64.5098C-151.866 64.4484 -152.429 64.2856 -152.917 64.0215C-153.406 63.7494 -153.81 63.4009 -154.131 62.9762C-154.451 62.5515 -154.682 62.0671 -154.823 61.5231C-154.955 60.9799 -154.992 60.4017 -154.933 59.7886C-154.873 59.1754 -154.727 58.6149 -154.493 58.107C-154.251 57.5998 -153.933 57.1684 -153.537 56.8128C-153.141 56.4571 -152.681 56.196 -152.159 56.0293C-151.628 55.8555 -151.04 55.7997 -150.395 55.8619C-149.758 55.9233 -149.199 56.0857 -148.718 56.349C-148.228 56.6052 -147.823 56.9456 -147.502 57.3704C-147.181 57.7871 -146.95 58.2715 -146.811 58.8234C-146.67 59.3674 -146.63 59.954 -146.691 60.5831C-146.751 61.2121 -146.903 61.7842 -147.146 62.2993C-147.387 62.8065 -147.706 63.2379 -148.102 63.5935C-148.497 63.9412 -148.96 64.198 -149.49 64.3639C-150.012 64.5225 -150.591 64.5712 -151.229 64.5098ZM-151.143 63.6259C-150.49 63.6888 -149.919 63.5952 -149.428 63.3451C-148.938 63.095 -148.549 62.7227 -148.26 62.2281C-147.963 61.7343 -147.783 61.1529 -147.718 60.484C-147.652 59.7992 -147.718 59.1901 -147.916 58.6566C-148.105 58.116 -148.416 57.6801 -148.85 57.3489C-149.285 57.0177 -149.828 56.8206 -150.481 56.7577C-151.126 56.6955 -151.694 56.7895 -152.184 57.0396C-152.674 57.2897 -153.068 57.6617 -153.365 58.1555C-153.661 58.6413 -153.841 59.2187 -153.905 59.8876C-153.969 60.5485 -153.903 61.1537 -153.707 61.703C-153.51 62.2444 -153.194 62.6847 -152.761 63.0239C-152.328 63.363 -151.788 63.5637 -151.143 63.6259ZM-141.993 65.4C-142.837 65.3187 -143.54 65.0621 -144.101 64.6302C-144.661 64.1904 -145.065 63.6291 -145.313 62.9462C-145.561 62.2632 -145.645 61.5117 -145.566 60.6915C-145.488 59.8793 -145.266 59.1612 -144.9 58.5374C-144.527 57.9144 -144.023 57.4406 -143.389 57.1159C-142.755 56.7912 -142.012 56.67 -141.16 56.7521C-140.204 56.8442 -139.45 57.15 -138.897 57.6694C-138.336 58.1817 -138.011 58.8559 -137.923 59.6923L-139.034 59.5852C-139.111 59.0553 -139.334 58.6159 -139.702 58.2669C-140.062 57.9108 -140.576 57.7005 -141.245 57.636C-141.906 57.5723 -142.47 57.6746 -142.938 57.943C-143.405 58.2033 -143.775 58.5816 -144.048 59.0777C-144.313 59.5746 -144.476 60.1455 -144.539 60.7905C-144.602 61.4515 -144.548 62.0515 -144.375 62.5906C-144.194 63.1304 -143.899 63.5728 -143.49 63.9176C-143.08 64.2544 -142.553 64.454 -141.908 64.5161C-141.239 64.5806 -140.695 64.4804 -140.276 64.2154C-139.847 63.9432 -139.545 63.5584 -139.369 63.0611L-138.258 63.1682C-138.503 63.9563 -138.949 64.5482 -139.598 64.9437C-140.239 65.34 -141.038 65.4921 -141.993 65.4ZM-137.049 65.7319L-136.243 57.3707L-135.24 57.4674L-136.046 65.8286L-137.049 65.7319ZM-134.799 65.9489L-130.911 57.8847L-129.848 57.9872L-127.584 66.6443L-128.647 66.5419L-129.205 64.3181L-132.764 63.975L-133.748 66.0502L-134.799 65.9489ZM-132.387 63.1916L-129.425 63.4771L-130.508 59.2015L-132.387 63.1916ZM-126.341 66.7642L-125.535 58.4029L-124.532 58.4996L-125.261 66.0606L-121.367 66.436L-121.444 67.2362L-126.341 66.7642ZM-116.905 67.6738L-116.099 59.3126L-114.928 59.4254L-112.597 65.5092L-109.171 59.9804L-107.988 60.0944L-108.794 68.4557L-109.798 68.3589L-109.167 61.8133L-112.358 66.9066L-113.11 66.834L-115.271 61.2368L-115.901 67.7706L-116.905 67.6738ZM-107.025 68.6262L-106.219 60.265L-101.047 60.7636L-101.126 61.5877L-105.295 61.1859L-105.556 63.8973L-101.913 64.2485L-101.991 65.0607L-105.634 64.7096L-105.942 67.8988L-101.773 68.3006L-101.853 69.1248L-107.025 68.6262ZM-100.282 69.2762L-99.4764 60.9149L-96.9083 61.1625C-95.9209 61.2577 -95.1291 61.5068 -94.5331 61.9098C-93.9283 62.3057 -93.5049 62.8328 -93.2629 63.491C-93.0122 64.1421 -92.9291 64.9056 -93.0135 65.7815C-93.0964 66.6415 -93.3231 67.3671 -93.6936 67.9583C-94.056 68.5503 -94.5719 68.9827 -95.2412 69.2558C-95.9025 69.5296 -96.7269 69.6189 -97.7143 69.5237L-100.282 69.2762ZM-99.1985 68.5368L-97.6576 68.6853C-96.8613 68.7621 -96.212 68.6961 -95.7096 68.4873C-95.1985 68.2713 -94.8117 67.9269 -94.5491 67.4539C-94.2857 66.9729 -94.1203 66.3821 -94.0527 65.6813C-93.943 64.5426 -94.1244 63.6732 -94.597 63.0731C-95.0688 62.465 -95.8741 62.1061 -97.0128 61.9963L-98.5537 61.8478L-99.1985 68.5368ZM-91.9655 70.0779L-91.1595 61.7167L-90.1561 61.8134L-90.9621 70.1746L-91.9655 70.0779ZM-89.7149 70.2948L-85.8271 62.2307L-84.7641 62.3332L-82.5003 70.9903L-83.5634 70.8878L-84.1206 68.6641L-87.6801 68.321L-88.6637 70.3962L-89.7149 70.2948ZM-87.3032 67.5375L-84.3409 67.8231L-85.4236 63.5475L-87.3032 67.5375ZM-66.3879 72.6641L-65.8703 69.7965L-68.7693 69.8546L-66.4134 68.1769L-68.4031 66.0562L-65.571 66.6909L-65.5312 63.7773L-63.9321 66.1979L-61.8762 64.1296L-62.4176 66.9949L-59.5163 66.9129L-61.8745 68.6144L-59.8825 70.7113L-62.717 70.1005L-62.7328 73.0164L-64.3535 70.5696L-66.3879 72.6641ZM-49.1445 74.2057L-48.3385 65.8445L-47.3351 65.9412L-48.1411 74.3024L-49.1445 74.2057ZM-46.3683 74.4733L-45.5623 66.1121L-42.9942 66.3597C-42.0067 66.4548 -41.215 66.704 -40.6189 67.107C-40.0141 67.5029 -39.5907 68.0299 -39.3488 68.6882C-39.0981 69.3392 -39.015 70.1027 -39.0994 70.9787C-39.1823 71.8387 -39.409 72.5643 -39.7794 73.1555C-40.1419 73.7474 -40.6578 74.1799 -41.327 74.453C-41.9884 74.7268 -42.8127 74.8161 -43.8002 74.7209L-46.3683 74.4733ZM-45.2843 73.7339L-43.7435 73.8825C-42.9471 73.9592 -42.2978 73.8932 -41.7955 73.6845C-41.2844 73.4685 -40.8976 73.124 -40.635 72.6511C-40.3716 72.1701 -40.2061 71.5793 -40.1386 70.8785C-40.0288 69.7398 -40.2102 68.8704 -40.6828 68.2703C-41.1547 67.6622 -41.9599 67.3032 -43.0987 67.1935L-44.6395 67.0449L-45.2843 73.7339ZM-38.0513 75.2751L-37.2453 66.9138L-32.0733 67.4124L-32.1528 68.2366L-36.3214 67.8347L-36.5828 70.5462L-32.9397 70.8973L-33.018 71.7096L-36.6611 71.3584L-36.9685 74.5476L-32.7999 74.9495L-32.8793 75.7736L-38.0513 75.2751ZM-31.3092 75.925L-30.5032 67.5638L-29.4998 67.6605L-25.6904 74.7909L-25.0445 68.09L-24.0411 68.1867L-24.8471 76.5479L-25.8505 76.4512L-29.6599 69.3208L-30.3058 76.0217L-31.3092 75.925ZM-21.115 76.9077L-20.3884 69.3706L-22.8849 69.13L-22.8054 68.3058L-16.8092 68.8838L-16.8886 69.708L-19.3851 69.4673L-20.1116 77.0044L-21.115 76.9077ZM-16.39 77.3632L-15.584 69.0019L-14.5807 69.0986L-15.3867 77.4599L-16.39 77.3632ZM-13.6138 77.6308L-12.8078 69.2695L-10.2397 69.5171C-9.25232 69.6123 -8.46057 69.8614 -7.8645 70.2645C-7.25969 70.6603 -6.83631 71.1874 -6.59435 71.8456C-6.34367 72.4967 -6.26054 73.2602 -6.34498 74.1361C-6.42788 74.9961 -6.65455 75.7217 -7.02499 76.3129C-7.38746 76.9049 -7.90334 77.3374 -8.57263 77.6104C-9.23395 77.8842 -10.0583 77.9735 -11.0457 77.8783L-13.6138 77.6308ZM-12.5299 76.8914L-10.989 77.0399C-10.1927 77.1167 -9.5434 77.0507 -9.04105 76.8419C-8.52997 76.626 -8.14313 76.2815 -7.88054 75.8085C-7.61717 75.3275 -7.45172 74.7367 -7.38416 74.0359C-7.27439 72.8972 -7.45581 72.0278 -7.92841 71.4277C-8.40024 70.8196 -9.20551 70.4607 -10.3442 70.3509L-11.8851 70.2024L-12.5299 76.8914ZM-6.41739 78.3245L-2.52967 70.2603L-1.4666 70.3628L0.797168 79.02L-0.265904 78.9175L-0.823102 76.6938L-4.3826 76.3506L-5.36626 78.4258L-6.41739 78.3245ZM-4.00569 75.5672L-1.04342 75.8527L-2.12616 71.5771L-4.00569 75.5672ZM2.04016 79.1398L2.84616 70.7785L5.41425 71.0261C6.40168 71.1213 7.19343 71.3704 7.7895 71.7735C8.39431 72.1693 8.81769 72.6964 9.05965 73.3546C9.31033 74.0057 9.39346 74.7692 9.30902 75.6451C9.22611 76.5051 8.99945 77.2307 8.62901 77.8219C8.26654 78.4139 7.75066 78.8464 7.08137 79.1194C6.42005 79.3932 5.59568 79.4825 4.60825 79.3873L2.04016 79.1398ZM3.12411 78.4004L4.66496 78.5489C5.46127 78.6257 6.1106 78.5597 6.61295 78.3509C7.12403 78.135 7.51087 77.7905 7.77346 77.3175C8.03683 76.8365 8.20228 76.2457 8.26983 75.5449C8.3796 74.4062 8.19819 73.5368 7.72559 72.9367C7.25376 72.3286 6.44849 71.9697 5.30976 71.8599L3.76891 71.7114L3.12411 78.4004ZM10.3571 79.9415L11.1631 71.5803L16.3351 72.0788L16.2557 72.903L12.087 72.5012L11.8256 75.2126L15.4687 75.5638L15.3904 76.376L11.7473 76.0248L11.4399 79.214L15.6085 79.6159L15.5291 80.4401L10.3571 79.9415ZM28.9242 81.8519L29.4418 78.9843L26.5428 79.0424L28.8987 77.3647L26.909 75.244L29.7411 75.8787L29.7809 72.9651L31.38 75.3857L33.4359 73.3174L32.8945 76.1827L35.7958 76.1007L33.4376 77.8023L35.4296 79.8991L32.5951 79.2883L32.5793 82.2042L30.9586 79.7574L28.9242 81.8519ZM46.1676 83.3935L46.9736 75.0323L52.1457 75.5309L52.0662 76.3551L47.8975 75.9532L47.6362 78.6646L51.2793 79.0158L51.201 79.8281L47.5579 79.4769L47.2504 82.6661L51.4191 83.0679L51.3397 83.8921L46.1676 83.3935ZM52.9098 84.0435L53.7158 75.6822L56.2839 75.9298C57.2713 76.025 58.0631 76.2741 58.6592 76.6772C59.264 77.073 59.6874 77.6001 59.9293 78.2583C60.18 78.9094 60.2631 79.6729 60.1787 80.5488C60.0958 81.4088 59.8691 82.1344 59.4987 82.7256C59.1362 83.3176 58.6203 83.7501 57.951 84.0231C57.2897 84.2969 56.4653 84.3862 55.4779 84.291L52.9098 84.0435ZM53.9938 83.3041L55.5346 83.4526C56.3309 83.5294 56.9803 83.4634 57.4826 83.2546C57.9937 83.0387 58.3805 82.6942 58.6431 82.2212C58.9065 81.7402 59.0719 81.1494 59.1395 80.4486C59.2493 79.3099 59.0679 78.4405 58.5953 77.8404C58.1234 77.2323 57.3182 76.8734 56.1794 76.7636L54.6386 76.6151L53.9938 83.3041ZM61.2267 84.8452L62.0327 76.484L63.0361 76.5807L62.2301 84.9419L61.2267 84.8452ZM65.9619 85.3017L66.6884 77.7646L64.192 77.5239L64.2714 76.6998L70.2676 77.2778L70.1882 78.102L67.6918 77.8613L66.9652 85.3984L65.9619 85.3017ZM74.0514 86.2261C73.4144 86.1647 72.8514 86.002 72.3625 85.7378C71.8744 85.4657 71.4699 85.1173 71.1492 84.6926C70.8285 84.2679 70.5979 83.7835 70.4574 83.2395C70.3249 82.6963 70.2883 82.1181 70.3474 81.5049C70.4065 80.8918 70.5529 80.3312 70.7867 79.8233C71.0285 79.3162 71.3474 78.8848 71.7433 78.5292C72.1393 78.1735 72.5985 77.9124 73.1209 77.7457C73.652 77.5719 74.2401 77.516 74.8851 77.5782C75.5221 77.6396 76.0811 77.802 76.5621 78.0654C77.0517 78.3216 77.457 78.662 77.7777 79.0867C78.0992 79.5035 78.3298 79.9879 78.4694 80.5398C78.6099 81.0838 78.6498 81.6703 78.5892 82.2994C78.5285 82.9285 78.3769 83.5006 78.1344 84.0157C77.8926 84.5228 77.5737 84.9542 77.1778 85.3099C76.7826 85.6576 76.3198 85.9144 75.7895 86.0802C75.2678 86.2389 74.6885 86.2875 74.0514 86.2261ZM74.1366 85.3422C74.7896 85.4052 75.3612 85.3116 75.8515 85.0615C76.3418 84.8114 76.7313 84.439 77.0201 83.9445C77.3168 83.4507 77.4974 82.8693 77.5619 82.2004C77.6279 81.5156 77.5621 80.9064 77.3643 80.373C77.1754 79.8324 76.8637 79.3965 76.4295 79.0653C75.9953 78.7341 75.4517 78.537 74.7987 78.4741C74.1537 78.4119 73.5861 78.5059 73.0958 78.756C72.6056 79.0061 72.212 79.378 71.9153 79.8719C71.6193 80.3577 71.4391 80.9351 71.3746 81.604C71.3109 82.2649 71.3771 82.87 71.5733 83.4194C71.7703 83.9608 72.0855 84.4011 72.5189 84.7402C72.9524 85.0794 73.4916 85.2801 74.1366 85.3422ZM79.6336 86.6196L80.4396 78.2583L82.9121 78.4967C83.5014 78.5535 83.9946 78.6894 84.3918 78.9045C84.7898 79.1117 85.0838 79.3972 85.2737 79.7611C85.4637 80.125 85.5333 80.5698 85.4827 81.0953C85.4197 81.7483 85.2009 82.2255 84.8263 82.5269C84.4596 82.8292 83.9806 83.004 83.3893 83.0515L85.4148 87.1769L84.1726 87.0571L82.3795 83.147L80.9939 83.0135L80.637 86.7163L79.6336 86.6196ZM81.0756 82.1654L82.5209 82.3047C82.9669 82.3477 83.3262 82.3301 83.599 82.2519C83.8725 82.1658 84.0758 82.0166 84.2087 81.8044C84.3417 81.5921 84.4239 81.3228 84.4554 80.9963C84.4877 80.6618 84.4588 80.3778 84.3688 80.1441C84.2788 79.9103 84.1074 79.7291 83.8546 79.6002C83.6026 79.4634 83.2536 79.3735 82.8077 79.3305L81.3624 79.1912L81.0756 82.1654ZM86.7141 87.3021L87.5201 78.9409L88.5234 79.0376L87.7174 87.3988L86.7141 87.3021ZM88.9647 87.5191L92.8524 79.4549L93.9155 79.5574L96.1792 88.2145L95.1162 88.1121L94.559 85.8883L90.9995 85.5452L90.0158 87.6204L88.9647 87.5191ZM91.3764 84.7618L94.3387 85.0473L93.2559 80.7717L91.3764 84.7618ZM97.4222 88.3344L98.2282 79.9731L99.2316 80.0698L98.5027 87.6308L102.397 88.0061L102.32 88.8064L97.4222 88.3344ZM115.523 90.1998L116.04 87.3322L113.141 87.3903L115.497 85.7126L113.508 83.5919L116.34 84.2266L116.379 81.3129L117.979 83.7336L120.035 81.6653L119.493 84.5306L122.394 84.4486L120.036 86.1501L122.028 88.247L119.194 87.6362L119.178 90.5521L117.557 88.1053L115.523 90.1998ZM132.766 91.7414L133.572 83.3802L134.576 83.4769L133.77 91.8381L132.766 91.7414ZM135.542 92.009L136.348 83.6478L137.519 83.7606L139.85 89.8444L143.276 84.3156L144.459 84.4296L143.653 92.7909L142.649 92.6941L143.28 86.1485L140.089 91.2418L139.336 91.1692L137.176 85.572L136.546 92.1058L135.542 92.009ZM145.422 92.9614L146.228 84.6002L148.988 84.8662C149.577 84.923 150.074 85.0593 150.479 85.2752C150.884 85.4911 151.186 85.7853 151.383 86.158C151.58 86.5306 151.653 86.9797 151.602 87.5053C151.55 88.0467 151.384 88.4808 151.103 88.8074C150.831 89.1347 150.471 89.3613 150.025 89.487C149.587 89.6136 149.089 89.65 148.532 89.5962L146.776 89.427L146.426 93.0582L145.422 92.9614ZM146.858 88.5789L148.589 88.7459C149.258 88.8104 149.744 88.7286 150.048 88.5007C150.352 88.2648 150.528 87.8999 150.575 87.4062C150.624 86.9046 150.521 86.5129 150.267 86.2312C150.013 85.9415 149.552 85.7645 148.883 85.7L147.151 85.533L146.858 88.5789ZM152.34 93.6282L153.146 85.267L155.618 85.5053C156.207 85.5621 156.701 85.6981 157.098 85.9132C157.496 86.1203 157.79 86.4059 157.98 86.7698C158.17 87.1337 158.239 87.5784 158.189 88.104C158.126 88.7569 157.907 89.2342 157.532 89.5356C157.166 89.8378 156.687 90.0127 156.095 90.0601L158.121 94.1855L156.879 94.0658L155.085 90.1557L153.7 90.0221L153.343 93.725L152.34 93.6282ZM153.782 89.174L155.227 89.3134C155.673 89.3564 156.032 89.3388 156.305 89.2606C156.578 89.1744 156.782 89.0252 156.915 88.813C157.048 88.6008 157.13 88.3314 157.161 88.0049C157.194 87.6705 157.165 87.3864 157.075 87.1527C156.985 86.919 156.813 86.7377 156.561 86.6089C156.309 86.472 155.96 86.3821 155.514 86.3392L154.068 86.1998L153.782 89.174ZM159.42 94.3108L160.226 85.9495L165.398 86.4481L165.319 87.2723L161.15 86.8704L160.889 89.5819L164.532 89.933L164.453 90.7453L160.81 90.3941L160.503 93.5833L164.671 93.9852L164.592 94.8093L159.42 94.3108ZM168.812 95.3608C168.247 95.3063 167.743 95.1533 167.301 94.9017C166.867 94.6509 166.534 94.3174 166.301 93.9011C166.076 93.4776 165.991 92.9832 166.046 92.4178L167.097 92.5191C167.043 93.0765 167.184 93.5361 167.518 93.8979C167.854 94.2518 168.312 94.4567 168.894 94.5127C169.403 94.5619 169.837 94.4791 170.196 94.2645C170.562 94.0507 170.767 93.7168 170.811 93.2629C170.84 92.9523 170.809 92.7001 170.715 92.5062C170.63 92.3051 170.485 92.1345 170.282 91.9943C170.079 91.8462 169.82 91.7006 169.504 91.5577C169.188 91.4147 168.815 91.2461 168.384 91.0518C167.999 90.8701 167.672 90.6738 167.403 90.463C167.142 90.253 166.949 90.0093 166.823 89.732C166.698 89.4466 166.653 89.1168 166.689 88.7426C166.729 88.2481 166.88 87.8448 167.143 87.5326C167.415 87.2132 167.759 86.9851 168.174 86.8483C168.598 86.7043 169.052 86.6557 169.538 86.7025C170.032 86.7501 170.465 86.8843 170.838 87.1051C171.219 87.3186 171.512 87.6121 171.717 87.9855C171.923 88.351 172.006 88.7809 171.966 89.2754L170.915 89.1741C170.956 88.752 170.838 88.3911 170.562 88.0911C170.286 87.7833 169.905 87.6059 169.419 87.5591C168.991 87.5017 168.614 87.5739 168.289 87.7757C167.965 87.9774 167.781 88.3013 167.738 88.7472C167.709 89.0418 167.746 89.2825 167.849 89.4692C167.96 89.6487 168.161 89.8168 168.451 89.9733C168.742 90.1299 169.145 90.3255 169.661 90.5601C170.031 90.7243 170.36 90.8927 170.649 91.0652C170.938 91.2298 171.177 91.4176 171.366 91.6286C171.555 91.8317 171.693 92.0701 171.779 92.3436C171.866 92.6092 171.892 92.9291 171.855 93.3033C171.807 93.805 171.635 94.2184 171.338 94.5434C171.05 94.8613 170.683 95.091 170.235 95.2327C169.796 95.3672 169.322 95.4099 168.812 95.3608ZM175.718 96.0265C175.152 95.972 174.648 95.8189 174.207 95.5674C173.773 95.3166 173.439 94.983 173.206 94.5667C172.982 94.1433 172.897 93.6488 172.951 93.0835L174.002 93.1848C173.949 93.7422 174.089 94.2018 174.424 94.5636C174.76 94.9174 175.218 95.1224 175.799 95.1784C176.309 95.2275 176.743 95.1448 177.101 94.9302C177.467 94.7163 177.672 94.3825 177.716 93.9286C177.746 93.618 177.714 93.3658 177.62 93.1719C177.535 92.9708 177.391 92.8001 177.187 92.66C176.985 92.5118 176.725 92.3663 176.41 92.2233C176.094 92.0804 175.72 91.9118 175.289 91.7175C174.905 91.5358 174.578 91.3395 174.309 91.1287C174.048 90.9187 173.854 90.675 173.728 90.3976C173.603 90.1123 173.559 89.7825 173.595 89.4082C173.634 88.9138 173.786 88.5104 174.049 88.1982C174.321 87.8789 174.664 87.6508 175.079 87.514C175.503 87.37 175.958 87.3214 176.444 87.3682C176.937 87.4158 177.37 87.55 177.743 87.7707C178.124 87.9843 178.417 88.2778 178.623 88.6512C178.828 89.0166 178.912 89.4466 178.872 89.9411L177.821 89.8397C177.862 89.4177 177.744 89.0567 177.467 88.7568C177.191 88.4489 176.811 88.2716 176.325 88.2248C175.896 88.1674 175.52 88.2396 175.195 88.4413C174.87 88.6431 174.686 88.9669 174.643 89.4129C174.615 89.7075 174.652 89.9482 174.754 90.1349C174.866 90.3144 175.066 90.4824 175.357 90.639C175.647 90.7956 176.05 90.9912 176.566 91.2257C176.936 91.39 177.265 91.5584 177.554 91.7309C177.844 91.8954 178.083 92.0832 178.271 92.2943C178.461 92.4974 178.599 92.7357 178.685 93.0093C178.772 93.2748 178.797 93.5947 178.761 93.969C178.713 94.4707 178.54 94.884 178.244 95.2091C177.956 95.5269 177.588 95.7567 177.14 95.8984C176.701 96.0329 176.227 96.0756 175.718 96.0265ZM179.448 96.2414L183.335 88.1772L184.398 88.2797L186.662 96.9368L185.599 96.8344L185.042 94.6106L181.482 94.2675L180.499 96.3427L179.448 96.2414ZM181.859 93.4841L184.822 93.7696L183.739 89.494L181.859 93.4841ZM184.582 87.6223C184.367 87.6016 184.197 87.5369 184.071 87.4283C183.944 87.3197 183.826 87.2158 183.715 87.1167C183.605 87.0097 183.454 86.9469 183.263 86.9285C182.976 86.9008 182.792 87.0639 182.709 87.4176L182.124 87.3612C182.219 86.9605 182.375 86.6701 182.594 86.4903C182.812 86.3104 183.072 86.235 183.375 86.2642C183.59 86.2849 183.761 86.3496 183.887 86.4582C184.014 86.5588 184.132 86.6627 184.243 86.7698C184.361 86.8776 184.511 86.9403 184.695 86.958C184.822 86.9703 184.938 86.9372 185.042 86.8588C185.146 86.7805 185.218 86.6509 185.26 86.47L185.845 86.5264C185.76 86.912 185.604 87.1983 185.377 87.3854C185.15 87.5725 184.885 87.6515 184.582 87.6223ZM191.69 97.5661C191.053 97.5047 190.49 97.342 190.001 97.0778C189.513 96.8057 189.108 96.4573 188.787 96.0326C188.467 95.6079 188.236 95.1235 188.096 94.5795C187.963 94.0363 187.927 93.4581 187.986 92.8449C188.045 92.2318 188.191 91.6713 188.425 91.1633C188.667 90.6562 188.986 90.2248 189.382 89.8692C189.778 89.5135 190.237 89.2524 190.759 89.0857C191.29 88.9119 191.878 88.8561 192.523 88.9182C193.16 88.9796 193.719 89.142 194.2 89.4054C194.69 89.6616 195.095 90.002 195.416 90.4267C195.737 90.8435 195.968 91.3279 196.108 91.8798C196.248 92.4238 196.288 93.0104 196.227 93.6394C196.167 94.2685 196.015 94.8406 195.773 95.3557C195.531 95.8629 195.212 96.2943 194.816 96.6499C194.421 96.9976 193.958 97.2544 193.428 97.4202C192.906 97.5789 192.327 97.6276 191.69 97.5661ZM191.775 96.6822C192.428 96.7452 193 96.6516 193.49 96.4015C193.98 96.1514 194.37 95.779 194.658 95.2845C194.955 94.7907 195.136 94.2093 195.2 93.5404C195.266 92.8556 195.2 92.2465 195.003 91.713C194.814 91.1724 194.502 90.7365 194.068 90.4053C193.634 90.0741 193.09 89.877 192.437 89.8141C191.792 89.7519 191.224 89.8459 190.734 90.096C190.244 90.3461 189.85 90.7181 189.554 91.2119C189.258 91.6977 189.077 92.2751 189.013 92.944C188.949 93.6049 189.015 94.2101 189.212 94.7594C189.409 95.3008 189.724 95.7411 190.157 96.0802C190.591 96.4194 191.13 96.6201 191.775 96.6822ZM209.097 99.22L209.614 96.3525L206.715 96.4106L209.071 94.7329L207.082 92.6122L209.914 93.2469L209.954 90.3332L211.553 92.7538L213.609 90.6856L213.067 93.5508L215.968 93.4688L213.61 95.1704L215.602 97.2672L212.768 96.6564L212.752 99.5724L211.131 97.1256L209.097 99.22ZM226.34 100.762L227.146 92.4005L229.714 92.648C230.702 92.7432 231.494 92.9923 232.09 93.3954C232.694 93.7912 233.118 94.3183 233.36 94.9765C233.61 95.6276 233.694 96.3911 233.609 97.267C233.526 98.1271 233.3 98.8527 232.929 99.4438C232.567 100.036 232.051 100.468 231.381 100.741C230.72 101.015 229.896 101.104 228.908 101.009L226.34 100.762ZM227.424 100.022L228.965 100.171C229.761 100.248 230.411 100.182 230.913 99.9728C231.424 99.7569 231.811 99.4124 232.074 98.9394C232.337 98.4585 232.502 97.8676 232.57 97.1669C232.68 96.0281 232.498 95.1587 232.026 94.5586C231.554 93.9505 230.749 93.5916 229.61 93.4818L228.069 93.3333L227.424 100.022ZM234.657 101.563L235.463 93.2022L236.467 93.2989L235.661 101.66L234.657 101.563ZM241.015 102.321C240.219 102.244 239.543 101.994 238.989 101.571C238.444 101.141 238.04 100.587 237.775 99.911C237.52 99.2273 237.432 98.4674 237.513 97.6313C237.593 96.8031 237.823 96.0779 238.205 95.4556C238.586 94.8334 239.098 94.3643 239.739 94.0483C240.381 93.7245 241.132 93.604 241.992 93.6869C242.932 93.7774 243.69 94.0796 244.267 94.5934C244.853 95.1079 245.199 95.7722 245.305 96.5861L244.146 96.4745C244.083 95.962 243.855 95.5382 243.461 95.2028C243.076 94.8683 242.556 94.6695 241.903 94.6066C241.242 94.5429 240.67 94.6405 240.187 94.8993C239.704 95.1581 239.322 95.5352 239.041 96.0306C238.769 96.5187 238.602 97.0853 238.54 97.7303C238.477 98.3833 238.536 98.9797 238.717 99.5196C238.898 100.059 239.193 100.498 239.603 100.835C240.013 101.171 240.524 101.369 241.137 101.429C242.029 101.515 242.727 101.321 243.231 100.847C243.735 100.365 244.063 99.6732 244.214 98.7716L241.204 98.4814L241.28 97.6931L245.317 98.0822L244.887 102.55L243.967 102.461L244.016 101.079C243.666 101.536 243.26 101.874 242.797 102.095C242.334 102.315 241.74 102.391 241.015 102.321ZM246.474 102.702L247.28 94.3412L248.283 94.438L247.477 102.799L246.474 102.702ZM251.209 103.159L251.935 95.6219L249.439 95.3812L249.518 94.557L255.514 95.1351L255.435 95.9592L252.939 95.7186L252.212 103.256L251.209 103.159ZM254.463 103.473L258.351 95.4085L259.414 95.511L261.678 104.168L260.615 104.066L260.057 101.842L256.498 101.499L255.514 103.574L254.463 103.473ZM256.875 100.715L259.837 101.001L258.754 96.7253L256.875 100.715ZM262.921 104.288L263.727 95.9267L264.73 96.0234L264.001 103.584L267.895 103.96L267.818 104.76L262.921 104.288ZM281.021 106.153L281.539 103.286L278.64 103.344L280.996 101.666L279.006 99.5455L281.838 100.18L281.878 97.2665L283.477 99.6872L285.533 97.6189L284.992 100.484L287.893 100.402L285.535 102.104L287.527 104.201L284.692 103.59L284.676 106.506L283.056 104.059L281.021 106.153ZM298.265 107.695L299.071 99.3338L301.639 99.5813C302.626 99.6765 303.418 99.9256 304.014 100.329C304.619 100.725 305.042 101.252 305.284 101.91C305.535 102.561 305.618 103.324 305.534 104.2C305.451 105.06 305.224 105.786 304.854 106.377C304.491 106.969 303.975 107.402 303.306 107.675C302.645 107.948 301.82 108.038 300.833 107.943L298.265 107.695ZM299.349 106.956L300.889 107.104C301.686 107.181 302.335 107.115 302.837 106.906C303.349 106.69 303.735 106.346 303.998 105.873C304.261 105.392 304.427 104.801 304.494 104.1C304.604 102.961 304.423 102.092 303.95 101.492C303.478 100.884 302.673 100.525 301.534 100.415L299.993 100.267L299.349 106.956ZM306.582 108.497L307.388 100.136L308.391 100.232L307.585 108.593L306.582 108.497ZM311.878 109.007L309.543 100.343L310.63 100.448L312.566 108.001L315.933 100.959L316.996 101.062L313.049 109.12L311.878 109.007ZM320.345 109.968C319.612 109.898 319.033 109.693 318.607 109.355C318.183 109.008 317.886 108.582 317.718 108.075C317.559 107.562 317.507 107.018 317.562 106.445L318.071 101.165L319.074 101.262L318.564 106.554C318.486 107.366 318.624 107.974 318.979 108.378C319.334 108.782 319.826 109.014 320.455 109.075C321.084 109.135 321.607 109.001 322.025 108.671C322.442 108.342 322.69 107.771 322.769 106.959L323.279 101.667L324.282 101.764L323.773 107.044C323.714 107.657 323.573 108.162 323.35 108.558C323.127 108.954 322.848 109.261 322.514 109.478C322.187 109.696 321.836 109.843 321.458 109.919C321.082 109.987 320.711 110.003 320.345 109.968ZM325.175 110.289L325.981 101.928L326.984 102.025L326.256 109.586L330.15 109.961L330.072 110.761L325.175 110.289ZM334.251 111.309C333.454 111.232 332.779 110.982 332.225 110.559C331.68 110.129 331.275 109.575 331.011 108.899C330.755 108.215 330.668 107.455 330.749 106.619C330.828 105.791 331.059 105.066 331.44 104.443C331.822 103.821 332.333 103.352 332.975 103.036C333.617 102.712 334.368 102.592 335.228 102.675C336.167 102.765 336.926 103.067 337.503 103.581C338.088 104.096 338.434 104.76 338.541 105.574L337.382 105.462C337.319 104.95 337.091 104.526 336.697 104.191C336.311 103.856 335.792 103.657 335.139 103.594C334.478 103.531 333.906 103.628 333.423 103.887C332.94 104.146 332.558 104.523 332.277 105.018C332.005 105.506 331.838 106.073 331.776 106.718C331.713 107.371 331.772 107.967 331.953 108.507C332.134 109.047 332.429 109.485 332.839 109.822C333.248 110.159 333.76 110.357 334.373 110.416C335.265 110.502 335.963 110.308 336.466 109.834C336.971 109.353 337.299 108.661 337.45 107.759L334.44 107.469L334.516 106.681L338.553 107.07L338.123 111.537L337.203 111.449L337.252 110.067C336.902 110.523 336.496 110.862 336.033 111.083C335.569 111.303 334.975 111.378 334.251 111.309ZM339.184 111.639L343.071 103.575L344.135 103.678L346.398 112.335L345.335 112.232L344.778 110.009L341.219 109.666L340.235 111.741L339.184 111.639ZM341.595 108.882L344.558 109.168L343.475 104.892L341.595 108.882ZM350.816 112.906C349.972 112.824 349.269 112.568 348.708 112.136C348.148 111.696 347.744 111.135 347.496 110.452C347.249 109.769 347.164 109.017 347.244 108.197C347.322 107.385 347.544 106.667 347.909 106.043C348.283 105.42 348.787 104.946 349.421 104.621C350.055 104.297 350.798 104.175 351.65 104.258C352.605 104.35 353.36 104.655 353.912 105.175C354.474 105.687 354.798 106.361 354.887 107.198L353.776 107.091C353.698 106.561 353.475 106.121 353.107 105.772C352.748 105.416 352.234 105.206 351.565 105.141C350.904 105.078 350.339 105.18 349.871 105.448C349.404 105.709 349.034 106.087 348.761 106.583C348.496 107.08 348.333 107.651 348.271 108.296C348.207 108.957 348.262 109.557 348.435 110.096C348.616 110.636 348.911 111.078 349.32 111.423C349.729 111.76 350.256 111.959 350.901 112.022C351.57 112.086 352.114 111.986 352.534 111.721C352.962 111.449 353.264 111.064 353.441 110.567L354.552 110.674C354.307 111.462 353.86 112.054 353.211 112.449C352.57 112.846 351.772 112.998 350.816 112.906ZM349.672 115.773L349.733 115.14L350.832 115.246C351.373 115.298 351.662 115.133 351.699 114.751C351.734 114.392 351.48 114.187 350.939 114.135L350.354 114.079L350.503 112.526L351.172 112.59L351.08 113.546C351.383 113.567 351.647 113.629 351.87 113.73C352.092 113.84 352.259 113.989 352.369 114.176C352.488 114.365 352.535 114.586 352.51 114.841C352.487 115.088 352.402 115.293 352.258 115.456C352.121 115.627 351.94 115.751 351.716 115.825C351.492 115.9 351.237 115.924 350.95 115.896L349.672 115.773ZM355.036 113.168L358.924 105.103L359.987 105.206L362.251 113.863L361.188 113.761L360.63 111.537L357.071 111.194L356.087 113.269L355.036 113.168ZM357.448 110.41L360.41 110.696L359.327 106.42L357.448 110.41ZM360.171 104.549C359.956 104.528 359.785 104.463 359.659 104.355C359.533 104.246 359.414 104.142 359.303 104.043C359.193 103.936 359.042 103.873 358.851 103.855C358.565 103.827 358.38 103.99 358.298 104.344L357.712 104.287C357.807 103.887 357.964 103.596 358.182 103.417C358.4 103.237 358.661 103.161 358.963 103.19C359.178 103.211 359.349 103.276 359.475 103.384C359.602 103.485 359.721 103.589 359.831 103.696C359.949 103.804 360.1 103.867 360.283 103.884C360.41 103.897 360.526 103.863 360.63 103.785C360.734 103.707 360.807 103.577 360.848 103.396L361.434 103.453C361.348 103.838 361.192 104.125 360.965 104.312C360.738 104.499 360.473 104.578 360.171 104.549ZM367.278 114.492C366.641 114.431 366.078 114.268 365.589 114.004C365.101 113.732 364.697 113.384 364.376 112.959C364.055 112.534 363.825 112.05 363.684 111.506C363.552 110.963 363.515 110.384 363.574 109.771C363.633 109.158 363.78 108.598 364.013 108.09C364.255 107.582 364.574 107.151 364.97 106.795C365.366 106.44 365.825 106.179 366.348 106.012C366.879 105.838 367.467 105.782 368.112 105.844C368.749 105.906 369.308 106.068 369.789 106.332C370.278 106.588 370.684 106.928 371.004 107.353C371.326 107.77 371.556 108.254 371.696 108.806C371.837 109.35 371.876 109.937 371.816 110.566C371.755 111.195 371.604 111.767 371.361 112.282C371.119 112.789 370.8 113.22 370.404 113.576C370.009 113.924 369.547 114.181 369.016 114.346C368.495 114.505 367.915 114.554 367.278 114.492ZM367.363 113.608C368.016 113.671 368.588 113.578 369.078 113.328C369.568 113.078 369.958 112.705 370.247 112.211C370.544 111.717 370.724 111.136 370.789 110.467C370.855 109.782 370.789 109.173 370.591 108.639C370.402 108.099 370.09 107.663 369.656 107.332C369.222 107 368.678 106.803 368.025 106.74C367.38 106.678 366.813 106.772 366.323 107.022C365.832 107.272 365.439 107.644 365.142 108.138C364.846 108.624 364.666 109.201 364.601 109.87C364.538 110.531 364.604 111.136 364.8 111.686C364.997 112.227 365.312 112.667 365.746 113.006C366.179 113.346 366.718 113.546 367.363 113.608Z" fill="black"/>
</g>
<g filter="url(#filter1_d_328_206)">
<rect x="-359" y="134.344" width="825.737" height="29.1204" transform="rotate(-6.33903 -359 134.344)" fill="#1E1E1E"/>
<path d="M15.3116 111.521L14.3842 103.173L16.9484 102.888C17.9343 102.778 18.7604 102.86 19.4265 103.132C20.0997 103.395 20.6222 103.824 20.9941 104.419C21.3731 105.004 21.6112 105.734 21.7084 106.609C21.8038 107.468 21.7309 108.224 21.4897 108.879C21.2564 109.533 20.8403 110.062 20.2413 110.467C19.6503 110.87 18.8618 111.127 17.8758 111.236L15.3116 111.521ZM16.2207 110.575L17.7592 110.404C18.5544 110.316 19.1763 110.118 19.6251 109.811C20.081 109.494 20.3889 109.078 20.5488 108.561C20.7078 108.036 20.7485 107.424 20.6707 106.724C20.5444 105.587 20.1884 104.774 19.6027 104.283C19.0161 103.785 18.1543 103.599 17.0173 103.725L15.4787 103.896L16.2207 110.575ZM23.616 110.599L22.6885 102.25L27.8528 101.676L27.9442 102.499L23.7818 102.962L24.0826 105.669L27.7202 105.265L27.8103 106.076L24.1727 106.48L24.5264 109.665L28.6888 109.202L28.7802 110.025L23.616 110.599ZM33.0236 109.699C32.459 109.761 31.9347 109.715 31.4506 109.559C30.9744 109.403 30.5795 109.145 30.2659 108.786C29.9593 108.417 29.7747 107.951 29.712 107.386L30.7615 107.27C30.8234 107.826 31.0553 108.247 31.4572 108.532C31.8583 108.81 32.3491 108.916 32.9295 108.852C33.4384 108.795 33.8461 108.625 34.1526 108.342C34.4672 108.057 34.5992 107.688 34.5489 107.235C34.5144 106.925 34.4314 106.685 34.2998 106.514C34.1752 106.335 33.999 106.198 33.771 106.102C33.5422 105.999 33.2586 105.909 32.9203 105.834C32.5819 105.759 32.1817 105.671 31.7197 105.569C31.3062 105.47 30.9462 105.345 30.6397 105.194C30.3411 105.042 30.1016 104.844 29.9214 104.598C29.7403 104.344 29.629 104.031 29.5875 103.657C29.5248 103.165 29.5902 102.739 29.7837 102.38C29.9842 102.011 30.2735 101.717 30.6517 101.498C31.0369 101.27 31.472 101.13 31.957 101.076C32.4499 101.021 32.9014 101.063 33.3113 101.203C33.7283 101.334 34.0755 101.561 34.3529 101.884C34.6294 102.199 34.799 102.603 34.8617 103.095L33.8122 103.212C33.7654 102.79 33.5759 102.461 33.2437 102.225C32.9106 101.98 32.5016 101.884 32.0166 101.938C31.5855 101.97 31.2316 102.118 30.9551 102.382C30.6786 102.646 30.5651 103.001 30.6145 103.446C30.6472 103.741 30.7329 103.968 30.8716 104.13C31.0174 104.283 31.2484 104.406 31.5647 104.5C31.8809 104.594 32.3156 104.702 32.8686 104.826C33.2644 104.911 33.6213 105.008 33.9394 105.117C34.2565 105.219 34.5291 105.354 34.757 105.522C34.984 105.682 35.1678 105.887 35.3082 106.137C35.4478 106.379 35.5384 106.687 35.5799 107.06C35.6355 107.561 35.5516 108.001 35.3281 108.38C35.1116 108.75 34.7989 109.051 34.3898 109.281C33.9879 109.503 33.5324 109.642 33.0236 109.699ZM37.2431 109.085L36.3157 100.736L37.3175 100.625L38.245 108.974L37.2431 109.085ZM43.6209 108.521C42.8258 108.61 42.1138 108.504 41.4848 108.203C40.8628 107.894 40.3531 107.436 39.9555 106.828C39.5651 106.211 39.3234 105.485 39.2307 104.65C39.1388 103.823 39.2157 103.066 39.4613 102.379C39.7069 101.692 40.1111 101.128 40.6739 100.687C41.2358 100.238 41.9461 99.966 42.8048 99.8706C43.743 99.7663 44.5474 99.9064 45.2179 100.291C45.8964 100.674 46.3713 101.253 46.6425 102.028L45.4856 102.157C45.3186 101.668 45.0081 101.3 44.554 101.053C44.1079 100.804 43.5588 100.716 42.9068 100.789C42.2469 100.862 41.7071 101.075 41.2874 101.428C40.8678 101.78 40.5714 102.228 40.3982 102.77C40.2321 103.304 40.1848 103.892 40.2564 104.536C40.3288 105.188 40.509 105.76 40.797 106.251C41.085 106.742 41.464 107.111 41.934 107.356C42.404 107.602 42.9451 107.691 43.5573 107.623C44.4479 107.524 45.091 107.191 45.4868 106.624C45.8817 106.049 46.0607 105.304 46.0236 104.391L43.0181 104.725L42.9306 103.938L46.9618 103.49L47.4573 107.95L46.539 108.052L46.3031 106.69C46.0549 107.209 45.7267 107.623 45.3185 107.934C44.9103 108.245 44.3445 108.441 43.6209 108.521ZM49.0416 107.774L48.1142 99.4256L49.116 99.3143L54.3079 105.511L53.5646 98.8201L54.5665 98.7088L55.4939 107.057L54.4921 107.169L49.3002 100.972L50.0435 107.663L49.0416 107.774ZM69.0964 105.667L69.0143 102.754L66.189 103.406L68.1503 101.281L65.7676 99.6136L68.6698 99.6534L68.1106 96.7937L70.1726 98.8345L71.7602 96.3883L71.8184 99.3037L74.6411 98.6279L72.6824 100.777L75.0624 102.421L72.1629 102.405L72.7459 105.262L70.6575 103.2L69.0964 105.667ZM86.2891 103.636L85.3616 95.2878L88.1167 94.9817C88.705 94.9164 89.2196 94.9477 89.6605 95.0758C90.1013 95.204 90.4565 95.4301 90.7259 95.7544C90.9954 96.0786 91.1592 96.5031 91.2175 97.0279C91.2776 97.5685 91.2038 98.0275 90.9962 98.4047C90.7965 98.7811 90.4913 99.0766 90.0805 99.2912C89.6776 99.505 89.1979 99.6428 88.6413 99.7047L86.8881 99.8994L87.2909 103.525L86.2891 103.636ZM86.794 99.0526L88.5234 98.8605C89.1913 98.7863 89.6503 98.6066 89.9003 98.3212C90.1494 98.0279 90.2466 97.6348 90.1918 97.1418C90.1362 96.6409 89.9551 96.2787 89.6485 96.0551C89.3411 95.8237 88.8534 95.745 88.1855 95.8192L86.4562 96.0114L86.794 99.0526ZM93.1958 102.869L92.2683 94.5205L94.7371 94.2462C95.3255 94.1809 95.8362 94.2127 96.2691 94.3417C96.7011 94.4627 97.0474 94.6818 97.308 94.999C97.5686 95.3162 97.728 95.7371 97.7863 96.2619C97.8588 96.9139 97.7426 97.4259 97.4378 97.7978C97.1409 98.1688 96.708 98.4383 96.1391 98.6061L98.9683 102.228L97.7279 102.366L95.1704 98.9069L93.7869 99.0606L94.1976 102.758L93.1958 102.869ZM93.6928 98.2138L95.1359 98.0535C95.5812 98.004 95.9293 97.913 96.1802 97.7805C96.4302 97.6401 96.5985 97.4523 96.6851 97.2173C96.7717 96.9823 96.7969 96.7018 96.7607 96.3759C96.7236 96.0419 96.637 95.7698 96.5009 95.5595C96.3649 95.3493 96.1599 95.207 95.8861 95.1328C95.6113 95.0506 95.2513 95.0343 94.806 95.0838L93.3629 95.2441L93.6928 98.2138ZM103.841 101.831C103.205 101.902 102.621 101.858 102.088 101.7C101.554 101.534 101.087 101.276 100.686 100.926C100.285 100.576 99.9598 100.15 99.7107 99.6461C99.4695 99.1417 99.3149 98.5833 99.2469 97.9711C99.1789 97.3589 99.2072 96.7802 99.3317 96.2351C99.4643 95.6891 99.6878 95.2015 100.002 94.7721C100.317 94.3428 100.713 93.9929 101.19 93.7226C101.674 93.4435 102.238 93.2681 102.882 93.1966C103.518 93.1259 104.098 93.1701 104.623 93.3291C105.155 93.4793 105.622 93.7293 106.023 94.0792C106.423 94.4211 106.748 94.8478 106.998 95.3593C107.247 95.8629 107.406 96.4288 107.476 97.0569C107.546 97.685 107.515 98.2761 107.383 98.83C107.251 99.3759 107.027 99.8636 106.713 100.293C106.397 100.714 105.997 101.061 105.512 101.332C105.034 101.594 104.477 101.761 103.841 101.831ZM103.743 100.949C104.395 100.876 104.935 100.668 105.364 100.322C105.792 99.9767 106.097 99.5323 106.278 98.989C106.467 98.4448 106.525 97.8387 106.451 97.1708C106.375 96.487 106.185 95.9044 105.882 95.4229C105.586 94.9326 105.192 94.5699 104.699 94.3349C104.206 94.0999 103.633 94.0186 102.981 94.091C102.337 94.1626 101.801 94.3711 101.373 94.7165C100.944 95.0619 100.635 95.5067 100.446 96.0509C100.256 96.5872 100.198 97.1893 100.273 97.8572C100.346 98.5171 100.535 99.0958 100.84 99.5931C101.144 100.083 101.542 100.449 102.036 100.692C102.53 100.935 103.099 101.02 103.743 100.949ZM112.991 100.815C112.196 100.903 111.484 100.797 110.855 100.497C110.233 100.188 109.723 99.7291 109.326 99.1213C108.935 98.5047 108.694 97.7789 108.601 96.944C108.509 96.1171 108.586 95.36 108.831 94.6727C109.077 93.9854 109.481 93.4213 110.044 92.9805C110.606 92.5317 111.316 92.2596 112.175 92.1642C113.113 92.06 113.918 92.2 114.588 92.5843C115.267 92.9678 115.741 93.5469 116.013 94.3217L114.856 94.4502C114.689 93.9616 114.378 93.5937 113.924 93.3463C113.478 93.098 112.929 93.0101 112.277 93.0825C111.617 93.1559 111.077 93.3688 110.658 93.7212C110.238 94.0737 109.942 94.5212 109.768 95.0636C109.602 95.5972 109.555 96.1861 109.627 96.8301C109.699 97.4821 109.879 98.0537 110.167 98.5449C110.455 99.0361 110.834 99.4045 111.304 99.6501C111.774 99.8957 112.315 99.9845 112.927 99.9165C113.818 99.8176 114.461 99.4845 114.857 98.9174C115.252 98.3422 115.431 97.5979 115.394 96.6844L112.388 97.0183L112.301 96.2312L116.332 95.7833L116.827 100.244L115.909 100.346L115.673 98.9836C115.425 99.5022 115.097 99.917 114.689 100.228C114.28 100.539 113.715 100.735 112.991 100.815ZM118.412 100.068L117.484 91.7193L119.953 91.445C120.542 91.3796 121.052 91.4114 121.485 91.5404C121.917 91.6615 122.263 91.8806 122.524 92.1977C122.785 92.5149 122.944 92.9359 123.002 93.4606C123.075 94.1126 122.959 94.6246 122.654 94.9965C122.357 95.3676 121.924 95.637 121.355 95.8049L124.184 99.4266L122.944 99.5644L120.386 96.1057L119.003 96.2593L119.414 99.9566L118.412 100.068ZM118.909 95.4126L120.352 95.2522C120.797 95.2028 121.145 95.1118 121.396 94.9793C121.646 94.8388 121.814 94.6511 121.901 94.4161C121.988 94.1811 122.013 93.9006 121.977 93.5746C121.94 93.2406 121.853 92.9685 121.717 92.7583C121.581 92.548 121.376 92.4058 121.102 92.3316C120.827 92.2494 120.467 92.233 120.022 92.2825L118.579 92.4428L118.909 95.4126ZM124.957 99.3408L127.106 90.6503L128.168 90.5324L132.16 98.5405L131.099 98.6585L130.097 96.5965L126.543 96.9913L126.006 99.2242L124.957 99.3408ZM126.751 96.1472L129.709 95.8186L127.772 91.8563L126.751 96.1472ZM133.402 98.4027L132.474 90.054L133.643 89.9242L137.173 95.3999L139.392 89.2856L140.572 89.1544L141.5 97.503L140.498 97.6143L139.772 91.0785L137.694 96.7185L136.942 96.8019L133.679 91.7675L134.403 98.2914L133.402 98.4027ZM142.742 97.365L144.892 88.6746L145.953 88.5567L149.946 96.5648L148.884 96.6827L147.882 94.6207L144.328 95.0155L143.791 97.2485L142.742 97.365ZM144.536 94.1714L147.494 93.8428L145.557 89.8805L144.536 94.1714ZM154.387 96.2163C153.544 96.31 152.803 96.203 152.166 95.8956C151.527 95.5802 151.016 95.1137 150.634 94.4962C150.251 93.8786 150.014 93.1604 149.923 92.3414C149.833 91.5304 149.903 90.7821 150.133 90.0966C150.371 89.4101 150.766 88.843 151.32 88.3951C151.874 87.9472 152.577 87.676 153.427 87.5814C154.381 87.4754 155.182 87.6199 155.83 88.0148C156.484 88.4009 156.941 88.9942 157.199 89.7946L156.09 89.9178C155.905 89.4151 155.597 89.0308 155.165 88.7649C154.74 88.4901 154.193 88.3898 153.525 88.464C152.865 88.5373 152.334 88.7533 151.931 89.112C151.527 89.4627 151.243 89.9088 151.078 90.4504C150.92 90.9911 150.878 91.5834 150.949 92.2275C151.022 92.8874 151.199 93.4634 151.479 93.9555C151.767 94.4467 152.147 94.8191 152.617 95.0727C153.087 95.3183 153.644 95.4053 154.289 95.3338C154.956 95.2596 155.468 95.0497 155.824 94.7043C156.188 94.3501 156.404 93.9114 156.475 93.3884L157.584 93.2652C157.507 94.0868 157.191 94.7578 156.637 95.2781C156.091 95.7976 155.341 96.1103 154.387 96.2163ZM153.855 99.2576L153.785 98.6255L154.882 98.5036C155.423 98.4435 155.672 98.2227 155.63 97.841C155.59 97.4832 155.3 97.3343 154.759 97.3944L154.174 97.4593L154.002 95.9089L154.67 95.8347L154.776 96.7888C155.077 96.7473 155.348 96.7535 155.587 96.8074C155.827 96.8692 156.021 96.9805 156.168 97.1413C156.322 97.3012 156.414 97.5084 156.442 97.7628C156.469 98.0093 156.429 98.2271 156.321 98.4162C156.222 98.6123 156.071 98.77 155.867 98.8892C155.663 99.0085 155.417 99.084 155.131 99.1158L153.855 99.2576ZM158.57 95.6067L160.72 86.9162L161.781 86.7983L165.774 94.8064L164.713 94.9243L163.711 92.8623L160.157 93.2571L159.62 95.4901L158.57 95.6067ZM160.365 92.413L163.322 92.0844L161.385 88.1221L160.365 92.413ZM161.826 86.1171C161.612 86.141 161.432 86.1127 161.286 86.0323C161.14 85.9519 161.003 85.8746 160.874 85.8004C160.744 85.7182 160.583 85.6877 160.393 85.7089C160.106 85.7407 159.959 85.9382 159.951 86.3013L159.367 86.3662C159.378 85.9545 159.471 85.6382 159.648 85.4174C159.825 85.1965 160.064 85.0693 160.366 85.0357C160.581 85.0119 160.761 85.0402 160.907 85.1206C161.052 85.193 161.189 85.2703 161.319 85.3525C161.457 85.4338 161.617 85.4642 161.8 85.4439C161.927 85.4298 162.034 85.3737 162.119 85.2756C162.205 85.1776 162.25 85.0358 162.253 84.8503L162.838 84.7853C162.833 85.1802 162.739 85.4925 162.555 85.7222C162.372 85.9519 162.129 86.0836 161.826 86.1171ZM170.824 94.3903C170.188 94.461 169.603 94.4172 169.07 94.2591C168.537 94.093 168.07 93.835 167.668 93.4851C167.267 93.1353 166.942 92.7086 166.693 92.205C166.452 91.7006 166.297 91.1422 166.229 90.53C166.161 89.9177 166.19 89.3391 166.314 88.794C166.447 88.248 166.67 87.7604 166.985 87.331C167.299 86.9017 167.695 86.5518 168.172 86.2815C168.656 86.0023 169.22 85.827 169.864 85.7554C170.501 85.6848 171.081 85.7289 171.606 85.888C172.138 86.0382 172.604 86.2882 173.005 86.6381C173.405 86.98 173.73 87.4067 173.98 87.9182C174.23 88.4218 174.389 88.9876 174.459 89.6158C174.529 90.2439 174.498 90.8349 174.366 91.3889C174.233 91.9348 174.01 92.4225 173.695 92.8518C173.38 93.2732 172.98 93.6195 172.495 93.8908C172.017 94.1531 171.46 94.3196 170.824 94.3903ZM170.726 93.5077C171.378 93.4353 171.918 93.2264 172.346 92.881C172.775 92.5355 173.08 92.0912 173.261 91.5479C173.45 91.0036 173.507 90.3976 173.433 89.7297C173.357 89.0459 173.168 88.4633 172.865 87.9818C172.569 87.4915 172.174 87.1288 171.681 86.8938C171.188 86.6588 170.616 86.5775 169.964 86.6499C169.32 86.7215 168.784 86.93 168.355 87.2754C167.927 87.6208 167.618 88.0656 167.429 88.6098C167.239 89.1461 167.181 89.7481 167.255 90.416C167.328 91.076 167.517 91.6546 167.822 92.152C168.126 92.6415 168.525 93.0077 169.019 93.2506C169.513 93.4936 170.082 93.5793 170.726 93.5077ZM188.2 92.4359L188.118 89.5231L185.292 90.175L187.254 88.0495L184.871 86.3824L187.773 86.4222L187.214 83.5624L189.276 85.6033L190.863 83.157L190.922 86.0724L193.744 85.3966L191.786 87.546L194.166 89.1893L191.266 89.1733L191.849 92.0304L189.761 89.9684L188.2 92.4359ZM208.068 90.2528C207.503 90.3155 206.979 90.2692 206.495 90.1137C206.019 89.9573 205.624 89.6993 205.31 89.3397C205.004 88.9713 204.819 88.5049 204.756 87.9403L205.806 87.8237C205.868 88.3803 206.1 88.8013 206.502 89.0866C206.903 89.3641 207.393 89.4705 207.974 89.406C208.483 89.3495 208.89 89.1795 209.197 88.8959C209.511 88.6114 209.644 88.2426 209.593 87.7894C209.559 87.4793 209.476 87.239 209.344 87.0685C209.22 86.8891 209.043 86.7517 208.815 86.6563C208.587 86.5529 208.303 86.4637 207.965 86.3886C207.626 86.3135 207.226 86.2252 206.764 86.1236C206.351 86.0246 205.991 85.8996 205.684 85.7485C205.385 85.5965 205.146 85.3978 204.966 85.1522C204.785 84.8986 204.673 84.585 204.632 84.2113C204.569 83.7192 204.634 83.2934 204.828 82.9338C205.028 82.5654 205.318 82.2717 205.696 82.0526C206.081 81.8247 206.516 81.6838 207.001 81.6299C207.494 81.5751 207.946 81.6175 208.356 81.7571C208.773 81.8879 209.12 82.1149 209.397 82.4383C209.674 82.7537 209.843 83.1574 209.906 83.6495L208.856 83.7661C208.81 83.3447 208.62 83.0156 208.288 82.7788C207.955 82.5341 207.546 82.4387 207.061 82.4926C206.63 82.5244 206.276 82.6723 205.999 82.9365C205.723 83.2006 205.609 83.5553 205.659 84.0006C205.691 84.2948 205.777 84.5227 205.916 84.6844C206.062 84.8372 206.293 84.9605 206.609 85.0541C206.925 85.1478 207.36 85.2565 207.913 85.3801C208.309 85.465 208.666 85.5622 208.984 85.6717C209.301 85.7733 209.573 85.908 209.801 86.0759C210.028 86.2358 210.212 86.4408 210.353 86.6908C210.492 86.9329 210.583 87.2408 210.624 87.6145C210.68 88.1154 210.596 88.5553 210.372 88.9343C210.156 89.3045 209.843 89.6049 209.434 89.8354C209.032 90.0572 208.577 90.1963 208.068 90.2528ZM216.096 89.361C215.46 89.4316 214.875 89.3879 214.343 89.2298C213.809 89.0637 213.342 88.8057 212.941 88.4558C212.54 88.106 212.215 87.6793 211.965 87.1757C211.724 86.6712 211.57 86.1129 211.502 85.5006C211.434 84.8884 211.462 84.3098 211.587 83.7647C211.719 83.2187 211.943 82.731 212.257 82.3017C212.572 81.8723 212.967 81.5225 213.444 81.2522C213.929 80.973 214.493 80.7976 215.137 80.7261C215.773 80.6554 216.353 80.6996 216.878 80.8587C217.41 81.0089 217.876 81.2589 218.277 81.6087C218.678 81.9506 219.003 82.3774 219.253 82.8889C219.502 83.3925 219.661 83.9583 219.731 84.5864C219.801 85.2146 219.77 85.8056 219.638 86.3595C219.506 86.9055 219.282 87.3932 218.968 87.8225C218.652 88.2439 218.252 88.5902 217.767 88.8614C217.289 89.1238 216.732 89.2903 216.096 89.361ZM215.998 88.4784C216.65 88.406 217.19 88.1971 217.619 87.8516C218.047 87.5062 218.352 87.0618 218.533 86.5185C218.722 85.9743 218.78 85.3683 218.705 84.7004C218.629 84.0166 218.44 83.434 218.137 82.9525C217.841 82.4621 217.446 82.0995 216.954 81.8645C216.461 81.6295 215.888 81.5482 215.236 81.6206C214.592 81.6921 214.056 81.9006 213.627 82.2461C213.199 82.5915 212.89 83.0363 212.701 83.5805C212.511 84.1167 212.453 84.7188 212.527 85.3867C212.601 86.0466 212.79 86.6253 213.094 87.1227C213.398 87.6121 213.797 87.9783 214.291 88.2213C214.785 88.4643 215.354 88.55 215.998 88.4784ZM225.317 88.3366C224.475 88.4302 223.734 88.3233 223.096 88.0158C222.458 87.7004 221.947 87.234 221.565 86.6164C221.182 85.9989 220.945 85.2806 220.854 84.4617C220.764 83.6506 220.834 82.9024 221.064 82.2168C221.301 81.5304 221.697 80.9632 222.251 80.5153C222.805 80.0674 223.507 79.7962 224.358 79.7017C225.312 79.5957 226.113 79.7402 226.761 80.1351C227.415 80.5212 227.872 81.1144 228.13 81.9148L227.02 82.038C226.836 81.5353 226.527 81.151 226.095 80.8851C225.67 80.6103 225.124 80.5101 224.456 80.5843C223.796 80.6576 223.265 80.8736 222.862 81.2322C222.458 81.583 222.174 82.0291 222.009 82.5707C221.851 83.1113 221.808 83.7037 221.88 84.3477C221.953 85.0077 222.13 85.5837 222.41 86.0758C222.698 86.567 223.077 86.9393 223.548 87.1929C224.018 87.4385 224.575 87.5255 225.219 87.454C225.887 87.3798 226.399 87.17 226.755 86.8246C227.118 86.4703 227.335 86.0317 227.406 85.5087L228.515 85.3855C228.437 86.2071 228.122 86.878 227.568 87.3984C227.022 87.9178 226.272 88.2306 225.317 88.3366ZM230.224 87.6466L229.296 79.298L230.298 79.1867L231.226 87.5353L230.224 87.6466ZM232.471 87.397L234.621 78.7065L235.682 78.5886L239.675 86.5967L238.613 86.7146L237.612 84.6526L234.057 85.0475L233.521 87.2804L232.471 87.397ZM234.266 84.2033L237.223 83.8747L235.286 79.9124L234.266 84.2033ZM240.916 86.4588L239.989 78.1102L240.99 77.9989L241.829 85.5485L245.717 85.1165L245.806 85.9156L240.916 86.4588ZM250.338 85.4121L249.411 77.0634L250.58 76.9336L254.11 82.4093L256.328 76.295L257.509 76.1638L258.437 84.5124L257.435 84.6237L256.709 78.0879L254.631 83.7279L253.879 83.8113L250.616 78.7769L251.34 85.3008L250.338 85.4121ZM260.204 84.3162L259.276 75.9675L264.44 75.3938L264.532 76.2168L260.369 76.6792L260.67 79.3865L264.308 78.9824L264.398 79.7934L260.76 80.1975L261.114 83.3819L265.276 82.9195L265.368 83.7425L260.204 84.3162ZM266.936 83.5683L266.008 75.2197L268.572 74.9348C269.558 74.8253 270.384 74.9066 271.05 75.1787C271.724 75.442 272.246 75.8709 272.618 76.4655C272.997 77.0512 273.235 77.7814 273.332 78.656C273.428 79.5147 273.355 80.2714 273.114 80.926C272.88 81.5798 272.464 82.1089 271.865 82.5136C271.274 82.9173 270.486 83.1739 269.5 83.2834L266.936 83.5683ZM267.845 82.6221L269.383 82.4512C270.178 82.3629 270.8 82.165 271.249 81.8576C271.705 81.5413 272.013 81.1248 272.173 80.608C272.332 80.0832 272.372 79.471 272.295 78.7713C272.168 77.6343 271.812 76.8206 271.227 76.3303C270.64 75.832 269.778 75.646 268.641 75.7723L267.103 75.9432L267.845 82.6221ZM275.24 82.6458L274.313 74.2971L275.314 74.1858L276.242 82.5345L275.24 82.6458ZM277.487 82.3961L279.637 73.7056L280.698 73.5877L284.691 81.5958L283.629 81.7138L282.628 79.6518L279.074 80.0466L278.537 82.2795L277.487 82.3961ZM279.282 79.2025L282.239 78.8739L280.302 74.9116L279.282 79.2025ZM300.804 79.9266L300.722 77.0138L297.896 77.6658L299.858 75.5402L297.475 73.8731L300.377 73.9129L299.818 71.0532L301.88 73.094L303.468 70.6477L303.526 73.5631L306.348 72.8874L304.39 75.0368L306.77 76.68L303.87 76.6641L304.453 79.5212L302.365 77.4591L300.804 79.9266ZM317.996 77.8959L317.069 69.5473L318.071 69.436L318.998 77.7846L317.996 77.8959ZM320.769 77.588L319.841 69.2393L322.405 68.9545C323.391 68.8449 324.217 68.9262 324.883 69.1983C325.557 69.4616 326.079 69.8906 326.451 70.4851C326.83 71.0709 327.068 71.801 327.165 72.6757C327.261 73.5344 327.188 74.2911 326.947 74.9457C326.713 75.5994 326.297 76.1286 325.698 76.5332C325.107 76.9369 324.319 77.1936 323.333 77.3031L320.769 77.588ZM321.678 76.6418L323.216 76.4709C324.011 76.3826 324.633 76.1847 325.082 75.8772C325.538 75.561 325.846 75.1444 326.006 74.6276C326.165 74.1029 326.205 73.4906 326.128 72.7909C326.001 71.6539 325.645 70.8403 325.06 70.3499C324.473 69.8516 323.611 69.6657 322.474 69.792L320.936 69.9629L321.678 76.6418ZM329.073 76.6654L328.145 68.3168L333.31 67.7431L333.401 68.566L329.239 69.0284L329.539 71.7358L333.177 71.3317L333.267 72.1427L329.63 72.5468L329.983 75.7312L334.146 75.2688L334.237 76.0917L329.073 76.6654ZM335.805 75.9176L334.877 67.5689L335.879 67.4576L341.071 73.6543L340.328 66.9634L341.33 66.8521L342.257 75.2008L341.255 75.3121L336.063 69.1154L336.807 75.8063L335.805 75.9176ZM345.984 74.7868L345.148 67.2611L342.655 67.538L342.564 66.7151L348.551 66.0499L348.642 66.8729L346.15 67.1498L346.986 74.6755L345.984 74.7868ZM350.702 74.2627L349.774 65.914L350.776 65.8027L351.703 74.1514L350.702 74.2627ZM353.474 73.9547L352.546 65.6061L355.11 65.3212C356.096 65.2117 356.922 65.293 357.588 65.5651C358.262 65.8284 358.784 66.2573 359.156 66.8519C359.535 67.4376 359.773 68.1678 359.87 69.0424C359.966 69.9012 359.893 70.6578 359.652 71.3125C359.418 71.9662 359.002 72.4954 358.403 72.9C357.812 73.3037 357.024 73.5604 356.038 73.6699L353.474 73.9547ZM354.383 73.0086L355.921 72.8377C356.716 72.7493 357.338 72.5515 357.787 72.244C358.243 71.9278 358.551 71.5112 358.711 70.9944C358.87 70.4696 358.91 69.8574 358.833 69.1577C358.706 68.0207 358.35 67.207 357.765 66.7167C357.178 66.2184 356.316 66.0324 355.179 66.1587L353.641 66.3297L354.383 73.0086ZM360.659 73.1565L362.809 64.466L363.87 64.3481L367.863 72.3562L366.801 72.4741L365.8 70.4121L362.245 70.807L361.709 73.0399L360.659 73.1565ZM362.454 69.9628L365.411 69.6343L363.474 65.6719L362.454 69.9628ZM369.104 72.2183L368.177 63.8697L370.741 63.5848C371.727 63.4753 372.553 63.5566 373.219 63.8287C373.892 64.092 374.415 64.5209 374.786 65.1155C375.165 65.7012 375.404 66.4314 375.501 67.306C375.596 68.1648 375.523 68.9214 375.282 69.5761C375.049 70.2298 374.633 70.759 374.034 71.1636C373.443 71.5673 372.654 71.824 371.668 71.9335L369.104 72.2183ZM370.013 71.2722L371.552 71.1013C372.347 71.0129 372.969 70.8151 373.417 70.5076C373.873 70.1914 374.181 69.7748 374.341 69.258C374.5 68.7332 374.541 68.121 374.463 67.4213C374.337 66.2843 373.981 65.4706 373.395 64.9803C372.808 64.482 371.947 64.296 370.81 64.4224L369.271 64.5933L370.013 71.2722ZM377.408 71.2958L376.481 62.9472L381.645 62.3735L381.737 63.1964L377.574 63.6588L377.875 66.3662L381.513 65.962L381.603 66.7731L377.965 67.1772L378.319 70.3616L382.481 69.8992L382.573 70.7221L377.408 71.2958ZM395.972 69.3543L395.89 66.4415L393.065 67.0935L395.026 64.9679L392.644 63.3008L395.546 63.3406L394.987 60.4809L397.048 62.5217L398.636 60.0754L398.694 62.9908L401.517 62.315L399.558 64.4644L401.938 66.1077L399.039 66.0917L399.622 68.9488L397.533 66.8868L395.972 69.3543ZM413.165 67.3236L412.238 58.9749L417.402 58.4012L417.493 59.2242L413.331 59.6866L413.632 62.3939L417.269 61.9898L417.359 62.8008L413.722 63.2049L414.075 66.3894L418.238 65.927L418.329 66.7499L413.165 67.3236ZM419.897 66.5757L418.97 58.2271L421.534 57.9422C422.52 57.8327 423.346 57.914 424.012 58.1861C424.685 58.4494 425.208 58.8783 425.579 59.4729C425.958 60.0586 426.197 60.7888 426.294 61.6634C426.389 62.5221 426.316 63.2788 426.075 63.9334C425.842 64.5872 425.426 65.1164 424.827 65.521C424.236 65.9247 423.447 66.1813 422.461 66.2909L419.897 66.5757ZM420.806 65.6296L422.345 65.4586C423.14 65.3703 423.762 65.1724 424.21 64.865C424.666 64.5487 424.974 64.1322 425.134 63.6154C425.293 63.0906 425.334 62.4784 425.256 61.7787C425.13 60.6417 424.774 59.828 424.188 59.3377C423.601 58.8394 422.74 58.6534 421.603 58.7797L420.064 58.9506L420.806 65.6296ZM428.201 65.6532L427.274 57.3045L428.276 57.1932L429.203 65.5419L428.201 65.6532ZM432.929 65.1279L432.093 57.6022L429.601 57.8792L429.509 57.0562L435.496 56.3911L435.588 57.214L433.095 57.4909L433.931 65.0167L432.929 65.1279ZM441.036 64.3722C440.4 64.4429 439.816 64.3991 439.283 64.241C438.75 64.0749 438.282 63.8169 437.881 63.4671C437.48 63.1172 437.155 62.6905 436.906 62.1869C436.665 61.6825 436.51 61.1241 436.442 60.5119C436.374 59.8996 436.402 59.321 436.527 58.7759C436.66 58.2299 436.883 57.7423 437.198 57.3129C437.512 56.8836 437.908 56.5337 438.385 56.2634C438.869 55.9842 439.433 55.8089 440.077 55.7373C440.713 55.6667 441.294 55.7109 441.818 55.8699C442.35 56.0201 442.817 56.2701 443.218 56.62C443.618 56.9619 443.943 57.3886 444.193 57.9001C444.442 58.4037 444.602 58.9695 444.672 59.5977C444.741 60.2258 444.71 60.8168 444.579 61.3708C444.446 61.9167 444.223 62.4044 443.908 62.8337C443.593 63.2551 443.193 63.6014 442.708 63.8727C442.23 64.135 441.673 64.3015 441.036 64.3722ZM440.938 63.4896C441.59 63.4172 442.131 63.2083 442.559 62.8629C442.988 62.5174 443.292 62.0731 443.474 61.5298C443.663 60.9856 443.72 60.3795 443.646 59.7116C443.57 59.0278 443.38 58.4452 443.077 57.9637C442.781 57.4734 442.387 57.1107 441.894 56.8757C441.401 56.6407 440.829 56.5594 440.177 56.6318C439.533 56.7034 438.996 56.9119 438.568 57.2573C438.139 57.6027 437.831 58.0475 437.641 58.5917C437.451 59.128 437.394 59.73 437.468 60.3979C437.541 61.0579 437.73 61.6365 438.035 62.1339C438.339 62.6234 438.738 62.9896 439.232 63.2325C439.725 63.4755 440.294 63.5612 440.938 63.4896ZM446.58 63.6114L445.653 55.2628L448.122 54.9885C448.71 54.9232 449.221 54.955 449.654 55.084C450.086 55.205 450.432 55.4241 450.693 55.7413C450.953 56.0584 451.113 56.4794 451.171 57.0042C451.243 57.6562 451.127 58.1681 450.822 58.5401C450.526 58.9111 450.093 59.1806 449.524 59.3484L452.353 62.9702L451.113 63.108L448.555 59.6492L447.172 59.8029L447.582 63.5001L446.58 63.6114ZM447.078 58.9561L448.521 58.7958C448.966 58.7463 449.314 58.6553 449.565 58.5228C449.815 58.3823 449.983 58.1946 450.07 57.9596C450.156 57.7246 450.182 57.4441 450.145 57.1181C450.108 56.7842 450.022 56.5121 449.886 56.3018C449.75 56.0916 449.545 55.9493 449.271 55.8751C448.996 55.7929 448.636 55.7766 448.191 55.826L446.748 55.9864L447.078 58.9561ZM453.65 62.826L452.723 54.4774L453.725 54.3661L454.652 62.7148L453.65 62.826ZM455.898 62.5764L458.047 53.8859L459.109 53.768L463.101 61.7761L462.04 61.8941L461.038 59.8321L457.484 60.2269L456.947 62.4598L455.898 62.5764ZM457.692 59.3828L460.65 59.0542L458.712 55.0919L457.692 59.3828ZM464.342 61.6383L463.415 53.2896L464.417 53.1783L465.255 60.7279L469.143 60.296L469.232 61.095L464.342 61.6383ZM482.44 59.7485L482.358 56.8357L479.533 57.4877L481.494 55.3621L479.112 53.695L482.014 53.7348L481.455 50.8751L483.517 52.9159L485.104 50.4696L485.162 53.385L487.985 52.7092L486.026 54.8586L488.406 56.5019L485.507 56.486L486.09 59.343L484.001 57.281L482.44 59.7485ZM499.633 57.7178L498.706 49.3692L499.707 49.2579L500.635 57.6065L499.633 57.7178ZM502.405 57.4099L501.478 49.0612L502.646 48.9314L506.177 54.4071L508.395 48.2927L509.576 48.1616L510.503 56.5102L509.501 56.6215L508.775 50.0857L506.697 55.7256L505.946 55.8091L502.682 50.7747L503.407 57.2986L502.405 57.4099ZM512.27 56.3139L511.343 47.9653L514.098 47.6592C514.686 47.5939 515.201 47.6252 515.642 47.7533C516.082 47.8815 516.438 48.1076 516.707 48.4319C516.976 48.7561 517.14 49.1806 517.199 49.7054C517.259 50.246 517.185 50.705 516.977 51.0822C516.778 51.4586 516.472 51.7541 516.062 51.9687C515.659 52.1825 515.179 52.3203 514.622 52.3822L512.869 52.5769L513.272 56.2026L512.27 56.3139ZM512.775 51.7302L514.504 51.538C515.172 51.4638 515.631 51.2841 515.881 50.9987C516.131 50.7054 516.228 50.3123 516.173 49.8193C516.117 49.3184 515.936 48.9562 515.63 48.7327C515.322 48.5012 514.835 48.4225 514.167 48.4967L512.437 48.6889L512.775 51.7302ZM519.177 55.5467L518.249 47.198L520.718 46.9238C521.307 46.8584 521.817 46.8902 522.25 47.0192C522.682 47.1402 523.028 47.3593 523.289 47.6765C523.55 47.9937 523.709 48.4146 523.767 48.9394C523.84 49.5914 523.724 50.1034 523.419 50.4753C523.122 50.8463 522.689 51.1158 522.12 51.2836L524.949 54.9054L523.709 55.0432L521.151 51.5844L519.768 51.7381L520.179 55.4354L519.177 55.5467ZM519.674 50.8913L521.117 50.731C521.562 50.6815 521.91 50.5905 522.161 50.458C522.411 50.3176 522.58 50.1298 522.666 49.8948C522.753 49.6598 522.778 49.3794 522.742 49.0534C522.705 48.7194 522.618 48.4473 522.482 48.237C522.346 48.0268 522.141 47.8845 521.867 47.8103C521.592 47.7282 521.232 47.7118 520.787 47.7613L519.344 47.9216L519.674 50.8913ZM526.247 54.7613L525.319 46.4126L530.483 45.8389L530.575 46.6619L526.412 47.1243L526.713 49.8316L530.351 49.4275L530.441 50.2385L526.803 50.6426L527.157 53.827L531.319 53.3646L531.411 54.1876L526.247 54.7613ZM535.654 53.8611C535.09 53.9238 534.565 53.8774 534.081 53.7219C533.605 53.5655 533.21 53.3075 532.897 52.948C532.59 52.5796 532.405 52.1131 532.343 51.5486L533.392 51.432C533.454 51.9885 533.686 52.4095 534.088 52.6949C534.489 52.9723 534.98 53.0788 535.56 53.0143C536.069 52.9577 536.477 52.7877 536.783 52.5041C537.098 52.2196 537.23 51.8508 537.18 51.3976C537.145 51.0875 537.062 50.8472 536.93 50.6767C536.806 50.4973 536.63 50.36 536.402 50.2645C536.173 50.1612 535.889 50.0719 535.551 49.9968C535.213 49.9217 534.812 49.8334 534.35 49.7318C533.937 49.6328 533.577 49.5078 533.27 49.3567C532.972 49.2048 532.732 49.006 532.552 48.7604C532.371 48.5068 532.26 48.1932 532.218 47.8195C532.155 47.3274 532.221 46.9016 532.414 46.542C532.615 46.1736 532.904 45.8799 533.282 45.6608C533.668 45.4329 534.103 45.292 534.588 45.2381C535.081 45.1833 535.532 45.2258 535.942 45.3654C536.359 45.4961 536.706 45.7232 536.984 46.0465C537.26 46.3619 537.43 46.7657 537.492 47.2577L536.443 47.3743C536.396 46.9529 536.207 46.6238 535.874 46.3871C535.541 46.1423 535.132 46.0469 534.647 46.1008C534.216 46.1326 533.862 46.2806 533.586 46.5447C533.309 46.8089 533.196 47.1636 533.245 47.6088C533.278 47.903 533.364 48.1309 533.502 48.2926C533.648 48.4455 533.879 48.5687 534.195 48.6624C534.512 48.756 534.946 48.8647 535.499 48.9884C535.895 49.0732 536.252 49.1704 536.57 49.2799C536.887 49.3815 537.16 49.5163 537.388 49.6841C537.615 49.844 537.798 50.049 537.939 50.299C538.078 50.5411 538.169 50.849 538.211 51.2227C538.266 51.7236 538.182 52.1636 537.959 52.5426C537.742 52.9127 537.43 53.2131 537.021 53.4437C536.619 53.6654 536.163 53.8045 535.654 53.8611ZM542.549 53.0951C541.985 53.1578 541.46 53.1114 540.976 52.9559C540.5 52.7995 540.105 52.5416 539.792 52.182C539.485 51.8136 539.3 51.3471 539.238 50.7826L540.287 50.666C540.349 51.2226 540.581 51.6435 540.983 51.9289C541.384 52.2063 541.875 52.3128 542.455 52.2483C542.964 52.1918 543.372 52.0217 543.678 51.7381C543.993 51.4537 544.125 51.0848 544.075 50.6316C544.04 50.3215 543.957 50.0812 543.826 49.9107C543.701 49.7314 543.525 49.594 543.297 49.4986C543.068 49.3952 542.784 49.306 542.446 49.2309C542.108 49.1558 541.707 49.0674 541.245 48.9658C540.832 48.8668 540.472 48.7418 540.165 48.5908C539.867 48.4388 539.627 48.24 539.447 47.9944C539.266 47.7409 539.155 47.4272 539.113 47.0535C539.051 46.5614 539.116 46.1356 539.309 45.7761C539.51 45.4077 539.799 45.1139 540.177 44.8948C540.563 44.6669 540.998 44.526 541.483 44.4721C541.976 44.4174 542.427 44.4598 542.837 44.5994C543.254 44.7301 543.601 44.9572 543.879 45.2805C544.155 45.5959 544.325 45.9997 544.387 46.4918L543.338 46.6084C543.291 46.1869 543.102 45.8579 542.769 45.6211C542.436 45.3764 542.027 45.2809 541.542 45.3348C541.111 45.3666 540.757 45.5146 540.481 45.7787C540.204 46.0429 540.091 46.3976 540.14 46.8428C540.173 47.137 540.259 47.365 540.397 47.5266C540.543 47.6795 540.774 47.8027 541.09 47.8964C541.407 47.99 541.841 48.0987 542.394 48.2224C542.79 48.3072 543.147 48.4044 543.465 48.514C543.782 48.6156 544.055 48.7503 544.283 48.9182C544.51 49.0781 544.694 49.283 544.834 49.5331C544.974 49.7751 545.064 50.083 545.106 50.4567C545.161 50.9576 545.077 51.3976 544.854 51.7766C544.637 52.1467 544.325 52.4471 543.916 52.6777C543.514 52.8994 543.058 53.0386 542.549 53.0951ZM546.244 52.5397L548.394 43.8493L549.455 43.7314L553.448 51.7395L552.386 51.8574L551.385 49.7954L547.83 50.1902L547.294 52.4232L546.244 52.5397ZM548.038 49.3461L550.996 49.0175L549.059 45.0552L548.038 49.3461ZM549.5 43.0502C549.286 43.0741 549.105 43.0458 548.96 42.9654C548.814 42.885 548.676 42.8077 548.547 42.7335C548.418 42.6513 548.257 42.6208 548.066 42.642C547.78 42.6738 547.633 42.8713 547.625 43.2344L547.041 43.2993C547.051 42.8876 547.145 42.5713 547.322 42.3505C547.498 42.1296 547.738 42.0024 548.04 41.9688C548.255 41.945 548.435 41.9733 548.581 42.0537C548.725 42.1261 548.863 42.2034 548.993 42.2856C549.131 42.3669 549.291 42.3973 549.474 42.377C549.601 42.3629 549.707 42.3068 549.793 42.2087C549.879 42.1107 549.923 41.9689 549.927 41.7833L550.511 41.7184C550.507 42.1133 550.413 42.4256 550.229 42.6553C550.045 42.885 549.802 43.0166 549.5 43.0502ZM558.497 51.3234C557.861 51.3941 557.277 51.3503 556.744 51.1922C556.211 51.0261 555.743 50.7681 555.342 50.4182C554.941 50.0684 554.616 49.6417 554.367 49.1381C554.126 48.6336 553.971 48.0753 553.903 47.4631C553.835 46.8508 553.863 46.2722 553.988 45.7271C554.121 45.1811 554.344 44.6934 554.659 44.2641C554.973 43.8347 555.369 43.4849 555.846 43.2146C556.33 42.9354 556.894 42.7601 557.538 42.6885C558.174 42.6179 558.755 42.662 559.279 42.8211C559.811 42.9713 560.278 43.2213 560.679 43.5711C561.079 43.9131 561.404 44.3398 561.654 44.8513C561.903 45.3549 562.063 45.9207 562.133 46.5489C562.202 47.177 562.171 47.768 562.04 48.3219C561.907 48.8679 561.684 49.3556 561.369 49.7849C561.054 50.2063 560.654 50.5526 560.169 50.8238C559.691 51.0862 559.134 51.2527 558.497 51.3234ZM558.399 50.4408C559.051 50.3684 559.592 50.1595 560.02 49.8141C560.449 49.4686 560.753 49.0243 560.935 48.4809C561.124 47.9367 561.181 47.3307 561.107 46.6628C561.031 45.979 560.841 45.3964 560.538 44.9149C560.242 44.4246 559.848 44.0619 559.355 43.8269C558.862 43.5919 558.29 43.5106 557.638 43.583C556.994 43.6546 556.457 43.863 556.029 44.2085C555.6 44.5539 555.292 44.9987 555.102 45.5429C554.913 46.0792 554.855 46.6812 554.929 47.3491C555.002 48.0091 555.191 48.5877 555.496 49.0851C555.8 49.5745 556.199 49.9407 556.693 50.1837C557.186 50.4267 557.755 50.5124 558.399 50.4408ZM575.873 49.3689L575.791 46.4562L572.966 47.1081L574.927 44.9826L572.545 43.3155L575.447 43.3553L574.888 40.4955L576.95 42.5363L578.537 40.0901L578.595 43.0055L581.418 42.3297L579.459 44.4791L581.839 46.1224L578.94 46.1064L579.523 48.9635L577.435 46.9015L575.873 49.3689ZM593.066 47.3383L592.139 38.9896L594.703 38.7048C595.689 38.5952 596.515 38.6765 597.181 38.9486C597.854 39.2119 598.377 39.6409 598.749 40.2354C599.128 40.8212 599.366 41.5513 599.463 42.426C599.558 43.2847 599.485 44.0413 599.244 44.696C599.011 45.3497 598.595 45.8789 597.996 46.2835C597.405 46.6872 596.616 46.9439 595.63 47.0534L593.066 47.3383ZM593.975 46.3921L595.514 46.2212C596.309 46.1329 596.931 45.935 597.38 45.6275C597.835 45.3113 598.143 44.8947 598.303 44.3779C598.462 43.8532 598.503 43.2409 598.425 42.5412C598.299 41.4042 597.943 40.5906 597.357 40.1002C596.771 39.6019 595.909 39.416 594.772 39.5423L593.233 39.7132L593.975 46.3921ZM601.37 46.4157L600.443 38.0671L601.445 37.9558L602.372 46.3044L601.37 46.4157ZM607.748 45.8521C606.953 45.9404 606.241 45.8344 605.612 45.534C604.99 45.2248 604.48 44.7663 604.083 44.1584C603.692 43.5418 603.451 42.816 603.358 41.9812C603.266 41.1542 603.343 40.3971 603.589 39.7098C603.834 39.0225 604.238 38.4584 604.801 38.0176C605.363 37.5688 606.073 37.2967 606.932 37.2013C607.87 37.0971 608.675 37.2371 609.345 37.6214C610.024 38.0049 610.499 38.584 610.77 39.3588L609.613 39.4873C609.446 38.9987 609.135 38.6308 608.681 38.3834C608.235 38.1351 607.686 38.0472 607.034 38.1197C606.374 38.193 605.834 38.4059 605.415 38.7584C604.995 39.1109 604.699 39.5583 604.526 40.1008C604.359 40.6344 604.312 41.2232 604.384 41.8672C604.456 42.5192 604.636 43.0908 604.924 43.582C605.212 44.0732 605.591 44.4416 606.061 44.6872C606.531 44.9328 607.072 45.0216 607.685 44.9536C608.575 44.8547 609.218 44.5216 609.614 43.9545C610.009 43.3794 610.188 42.6351 610.151 41.7216L607.145 42.0554L607.058 41.2683L611.089 40.8205L611.585 45.281L610.666 45.383L610.43 44.0208C610.182 44.5393 609.854 44.9541 609.446 45.2651C609.038 45.576 608.472 45.7717 607.748 45.8521ZM613.169 45.105L612.242 36.7564L613.243 36.6451L614.171 44.9937L613.169 45.105ZM617.897 44.5798L617.061 37.0541L614.568 37.331L614.477 36.5081L620.464 35.8429L620.555 36.6659L618.063 36.9428L618.899 44.4685L617.897 44.5798ZM621.147 44.2188L623.296 35.5283L624.358 35.4104L628.35 43.4185L627.289 43.5364L626.287 41.4744L622.733 41.8693L622.196 44.1022L621.147 44.2188ZM622.941 41.0251L625.899 40.6966L623.961 36.7342L622.941 41.0251ZM629.591 43.2806L628.664 34.932L629.666 34.8207L630.504 42.3703L634.393 41.9383L634.481 42.7374L629.591 43.2806ZM647.689 41.3909L647.607 38.4781L644.782 39.13L646.743 37.0045L644.361 35.3374L647.263 35.3772L646.704 32.5174L648.766 34.5583L650.353 32.112L650.411 35.0274L653.234 34.3516L651.275 36.501L653.655 38.1443L650.756 38.1283L651.339 40.9854L649.251 38.9234L647.689 41.3909ZM664.882 39.3602L663.955 31.0115L666.519 30.7267C667.505 30.6171 668.331 30.6984 668.997 30.9706C669.67 31.2338 670.193 31.6628 670.565 32.2573C670.944 32.8431 671.182 33.5733 671.279 34.4479C671.374 35.3066 671.301 36.0633 671.06 36.7179C670.827 37.3716 670.411 37.9008 669.812 38.3054C669.221 38.7092 668.432 38.9658 667.446 39.0753L664.882 39.3602ZM665.791 38.414L667.33 38.2431C668.125 38.1548 668.747 37.9569 669.196 37.6495C669.651 37.3332 669.959 36.9167 670.119 36.3998C670.278 35.8751 670.319 35.2628 670.241 34.5631C670.115 33.4261 669.759 32.6125 669.173 32.1221C668.587 31.6239 667.725 31.4379 666.588 31.5642L665.049 31.7351L665.791 38.414ZM673.187 38.4376L672.259 30.089L673.261 29.9777L674.188 38.3263L673.187 38.4376ZM678.475 37.8501L674.411 29.8499L675.496 29.7294L678.942 36.7237L680.792 29.1411L681.853 29.0232L679.644 37.7203L678.475 37.8501ZM686.958 37.0526C686.227 37.1339 685.618 37.0526 685.132 36.8087C684.646 36.5569 684.268 36.2004 683.999 35.7393C683.738 35.2693 683.575 34.748 683.512 34.1756L682.926 28.904L683.928 28.7927L684.515 34.0762C684.605 34.8872 684.865 35.4539 685.295 35.7764C685.726 36.0989 686.255 36.2252 686.883 36.1554C687.511 36.0857 687.996 35.8467 688.337 35.4385C688.678 35.0304 688.803 34.4208 688.713 33.6098L688.126 28.3263L689.128 28.215L689.714 33.4866C689.782 34.0988 689.747 34.6218 689.61 35.0556C689.473 35.4894 689.263 35.8467 688.981 36.1277C688.706 36.4077 688.392 36.6237 688.038 36.7756C687.684 36.9196 687.324 37.012 686.958 37.0526ZM691.752 36.3752L690.825 28.0265L691.826 27.9153L692.665 35.4648L696.553 35.0329L696.642 35.832L691.752 36.3752ZM700.844 35.5101C700.048 35.5984 699.336 35.4924 698.707 35.192C698.085 34.8828 697.576 34.4243 697.178 33.8164C696.788 33.1998 696.546 32.474 696.453 31.6391C696.361 30.8122 696.438 30.0551 696.684 29.3678C696.93 28.6805 697.334 28.1164 697.897 27.6756C698.458 27.2268 699.169 26.9547 700.027 26.8593C700.966 26.7551 701.77 26.8951 702.441 27.2794C703.119 27.6629 703.594 28.242 703.865 29.0168L702.708 29.1453C702.541 28.6567 702.231 28.2888 701.777 28.0414C701.331 27.7931 700.781 27.7052 700.129 27.7777C699.47 27.851 698.93 28.0639 698.51 28.4164C698.09 28.7688 697.794 29.2163 697.621 29.7587C697.455 30.2923 697.407 30.8812 697.479 31.5252C697.551 32.1772 697.732 32.7488 698.02 33.24C698.308 33.7312 698.687 34.0996 699.157 34.3452C699.627 34.5908 700.168 34.6796 700.78 34.6116C701.671 34.5127 702.314 34.1796 702.709 33.6125C703.104 33.0373 703.283 32.293 703.246 31.3795L700.241 31.7134L700.153 30.9263L704.184 30.4784L704.68 34.939L703.762 35.041L703.526 33.6787C703.278 34.1973 702.949 34.6121 702.541 34.9231C702.133 35.234 701.567 35.4297 700.844 35.5101ZM705.739 34.8213L707.889 26.1308L708.951 26.0129L712.943 34.021L711.882 34.139L710.88 32.077L707.326 32.4718L706.789 34.7047L705.739 34.8213ZM707.534 31.6277L710.492 31.2991L708.554 27.3368L707.534 31.6277ZM717.384 33.6726C716.541 33.7662 715.801 33.6593 715.163 33.3518C714.524 33.0364 714.014 32.57 713.631 31.9524C713.249 31.3349 713.012 30.6166 712.921 29.7977C712.831 28.9867 712.901 28.2384 713.13 27.5528C713.368 26.8664 713.764 26.2992 714.318 25.8513C714.872 25.4034 715.574 25.1322 716.425 25.0377C717.379 24.9317 718.18 25.0762 718.827 25.4711C719.482 25.8572 719.938 26.4504 720.196 27.2508L719.087 27.374C718.902 26.8714 718.594 26.487 718.162 26.2211C717.737 25.9464 717.191 25.8461 716.523 25.9203C715.863 25.9936 715.332 26.2096 714.929 26.5683C714.525 26.919 714.241 27.3651 714.075 27.9067C713.918 28.4473 713.875 29.0397 713.947 29.6837C714.02 30.3437 714.197 30.9197 714.477 31.4118C714.765 31.903 715.144 32.2754 715.615 32.5289C716.085 32.7745 716.642 32.8616 717.286 32.79C717.954 32.7158 718.466 32.506 718.822 32.1606C719.185 31.8063 719.402 31.3677 719.473 30.8447L720.582 30.7215C720.504 31.5431 720.188 32.2141 719.634 32.7344C719.088 33.2539 718.338 33.5666 717.384 33.6726ZM716.853 36.7139L716.782 36.0817L717.88 35.9598C718.42 35.8998 718.67 35.6789 718.627 35.2973C718.587 34.9395 718.297 34.7906 717.756 34.8507L717.172 34.9156L717 33.3651L717.668 33.2909L717.774 34.2451C718.075 34.2036 718.345 34.2097 718.585 34.2636C718.825 34.3255 719.019 34.4368 719.165 34.5976C719.32 34.7575 719.411 34.9647 719.439 35.2191C719.467 35.4656 719.427 35.6834 719.319 35.8724C719.22 36.0685 719.068 36.2262 718.864 36.3455C718.66 36.4648 718.415 36.5403 718.129 36.5721L716.853 36.7139ZM721.568 33.0629L723.718 24.3724L724.779 24.2545L728.772 32.2627L727.71 32.3806L726.708 30.3186L723.154 30.7134L722.617 32.9463L721.568 33.0629ZM723.362 29.8693L726.32 29.5407L724.383 25.5784L723.362 29.8693ZM724.824 23.5734C724.609 23.5972 724.429 23.569 724.283 23.4886C724.138 23.4082 724 23.3309 723.871 23.2566C723.741 23.1745 723.581 23.144 723.39 23.1652C723.104 23.197 722.957 23.3944 722.949 23.7575L722.365 23.8225C722.375 23.4108 722.469 23.0945 722.645 22.8736C722.822 22.6528 723.062 22.5256 723.364 22.492C723.578 22.4682 723.759 22.4964 723.904 22.5768C724.049 22.6493 724.187 22.7266 724.317 22.8087C724.454 22.89 724.615 22.9205 724.798 22.9002C724.925 22.8861 725.031 22.83 725.117 22.7319C725.203 22.6338 725.247 22.492 725.251 22.3065L725.835 22.2416C725.831 22.6365 725.737 22.9488 725.553 23.1785C725.369 23.4082 725.126 23.5398 724.824 23.5734ZM733.821 31.8466C733.185 31.9172 732.601 31.8735 732.068 31.7153C731.534 31.5492 731.067 31.2913 730.666 30.9414C730.265 30.5916 729.94 30.1648 729.691 29.6613C729.45 29.1568 729.295 28.5985 729.227 27.9862C729.159 27.374 729.187 26.7953 729.312 26.2503C729.444 25.7043 729.668 25.2166 729.982 24.7873C730.297 24.3579 730.693 24.0081 731.17 23.7378C731.654 23.4586 732.218 23.2832 732.862 23.2117C733.498 23.141 734.079 23.1852 734.603 23.3442C735.135 23.4944 735.602 23.7445 736.003 24.0943C736.403 24.4362 736.728 24.8629 736.978 25.3745C737.227 25.878 737.387 26.4439 737.456 27.072C737.526 27.7002 737.495 28.2912 737.364 28.8451C737.231 29.3911 737.007 29.8787 736.693 30.3081C736.378 30.7295 735.977 31.0758 735.492 31.347C735.014 31.6094 734.457 31.7759 733.821 31.8466ZM733.723 30.964C734.375 30.8916 734.915 30.6826 735.344 30.3372C735.772 29.9918 736.077 29.5474 736.258 29.0041C736.447 28.4599 736.505 27.8539 736.431 27.186C736.355 26.5022 736.165 25.9195 735.862 25.438C735.566 24.9477 735.172 24.5851 734.679 24.3501C734.186 24.115 733.613 24.0338 732.961 24.1062C732.317 24.1777 731.781 24.3862 731.353 24.7316C730.924 25.0771 730.615 25.5219 730.426 26.0661C730.236 26.6023 730.178 27.2044 730.253 27.8723C730.326 28.5322 730.515 29.1109 730.82 29.6083C731.124 30.0977 731.523 30.4639 732.016 30.7069C732.51 30.9498 733.079 31.0355 733.723 30.964Z" fill="#A9FE4B"/>
</g>
<defs>
<filter id="filter0_d_328_206" x="-372.584" y="16" width="923.951" height="148.218" filterUnits="userSpaceOnUse" color-interpolation-filters="sRGB">
<feFlood flood-opacity="0" result="BackgroundImageFix"/>
<feColorMatrix in="SourceAlpha" type="matrix" values="0 0 0 0 0 0 0 0 0 0 0 0 0 0 0 0 0 0 127 0" result="hardAlpha"/>
<feOffset dy="4"/>
<feGaussianBlur stdDeviation="10"/>
<feComposite in2="hardAlpha" operator="out"/>
<feColorMatrix type="matrix" values="0 0 0 0 0 0 0 0 0 0 0 0 0 0 0 0 0 0 0.5 0"/>
<feBlend mode="normal" in2="BackgroundImageFix" result="effect1_dropShadow_328_206"/>
<feBlend mode="normal" in="SourceGraphic" in2="effect1_dropShadow_328_206" result="shape"/>
</filter>
<filter id="filter1_d_328_206" x="-379" y="5.00134" width="1137.26" height="182.285" filterUnits="userSpaceOnUse" color-interpolation-filters="sRGB">
<feFlood flood-opacity="0" result="BackgroundImageFix"/>
<feColorMatrix in="SourceAlpha" type="matrix" values="0 0 0 0 0 0 0 0 0 0 0 0 0 0 0 0 0 0 127 0" result="hardAlpha"/>
<feOffset dy="4"/>
<feGaussianBlur stdDeviation="10"/>
<feComposite in2="hardAlpha" operator="out"/>
<feColorMatrix type="matrix" values="0 0 0 0 0 0 0 0 0 0 0 0 0 0 0 0 0 0 0.8 0"/>
<feBlend mode="normal" in2="BackgroundImageFix" result="effect1_dropShadow_328_206"/>
<feBlend mode="normal" in="SourceGraphic" in2="effect1_dropShadow_328_206" result="shape"/>
</filter>
</defs>
</svg>
