<svg width="115" height="30" viewBox="0 0 115 30" fill="none" xmlns="http://www.w3.org/2000/svg">
<g clip-path="url(#clip0_84_169)">
<path d="M80.6604 -0.24707C81.0428 -0.24707 81.4223 -0.186403 81.7843 -0.06507L86.1103 1.37649C86.6007 1.53826 86.8429 2.08426 86.6357 2.55226C86.4313 3.0116 85.8797 3.20804 85.4272 2.97982L80.7159 0.590708H80.7013L76.0163 3.11849C75.5463 3.37271 74.9596 3.15604 74.7699 2.65915L74.7173 2.52049C74.5422 2.06115 74.7874 1.54982 75.2544 1.39093L79.5191 -0.0564037C79.8869 -0.180626 80.2722 -0.244181 80.6604 -0.244181V-0.24707Z" fill="#FFFDF8"/>
<path d="M75.5932 3.26007C75.4852 3.26007 75.3772 3.23984 75.2721 3.20229C75.024 3.10984 74.8284 2.91629 74.735 2.67073L74.6825 2.53207C74.5949 2.30096 74.6037 2.04962 74.7117 1.82718C74.8168 1.60184 75.0065 1.43429 75.2429 1.35629L79.5076 -0.0910449C80.2461 -0.342378 81.0576 -0.342378 81.7961 -0.0968228L86.1221 1.34473C86.3644 1.42562 86.5629 1.60473 86.668 1.83584C86.7731 2.06696 86.7731 2.33562 86.668 2.56673C86.5658 2.79784 86.3761 2.97407 86.1367 3.05784C85.8944 3.14162 85.6376 3.12429 85.4099 3.01162L80.7073 0.625399L76.0311 3.15029C75.8939 3.22251 75.745 3.26007 75.5932 3.26007ZM80.6606 -0.212378C80.2753 -0.212378 79.8958 -0.148823 79.531 -0.0246006L75.2663 1.42273C75.0474 1.49784 74.8751 1.65096 74.7759 1.85607C74.6796 2.06118 74.6679 2.29229 74.7496 2.50607L74.8022 2.64473C74.8868 2.87007 75.0678 3.04918 75.2984 3.13296C75.529 3.21673 75.783 3.1994 75.996 3.08384L80.6986 0.550289H80.7307L85.442 2.94518C85.6522 3.05207 85.8886 3.06651 86.1104 2.98851C86.3323 2.91051 86.5074 2.74873 86.6008 2.53496C86.6942 2.32118 86.6942 2.07562 86.6008 1.86184C86.5045 1.64807 86.3235 1.4834 86.0988 1.40829L81.7728 -0.0332669C81.4137 -0.151711 81.0401 -0.212378 80.6606 -0.212378Z" fill="#FFFDF8"/>
<path d="M3.70956 4.32324L9.52425 19.9464L9.77529 20.5559L10.0614 19.8164L15.8293 4.32324H19.7729L13.2402 21.957H6.21992L-0.274902 4.32324H3.70956Z" fill="#FFFDF8"/>
<path d="M45.9479 4.30615H50.8957V7.78437H45.9479C44.8183 7.78437 43.8959 8.69437 43.8959 9.81526V21.9399H40.3813V9.81526C40.3813 6.77615 42.8771 4.30615 45.9479 4.30615Z" fill="#FFFDF8"/>
<path d="M55.6856 21.2809C54.3778 20.498 53.4058 19.4118 52.7724 18.0222C52.136 16.6327 51.8179 15.0265 51.8179 13.1978C51.8179 11.3691 52.136 9.76869 52.7724 8.39069C53.4087 7.01269 54.3778 5.92647 55.6856 5.13202C56.9933 4.33758 58.6046 3.93891 60.5253 3.93891C62.446 3.93891 64.0106 4.32891 65.2921 5.11469C66.5764 5.89758 67.5397 6.97802 68.1877 8.35602C68.8358 9.73402 69.1598 11.3489 69.1598 13.2007C69.1598 15.0525 68.8416 16.6385 68.2053 18.0251C67.5689 19.4147 66.6027 20.5009 65.3096 21.2838C64.0135 22.0667 62.4198 22.4596 60.5253 22.4596C58.6309 22.4596 56.9933 22.0696 55.6856 21.2838V21.2809ZM53.292 29.0145C52.4279 28.3616 51.9084 27.5094 51.9054 26.4491C51.9054 25.2185 52.4367 24.2767 53.0147 23.1529C53.146 22.8987 53.3007 22.6416 53.473 22.3816L55.525 19.2471L58.9432 20.1716L57.1071 22.9507C56.9466 23.1818 56.3044 24.1727 56.1935 24.3807C55.8023 25.1087 55.7118 25.6894 55.9162 26.1227C56.1789 26.6802 56.9116 26.9605 58.1113 26.9605H69.3378V29.988H56.8532C55.3411 29.988 54.1531 29.6616 53.292 29.0087V29.0145ZM64.3142 18.0569C65.1724 16.9071 65.6015 15.2865 65.6015 13.1949C65.6015 11.1034 65.1724 9.49136 64.3142 8.35314C63.456 7.21491 62.1804 6.64869 60.4932 6.64869C58.806 6.64869 57.5216 7.22358 56.6518 8.37336C55.7819 9.52314 55.3586 11.1322 55.3849 13.1949C55.3849 15.2865 55.8198 16.9071 56.6926 18.0569C57.5654 19.2067 58.8323 19.7816 60.4961 19.7816C62.16 19.7816 63.4589 19.2067 64.3171 18.0569H64.3142ZM71.3228 4.97313L66.3196 9.67336L64.0165 7.25247L68.9817 2.55225L71.3198 4.97313H71.3228Z" fill="#FFFDF8"/>
<path d="M109.13 22.4138L99.8769 21.6829L99.5442 19.0656C99.4858 18.612 99.1501 18.2394 98.6976 18.1325L95.9888 17.4969C95.621 17.4103 95.3233 17.1445 95.1977 16.792L95.1627 16.6938C95.0401 16.35 95.0985 15.9658 95.3174 15.674L96.9404 13.5103C97.2177 13.1405 97.2323 12.6407 96.9783 12.2565L95.478 9.97138C95.2795 9.67093 95.2444 9.29249 95.3787 8.96027L95.405 8.89382C95.5509 8.5356 95.875 8.28138 96.2603 8.22071L98.9808 7.79027C99.4391 7.71804 99.801 7.37138 99.8944 6.9236L100.44 4.23982C100.516 3.87004 100.776 3.56671 101.132 3.43093L101.19 3.41071C101.532 3.28071 101.917 3.32693 102.218 3.53204L104.539 5.11515C104.921 5.37515 105.426 5.37516 105.805 5.11227L107.989 3.60427C108.313 3.38182 108.73 3.34427 109.089 3.50604L109.177 3.54649C109.524 3.70538 109.767 4.03182 109.813 4.40738L110.146 7.01893C110.204 7.47249 110.54 7.84516 110.993 7.95205L113.728 8.59338C114.098 8.68004 114.396 8.94582 114.522 9.30116L114.545 9.3676C114.665 9.71138 114.606 10.0898 114.387 10.3816L112.744 12.58C112.47 12.9469 112.452 13.4409 112.7 13.8252L114.186 16.1247C114.373 16.4136 114.414 16.7747 114.291 17.0983C114.154 17.4652 113.833 17.7309 113.445 17.8003L110.689 18.2856C110.239 18.3636 109.886 18.7074 109.796 19.1494L109.244 21.8505C109.171 22.2058 108.926 22.5034 108.59 22.6449L108.538 22.668C108.187 22.8154 107.785 22.7749 107.472 22.5612L105.149 20.9752C104.766 20.7152 104.261 20.7152 103.882 20.978L101.695 22.4889C101.369 22.7143 100.945 22.7489 100.586 22.5814L100.502 22.5438C100.157 22.3849 99.9207 22.0614 99.874 21.6858L109.13 22.4138ZM98.1051 16.6794L99.8682 17.0925C100.318 17.1994 100.656 17.5692 100.715 18.0256L100.904 19.5076C101.01 20.328 101.958 20.744 102.641 20.2703L103.879 19.4152C104.258 19.1523 104.763 19.1523 105.146 19.4123L106.637 20.4292C107.294 20.8769 108.199 20.5158 108.357 19.7416L108.704 18.0372C108.795 17.5865 109.159 17.2427 109.618 17.1705L111.325 16.9018C112.119 16.7776 112.519 15.8849 112.081 15.2176L111.139 13.7818C110.887 13.3976 110.902 12.8978 111.176 12.5309L112.221 11.1327C112.694 10.5 112.359 9.59293 111.585 9.41093L109.822 8.99782C109.373 8.89093 109.034 8.52116 108.976 8.06471L108.789 6.58271C108.684 5.76227 107.735 5.34627 107.052 5.82004L105.814 6.67515C105.435 6.93804 104.93 6.93804 104.547 6.67804L103.056 5.66116C102.399 5.21338 101.494 5.57449 101.336 6.34871L100.989 8.05316C100.899 8.50382 100.534 8.8476 100.075 8.91982L98.3707 9.18849C97.5767 9.31271 97.1768 10.2054 97.6147 10.8727L98.5575 12.3085C98.8086 12.6927 98.794 13.1925 98.5196 13.5594L97.4746 14.9576C97.0017 15.5903 97.3345 16.4974 98.1109 16.6794H98.1051Z" fill="#A9FE4B"/>
<path d="M108.103 22.8817C107.855 22.8817 107.609 22.8095 107.399 22.665L105.076 21.079C104.74 20.8508 104.293 20.8508 103.961 21.0819L101.774 22.5928C101.409 22.8441 100.936 22.8846 100.534 22.6968L100.449 22.6592C100.061 22.4801 99.798 22.1219 99.7455 21.7001L99.4127 19.0828C99.3631 18.6841 99.0624 18.3548 98.6655 18.2594L95.9566 17.6239C95.545 17.5286 95.2123 17.2339 95.0721 16.8381L95.0371 16.7399C94.8999 16.3528 94.9641 15.9281 95.2122 15.5988L96.8352 13.435C97.0775 13.1115 97.0921 12.6666 96.8702 12.3286L95.3699 10.0435C95.148 9.70834 95.1072 9.28367 95.259 8.91389L95.2852 8.84745C95.4487 8.45167 95.8136 8.16279 96.2397 8.09634L98.9603 7.66589C99.3602 7.60234 99.6842 7.29612 99.7659 6.90034L100.312 4.21656C100.396 3.80056 100.685 3.46256 101.085 3.31234L101.141 3.29212C101.523 3.14767 101.952 3.19967 102.288 3.4279L104.609 5.01101C104.944 5.23923 105.391 5.23923 105.724 5.00812L107.907 3.50012C108.266 3.25167 108.739 3.20834 109.136 3.39034L109.224 3.43078C109.618 3.6099 109.883 3.97101 109.936 4.39278L110.269 7.00434C110.318 7.40301 110.619 7.73234 111.013 7.82767L113.748 8.46901C114.163 8.56723 114.495 8.8619 114.635 9.26056L114.659 9.32701C114.793 9.71123 114.729 10.1359 114.484 10.4623L112.84 12.6608C112.601 12.9815 112.586 13.4235 112.802 13.7586L114.288 16.0581C114.495 16.3817 114.542 16.789 114.408 17.1472C114.256 17.5546 113.894 17.855 113.462 17.9301L110.706 18.4154C110.307 18.4848 109.997 18.7852 109.918 19.1781L109.367 21.8792C109.285 22.2779 109.013 22.6072 108.634 22.7661L108.581 22.7892C108.424 22.8557 108.257 22.8875 108.094 22.8875L108.103 22.8817ZM104.518 20.6457C104.766 20.6457 105.011 20.7179 105.222 20.8623L107.545 22.4483C107.822 22.639 108.173 22.6737 108.485 22.5437L108.538 22.5206C108.835 22.3963 109.051 22.1334 109.116 21.8214L109.667 19.1203C109.769 18.6206 110.161 18.2421 110.668 18.1526L113.424 17.6672C113.766 17.6066 114.052 17.3697 114.171 17.049C114.276 16.7659 114.241 16.4452 114.078 16.191L112.592 13.8915C112.318 13.4639 112.335 12.9063 112.639 12.499L114.282 10.3006C114.475 10.0435 114.527 9.70834 114.419 9.40501L114.396 9.33856C114.285 9.02367 114.025 8.78967 113.695 8.71456L110.96 8.07323C110.458 7.95478 110.079 7.5359 110.015 7.03034L109.682 4.41878C109.638 4.08367 109.428 3.80056 109.118 3.65901L109.031 3.61856C108.716 3.47412 108.345 3.50878 108.062 3.70523L105.878 5.21323C105.455 5.50501 104.886 5.50789 104.463 5.21901L102.142 3.6359C101.876 3.4539 101.538 3.41345 101.237 3.52901L101.182 3.54923C100.866 3.66767 100.639 3.93634 100.572 4.26278L100.026 6.94656C99.9235 7.44634 99.512 7.83634 99.0041 7.91723L96.2835 8.34767C95.9478 8.39967 95.6589 8.6279 95.5304 8.9399L95.5041 9.00634C95.3845 9.29812 95.4166 9.63323 95.5917 9.89901L97.0921 12.1841C97.3723 12.6117 97.3548 13.175 97.0483 13.5852L95.4253 15.749C95.2298 16.009 95.1801 16.3441 95.2881 16.6475L95.3232 16.7457C95.4341 17.0577 95.6939 17.2888 96.0208 17.3668L98.7297 18.0023C99.2317 18.1208 99.6112 18.5397 99.6754 19.0452L100.008 21.6626C100.049 21.9948 100.256 22.275 100.563 22.4195L100.647 22.457C100.963 22.6043 101.339 22.5726 101.625 22.3761L103.812 20.8652C104.025 20.7179 104.273 20.6457 104.524 20.6457H104.518ZM107.265 20.7526C107.017 20.7526 106.772 20.6775 106.561 20.5359L105.07 19.519C104.734 19.2908 104.287 19.2937 103.955 19.5219L102.717 20.377C102.358 20.6254 101.903 20.6688 101.503 20.4926C101.103 20.3163 100.828 19.9523 100.776 19.5219L100.586 18.0399C100.537 17.6412 100.236 17.3119 99.8418 17.2166L98.0787 16.8035C97.673 16.7081 97.3431 16.4192 97.2001 16.0292C97.0571 15.6392 97.1184 15.2088 97.3694 14.8766L98.4144 13.4783C98.6567 13.1548 98.6684 12.7099 98.4494 12.3748L97.5066 10.939C97.276 10.5895 97.241 10.1532 97.4132 9.77189C97.5854 9.39056 97.9357 9.12189 98.3531 9.05834L100.061 8.78967C100.461 8.72612 100.785 8.4199 100.866 8.02412L101.214 6.31967C101.295 5.91234 101.579 5.57723 101.967 5.42412C102.355 5.26812 102.793 5.31723 103.137 5.55123L104.629 6.56812C104.965 6.79634 105.411 6.79634 105.744 6.56523L106.982 5.71012C107.341 5.46167 107.796 5.41834 108.196 5.59456C108.596 5.77078 108.87 6.13478 108.923 6.56523L109.11 8.04723C109.159 8.44589 109.46 8.77523 109.854 8.87056L111.617 9.28367C112.026 9.379 112.353 9.66789 112.496 10.0579C112.639 10.4479 112.578 10.8783 112.329 11.2106L111.284 12.6088C111.042 12.9323 111.03 13.3743 111.249 13.7123L112.192 15.1481C112.423 15.4977 112.458 15.9339 112.286 16.3152C112.113 16.6966 111.763 16.9652 111.346 17.0288L109.638 17.2975C109.238 17.361 108.914 17.6672 108.832 18.063L108.485 19.7674C108.403 20.1748 108.12 20.5099 107.732 20.663C107.58 20.7237 107.423 20.7526 107.265 20.7526ZM104.515 19.0886C104.763 19.0886 105.008 19.1608 105.219 19.3052L106.71 20.3221C106.982 20.507 107.326 20.5446 107.633 20.4232C107.939 20.3019 108.161 20.0361 108.225 19.7154L108.573 18.011C108.675 17.5112 109.086 17.1212 109.594 17.0403L111.302 16.7717C111.632 16.7197 111.906 16.5088 112.043 16.2083C112.178 15.9079 112.151 15.5641 111.97 15.2868L111.028 13.851C110.747 13.4235 110.765 12.8601 111.071 12.4499L112.116 11.0517C112.312 10.7888 112.361 10.4479 112.248 10.1417C112.134 9.83545 111.874 9.60723 111.553 9.53212L109.79 9.11901C109.288 9.00056 108.908 8.58167 108.844 8.07612L108.657 6.59412C108.613 6.25323 108.4 5.96723 108.082 5.82856C107.764 5.68989 107.408 5.72456 107.125 5.92101L105.887 6.77612C105.464 7.06789 104.895 7.07078 104.471 6.77901L102.98 5.76212C102.708 5.57723 102.364 5.53967 102.057 5.66101C101.751 5.78234 101.529 6.04812 101.465 6.36878L101.117 8.07323C101.015 8.57301 100.604 8.96301 100.096 9.0439L98.3881 9.31256C98.0612 9.36456 97.7839 9.57545 97.6467 9.87589C97.5124 10.1763 97.5387 10.5201 97.7197 10.7975L98.6625 12.2332C98.9428 12.6608 98.9252 13.2241 98.6187 13.6343L97.5737 15.0326C97.3782 15.2954 97.3285 15.6363 97.4424 15.9426C97.5562 16.2488 97.816 16.477 98.1371 16.5521L99.9002 16.9652C100.402 17.0837 100.782 17.5026 100.846 18.0081L101.036 19.4901C101.079 19.831 101.293 20.117 101.611 20.2557C101.926 20.3943 102.285 20.3597 102.568 20.1632L103.806 19.3081C104.019 19.1608 104.267 19.0886 104.518 19.0886H104.515Z" fill="#A9FE4B"/>
<path d="M74.8984 14.5904C75.6719 17.5255 78.0247 19.4062 80.7627 19.4062C82.8557 19.4062 84.8231 18.3229 85.8535 16.4393H89.2045C87.818 20.0735 84.4699 22.4337 80.6343 22.4337C75.6077 22.4337 71.5474 18.034 71.5474 13.3135C71.5474 7.73219 75.8004 3.84375 80.538 3.84375C85.7893 3.84375 89.7854 7.86219 89.7854 12.9322C89.7854 13.4753 89.7854 13.9837 89.6891 14.5904H74.9013H74.8984ZM86.4344 12.0395C86.1775 9.04086 83.5008 6.87419 80.6343 6.87419C77.7678 6.87419 75.1582 9.00908 74.8984 12.0395H86.4344Z" fill="#FFFDF8"/>
<path d="M23.1269 14.5904C23.9005 17.5255 26.2532 19.4062 28.9912 19.4062C31.0842 19.4062 33.0516 18.3229 34.082 16.4393H37.433C36.0465 20.0735 32.6984 22.4337 28.8628 22.4337C23.8362 22.4337 19.7759 18.034 19.7759 13.3135C19.7759 7.73219 24.0289 3.84375 28.7665 3.84375C34.0178 3.84375 38.0139 7.86219 38.0139 12.9322C38.0139 13.4753 38.0139 13.9837 37.9176 14.5904H23.1298H23.1269ZM34.66 12.0395C34.4031 9.04086 31.7263 6.87419 28.8599 6.87419C25.9934 6.87419 23.3838 9.00908 23.124 12.0395H34.66Z" fill="#FFFDF8"/>
<path d="M6.208 25.3804H10.1195C11.0156 25.3804 11.5965 25.5479 11.9118 25.8917C12.2007 26.2124 12.3146 26.7381 12.3146 27.7666C12.3146 28.795 12.1803 29.3179 11.8184 29.6473C11.5235 29.9188 11.0215 30.0459 10.2304 30.0459H6.20508V25.3833L6.208 25.3804ZM9.99397 29.1908C10.3764 29.1908 10.6362 29.1417 10.8259 29.0377C11.1032 28.8904 11.2141 28.535 11.2141 27.8157C11.2141 26.5215 11.0098 26.2644 9.99105 26.2644H7.29387V29.1937H9.99105L9.99397 29.1908Z" fill="#FFFDF8"/>
<path d="M14.3872 25.3804H15.476V30.043H14.3872V25.3804Z" fill="#FFFDF8"/>
<path d="M23.5878 27.547V28.0439C23.5878 28.8961 23.5381 29.2052 23.3688 29.5114C23.2287 29.7628 22.9952 29.9159 22.6274 30.0083C22.3735 30.0719 21.9706 30.0863 20.552 30.0863C19.3026 30.0863 18.6955 30.0459 18.4036 29.9332C17.9511 29.7657 17.7176 29.4912 17.6184 28.9972C17.5629 28.7314 17.5396 28.4252 17.5396 27.7608C17.5396 26.5301 17.6184 26.1401 17.9219 25.8108C18.1204 25.5999 18.3948 25.4757 18.7685 25.4265C19.2063 25.363 19.7084 25.3428 21.092 25.3428C22.4756 25.3428 22.9631 25.441 23.2608 25.7761C23.4652 26.0014 23.5644 26.3625 23.5644 26.8797H22.499C22.4902 26.5879 22.4552 26.4752 22.3209 26.3683C22.137 26.221 21.8976 26.195 20.9782 26.195C19.2764 26.195 19.0137 26.221 18.8298 26.4406C18.6809 26.6081 18.6313 26.9172 18.6313 27.6423C18.6313 28.5523 18.6867 28.8643 18.8852 29.0319C19.0896 29.2139 19.3581 29.2486 20.6366 29.2486C22.0348 29.2486 22.1837 29.2197 22.3939 28.9192C22.4844 28.8008 22.5194 28.5754 22.5194 28.2548H20.4235V27.5499H23.579L23.5878 27.547Z" fill="#FFFDF8"/>
<path d="M25.6431 25.3804H26.7319V30.043H25.6431V25.3804Z" fill="#FFFDF8"/>
<path d="M30.7424 26.2557H28.5239V25.3833H34.038V26.2557H31.8283V30.0431H30.7424V26.2557Z" fill="#FFFDF8"/>
<path d="M36.1543 29.1186L35.6318 30.0401H34.4087L37.1059 25.3774H38.5829L41.2392 30.0401H40.0541L39.517 29.1186H36.1543ZM37.8327 26.1343L36.5688 28.3646H39.1112L37.8327 26.1343Z" fill="#FFFDF8"/>
<path d="M42.7568 25.3803H43.8456V29.1677H47.2842V30.0401H42.7568V25.3774V25.3803Z" fill="#FFFDF8"/>
</g>
<defs>
<clipPath id="clip0_84_169">
<rect width="115" height="30" fill="white"/>
</clipPath>
</defs>
</svg>
