<svg width="236" height="100" viewBox="0 0 236 100" fill="none" xmlns="http://www.w3.org/2000/svg">
<rect x="0.5" y="0.766602" width="235" height="98" stroke="black"/>
<path d="M154.787 24.2598C155.369 24.2598 155.947 24.3522 156.498 24.537L163.084 26.7326C163.831 26.979 164.2 27.8106 163.884 28.5234C163.573 29.223 162.733 29.5222 162.044 29.1746L154.871 25.5358H154.849L147.715 29.3858C147 29.773 146.107 29.443 145.818 28.6862L145.738 28.475C145.471 27.7754 145.844 26.9966 146.555 26.7546L153.049 24.5502C153.609 24.361 154.195 24.2642 154.787 24.2642V24.2598Z" fill="#FFFDF8"/>
<path d="M147.071 29.6012C146.906 29.6012 146.742 29.5704 146.582 29.5132C146.204 29.3724 145.906 29.0776 145.764 28.7036L145.684 28.4924C145.551 28.1404 145.564 27.7576 145.729 27.4188C145.889 27.0756 146.178 26.8204 146.538 26.7016L153.031 24.4972C154.155 24.1144 155.391 24.1144 156.515 24.4884L163.102 26.684C163.471 26.8072 163.773 27.08 163.933 27.432C164.093 27.784 164.093 28.1932 163.933 28.5452C163.778 28.8972 163.489 29.1656 163.124 29.2932C162.755 29.4208 162.364 29.3944 162.018 29.2228L154.858 25.5884L147.738 29.434C147.529 29.544 147.302 29.6012 147.071 29.6012ZM154.786 24.3124C154.2 24.3124 153.622 24.4092 153.066 24.5984L146.573 26.8028C146.24 26.9172 145.978 27.1504 145.826 27.4628C145.68 27.7752 145.662 28.1272 145.786 28.4528L145.866 28.664C145.995 29.0072 146.271 29.28 146.622 29.4076C146.973 29.5352 147.36 29.5088 147.684 29.3328L154.844 25.474H154.893L162.066 29.1216C162.386 29.2844 162.746 29.3064 163.084 29.1876C163.422 29.0688 163.689 28.8224 163.831 28.4968C163.973 28.1712 163.973 27.7972 163.831 27.4716C163.684 27.146 163.409 26.8952 163.066 26.7808L156.48 24.5852C155.933 24.4048 155.364 24.3124 154.786 24.3124Z" fill="#FFFDF8"/>
<path d="M37.6223 31.2207L46.4757 55.0159L46.8579 55.9443L47.2934 54.8179L56.0757 31.2207H62.0801L52.1334 58.0783H41.4446L31.5557 31.2207H37.6223Z" fill="#FFFDF8"/>
<path d="M101.934 31.1943H109.467V36.4919H101.934C100.214 36.4919 98.8091 37.8779 98.8091 39.5851V58.0519H93.458V39.5851C93.458 34.9563 97.258 31.1943 101.934 31.1943Z" fill="#FFFDF8"/>
<path d="M116.76 57.0486C114.769 55.8562 113.289 54.2018 112.324 52.0854C111.356 49.969 110.871 47.5226 110.871 44.7374C110.871 41.9522 111.356 39.5146 112.324 37.4158C113.293 35.317 114.769 33.6626 116.76 32.4526C118.751 31.2426 121.204 30.6354 124.129 30.6354C127.053 30.6354 129.436 31.2294 131.387 32.4262C133.342 33.6186 134.809 35.2642 135.796 37.363C136.782 39.4618 137.276 41.9214 137.276 44.7418C137.276 47.5622 136.791 49.9778 135.822 52.0898C134.853 54.2062 133.382 55.8606 131.413 57.053C129.44 58.2454 127.013 58.8438 124.129 58.8438C121.244 58.8438 118.751 58.2498 116.76 57.053V57.0486ZM113.116 68.8274C111.8 67.833 111.009 66.535 111.004 64.9202C111.004 63.0458 111.813 61.6114 112.693 59.8998C112.893 59.5126 113.129 59.121 113.391 58.725L116.516 53.951L121.72 55.359L118.924 59.5918C118.68 59.9438 117.702 61.453 117.533 61.7698C116.938 62.8786 116.8 63.763 117.111 64.423C117.511 65.2722 118.627 65.699 120.453 65.699H137.547V70.3102H118.538C116.236 70.3102 114.427 69.813 113.116 68.8186V68.8274ZM129.898 52.1382C131.204 50.387 131.858 47.9186 131.858 44.733C131.858 41.5474 131.204 39.0922 129.898 37.3586C128.591 35.625 126.649 34.7626 124.08 34.7626C121.511 34.7626 119.556 35.6382 118.231 37.3894C116.907 39.1406 116.262 41.5914 116.302 44.733C116.302 47.9186 116.964 50.387 118.293 52.1382C119.622 53.8894 121.551 54.765 124.084 54.765C126.618 54.765 128.596 53.8894 129.902 52.1382H129.898ZM140.569 32.2106L132.951 39.3694L129.444 35.6822L137.004 28.5234L140.564 32.2106H140.569Z" fill="#FFFDF8"/>
<path d="M198.133 58.7734L184.044 57.6602L183.538 53.6737C183.449 52.9829 182.938 52.4154 182.249 52.2526L178.124 51.2845C177.564 51.1525 177.111 50.7478 176.92 50.211L176.867 50.0613C176.68 49.5377 176.769 48.9525 177.102 48.5081L179.573 45.2126C179.995 44.6494 180.018 43.8881 179.631 43.3029L177.347 39.8225C177.044 39.3649 176.991 38.7885 177.195 38.2825L177.235 38.1813C177.458 37.6357 177.951 37.2485 178.538 37.1561L182.68 36.5005C183.378 36.3905 183.929 35.8625 184.071 35.1805L184.902 31.0929C185.018 30.5297 185.413 30.0677 185.955 29.8609L186.044 29.8301C186.564 29.6321 187.151 29.7025 187.609 30.0149L191.142 32.4261C191.724 32.8221 192.493 32.8221 193.071 32.4217L196.395 30.1249C196.889 29.7861 197.524 29.7289 198.071 29.9753L198.204 30.037C198.733 30.279 199.102 30.7761 199.173 31.3481L199.68 35.3257C199.769 36.0165 200.28 36.5842 200.969 36.747L205.133 37.7237C205.698 37.8557 206.151 38.2605 206.342 38.8017L206.378 38.9029C206.56 39.4265 206.471 40.0029 206.138 40.4473L203.635 43.7957C203.218 44.3545 203.191 45.1069 203.569 45.6921L205.831 49.1945C206.115 49.6345 206.178 50.1845 205.991 50.6773C205.782 51.2361 205.293 51.6409 204.702 51.7465L200.507 52.4858C199.822 52.6046 199.284 53.1281 199.147 53.8013L198.307 57.9154C198.195 58.4566 197.822 58.9098 197.311 59.1254L197.231 59.1606C196.698 59.385 196.084 59.3234 195.609 58.9978L192.071 56.5821C191.489 56.1861 190.72 56.1862 190.142 56.5866L186.813 58.8878C186.315 59.231 185.671 59.2838 185.124 59.0286L184.995 58.9714C184.471 58.7294 184.111 58.2365 184.04 57.6645L198.133 58.7734ZM181.347 50.0394L184.031 50.6686C184.715 50.8314 185.231 51.3945 185.32 52.0897L185.609 54.347C185.769 55.5966 187.213 56.2302 188.253 55.5086L190.138 54.2061C190.715 53.8057 191.484 53.8058 192.067 54.2018L194.338 55.7505C195.338 56.4325 196.715 55.8826 196.955 54.7034L197.484 52.1073C197.622 51.4209 198.178 50.8973 198.875 50.7873L201.475 50.3781C202.684 50.1889 203.293 48.8293 202.627 47.8129L201.191 45.6261C200.809 45.0409 200.831 44.2798 201.249 43.721L202.84 41.5913C203.56 40.6277 203.049 39.2461 201.871 38.9689L199.187 38.3397C198.502 38.1769 197.987 37.6138 197.898 36.9186L197.613 34.6613C197.453 33.4117 196.009 32.7781 194.969 33.4997L193.084 34.8021C192.507 35.2025 191.738 35.2025 191.155 34.8065L188.884 33.2578C187.884 32.5758 186.507 33.1257 186.267 34.3049L185.738 36.901C185.6 37.5874 185.044 38.111 184.347 38.221L181.751 38.6302C180.542 38.8194 179.933 40.1789 180.6 41.1953L182.035 43.3821C182.418 43.9673 182.395 44.7285 181.978 45.2873L180.387 47.417C179.667 48.3806 180.173 49.7622 181.355 50.0394H181.347Z" fill="#A9FE4B"/>
<path d="M196.569 59.4862C196.191 59.4862 195.818 59.3762 195.498 59.1562L191.96 56.7406C191.449 56.393 190.769 56.393 190.262 56.745L186.933 59.0462C186.378 59.429 185.658 59.4906 185.045 59.2046L184.916 59.1474C184.325 58.8746 183.925 58.329 183.845 57.6866L183.338 53.7002C183.262 53.093 182.805 52.5914 182.2 52.4462L178.076 51.4782C177.449 51.333 176.942 50.8842 176.729 50.2814L176.676 50.1318C176.467 49.5422 176.565 48.8954 176.942 48.3938L179.413 45.0982C179.782 44.6054 179.805 43.9278 179.467 43.413L177.182 39.9326C176.845 39.4222 176.782 38.7754 177.013 38.2122L177.053 38.111C177.302 37.5082 177.858 37.0682 178.507 36.967L182.649 36.3114C183.258 36.2146 183.751 35.7482 183.876 35.1454L184.707 31.0578C184.836 30.4242 185.276 29.9094 185.885 29.6806L185.969 29.6498C186.551 29.4298 187.205 29.509 187.716 29.8566L191.249 32.2678C191.76 32.6154 192.44 32.6154 192.947 32.2634L196.271 29.9666C196.818 29.5882 197.538 29.5222 198.142 29.7994L198.276 29.861C198.876 30.1338 199.28 30.6838 199.36 31.3262L199.867 35.3038C199.942 35.911 200.4 36.4126 201 36.5578L205.165 37.5346C205.796 37.6842 206.302 38.133 206.516 38.7402L206.551 38.8414C206.756 39.4266 206.658 40.0734 206.285 40.5706L203.782 43.919C203.418 44.4074 203.396 45.0806 203.725 45.591L205.987 49.0934C206.302 49.5862 206.373 50.2066 206.169 50.7522C205.938 51.3726 205.387 51.8302 204.729 51.9446L200.533 52.6838C199.925 52.7894 199.453 53.247 199.333 53.8454L198.493 57.9594C198.369 58.5666 197.956 59.0682 197.378 59.3102L197.298 59.3454C197.058 59.4466 196.805 59.495 196.556 59.495L196.569 59.4862ZM191.111 56.0806C191.489 56.0806 191.862 56.1906 192.182 56.4106L195.72 58.8262C196.142 59.1166 196.676 59.1694 197.151 58.9714L197.231 58.9362C197.685 58.747 198.013 58.3466 198.111 57.8714L198.951 53.7574C199.107 52.9962 199.702 52.4198 200.476 52.2834L204.671 51.5442C205.191 51.4518 205.627 51.091 205.809 50.6026C205.969 50.1714 205.916 49.683 205.667 49.2958L203.405 45.7934C202.987 45.1422 203.013 44.293 203.476 43.6726L205.978 40.3242C206.271 39.9326 206.351 39.4222 206.187 38.9602L206.151 38.859C205.982 38.3794 205.587 38.023 205.085 37.9086L200.92 36.9318C200.156 36.7514 199.578 36.1134 199.48 35.3434L198.973 31.3658C198.907 30.8554 198.587 30.4242 198.116 30.2086L197.982 30.147C197.502 29.927 196.938 29.9798 196.507 30.279L193.182 32.5758C192.538 33.0202 191.671 33.0246 191.027 32.5846L187.493 30.1734C187.089 29.8962 186.573 29.8346 186.116 30.0106L186.031 30.0414C185.551 30.2218 185.205 30.631 185.102 31.1282L184.271 35.2158C184.116 35.977 183.489 36.571 182.716 36.6942L178.573 37.3498C178.062 37.429 177.622 37.7766 177.427 38.2518L177.387 38.353C177.205 38.7974 177.253 39.3078 177.52 39.7126L179.805 43.193C180.231 43.8442 180.205 44.7022 179.738 45.327L177.267 48.6226C176.969 49.0186 176.893 49.529 177.058 49.991L177.111 50.1406C177.28 50.6158 177.676 50.9678 178.173 51.0866L182.298 52.0546C183.062 52.235 183.64 52.873 183.738 53.643L184.245 57.6294C184.307 58.1354 184.622 58.5622 185.089 58.7822L185.218 58.8394C185.698 59.0638 186.271 59.0154 186.707 58.7162L190.036 56.415C190.36 56.1906 190.738 56.0806 191.12 56.0806H191.111ZM195.293 56.2434C194.916 56.2434 194.542 56.129 194.222 55.9134L191.951 54.3646C191.44 54.017 190.76 54.0214 190.253 54.369L188.369 55.6714C187.822 56.0498 187.129 56.1158 186.52 55.8474C185.911 55.579 185.493 55.0246 185.413 54.369L185.125 52.1118C185.049 51.5046 184.591 51.003 183.991 50.8578L181.307 50.2286C180.689 50.0834 180.187 49.6434 179.969 49.0494C179.751 48.4554 179.845 47.7998 180.227 47.2938L181.818 45.1642C182.187 44.6714 182.205 43.9938 181.871 43.4834L180.436 41.2966C180.085 40.7642 180.031 40.0998 180.293 39.519C180.556 38.9382 181.089 38.529 181.725 38.4322L184.325 38.023C184.933 37.9262 185.427 37.4598 185.551 36.857L186.08 34.261C186.205 33.6406 186.636 33.1302 187.227 32.897C187.818 32.6594 188.485 32.7342 189.009 33.0906L191.28 34.6394C191.791 34.987 192.471 34.987 192.978 34.635L194.862 33.3326C195.409 32.9542 196.102 32.8882 196.711 33.1566C197.32 33.425 197.738 33.9794 197.818 34.635L198.102 36.8922C198.178 37.4994 198.636 38.001 199.236 38.1462L201.92 38.7754C202.542 38.9206 203.04 39.3606 203.258 39.9546C203.476 40.5486 203.382 41.2042 203.005 41.7102L201.413 43.8398C201.045 44.3326 201.027 45.0058 201.36 45.5206L202.796 47.7074C203.147 48.2398 203.2 48.9042 202.938 49.485C202.676 50.0658 202.142 50.475 201.507 50.5718L198.907 50.981C198.298 51.0778 197.805 51.5442 197.68 52.147L197.151 54.743C197.027 55.3634 196.596 55.8738 196.005 56.107C195.773 56.1994 195.533 56.2434 195.293 56.2434ZM191.107 53.709C191.485 53.709 191.858 53.819 192.178 54.039L194.449 55.5878C194.862 55.8694 195.387 55.9266 195.853 55.7418C196.32 55.557 196.658 55.1522 196.756 54.6638L197.285 52.0678C197.44 51.3066 198.067 50.7126 198.84 50.5894L201.44 50.1802C201.942 50.101 202.36 49.7798 202.569 49.3222C202.773 48.8646 202.733 48.341 202.458 47.9186L201.022 45.7318C200.596 45.0806 200.622 44.2226 201.089 43.5978L202.68 41.4682C202.978 41.0678 203.053 40.5486 202.88 40.0822C202.707 39.6158 202.311 39.2682 201.822 39.1538L199.138 38.5246C198.373 38.3442 197.796 37.7062 197.698 36.9362L197.413 34.679C197.347 34.1598 197.022 33.7242 196.538 33.513C196.053 33.3018 195.511 33.3546 195.08 33.6538L193.196 34.9562C192.551 35.4006 191.685 35.405 191.04 34.9606L188.769 33.4118C188.356 33.1302 187.831 33.073 187.365 33.2578C186.898 33.4426 186.56 33.8474 186.462 34.3358L185.933 36.9318C185.778 37.693 185.151 38.287 184.378 38.4102L181.778 38.8194C181.28 38.8986 180.858 39.2198 180.649 39.6774C180.445 40.135 180.485 40.6586 180.76 41.081L182.196 43.2678C182.622 43.919 182.596 44.777 182.129 45.4018L180.538 47.5314C180.24 47.9318 180.165 48.451 180.338 48.9174C180.511 49.3838 180.907 49.7314 181.396 49.8458L184.08 50.475C184.845 50.6554 185.422 51.2934 185.52 52.0634L185.809 54.3206C185.876 54.8398 186.2 55.2754 186.685 55.4866C187.165 55.6978 187.711 55.645 188.142 55.3458L190.027 54.0434C190.351 53.819 190.729 53.709 191.111 53.709H191.107Z" fill="#A9FE4B"/>
<path d="M146.013 46.8582C147.191 51.3286 150.773 54.193 154.942 54.193C158.129 54.193 161.124 52.543 162.693 49.6742H167.796C165.684 55.2094 160.587 58.8042 154.747 58.8042C147.093 58.8042 140.911 52.103 140.911 44.9134C140.911 36.4126 147.387 30.4902 154.6 30.4902C162.596 30.4902 168.68 36.6106 168.68 44.3326C168.68 45.1598 168.68 45.9342 168.533 46.8582H146.018H146.013ZM163.578 42.973C163.187 38.4058 159.111 35.1058 154.747 35.1058C150.382 35.1058 146.409 38.3574 146.013 42.973H163.578Z" fill="#FFFDF8"/>
<path d="M67.1867 46.8582C68.3645 51.3286 71.9467 54.193 76.1156 54.193C79.3022 54.193 82.2978 52.543 83.8667 49.6742H88.9689C86.8578 55.2094 81.76 58.8042 75.92 58.8042C68.2667 58.8042 62.0845 52.103 62.0845 44.9134C62.0845 36.4126 68.56 30.4902 75.7734 30.4902C83.7689 30.4902 89.8534 36.6106 89.8534 44.3326C89.8534 45.1598 89.8534 45.9342 89.7067 46.8582H67.1911H67.1867ZM84.7467 42.973C84.3556 38.4058 80.28 35.1058 75.9156 35.1058C71.5511 35.1058 67.5778 38.3574 67.1823 42.973H84.7467Z" fill="#FFFDF8"/>
<path d="M41.4268 63.292H47.3824C48.7468 63.292 49.6313 63.5472 50.1113 64.0708C50.5513 64.5592 50.7246 65.36 50.7246 66.9264C50.7246 68.4928 50.5201 69.2892 49.969 69.7908C49.5201 70.2044 48.7557 70.398 47.5513 70.398H41.4224V63.2964L41.4268 63.292ZM47.1913 69.0956C47.7735 69.0956 48.169 69.0208 48.4579 68.8624C48.8801 68.638 49.049 68.0968 49.049 67.0012C49.049 65.03 48.7379 64.6384 47.1868 64.6384H43.0801V69.1H47.1868L47.1913 69.0956Z" fill="#FFFDF8"/>
<path d="M53.8804 63.292H55.5381V70.3936H53.8804V63.292Z" fill="#FFFDF8"/>
<path d="M67.8891 66.5921V67.3489C67.8891 68.6469 67.8135 69.1177 67.5557 69.5841C67.3424 69.9669 66.9868 70.2001 66.4268 70.3409C66.0402 70.4377 65.4268 70.4597 63.2668 70.4597C61.3646 70.4597 60.4402 70.3981 59.9957 70.2265C59.3068 69.9713 58.9513 69.5533 58.8002 68.8009C58.7157 68.3961 58.6802 67.9297 58.6802 66.9177C58.6802 65.0433 58.8002 64.4493 59.2624 63.9477C59.5646 63.6265 59.9824 63.4373 60.5513 63.3625C61.218 63.2657 61.9824 63.2349 64.0891 63.2349C66.1957 63.2349 66.938 63.3845 67.3913 63.8949C67.7024 64.2381 67.8535 64.7881 67.8535 65.5757H66.2313C66.218 65.1313 66.1646 64.9597 65.9602 64.7969C65.6802 64.5725 65.3157 64.5329 63.9157 64.5329C61.3246 64.5329 60.9246 64.5725 60.6446 64.9069C60.418 65.1621 60.3424 65.6329 60.3424 66.7373C60.3424 68.1233 60.4268 68.5985 60.7291 68.8537C61.0402 69.1309 61.4491 69.1837 63.3957 69.1837C65.5246 69.1837 65.7513 69.1397 66.0713 68.6821C66.2091 68.5017 66.2624 68.1585 66.2624 67.6701H63.0713V66.5965H67.8757L67.8891 66.5921Z" fill="#FFFDF8"/>
<path d="M71.0181 63.292H72.6758V70.3936H71.0181V63.292Z" fill="#FFFDF8"/>
<path d="M78.7826 64.6252H75.4048V63.2964H83.8003V64.6252H80.4359V70.3936H78.7826V64.6252Z" fill="#FFFDF8"/>
<path d="M87.0225 68.9856L86.227 70.3892H84.3647L88.4714 63.2876H90.7203L94.7647 70.3892H92.9603L92.1425 68.9856H87.0225ZM89.5781 64.4404L87.6536 67.8372H91.5247L89.5781 64.4404Z" fill="#FFFDF8"/>
<path d="M97.0757 63.292H98.7335V69.0604H103.969V70.3892H97.0757V63.2876V63.292Z" fill="#FFFDF8"/>
</svg>
