<svg width="62" height="61" viewBox="0 0 62 61" fill="none" xmlns="http://www.w3.org/2000/svg">
<g clip-path="url(#clip0_83_2991)">
<path d="M51.0226 0.266602H10.9795C4.90761 0.266602 0 5.13754 0 11.164V49.3692C0 55.3957 4.90761 60.2666 10.9795 60.2666H51.0226C57.0944 60.2666 62.002 55.3957 62.002 49.3692V11.164C62.002 5.13754 57.0944 0.266602 51.0226 0.266602ZM41.7228 22.1557C38.3392 22.0534 38.3392 17.2206 41.7228 17.1183C45.1063 17.2206 45.1063 22.0534 41.7228 22.1557ZM31.0243 40.51C25.3324 40.51 20.7037 35.9139 20.7037 30.2666C20.7037 24.6193 25.3344 20.0232 31.0243 20.0232C36.7141 20.0232 41.3448 24.6193 41.3448 30.2666C41.3448 35.9139 36.7141 40.51 31.0243 40.51ZM31.0243 23.4617C27.2445 23.4617 24.1682 26.5131 24.1682 30.2666C24.1682 34.0201 27.2425 37.0715 31.0243 37.0715C34.806 37.0715 37.8804 34.0201 37.8804 30.2666C37.8804 26.5131 34.804 23.4617 31.0243 23.4617ZM38.9496 50.8136H23.0504C16.0185 50.8136 10.2963 45.1362 10.2963 38.1548V22.3744C10.2963 15.395 16.0164 9.71558 23.0504 9.71558H38.9496C45.9816 9.71558 51.7037 15.393 51.7037 22.3744V38.1548C51.7037 45.1342 45.9836 50.8136 38.9496 50.8136ZM23.1798 13.4611C18.1569 13.4611 14.07 17.5175 14.07 22.5028V38.0264C14.07 43.0117 18.1569 47.0681 23.1798 47.0681H38.8202C43.8431 47.0681 47.93 43.0117 47.93 38.0264V22.5028C47.93 17.5175 43.8431 13.4611 38.8202 13.4611H23.1798Z" fill="white"/>
</g>
<defs>
<clipPath id="clip0_83_2991">
<rect width="62" height="60" fill="white" transform="translate(0 0.266602)"/>
</clipPath>
</defs>
</svg>
