<svg width="440" height="128" viewBox="0 0 440 128" fill="none" xmlns="http://www.w3.org/2000/svg">
<path d="M95.5312 84.5291C92.7766 83.9047 89.8127 83.5304 87.1047 84.4865C84.4568 85.4212 82.0783 87.3354 81.2971 90.132C80.6089 92.5969 81.2079 95.4109 82.9622 97.2921C85.0325 99.5127 88.3298 99.6019 90.8886 98.2404C93.331 96.9411 96.3279 93.1302 97.8263 90.8844L101.911 86.2726C102.841 85.2215 103.708 84.1122 104.485 82.9427C106.456 79.9677 108.156 76.8143 109.663 73.5814C111.628 69.3614 113.324 65.0075 114.714 60.5644C115.821 57.027 116.738 53.4295 118.012 49.9444C118.343 49.0368 118.698 48.1389 119.074 47.2487C118.989 47.4524 118.903 47.6541 118.818 47.8577C120.406 44.1108 122.286 40.3717 124.773 37.1349L124.376 37.6508C125.463 36.2467 126.68 34.9454 128.084 33.8535L127.568 34.2511C128.52 33.52 129.543 32.8974 130.646 32.4223C130.443 32.5076 130.241 32.5929 130.038 32.6783C130.984 32.2807 131.968 31.9976 132.984 31.8521C132.759 31.8831 132.533 31.9122 132.308 31.9433C133.244 31.8191 134.184 31.8172 135.12 31.9394C134.896 31.9083 134.669 31.8793 134.444 31.8482C135.388 31.9801 136.305 32.2303 137.183 32.5988L136.574 32.3428C137.408 32.7016 138.189 33.1573 138.908 33.71C138.736 33.5781 138.565 33.4443 138.393 33.3125C139.052 33.8283 139.643 34.414 140.16 35.0715L139.763 34.5556C140.277 35.2208 140.703 35.9422 141.033 36.716C140.947 36.5124 140.862 36.3107 140.777 36.1071C141.07 36.813 141.275 37.5441 141.393 38.2986C141.486 38.8881 142.07 39.532 142.562 39.819C143.107 40.139 143.911 40.2728 144.522 40.075C145.138 39.8753 145.732 39.4932 146.042 38.9056C146.381 38.2636 146.412 37.6586 146.298 36.9449C145.561 32.2885 141.771 28.5494 137.334 27.2616C135.033 26.5945 132.538 26.6003 130.232 27.2267C127.925 27.8531 125.663 29.1952 123.777 30.8223C121.999 32.3563 120.516 34.2356 119.211 36.1769C117.895 38.1376 116.781 40.234 115.749 42.3557C113.89 46.184 112.479 50.1636 111.281 54.2401C110.041 58.4641 108.761 62.657 107.114 66.7432C106.9 67.2707 106.685 67.7963 106.464 68.3219C106.549 68.1182 106.635 67.9165 106.72 67.7129C105.202 71.3124 103.485 74.8381 101.465 78.1835C100.699 79.4519 99.8385 80.662 98.9061 81.816L95.8569 85.59C95.1241 86.7419 94.4592 87.861 93.5927 88.9179C93.081 89.5424 93.3717 89.1312 91.945 90.8049C91.852 90.9135 91.7686 91.0299 91.6853 91.1443C91.6019 91.2587 91.3519 91.5244 91.2685 91.6388C91.1638 91.7765 91.2007 91.73 91.3751 91.4992C91.3034 91.5904 91.2317 91.6796 91.158 91.7688C90.7917 92.2129 90.404 92.6415 89.9891 93.041C89.7856 93.2369 89.5704 93.4192 89.3572 93.6054C89.206 93.7372 89.2157 93.8536 89.4444 93.5433C89.3611 93.6558 89.1633 93.745 89.0432 93.8245C88.8202 93.97 88.5837 94.0883 88.3531 94.224C87.8898 94.4975 88.8532 94.0611 88.3511 94.2337C88.2542 94.2667 88.1592 94.3016 88.0623 94.3326C87.9169 94.3772 87.7696 94.4063 87.6242 94.4451C87.3044 94.5304 87.6649 94.3171 87.8084 94.4277C87.7638 94.3927 87.4245 94.447 87.3567 94.4451L87.2055 94.4393C86.9457 94.416 87.002 94.4277 87.378 94.4723C87.3819 94.4897 86.6627 94.2667 86.6356 94.2706C86.936 94.2201 87.0872 94.511 86.7829 94.319C86.6937 94.2628 86.5968 94.2066 86.5057 94.1542C86.1897 93.9777 86.6472 94.2512 86.6744 94.2958C86.6162 94.2046 86.4689 94.1174 86.3913 94.0378C86.3312 93.9777 86.277 93.9118 86.2169 93.8497C85.9397 93.5705 86.5387 94.3423 86.2033 93.8129C86.0948 93.6422 86.025 93.3862 85.8932 93.2408C85.9222 93.2737 86.0928 93.8012 85.9823 93.4405C85.9494 93.3338 85.9106 93.2311 85.8796 93.1244C85.8176 92.9091 85.7885 92.688 85.7323 92.4728C85.6528 92.1644 85.773 93.1108 85.7613 92.6337C85.7575 92.498 85.7458 92.3642 85.7458 92.2284C85.7458 92.0054 85.7924 91.7746 85.7846 91.5535C85.8079 92.1722 85.7361 91.8929 85.7904 91.6505C85.8098 91.5632 85.8311 91.4759 85.8563 91.3887C85.8932 91.2587 85.9397 91.1327 85.9804 91.0047C86.0599 90.7564 86.1238 90.9698 85.897 91.1986C86.0579 91.0357 86.1975 90.6614 86.3274 90.4617C86.5774 90.0738 86.246 90.5722 86.244 90.5644C86.2324 90.5179 86.5212 90.2522 86.5561 90.2134C86.653 90.1126 87.0116 89.6762 87.1318 89.6859C87.0795 89.682 86.7344 89.9613 87.0272 89.7732C87.159 89.6878 87.2869 89.5967 87.4207 89.5152C87.6688 89.364 87.9305 89.2418 88.1883 89.108C88.4926 88.9489 87.6339 89.3058 88.136 89.1293C88.262 89.0847 88.386 89.0362 88.512 88.9955C88.766 88.9102 89.0238 88.8384 89.2855 88.7744C89.522 88.7182 89.7604 88.6774 89.9969 88.6309C90.5532 88.5242 89.4444 88.6755 90.0085 88.6309C90.1694 88.6193 90.3303 88.6037 90.4912 88.596C91.0805 88.5669 91.6659 88.6018 92.2513 88.6542C92.891 88.7123 91.9257 88.5863 92.3153 88.6619C92.4781 88.693 92.6448 88.7162 92.8076 88.7472C93.2012 88.8209 93.5908 88.9102 93.9785 89.011L111.555 97.55C113.553 98.4208 115.587 99.2024 117.686 99.7997C119.748 100.387 121.848 100.777 123.974 101.031C127.855 101.495 131.829 101.237 135.624 100.298C140.234 99.1578 144.568 96.9585 148.37 94.1329C148.92 93.7237 149.351 93.2989 149.539 92.6124C149.707 92.0034 149.63 91.1909 149.283 90.6517C148.932 90.1087 148.411 89.6297 147.763 89.4823C147.116 89.3349 146.34 89.3388 145.803 89.7383C143.448 91.4876 140.914 92.9906 138.21 94.1329C138.414 94.0475 138.615 93.9622 138.819 93.8769C136.334 94.9164 133.732 95.6378 131.063 95.9985C131.288 95.9675 131.515 95.9384 131.74 95.9074C129.006 96.2662 126.242 96.241 123.511 95.8802C123.736 95.9113 123.963 95.9404 124.187 95.9714C120.671 95.4943 117.256 94.4742 113.989 93.0973C114.193 93.1826 114.394 93.2679 114.598 93.3532C112.537 92.4786 110.025 91.2258 107.964 90.0524C107.333 89.6917 104.33 88.2702 103.671 87.9618C101.019 86.7226 96.9249 84.8356 95.5292 84.5194L95.5312 84.5291Z" fill="#FFFDF8"/>
<path d="M275.999 43.4709C278.753 44.0954 281.717 44.4697 284.425 43.5136C287.073 42.5788 289.451 40.6646 290.233 37.8681C290.921 35.4031 290.322 32.5891 288.568 30.7079C286.497 28.4874 283.2 28.3982 280.641 29.7596C278.199 31.059 275.202 34.8698 273.703 37.1156L269.619 41.7274C268.689 42.7786 267.822 43.8879 267.045 45.0573C265.073 48.0323 263.373 51.1857 261.867 54.4186C259.902 58.6387 258.205 62.9926 256.815 67.4356C255.709 70.973 254.792 74.5706 253.518 78.0556C253.187 78.9632 252.832 79.8611 252.456 80.7513C252.541 80.5477 252.626 80.346 252.712 80.1424C251.124 83.8892 249.244 87.6283 246.757 90.8651C246.889 90.6925 247.022 90.5218 247.154 90.3492C246.067 91.7533 244.849 93.0546 243.446 94.1465C243.618 94.0146 243.789 93.8808 243.962 93.7489C243.01 94.4801 241.986 95.1026 240.883 95.5778C241.087 95.4924 241.288 95.4071 241.492 95.3218C240.546 95.7193 239.561 96.0025 238.545 96.1479C238.77 96.1169 238.997 96.0878 239.222 96.0568C238.286 96.1809 237.346 96.1828 236.409 96.0607C236.634 96.0917 236.861 96.1208 237.086 96.1518C236.142 96.0199 235.225 95.7698 234.347 95.4013C234.55 95.4866 234.752 95.5719 234.955 95.6573C234.122 95.2985 233.341 94.8427 232.622 94.29L233.137 94.6876C232.478 94.1717 231.887 93.586 231.369 92.9286L231.767 93.4445C231.253 92.7793 230.827 92.0578 230.497 91.284C230.582 91.4876 230.668 91.6893 230.753 91.893C230.46 91.187 230.255 90.4559 230.136 89.7015C230.043 89.1119 229.46 88.468 228.968 88.181C228.423 87.861 227.618 87.7272 227.008 87.925C226.391 88.1248 225.798 88.5068 225.488 89.0945C225.149 89.7364 225.118 90.3415 225.232 91.0552C225.969 95.7116 229.758 99.4507 234.196 100.738C236.497 101.406 238.991 101.4 241.298 100.773C243.605 100.147 245.867 98.8049 247.753 97.1777C249.531 95.6437 251.014 93.7645 252.318 91.8232C253.634 89.8624 254.749 87.766 255.78 85.6443C257.639 81.816 259.051 77.8364 260.249 73.7599C261.489 69.536 262.769 65.3431 264.416 61.2568C264.629 60.7293 264.845 60.2037 265.066 59.6782C264.98 59.8818 264.895 60.0835 264.81 60.2871C266.328 56.6877 268.045 53.1619 270.065 49.8165C270.831 48.5482 271.691 47.338 272.624 46.1841L275.673 42.4101C276.406 41.2581 277.07 40.1391 277.937 39.0821C278.449 38.4577 278.158 38.8688 279.585 37.1951C279.678 37.0865 279.761 36.9702 279.844 36.8557C279.928 36.7413 280.178 36.4756 280.261 36.3612C280.366 36.2235 280.329 36.27 280.155 36.5008C280.226 36.4097 280.298 36.3205 280.372 36.2313C280.738 35.7871 281.126 35.3585 281.541 34.959C281.744 34.7632 281.959 34.5809 282.173 34.3947C282.324 34.2628 282.314 34.1464 282.085 34.4567C282.169 34.3443 282.366 34.255 282.487 34.1755C282.709 34.0301 282.946 33.9118 283.177 33.776C283.64 33.5026 282.677 33.9389 283.179 33.7663C283.276 33.7334 283.37 33.6985 283.467 33.6674C283.613 33.6228 283.76 33.5937 283.906 33.5549C284.225 33.4696 283.865 33.6829 283.721 33.5724C283.766 33.6073 284.105 33.553 284.173 33.5549L284.324 33.5608C284.584 33.584 284.528 33.5724 284.152 33.5278C284.148 33.5103 284.867 33.7334 284.894 33.7295C284.594 33.7799 284.442 33.489 284.747 33.681C284.836 33.7372 284.933 33.7935 285.024 33.8458C285.34 34.0223 284.882 33.7489 284.855 33.7043C284.914 33.7954 285.061 33.8827 285.138 33.9622C285.198 34.0223 285.253 34.0883 285.313 34.1503C285.59 34.4296 284.991 33.6577 285.326 34.1872C285.435 34.3578 285.505 34.6138 285.637 34.7593C285.607 34.7263 285.437 34.1988 285.547 34.5595C285.58 34.6662 285.619 34.769 285.65 34.8756C285.712 35.0909 285.741 35.312 285.797 35.5273C285.877 35.8356 285.757 34.8892 285.768 35.3663C285.772 35.5021 285.784 35.6359 285.784 35.7716C285.784 35.9947 285.737 36.2254 285.745 36.4465C285.722 35.8279 285.794 36.1071 285.739 36.3496C285.72 36.4368 285.699 36.5241 285.673 36.6114C285.637 36.7413 285.59 36.8674 285.549 36.9954C285.47 37.2436 285.406 37.0303 285.633 36.8014C285.472 36.9643 285.332 37.3386 285.202 37.5384C284.952 37.9263 285.284 37.4278 285.286 37.4356C285.297 37.4821 285.008 37.7478 284.974 37.7866C284.877 37.8875 284.518 38.3238 284.398 38.3141C284.45 38.318 284.795 38.0387 284.503 38.2269C284.371 38.3122 284.243 38.4033 284.109 38.4848C283.861 38.6361 283.599 38.7583 283.341 38.8921C283.037 39.0511 283.896 38.6943 283.394 38.8707C283.268 38.9153 283.144 38.9638 283.018 39.0045C282.764 39.0899 282.506 39.1616 282.244 39.2256C282.008 39.2819 281.769 39.3226 281.533 39.3692C280.976 39.4758 282.085 39.3245 281.521 39.3692C281.36 39.3808 281.199 39.3963 281.039 39.4041C280.449 39.4331 279.864 39.3982 279.278 39.3459C278.639 39.2877 279.604 39.4138 279.214 39.3381C279.052 39.3071 278.885 39.2838 278.722 39.2528C278.329 39.1791 277.939 39.0899 277.551 38.989L259.975 30.45C257.977 29.5792 255.943 28.7977 253.844 28.2004C251.744 27.603 249.682 27.2229 247.555 26.9689C243.675 26.5053 239.701 26.7633 235.905 27.7019C231.296 28.8423 226.961 31.0415 223.16 33.8672C222.609 34.2764 222.179 34.7011 221.991 35.3876C221.822 35.9966 221.9 36.8092 222.247 37.3483C222.594 37.8875 223.119 38.3704 223.767 38.5178C224.414 38.6652 225.189 38.6613 225.726 38.2618C228.082 36.5125 230.615 35.0095 233.319 33.8672C233.116 33.9525 232.914 34.0378 232.711 34.1232C235.196 33.0837 237.797 32.3622 240.467 32.0015C240.242 32.0325 240.015 32.0616 239.79 32.0927C242.523 31.7339 245.287 31.7591 248.019 32.1198C247.794 32.0888 247.567 32.0597 247.342 32.0287C250.859 32.5057 254.274 33.5258 257.54 34.9028C257.337 34.8175 257.135 34.7321 256.932 34.6468C258.992 35.5215 261.505 36.7743 263.565 37.9476C264.197 38.3083 267.2 39.7299 267.859 40.0382C270.511 41.2775 274.605 43.1645 276 43.4806L275.999 43.4709Z" fill="#FFFDF8"/>
<path d="M44.4897 65.9094C46.1567 67.1312 47.3915 68.7544 48.1921 70.7791C48.9947 72.8038 49.394 75.0263 49.394 77.4447C49.394 79.8631 48.9927 82.233 48.1921 84.2441C47.3896 86.2552 46.1626 87.8533 44.5071 89.0382C42.8517 90.2212 40.7911 90.8147 38.3215 90.8147H28.3946C28.1911 90.8147 28.0127 90.739 27.8596 90.5858C27.7065 90.4326 27.6309 90.2542 27.6309 90.0506V64.8408C27.6309 64.6371 27.7065 64.4587 27.8596 64.3055C28.0127 64.1523 28.1911 64.0767 28.3946 64.0767H38.3215C40.7639 64.0767 42.8207 64.6876 44.4877 65.9094H44.4897ZM45.3484 86.0206C46.9767 83.8427 47.7928 80.984 47.7928 77.4447C47.7928 75.2804 47.4419 73.3003 46.7422 71.5044C46.0424 69.7086 44.9607 68.2773 43.4972 67.2068C42.0336 66.1382 40.1824 65.6029 37.9415 65.6029H29.2359V89.2845H37.9415C41.2505 89.2845 43.7201 88.1965 45.3484 86.0186V86.0206Z" fill="#FFFDF8"/>
<path d="M64.857 72.0204C64.857 72.2492 64.793 72.4412 64.667 72.5925C64.5391 72.7457 64.3743 72.8213 64.1708 72.8213C64.0952 72.8213 63.9091 72.7632 63.6164 72.6487C63.3237 72.5343 63.0116 72.4761 62.6801 72.4761C61.6353 72.4761 60.5924 72.8912 59.5495 73.7173C58.5046 74.5454 57.6537 75.5888 56.9907 76.8494C56.3278 78.11 55.9982 79.326 55.9982 80.4973V90.0468C55.9982 90.2504 55.9226 90.4288 55.7695 90.582C55.6163 90.7352 55.438 90.8109 55.2345 90.8109C55.0057 90.8109 54.8196 90.7352 54.6801 90.582C54.5405 90.4288 54.4707 90.2504 54.4707 90.0468V72.5149C54.4707 72.3113 54.5463 72.1329 54.6994 71.9797C54.8526 71.8264 55.0309 71.7508 55.2345 71.7508C55.4632 71.7508 55.6473 71.8264 55.7889 71.9797C55.9284 72.1329 55.9982 72.3113 55.9982 72.5149V76.5643C56.5836 75.0109 57.4928 73.7251 58.7276 72.7069C59.9624 71.6887 61.4201 71.1671 63.0988 71.1418C64.2696 71.1418 64.855 71.4347 64.855 72.0204H64.857Z" fill="#FFFDF8"/>
<path d="M76.5597 64.5343C76.6992 64.6875 76.769 64.866 76.769 65.0696V74.7334C76.769 74.9623 76.6934 75.1485 76.5403 75.2881C76.3871 75.4277 76.2088 75.4976 76.0053 75.4976C75.7765 75.4976 75.5904 75.4219 75.4509 75.2687C75.3113 75.1155 75.2415 74.939 75.2415 74.7334V73.4729C74.784 74.1594 74.185 74.7334 73.4465 75.1911C72.7079 75.6488 71.9054 75.8796 71.0409 75.8796C69.5385 75.8796 68.3735 75.2881 67.5477 74.1032C66.72 72.9201 66.3071 71.4229 66.3071 69.6155C66.3071 68.5217 66.5301 67.5209 66.9759 66.6172C67.4217 65.7135 68.0265 64.9998 68.7903 64.4781C69.5541 63.9564 70.407 63.6946 71.3491 63.6946C72.1884 63.6946 72.9522 63.8866 73.6403 64.2667C74.3285 64.6487 74.8616 65.1976 75.2434 65.9093V65.0677C75.2434 64.864 75.3132 64.6856 75.4528 64.5324C75.5924 64.3792 75.7765 64.3035 76.0072 64.3035C76.2379 64.3035 76.4201 64.3792 76.5616 64.5324L76.5597 64.5343ZM74.2684 73.1277C75.0186 72.2627 75.3946 71.0913 75.3946 69.6135C75.3946 68.2133 75.0438 67.1176 74.344 66.3282C73.6442 65.5389 72.7331 65.1452 71.6146 65.1452C70.5969 65.1452 69.7111 65.5719 68.9609 66.4252C68.2107 67.2785 67.8346 68.3413 67.8346 69.6155C67.8346 71.0157 68.1332 72.1677 68.7321 73.0714C69.3292 73.9752 70.1899 74.427 71.3084 74.427C72.5296 74.427 73.5163 73.9945 74.2665 73.1296L74.2684 73.1277Z" fill="#FFFDF8"/>
<path d="M117.316 70.2962C118.386 68.3103 119.844 66.7666 121.689 65.665C123.535 64.5635 125.574 64.0127 127.807 64.0127C129.823 64.0127 131.583 64.4083 133.087 65.1996C134.592 65.9908 135.793 66.976 136.693 68.1552V66.9411C136.693 65.5545 137.815 64.4316 139.201 64.4316H139.535C140.921 64.4316 142.043 65.5545 142.043 66.9411V87.4014C142.043 88.8792 140.845 90.0778 139.368 90.0778C137.891 90.0778 136.693 88.8792 136.693 87.4014V86.2611C135.793 87.4712 134.568 88.4797 133.018 89.2865C131.467 90.0933 129.699 90.4967 127.714 90.4967C125.512 90.4967 123.496 89.9304 121.666 88.7978C119.836 87.6652 118.386 86.0827 117.316 84.0502C116.246 82.0178 115.711 79.7138 115.711 77.1383C115.711 74.5628 116.246 72.2821 117.316 70.2962ZM135.6 72.6235C134.871 71.3202 133.917 70.3273 132.738 69.6446C131.56 68.9619 130.288 68.6206 128.924 68.6206C127.559 68.6206 126.287 68.9542 125.109 69.6213C123.93 70.2885 122.976 71.2659 122.247 72.5537C121.519 73.8414 121.154 75.3696 121.154 77.1383C121.154 78.907 121.519 80.4585 122.247 81.7928C122.976 83.1271 123.938 84.1433 125.132 84.8415C126.326 85.5396 127.59 85.8887 128.924 85.8887C130.257 85.8887 131.56 85.5474 132.738 84.8647C133.917 84.1821 134.871 83.1814 135.6 81.8626C136.328 80.5438 136.693 79.0001 136.693 77.2314C136.693 75.4627 136.328 73.9267 135.6 72.6235Z" fill="#FFFDF8"/>
<path d="M170.647 67.907L157.022 100.574C156.628 101.516 155.707 102.131 154.684 102.131C152.875 102.131 151.65 100.29 152.348 98.6207L156.093 89.6569L147.376 67.8721C146.717 66.2236 147.93 64.4297 149.704 64.4297H150.157C151.208 64.4297 152.146 65.0852 152.511 66.0704L159.117 83.9785L165.989 66.0413C166.361 65.0716 167.291 64.4297 168.331 64.4297C170.122 64.4297 171.335 66.2527 170.645 67.905L170.647 67.907Z" fill="#FFFDF8"/>
<path d="M188.215 70.2962C189.285 68.3103 190.743 66.7666 192.588 65.665C194.434 64.5635 196.473 64.0127 198.706 64.0127C200.722 64.0127 202.482 64.4083 203.986 65.1996C205.491 65.9908 206.692 66.976 207.592 68.1552V67.1079C207.592 65.6301 208.79 64.4316 210.267 64.4316C211.744 64.4316 212.942 65.6301 212.942 67.1079V87.4014C212.942 88.8792 211.744 90.0778 210.267 90.0778C208.79 90.0778 207.592 88.8792 207.592 87.4014V86.2611C206.692 87.4712 205.467 88.4797 203.916 89.2865C202.366 90.0933 200.598 90.4967 198.613 90.4967C196.411 90.4967 194.395 89.9304 192.565 88.7978C190.735 87.6652 189.285 86.0827 188.215 84.0502C187.145 82.0178 186.61 79.7138 186.61 77.1383C186.61 74.5628 187.145 72.2821 188.215 70.2962ZM206.498 72.6235C205.77 71.3202 204.816 70.3273 203.637 69.6446C202.459 68.9619 201.187 68.6206 199.822 68.6206C198.458 68.6206 197.186 68.9542 196.008 69.6213C194.829 70.2885 193.875 71.2659 193.146 72.5537C192.418 73.8414 192.053 75.3696 192.053 77.1383C192.053 78.907 192.418 80.4585 193.146 81.7928C193.875 83.1271 194.837 84.1433 196.031 84.8415C197.225 85.5396 198.489 85.8887 199.822 85.8887C201.156 85.8887 202.459 85.5474 203.637 84.8647C204.816 84.1821 205.77 83.1814 206.498 81.8626C207.227 80.5438 207.592 79.0001 207.592 77.2314C207.592 75.4627 207.227 73.9267 206.498 72.6235Z" fill="#FFFDF8"/>
<path d="M179.98 69.9625C182.72 68.3819 185.48 66.846 188.074 65.0307C192.761 61.7493 197.027 57.8861 200.743 53.5361C202.639 51.3175 204.413 48.9844 206.037 46.5621C206.819 45.3966 207.567 44.2097 208.278 42.9995C209.149 41.5217 210.015 39.9489 210.031 38.1841C210.046 36.3669 209.09 34.7863 207.588 33.8166C206.247 32.9517 204.578 32.7655 203.033 33.0234C200.04 33.5219 197.917 36.1361 196.031 38.283C188.219 47.1711 181.522 57.0502 176.204 67.6236C173.522 72.9588 171.172 78.4744 169.187 84.1082C168.226 86.835 166.931 90.1086 168.83 92.752C169.918 94.2647 171.604 95.1743 173.498 95.0482C177.098 94.8097 180.269 92.3311 182.948 90.1319C185.356 88.1557 187.581 85.9623 189.723 83.7048C189.997 83.4159 190.268 83.1269 190.541 82.838C191.406 81.9226 191.516 80.3323 190.541 79.4363C189.605 78.5752 188.064 78.4589 187.141 79.4363C185.443 81.236 183.722 83.0125 181.898 84.6842C181.277 85.2525 180.647 85.811 180.004 86.3521C179.701 86.6061 179.397 86.8563 179.089 87.1026C178.996 87.1783 178.41 87.6359 178.779 87.3489C179.13 87.0774 178.81 87.3237 178.744 87.3741C178.62 87.4672 178.498 87.5603 178.372 87.6515C177.744 88.115 177.098 88.5571 176.431 88.9625C176.119 89.1525 175.803 89.3329 175.481 89.5036C175.32 89.5889 175.158 89.6703 174.993 89.7499C174.774 89.8546 174.107 90.0679 174.958 89.7789C174.38 89.9748 173.832 90.1455 173.239 90.2812C174.111 90.0834 173.682 90.2289 173.423 90.2405C173.289 90.2463 173.155 90.2405 173.021 90.2405C172.471 90.2366 173.677 90.3976 173.209 90.2715C173.083 90.2366 172.944 90.1862 172.816 90.1649C172.514 90.1183 173.281 90.3045 173.202 90.3336C173.176 90.3433 173.043 90.2599 173.019 90.2444C172.934 90.192 172.824 90.1009 172.731 90.064C173.334 90.3084 173.138 90.4054 172.895 90.1688C172.653 89.9322 172.587 89.6063 172.932 90.258C172.859 90.1203 172.762 89.969 172.674 89.8391C172.504 89.5889 172.767 90.3491 172.688 89.8391L172.645 89.6684C172.595 89.4008 172.599 89.4396 172.657 89.7867C172.558 89.7033 172.651 89.0051 172.684 88.8907C172.535 89.4318 172.653 89.1079 172.684 88.9857C172.748 88.7453 172.793 88.5009 172.859 88.2624C173.591 85.6345 174.634 83.0552 175.638 80.5204C175.875 79.925 176.115 79.3296 176.359 78.7381C176.482 78.4414 176.604 78.1466 176.73 77.8499C176.497 78.4007 176.751 77.8034 176.788 77.7161C176.863 77.5396 176.939 77.3631 177.017 77.1866C177.577 75.8931 178.156 74.6073 178.755 73.3312C181.099 68.3431 183.745 63.4967 186.67 58.8267C188.134 56.4917 189.667 54.2013 191.268 51.9575C192.088 50.8094 192.924 49.6748 193.778 48.5539C193.856 48.4511 193.934 48.3502 194.011 48.2475C194.065 48.1776 194.455 47.6598 194.104 48.1253C194.296 47.8693 194.498 47.6191 194.695 47.367C195.132 46.8123 195.572 46.2615 196.015 45.7146C197.729 43.6027 199.481 41.4888 201.37 39.5281C201.596 39.2915 201.829 39.0607 202.071 38.8377C202.18 38.7368 202.29 38.6379 202.405 38.5429L202.54 38.4285C202.746 38.2636 202.724 38.2791 202.472 38.4808C202.61 38.283 203.004 38.122 203.209 38.0076C203.312 37.9514 203.417 37.9029 203.519 37.8466C203.762 37.7361 203.731 37.7477 203.426 37.8835C203.537 37.8428 203.647 37.8059 203.76 37.7729C203.866 37.7419 203.998 37.7322 204.101 37.6896C204.384 37.5713 203.471 37.7167 203.952 37.7089C204.138 37.707 204.487 37.7729 204.663 37.7186L204.306 37.6702C204.399 37.6857 204.492 37.7051 204.583 37.7264C204.675 37.7477 204.766 37.7729 204.855 37.8001L204.989 37.8447C205.227 37.9359 205.163 37.9068 204.799 37.7613C204.851 37.8331 205.066 37.9145 205.157 37.9611C205.576 38.1822 204.781 37.5674 205.097 37.9145C205.161 37.9843 205.392 38.3063 205.179 37.9669C204.952 37.6042 205.179 37.996 205.217 38.0542L205.281 38.1725C205.136 37.802 205.107 37.738 205.19 37.9805C205.173 38.3819 205.272 38.0212 205.21 37.8951C205.254 37.9843 205.243 38.3625 205.206 38.4537C205.405 37.9669 205.217 38.2888 205.171 38.4634C205.113 38.6767 205.051 38.9036 204.954 39.1053C205.179 38.6379 204.969 39.0413 204.911 39.1577C204.837 39.305 204.762 39.4486 204.682 39.5921C204.533 39.8655 204.374 40.1351 204.217 40.4047C203.862 41.0097 203.5 41.609 203.128 42.2044C202.432 43.3156 201.705 44.4095 200.949 45.4819C200.598 45.9803 200.239 46.4749 199.875 46.9636C199.675 47.2332 199.472 47.4989 199.268 47.7665C199.039 48.0671 199.623 47.3166 199.253 47.7859C199.121 47.9527 198.989 48.1214 198.855 48.2882C195.599 52.3744 191.857 56.2745 187.655 59.3988C187.717 59.3542 188.056 59.0924 187.707 59.3561C187.562 59.4667 187.416 59.5772 187.271 59.6858C187.027 59.8681 186.783 60.0485 186.536 60.2288C185.996 60.6225 185.447 61.0085 184.893 61.3828C183.881 62.0693 182.851 62.7326 181.797 63.3493C180.725 63.9757 179.645 64.5905 178.571 65.2091C178.232 65.405 177.893 65.6009 177.554 65.7968C176.464 66.4251 175.991 67.9999 176.691 69.0879C177.4 70.1875 178.814 70.6238 179.98 69.9509V69.9625Z" fill="#FFFDF8"/>
<path d="M265.651 70.6141C266.721 68.6282 268.179 67.0845 270.024 65.9829C271.87 64.8813 273.909 64.3306 276.142 64.3306C278.158 64.3306 279.918 64.7262 281.422 65.5175C282.927 66.3087 284.128 67.2939 285.028 68.4731V67.4258C285.028 65.948 286.226 64.7495 287.703 64.7495C289.18 64.7495 290.378 65.948 290.378 67.4258V87.7193C290.378 89.1971 289.18 90.3956 287.703 90.3956C286.226 90.3956 285.028 89.1971 285.028 87.7193V86.579C284.128 87.7891 282.903 88.7976 281.352 89.6044C279.802 90.4111 278.034 90.8145 276.049 90.8145C273.847 90.8145 271.831 90.2482 270.001 89.1156C268.171 87.9831 266.721 86.4005 265.651 84.3681C264.581 82.3356 264.046 80.0317 264.046 77.4562C264.046 74.8807 264.581 72.6 265.651 70.6141ZM283.935 72.9413C283.206 71.6381 282.252 70.6451 281.073 69.9625C279.895 69.2798 278.623 68.9385 277.258 68.9385C275.894 68.9385 274.622 69.2721 273.444 69.9392C272.265 70.6064 271.311 71.5838 270.582 72.8715C269.854 74.1593 269.489 75.6875 269.489 77.4562C269.489 79.2249 269.854 80.7764 270.582 82.1107C271.311 83.4449 272.273 84.4612 273.467 85.1593C274.661 85.8575 275.925 86.2066 277.258 86.2066C278.592 86.2066 279.895 85.8653 281.073 85.1826C282.252 84.5 283.206 83.4992 283.935 82.1805C284.663 80.8617 285.028 79.318 285.028 77.5493C285.028 75.7806 284.663 74.2446 283.935 72.9413Z" fill="#FFFDF8"/>
<path d="M302.66 58.6057V87.7427C302.66 89.2089 301.474 90.3957 300.008 90.3957C298.543 90.3957 297.356 89.2089 297.356 87.7427V58.6057C297.356 57.1395 298.543 55.9526 300.008 55.9526C301.474 55.9526 302.66 57.1395 302.66 58.6057Z" fill="#FFFDF8"/>
<path d="M330.617 79.5507H313.843C313.581 79.5507 313.378 79.7815 313.411 80.0414C313.643 81.8624 314.386 83.3441 315.64 84.4844C317.005 85.7256 318.679 86.3462 320.664 86.3462C323.051 86.3462 324.852 85.5104 326.067 83.8386C326.55 83.1734 327.308 82.7623 328.129 82.7623C330.328 82.7623 331.458 85.3765 329.969 86.9959C329.452 87.5583 328.87 88.08 328.226 88.5571C326.195 90.0621 323.675 90.8145 320.666 90.8145C318.216 90.8145 316.022 90.2638 314.083 89.1622C312.145 88.0606 310.625 86.5091 309.524 84.5077C308.423 82.5063 307.873 80.1868 307.873 77.5493C307.873 74.9117 308.408 72.5923 309.478 70.5908C310.548 68.5894 312.052 67.0457 313.99 65.9596C315.929 64.8736 318.154 64.3306 320.666 64.3306C323.179 64.3306 325.241 64.8581 327.133 65.9131C329.025 66.9681 330.498 68.4498 331.553 70.3581C332.607 72.2664 333.135 74.4618 333.135 76.9442C333.135 76.983 333.135 77.0218 333.135 77.0606C333.127 78.4414 331.999 79.5526 330.618 79.5526L330.617 79.5507ZM327.141 75.2686C327.393 75.2686 327.594 75.0533 327.575 74.8012C327.447 73.0635 326.755 71.6517 325.503 70.5676C324.138 69.3884 322.448 68.7989 320.432 68.7989C318.602 68.7989 317.036 69.3807 315.733 70.5443C314.545 71.6071 313.795 73.0112 313.484 74.7585C313.438 75.0242 313.643 75.2686 313.913 75.2686H327.141Z" fill="#FFFDF8"/>
<path d="M338.621 60.3742C337.969 59.7226 337.644 58.9158 337.644 57.9539C337.644 56.992 337.969 56.1852 338.621 55.5336C339.272 54.882 340.078 54.5562 341.04 54.5562C342.001 54.5562 342.761 54.882 343.412 55.5336C344.064 56.1852 344.389 56.992 344.389 57.9539C344.389 58.9158 344.064 59.7226 343.412 60.3742C342.761 61.0259 341.97 61.3517 341.04 61.3517C340.109 61.3517 339.272 61.0259 338.621 60.3742ZM343.645 67.4025V87.7426C343.645 89.2087 342.459 90.3956 340.993 90.3956C339.528 90.3956 338.341 89.2087 338.341 87.7426V67.4025C338.341 65.9363 339.528 64.7495 340.993 64.7495C342.459 64.7495 343.645 65.9363 343.645 67.4025Z" fill="#FFFDF8"/>
<path d="M359.02 65.4244C359.916 64.9162 360.93 64.5866 362.058 64.4314C362.872 64.3209 363.603 64.9453 363.603 65.7676V68.4711C363.603 69.2158 362.998 69.8209 362.254 69.8209C360.176 69.8209 358.602 70.3484 357.532 71.4034C356.462 72.4584 355.927 74.2892 355.927 76.8957V87.7406C355.927 89.2068 354.74 90.3937 353.275 90.3937C351.809 90.3937 350.623 89.2068 350.623 87.7406V67.4006C350.623 65.9344 351.809 64.7475 353.275 64.7475C354.74 64.7475 355.927 65.9344 355.927 67.4006V68.4711C356.702 67.1678 357.733 66.1516 359.02 65.4224V65.4244Z" fill="#FFFDF8"/>
<path d="M397.974 89.7207C396.377 88.9915 395.113 87.9986 394.182 86.7419C394.165 86.7186 394.149 86.6953 394.132 86.674C392.882 84.948 394.142 82.5296 396.272 82.5296C397.241 82.5296 398.133 83.0648 398.587 83.924C398.848 84.4185 399.234 84.8626 399.742 85.2524C400.688 85.9816 401.874 86.3462 403.301 86.3462C404.728 86.3462 405.945 86.0592 406.767 85.4852C407.589 84.9111 408 84.1741 408 83.2743C408 82.3124 407.542 81.5987 406.627 81.1332C405.712 80.6678 404.262 80.1558 402.277 79.5972C400.354 79.0697 398.788 78.5577 397.579 78.0613C396.369 77.5648 395.322 76.8046 394.438 75.7806C393.554 74.7566 393.112 73.4068 393.112 71.7312C393.112 70.3659 393.516 69.1169 394.322 67.9843C395.128 66.8517 396.284 65.9596 397.788 65.308C399.292 64.6564 401.021 64.3306 402.975 64.3306C405.891 64.3306 408.24 65.0675 410.023 66.5414C410.772 67.1601 411.373 67.8718 411.83 68.6786C412.813 70.4163 411.543 72.569 409.549 72.569C408.537 72.569 407.631 71.9775 407.186 71.0679C406.951 70.5908 406.618 70.1758 406.185 69.8228C405.348 69.1402 404.216 68.7989 402.789 68.7989C401.362 68.7989 400.323 69.0626 399.579 69.5901C398.835 70.1176 398.462 70.8158 398.462 71.6846C398.462 72.3673 398.711 72.9413 399.207 73.4068C399.703 73.8722 400.308 74.2368 401.021 74.5006C401.735 74.7643 402.789 75.0979 404.185 75.5013C406.046 75.9978 407.573 76.502 408.767 77.014C409.961 77.526 410.993 78.2785 411.861 79.2714C412.73 80.2644 413.179 81.5832 413.21 83.2277C413.21 84.6861 412.807 85.9894 412.001 87.1375C411.194 88.2856 410.054 89.1855 408.581 89.8371C407.108 90.4887 405.379 90.8145 403.394 90.8145C401.409 90.8145 399.571 90.4499 397.974 89.7207Z" fill="#FFFDF8"/>
<path d="M373.528 65.281C371.745 65.8647 370.047 66.6599 368.667 67.9573C367.296 69.247 366.457 70.9207 365.757 72.6389C364.047 76.8299 364.369 81.7986 366.651 85.72C368.983 89.7286 374.205 91.3713 378.582 90.6595C383.124 89.9206 386.582 86.3735 388.29 82.2621C389.827 78.5579 390.22 74.0411 388.714 70.2671C387.925 68.2928 386.78 66.4369 385.145 65.0483C383.49 63.6403 381.664 62.7947 379.501 62.562C377.775 62.3758 375.821 62.7113 374.373 63.7082C372.497 64.9998 371.437 67.1467 371.745 69.4351C372.363 74.0372 376.981 76.7039 381.241 77.1266C384.643 77.4641 387.925 76.0057 390.779 74.3068C392.17 73.4767 393.514 72.5711 394.892 71.7216C395.578 71.2988 396.27 70.8877 396.982 70.5095C397.311 70.333 397.645 70.1643 397.984 70.0053C398.172 69.9161 398.366 69.8366 398.554 69.7474C398.819 69.6213 398.127 69.9122 398.403 69.8133C398.511 69.7745 398.616 69.728 398.724 69.6872C399.451 69.4118 400.198 69.1946 400.959 69.0453C402.111 68.8203 402.875 67.3813 402.522 66.2933C402.126 65.0677 401.004 64.4897 399.771 64.7302C396.825 65.3062 394.165 66.8771 391.665 68.4674C390.424 69.2567 389.195 70.0673 387.916 70.7985C387.315 71.1418 386.704 71.4656 386.078 71.7565C385.919 71.8302 385.733 71.8884 385.582 71.9776C385.57 71.9854 386.033 71.7992 385.805 71.8807C385.721 71.9117 385.638 71.9466 385.554 71.9796C385.221 72.1076 384.886 72.222 384.545 72.3248C384.227 72.4198 383.907 72.5012 383.581 72.5672C383.43 72.5982 383.279 72.6234 383.126 72.6506C383.062 72.6622 382.992 72.6642 382.93 72.6797C383.548 72.5284 383.184 72.6448 382.998 72.6603C382.687 72.6874 382.373 72.6991 382.061 72.6971C381.881 72.6952 381.699 72.6874 381.519 72.6758C381.451 72.6719 381.381 72.6642 381.313 72.6583C380.939 72.6351 381.261 72.6137 381.426 72.6816C381.119 72.5556 380.699 72.5536 380.373 72.4683C379.981 72.3674 379.598 72.2414 379.22 72.094C379.152 72.0688 379.07 72.0184 379.001 72.0067C379.386 72.0727 379.256 72.1231 379.092 72.0397C378.927 71.9563 378.747 71.8748 378.578 71.7817C378.384 71.6751 378.194 71.5607 378.008 71.4365C377.938 71.39 377.87 71.3415 377.801 71.295C377.359 70.9944 378.012 71.4947 377.787 71.2853C377.477 70.9963 377.18 70.7093 376.888 70.4048C376.643 70.1527 376.919 70.4707 376.924 70.4688C376.903 70.4688 376.795 70.2884 376.781 70.2671C376.643 70.0654 376.515 69.8579 376.403 69.6426C376.376 69.5883 376.296 69.375 376.263 69.3556C376.285 69.3692 376.403 69.7551 376.341 69.5243C376.292 69.3478 376.227 69.1791 376.186 69.0007C376.186 69.0007 376.11 68.7214 376.128 68.6962C376.137 68.6826 376.141 69.1927 376.163 68.83C376.168 68.7311 376.163 68.6186 376.163 68.5217C376.159 68.2017 376.196 68.5585 376.132 68.6516C376.211 68.5372 376.25 68.1745 376.291 68.033C376.399 67.6684 376.052 68.446 376.3 68.0368C376.356 67.9418 376.504 67.775 376.531 67.6645C376.459 67.9573 376.238 68.0019 376.411 67.8274C376.482 67.7556 376.548 67.6781 376.622 67.6063C376.68 67.5501 376.75 67.5016 376.804 67.4434C376.948 67.2863 376.599 67.6024 376.593 67.6044C376.715 67.5733 376.895 67.4046 377.01 67.3406C377.091 67.296 377.56 67.0827 377.194 67.2359C376.86 67.3755 377.136 67.2591 377.221 67.2339C377.324 67.2029 377.423 67.1661 377.525 67.137C377.671 67.0962 377.818 67.0613 377.967 67.0303C378.031 67.0167 378.097 67.007 378.161 66.9935C378.533 66.9178 377.994 67.0303 377.96 67.0206C378.243 67.104 378.729 66.9779 379.037 66.9935C379.208 67.0012 379.413 67.0555 379.582 67.0419C379.582 67.0419 379.097 66.9489 379.326 67.0128C379.413 67.0381 379.506 67.0458 379.596 67.0633C379.954 67.1389 380.299 67.2456 380.646 67.3658C381.117 67.5287 380.33 67.1952 380.673 67.3775C380.83 67.4608 380.991 67.5365 381.146 67.6276C381.301 67.7188 381.455 67.8177 381.606 67.9185C381.674 67.9651 381.74 68.0116 381.807 68.0582C382.246 68.3568 381.577 67.8545 381.809 68.0543C382.12 68.3219 382.426 68.5857 382.709 68.8805C382.841 69.0182 382.969 69.1578 383.093 69.3013C383.164 69.3828 383.23 69.47 383.302 69.5515C383.48 69.7571 383.065 69.2063 383.3 69.5515C383.535 69.8967 383.759 70.2264 383.963 70.5832C384.033 70.7073 384.424 71.6731 384.514 71.6848C384.442 71.6751 384.358 71.2872 384.475 71.6072C384.512 71.71 384.552 71.8128 384.589 71.9156C384.653 72.0979 384.713 72.2802 384.769 72.4644C384.897 72.8852 385 73.3138 385.081 73.7483C385.101 73.8569 385.116 73.9655 385.138 74.0741C385.186 74.3262 385.112 73.9015 385.114 73.8879C385.076 74.0547 385.165 74.3708 385.176 74.5453C385.206 74.9836 385.211 75.4239 385.19 75.8641C385.171 76.2656 385.13 76.667 385.087 77.0665C385.041 77.4893 385.097 77.0588 385.099 76.9889C385.093 77.0995 385.064 77.2236 385.047 77.3322C385.01 77.5591 384.969 77.7841 384.924 78.009C384.752 78.8662 384.517 79.7099 384.209 80.5283C384.18 80.6059 384.149 80.6834 384.118 80.761C383.948 81.2012 384.147 80.6854 384.151 80.6873C384.168 80.6989 383.887 81.2497 383.868 81.2885C383.67 81.6841 383.451 82.0701 383.215 82.4424C383.11 82.6053 383.002 82.7663 382.889 82.9253C382.841 82.9932 382.792 83.0611 382.744 83.129C382.501 83.4645 382.759 83.129 382.786 83.0747C382.602 83.4393 382.168 83.7961 381.879 84.0812C381.736 84.2228 381.59 84.3605 381.439 84.4962C381.352 84.5738 381.265 84.6494 381.175 84.7251C381.123 84.7697 380.832 85.0102 381.059 84.8279C381.27 84.6591 381.036 84.8434 381.001 84.8686C380.902 84.9365 380.805 85.0063 380.706 85.0722C380.482 85.2215 380.251 85.3592 380.014 85.4872C379.83 85.5881 379.64 85.6773 379.452 85.7704C379.357 85.8189 379.061 85.9158 379.491 85.7587C379.406 85.7898 379.322 85.8247 379.239 85.8557C378.787 86.0225 378.324 86.1563 377.853 86.2552C377.661 86.296 377.432 86.3658 377.233 86.3658C377.781 86.3658 377.089 86.3658 376.932 86.3735C376.723 86.3832 376.513 86.3871 376.304 86.3832C376.184 86.3813 375.597 86.422 375.502 86.3328C375.515 86.3464 376.017 86.4201 375.583 86.3425C375.504 86.3289 375.424 86.3153 375.343 86.2998C375.155 86.2649 374.967 86.2242 374.781 86.1776C374.346 86.071 373.916 85.941 373.497 85.784C373.398 85.7471 373.276 85.7103 373.181 85.6598C373.241 85.6909 373.617 85.8635 373.249 85.6812C373.071 85.5939 372.892 85.5086 372.718 85.4155C372.544 85.3224 372.373 85.2235 372.206 85.1207C372.111 85.0625 372.016 85.0005 371.923 84.9384C371.869 84.9015 371.472 84.6339 371.743 84.8201C371.989 84.9888 371.528 84.6359 371.458 84.5738C371.297 84.4283 371.14 84.2751 370.993 84.1142C370.938 84.054 370.888 83.9881 370.832 83.9319C370.615 83.7147 371.051 84.2596 370.882 84.0056C370.743 83.798 370.605 83.5964 370.481 83.3791C370.27 83.0087 370.086 82.6267 369.909 82.2388C370.128 82.7198 369.837 82.0274 369.801 81.9246C369.719 81.6958 369.646 81.4631 369.578 81.2303C369.452 80.792 369.349 80.3479 369.269 79.898C369.258 79.834 369.207 79.6885 369.225 79.6284C369.153 79.8883 369.254 79.9154 369.233 79.6808C369.207 79.4073 369.18 79.1358 369.167 78.8624C369.143 78.4066 369.145 77.9489 369.171 77.4951C369.182 77.2818 369.211 77.0704 369.223 76.859C369.238 76.5952 369.2 76.9812 369.2 77.0006C369.209 76.8532 369.246 76.6961 369.271 76.5506C369.436 75.6333 369.721 74.7664 370.055 73.8995C370.202 73.5175 369.894 74.2583 370.103 73.7909C370.173 73.6338 370.246 73.4768 370.322 73.3216C370.485 72.988 370.659 72.6622 370.853 72.3461C370.944 72.1968 371.039 72.0494 371.138 71.9059C371.177 71.8496 371.268 71.7546 371.287 71.6964C371.291 71.6848 370.979 72.0727 371.13 71.8981C371.347 71.646 371.559 71.3939 371.801 71.1631C371.906 71.0622 372.012 70.9653 372.123 70.8722C372.557 70.5037 371.896 71.0138 372.166 70.8373C372.458 70.6453 372.747 70.4513 373.057 70.2846C373.199 70.207 373.344 70.1352 373.489 70.0654C373.575 70.0247 373.664 69.9898 373.749 69.9452C373.964 69.8327 373.55 70.0266 373.552 70.0247C373.951 69.9025 374.337 69.7241 374.734 69.5941C375.845 69.2315 376.68 68.0291 376.296 66.8422C375.938 65.7329 374.736 64.8892 373.546 65.2791L373.528 65.281Z" fill="#FFFDF8"/>
<path d="M247.229 64.6119C247.181 64.6119 247.129 64.6158 247.08 64.6119C247.646 64.8466 248.214 65.0812 248.78 65.3159C248.427 66.656 248.073 67.9961 247.72 69.3362C246.636 69.5088 247.233 69.4176 247.677 69.4099C248.183 69.4021 248.687 69.3963 249.193 69.3905C250.92 69.3691 252.645 69.3498 254.373 69.3304C259.068 69.278 263.761 69.2276 268.456 69.1733C270.685 69.1481 272.914 69.1228 275.141 69.0938C276.397 69.0782 277.605 67.998 277.545 66.6889C277.487 65.3993 276.489 64.2667 275.141 64.2841C270.799 64.3404 266.457 64.3869 262.115 64.4354C257.945 64.4819 253.776 64.5266 249.606 64.575C248.555 64.5867 247.479 64.5304 246.438 64.6972C245.638 64.8252 244.963 65.6378 244.76 66.3767C244.527 67.2223 244.785 68.0892 245.378 68.7175C245.849 69.2159 246.557 69.4234 247.227 69.4234C248.485 69.4234 249.689 68.3161 249.631 67.0186C249.573 65.7154 248.575 64.6138 247.227 64.6138L247.229 64.6119Z" fill="#FFFDF8"/>
</svg>
