<svg width="70" height="70" viewBox="0 0 70 70" fill="none" xmlns="http://www.w3.org/2000/svg">
<g clip-path="url(#clip0_47_484)">
<path d="M50.1482 68.3377L17.3796 65.738L16.2011 56.4274C15.9964 54.8084 14.8024 53.4853 13.2052 53.1091L3.61594 50.8516C2.31338 50.5463 1.25893 49.6026 0.812341 48.3474L0.688288 47.9928C0.254102 46.7684 0.45879 45.4053 1.23722 44.3629L6.98398 36.6592C7.964 35.3485 8.01672 33.569 7.12354 32.1998L1.81407 24.0735C1.11317 23.0033 0.986015 21.6587 1.46672 20.4776L1.56596 20.237C2.08388 18.9664 3.22827 18.0597 4.58975 17.8439L14.2194 16.3111C15.8383 16.0521 17.1284 14.8216 17.454 13.2241L19.3924 3.67609C19.6591 2.36232 20.5833 1.27676 21.8424 0.798748L22.044 0.721649C23.2535 0.262137 24.6119 0.422503 25.6788 1.1534L33.8973 6.78474C35.2495 7.70993 37.0358 7.70376 38.3787 6.76932L46.1072 1.40321C47.2516 0.607542 48.734 0.474931 50.0025 1.0578L50.3157 1.20275C51.55 1.76712 52.406 2.92669 52.5735 4.26822L53.7489 13.5633C53.9535 15.1824 55.1476 16.5054 56.7447 16.8817L66.4302 19.1607C67.7389 19.4691 68.7965 20.419 69.2369 21.6834L69.3175 21.9178C69.7424 23.139 69.5377 24.4867 68.7655 25.526L62.9474 33.3439C61.9767 34.6484 61.9177 36.4125 62.7954 37.7787L68.0584 45.9543C68.722 46.9874 68.8616 48.2703 68.4336 49.4176C67.9498 50.719 66.8085 51.6689 65.4346 51.9094L55.6717 53.6364C54.0807 53.9171 52.8247 55.1383 52.5052 56.7142L50.5576 66.3208C50.3002 67.5853 49.4349 68.64 48.2409 69.1457L48.0548 69.2259C46.8143 69.7502 45.3939 69.6083 44.2836 68.8466L36.0527 63.206C34.7005 62.2808 32.9142 62.2839 31.5682 63.2184L23.8242 68.5968C22.6705 69.3986 21.1725 69.5251 19.8979 68.9299L19.6033 68.7911C18.3844 68.2206 17.544 67.0702 17.3765 65.741L50.1482 68.3377ZM11.1149 47.9373L17.3548 49.4052C18.952 49.7815 20.146 51.1045 20.3507 52.7236L21.0175 58.0003C21.3865 60.9208 24.7453 62.4042 27.1705 60.7173L31.5558 57.6703C32.9017 56.7358 34.6881 56.7297 36.0372 57.658L41.3156 61.2754C43.6385 62.8668 46.8422 61.5808 47.4004 58.8299L48.6317 52.7606C48.9573 51.16 50.2444 49.9295 51.8664 49.6735L57.9077 48.7144C60.7175 48.2673 62.1348 45.0938 60.5842 42.7223L57.2471 37.6152C56.354 36.2459 56.4067 34.4696 57.3836 33.1589L61.0866 28.1813C62.7644 25.9239 61.5766 22.698 58.8319 22.0504L52.5921 20.5793C50.9949 20.2031 49.8009 18.8801 49.5962 17.261L48.9294 11.9843C48.5603 9.06379 45.2016 7.5804 42.7764 9.26734L38.3911 12.3143C37.0451 13.2487 35.2588 13.2549 33.9097 12.3266L28.6312 8.70914C26.3083 7.11781 23.1047 8.40382 22.5464 11.1547L21.3152 17.224C20.9896 18.8246 19.7025 20.0551 18.0805 20.311L12.0391 21.2702C9.22934 21.7173 7.81203 24.8907 9.36269 27.2623L12.7028 32.3725C13.596 33.7417 13.5433 35.5181 12.5664 36.8288L8.86338 41.8063C7.18556 44.0638 8.37337 47.2896 11.118 47.9373H11.1149Z" fill="#A9FE4B"/>
<path d="M46.514 69.9999C45.6394 69.9999 44.771 69.7377 44.0236 69.2258L35.7927 63.5852C34.608 62.7741 33.0201 62.7772 31.8416 63.5976L24.0976 68.976C22.8105 69.8703 21.1265 70.0122 19.7061 69.3461L19.4115 69.2073C18.0407 68.5658 17.1103 67.2921 16.9211 65.7964L15.7426 56.4859C15.5628 55.0673 14.5021 53.8923 13.1003 53.5623L3.51101 51.3048C2.05028 50.9594 0.877982 49.914 0.378669 48.5046L0.254616 48.1499C-0.232292 46.7776 -0.00279414 45.2603 0.868678 44.0914L6.61543 36.3877C7.4745 35.2373 7.52412 33.6553 6.73948 32.4556L1.43002 24.3293C0.648484 23.1328 0.502722 21.6278 1.04235 20.3048L1.14159 20.0642C1.71534 18.6548 3.01169 17.6279 4.52204 17.3873L14.1517 15.8577C15.5721 15.6325 16.7164 14.5377 17.0018 13.1345L18.9401 3.58654C19.2409 2.10932 20.2644 0.906568 21.6786 0.366873L21.8802 0.289773C23.2323 -0.22525 24.752 -0.0432957 25.946 0.773957L34.1645 6.40529C35.3492 7.21637 36.9371 7.21329 38.1156 6.39295L45.8441 1.02684C47.1187 0.141743 48.7872 -0.00628801 50.1983 0.638262L50.5116 0.783209C51.9041 1.41851 52.8469 2.70144 53.0361 4.2095L54.2115 13.5046C54.3913 14.9232 55.452 16.0982 56.8507 16.4282L66.5361 18.7103C68.0061 19.0557 69.1815 20.1105 69.6778 21.5291L69.7584 21.7635C70.236 23.1297 70.0034 24.6377 69.1412 25.7973L63.3232 33.6152C62.4734 34.7562 62.4207 36.3291 63.1898 37.5226L68.4527 45.6982C69.1909 46.8454 69.349 48.2949 68.8745 49.5716C68.3349 51.0211 67.0509 52.0882 65.5189 52.3596L55.7559 54.0866C54.3448 54.3364 53.2469 55.4004 52.9647 56.7974L51.0171 66.404C50.7287 67.8164 49.7611 68.9976 48.4275 69.562L48.2414 69.6421C47.6863 69.8765 47.1001 69.9937 46.5171 69.9937L46.514 69.9999ZM33.8265 62.0525C34.701 62.0525 35.5756 62.3084 36.323 62.8204L44.5539 68.461C45.5371 69.1364 46.7807 69.2597 47.8786 68.794L48.0646 68.7139C49.116 68.2698 49.8789 67.3384 50.1053 66.222L52.0529 56.6154C52.4127 54.8422 53.8021 53.4914 55.5947 53.1737L65.3576 51.4467C66.564 51.2339 67.5782 50.392 68.0031 49.2478C68.3783 48.2394 68.2543 47.0983 67.6712 46.1947L62.4083 38.0191C61.4313 36.5018 61.4996 34.5095 62.5757 33.0601L68.3938 25.2422C69.0761 24.3263 69.2591 23.1358 68.8807 22.0595L68.8001 21.8251C68.4093 20.7057 67.482 19.8761 66.3252 19.6016L56.6398 17.3195C54.8627 16.9 53.5168 15.4105 53.2904 13.6094L52.115 4.31436C51.9661 3.12394 51.2218 2.1124 50.1239 1.6128L49.8107 1.46785C48.6973 0.958995 47.3823 1.07619 46.3775 1.77316L38.649 7.13928C37.1542 8.17857 35.1383 8.18474 33.6342 7.1547L25.4157 1.52336C24.476 0.878812 23.2757 0.736949 22.2089 1.14095L22.0073 1.21805C20.8908 1.64364 20.0845 2.59042 19.8488 3.75616L17.9105 13.3041C17.5476 15.0836 16.0962 16.4714 14.2943 16.7582L4.6647 18.2878C3.47379 18.479 2.45035 19.287 1.99756 20.3973L1.89832 20.6378C1.47344 21.6802 1.58819 22.8675 2.20535 23.8081L7.51482 31.9344C8.51034 33.4579 8.44831 35.4625 7.35975 36.9212L1.613 44.625C0.924502 45.5471 0.744625 46.7436 1.12919 47.8261L1.25634 48.1808C1.65021 49.291 2.57441 50.1175 3.7281 50.3889L13.3174 52.6464C15.0945 53.0627 16.4404 54.5553 16.6668 56.3564L17.8453 65.6669C17.9942 66.845 18.7292 67.8503 19.8085 68.3561L20.1031 68.4949C21.2227 69.0192 22.55 68.9082 23.5642 68.2019L31.3082 62.8235C32.0587 62.3023 32.9426 62.0401 33.8265 62.0401V62.0525ZM43.5491 62.4318C42.6714 62.4318 41.8031 62.1697 41.0556 61.6577L35.7772 58.0402C34.5925 57.2291 33.0046 57.2322 31.8261 58.0526L27.4408 61.0995C26.1662 61.9846 24.5597 62.1388 23.1393 61.5097C21.7189 60.8837 20.7544 59.5915 20.5621 58.0587L19.8953 52.7821C19.7154 51.3634 18.6548 50.1884 17.2561 49.8585L11.0162 48.3905C9.5741 48.0513 8.408 47.0212 7.89938 45.6396C7.39076 44.2549 7.61406 42.7221 8.49483 41.5379L12.1978 36.5604C13.0538 35.41 13.1003 33.8311 12.3188 32.6314L8.97864 27.5212C8.16609 26.2753 8.04204 24.721 8.6468 23.3641C9.25466 22.0071 10.4952 21.0572 11.9714 20.8229L18.0128 19.8637C19.4332 19.6386 20.5776 18.5438 20.8629 17.1406L22.0941 11.0713C22.3888 9.62804 23.3843 8.43454 24.7582 7.88251C26.1321 7.33048 27.6796 7.5001 28.9016 8.33586L34.18 11.9534C35.3647 12.7644 36.9526 12.7614 38.1342 11.941L42.5195 8.89406C43.7941 8.00896 45.4006 7.85476 46.821 8.48389C48.2414 9.10993 49.2059 10.4021 49.3982 11.9349L50.065 17.2115C50.2449 18.6302 51.3055 19.8082 52.7073 20.1351L58.9472 21.6062C60.3893 21.9454 61.5554 22.9755 62.064 24.3602C62.5726 25.7449 62.3524 27.2776 61.4686 28.4619L57.7656 33.4394C56.9096 34.5897 56.8631 36.1687 57.6446 37.3684L60.9817 42.4754C61.7942 43.7214 61.9183 45.2757 61.3135 46.6326C60.7056 47.9896 59.4651 48.9394 57.9889 49.1738L51.9475 50.1329C50.5271 50.3581 49.3796 51.4529 49.0974 52.8561L47.8661 58.9253C47.5715 60.3686 46.5791 61.5621 45.2052 62.1142C44.6718 62.33 44.1104 62.4349 43.5553 62.4349L43.5491 62.4318ZM33.8109 56.5075C34.6855 56.5075 35.5601 56.7635 36.3075 57.2754L41.586 60.8929C42.5474 61.5529 43.7693 61.6855 44.8517 61.2506C45.934 60.8158 46.7187 59.8752 46.9513 58.7372L48.1825 52.668C48.5453 50.8885 49.9968 49.5007 51.7986 49.2139L57.84 48.2548C59.003 48.0698 59.983 47.3203 60.4606 46.2502C60.9382 45.1801 60.8421 43.9557 60.2001 42.9719L56.8631 37.8649C55.8676 36.3445 55.9296 34.3399 57.0151 32.8812L60.718 27.9037C61.4127 26.9692 61.5895 25.7603 61.1863 24.6686C60.7863 23.5768 59.8652 22.7658 58.7301 22.4975L52.4902 21.0264C50.7132 20.607 49.3672 19.1174 49.1408 17.3164L48.474 12.0397C48.322 10.8308 47.5622 9.81308 46.4426 9.31964C45.3231 8.82621 44.0546 8.94648 43.0498 9.64346L38.6645 12.6904C37.1697 13.7297 35.1538 13.7359 33.6497 12.7058L28.3712 9.08835C27.4098 8.42838 26.1879 8.29576 25.1055 8.73061C24.0232 9.16544 23.2385 10.1061 23.0059 11.244L21.7747 17.3133C21.4118 19.0928 19.9604 20.4805 18.1586 20.7673L12.1172 21.7265C10.9542 21.9115 9.97417 22.6609 9.49656 23.731C9.01896 24.8012 9.1151 26.0255 9.75707 27.0093L13.0972 32.1194C14.0927 33.6398 14.0307 35.6444 12.9452 37.1031L9.24225 42.0807C8.54756 43.0151 8.37078 44.224 8.77395 45.3158C9.17403 46.4075 10.0951 47.2186 11.2302 47.4869L17.4701 48.9549C19.2471 49.3743 20.5931 50.8638 20.8195 52.6649L21.4863 57.9415C21.6382 59.1505 22.3981 60.1682 23.5177 60.6616C24.6372 61.155 25.9057 61.0348 26.9105 60.3378L31.2958 57.2908C32.0463 56.7696 32.9302 56.5075 33.814 56.5075H33.8109Z" fill="#A9FE4B"/>
</g>
<defs>
<clipPath id="clip0_47_484">
<rect width="70" height="70" fill="white"/>
</clipPath>
</defs>
</svg>
