<svg width="281" height="109" viewBox="0 0 281 109" fill="none" xmlns="http://www.w3.org/2000/svg">
<path d="M201.786 15.969H182.884C183.205 17.3898 184.042 18.6403 185.233 19.4772C186.436 20.3387 187.905 20.7694 189.64 20.7694C190.844 20.7694 191.848 20.5864 192.652 20.2204C193.456 19.8543 194.235 19.2264 194.991 18.3366H201.377C201.034 19.4418 200.389 20.5757 199.442 21.7385C196.919 24.6808 193.694 26.1516 189.766 26.1507C187.984 26.161 186.217 25.8251 184.563 25.1616C183.001 24.5484 181.574 23.6378 180.359 22.4803C179.171 21.3291 178.223 19.9538 177.57 18.4337C176.881 16.863 176.529 15.1652 176.537 13.4498C176.517 11.1723 177.108 8.93099 178.247 6.95984C179.359 5.01372 180.97 3.40046 182.913 2.28709C184.883 1.14692 187.121 0.556107 189.396 0.576178C191.786 0.576178 193.944 1.13939 195.869 2.26581C197.778 3.38021 199.338 5.0059 200.373 6.95984C201.456 8.96188 201.997 11.2112 201.997 13.7077C202.003 14.4667 201.932 15.2243 201.786 15.969ZM182.71 10.8017H196.236C195.862 9.2375 195.095 8.04106 193.934 7.21242C192.774 6.38378 191.29 5.96724 189.484 5.96281C187.734 5.96281 186.283 6.3758 185.13 7.20178C183.976 8.02777 183.17 9.22775 182.71 10.8017Z" fill="#FFFDF8"/>
<path d="M128.882 67.0731V34.5034H134.731V67.0731H128.882Z" fill="#FFFDF8"/>
<path d="M139.573 37.2564C139.573 36.5258 139.863 35.8252 140.379 35.3086C140.896 34.7921 141.596 34.502 142.325 34.502H142.669C143.399 34.502 144.099 34.7921 144.615 35.3086C145.131 35.8252 145.422 36.5258 145.422 37.2564C145.422 37.9873 145.132 38.6882 144.616 39.2051C144.099 39.7219 143.399 40.0122 142.669 40.0122H142.325C141.595 40.0122 140.895 39.7219 140.379 39.2051C139.863 38.6882 139.573 37.9873 139.573 37.2564ZM139.573 67.073V42.6391H145.415V67.073H139.573Z" fill="#FFFDF8"/>
<path d="M158.754 67.0731L148.928 42.6392H155.443L161.077 58.8283L166.625 42.6392H173.248L163.422 67.0731H158.754Z" fill="#FFFDF8"/>
<path d="M201.12 41.7843C202.807 41.7776 204.478 42.1047 206.039 42.7466C207.599 43.3885 209.017 44.3327 210.212 45.525C211.407 46.7172 212.355 48.1341 213.001 49.6941C213.647 51.2541 213.979 52.9265 213.978 54.6154C213.993 56.86 213.396 59.0661 212.252 60.9964C211.118 62.9382 209.489 64.5438 207.532 65.6492C204.552 67.3541 201.023 67.8218 197.703 66.952C194.382 66.0821 191.535 63.9441 189.771 60.9964C188.618 59.0688 188.016 56.8618 188.029 54.6154C188.03 52.9234 188.366 51.2484 189.017 49.6872C189.669 48.126 190.623 46.7096 191.825 45.5198C194.327 43.1223 197.656 41.7842 201.12 41.7843ZM200.883 47.1669C198.992 47.1669 197.361 47.895 195.992 49.3511C194.645 50.7513 193.907 52.6282 193.939 54.5715C193.939 56.6099 194.627 58.3536 196.002 59.8026C197.378 61.2516 199.034 61.9766 200.97 61.9775C202.917 61.9775 204.587 61.2561 205.98 59.8133C206.657 59.1304 207.191 58.3187 207.55 57.426C207.91 56.5334 208.087 55.5777 208.072 54.6154C208.072 52.5194 207.377 50.754 205.986 49.3192C205.333 48.6233 204.542 48.0723 203.663 47.7016C202.784 47.3309 201.837 47.1487 200.883 47.1669Z" fill="#FFFDF8"/>
<path d="M177.797 83.298C179.484 83.2913 181.156 83.6183 182.716 84.2603C184.277 84.9022 185.695 85.8464 186.89 87.0387C188.085 88.2309 189.032 89.6477 189.679 91.2077C190.325 92.7677 190.657 94.4402 190.656 96.1291C190.671 98.3736 190.074 100.58 188.93 102.51C187.795 104.452 186.167 106.057 184.21 107.163C181.23 108.868 177.701 109.335 174.38 108.466C171.06 107.596 168.212 105.458 166.448 102.51C165.296 100.582 164.694 98.3755 164.706 96.1291C164.707 94.437 165.043 92.7619 165.694 91.2006C166.346 89.6394 167.301 88.223 168.503 87.0335C171.004 84.636 174.334 83.2978 177.797 83.298ZM177.561 88.6793C175.669 88.6793 174.039 89.4078 172.669 90.8648C171.323 92.265 170.585 94.1418 170.616 96.0852C170.616 98.1236 171.304 99.8673 172.68 101.316C174.056 102.765 175.711 103.49 177.647 103.491C179.595 103.491 181.265 102.77 182.657 101.327C183.333 100.643 183.866 99.8315 184.224 98.9389C184.583 98.0462 184.759 97.0909 184.743 96.1291C184.743 94.0331 184.048 92.2677 182.657 90.8329C182.004 90.137 181.213 89.5858 180.334 89.2149C179.456 88.844 178.509 88.6615 177.556 88.6793H177.561Z" fill="#FFFDF8"/>
<path d="M238.731 83.298C240.417 83.2913 242.089 83.6183 243.649 84.2603C245.21 84.9022 246.628 85.8464 247.823 87.0387C249.018 88.2309 249.965 89.6477 250.612 91.2077C251.258 92.7677 251.59 94.4402 251.589 96.1291C251.604 98.3736 251.007 100.58 249.863 102.51C248.729 104.452 247.1 106.057 245.143 107.163C242.163 108.868 238.634 109.335 235.314 108.466C231.993 107.596 229.145 105.458 227.381 102.51C226.229 100.582 225.627 98.3755 225.639 96.1291C225.641 94.4371 225.977 92.7622 226.629 91.2011C227.28 89.64 228.234 88.2235 229.436 87.0335C231.938 84.636 235.267 83.2978 238.731 83.298ZM238.494 88.6793C236.602 88.6793 234.972 89.4078 233.602 90.8648C232.256 92.265 231.518 94.1418 231.55 96.0852C231.55 98.1236 232.237 99.8673 233.613 101.316C234.989 102.765 236.644 103.49 238.58 103.491C240.528 103.491 242.198 102.77 243.59 101.327C244.266 100.643 244.799 99.8315 245.158 98.9389C245.516 98.0462 245.692 97.0909 245.676 96.1291C245.676 94.0331 244.981 92.2677 243.59 90.8329C242.938 90.1377 242.148 89.5869 241.27 89.216C240.392 88.8451 239.447 88.6623 238.494 88.6793Z" fill="#FFFDF8"/>
<path d="M280.09 57.4724H261.185C261.505 58.8925 262.34 60.143 263.529 60.9806C264.733 61.8421 266.202 62.2728 267.937 62.2728C269.142 62.2728 270.146 62.0898 270.948 61.7238C271.75 61.3577 272.531 60.7298 273.291 59.84H279.678C279.334 60.9443 278.688 62.0783 277.742 63.2419C275.221 66.1851 271.997 67.6568 268.069 67.6568C266.287 67.667 264.519 67.3307 262.865 66.6664C261.304 66.0528 259.877 65.1417 258.662 63.9837C257.475 62.8325 256.527 61.4572 255.874 59.9371C255.186 58.3661 254.835 56.6684 254.842 54.9533C254.822 52.6755 255.412 50.4339 256.551 48.4619C257.664 46.517 259.275 44.9045 261.217 43.7905C263.187 42.6503 265.426 42.0595 267.701 42.0796C270.091 42.0796 272.248 42.6428 274.173 43.7692C276.082 44.883 277.642 46.5083 278.678 48.4619C279.76 50.4648 280.301 52.7146 280.302 55.2112C280.307 55.9701 280.236 56.7276 280.09 57.4724ZM261.017 52.3052H274.542C274.169 50.7409 273.401 49.5445 272.241 48.7158C271.08 47.8872 269.597 47.4707 267.79 47.4662C266.04 47.4662 264.588 47.8792 263.435 48.7052C262.281 49.5312 261.475 50.7312 261.017 52.3052Z" fill="#FFFDF8"/>
<path d="M194.786 108.374V75.8042H200.628V108.374H194.786Z" fill="#FFFDF8"/>
<path d="M205.151 100.289H211.042C211.329 101.323 211.731 102.073 212.247 102.539C212.763 103.006 213.451 103.239 214.31 103.239C215.084 103.239 215.719 103.013 216.214 102.561C216.455 102.346 216.645 102.082 216.773 101.786C216.901 101.491 216.963 101.171 216.955 100.849C216.955 100.046 216.583 99.4141 215.837 98.9542C215.538 98.7764 215.228 98.6183 214.908 98.4809C214.607 98.3515 213.904 98.1003 212.801 97.7272C210.363 96.9091 208.624 95.9476 207.586 94.8424C206.548 93.7373 206.028 92.2878 206.027 90.494C206.027 88.3989 206.805 86.6335 208.36 85.1978C209.916 83.7621 211.84 83.0447 214.134 83.0455C215.369 83.0388 216.591 83.2957 217.719 83.7993C218.815 84.2796 219.789 85.0007 220.568 85.909C221.067 86.4866 221.457 87.1501 221.718 87.8672C221.978 88.6751 222.12 89.5165 222.138 90.3651H216.418C216.16 89.0729 215.4 88.4273 214.139 88.4282C213.549 88.413 212.975 88.6247 212.536 89.0198C212.326 89.2026 212.159 89.4293 212.045 89.6841C211.932 89.9388 211.876 90.2153 211.882 90.494C211.882 91.2411 212.261 91.7866 213.021 92.1305C213.437 92.3015 214.44 92.6388 216.031 93.1421C218.497 93.9025 220.242 94.8211 221.267 95.8979C222.292 96.9747 222.804 98.437 222.804 100.285C222.804 102.625 221.959 104.598 220.267 106.206C218.575 107.814 216.511 108.617 214.074 108.616C212.603 108.624 211.15 108.297 209.825 107.659C208.574 107.082 207.491 106.197 206.675 105.087C206.233 104.459 205.885 103.77 205.642 103.041C205.378 102.144 205.213 101.221 205.151 100.289Z" fill="#FFFDF8"/>
<path d="M128.871 108.572V82.895H153.092C155.164 82.8992 157.15 83.7253 158.615 85.1923C160.081 86.6593 160.906 88.6477 160.91 90.7224C160.91 92.5142 160.313 94.2548 159.212 95.6677C160.126 96.819 160.698 98.2052 160.861 99.6671C161.025 101.129 160.773 102.607 160.136 103.933C159.498 105.258 158.5 106.376 157.256 107.16C156.012 107.943 154.573 108.359 153.104 108.361L128.871 108.572ZM134.892 98.7345V102.486L153.092 102.326C153.332 102.333 153.57 102.291 153.794 102.204C154.018 102.117 154.221 101.985 154.393 101.818C154.566 101.65 154.702 101.449 154.796 101.228C154.889 101.007 154.937 100.769 154.937 100.529C154.937 100.288 154.889 100.05 154.796 99.8289C154.702 99.6075 154.566 99.4071 154.393 99.2395C154.221 99.0719 154.018 98.9405 153.794 98.8531C153.57 98.7657 153.332 98.724 153.092 98.7305L134.892 98.7345ZM134.892 92.7058H153.092C154.032 92.7058 154.888 91.7606 154.888 90.7224C154.887 90.2459 154.697 89.7893 154.361 89.4527C154.024 89.116 153.568 88.9267 153.092 88.9264H134.892V92.7058Z" fill="#FFFDF8"/>
<path d="M219.347 26.3129C211.466 26.3129 205.054 20.5142 205.054 13.3874V0.558968H211.077V13.3874C211.077 17.1894 214.787 20.2829 219.347 20.2829C223.907 20.2829 227.617 17.1894 227.617 13.3874V0.390137H233.64V13.3821C233.64 20.5116 227.228 26.3129 219.347 26.3129Z" fill="#FFFDF8"/>
<path d="M145.346 23.3498C147.967 27.4283 154.591 27.4789 156.926 23.2395L167.682 6.35642C167.682 7.24045 167.653 7.78151 167.653 8.25609C167.653 12.2841 167.538 19.3218 167.54 23.3511C167.54 24.5476 167.532 23.1664 167.532 26.3608H173.219C173.219 25.2721 173.219 25.2721 173.219 25.1644C173.219 18.9483 173.287 12.7321 173.191 6.5186C173.155 4.25866 171.912 2.51585 169.893 1.46698C166.455 -0.319703 162.975 1.91896 160.863 5.17593C158.568 8.71207 156.254 12.3546 153.995 15.9213C153.065 17.3836 152.12 18.8459 151.112 20.4265C150.777 19.9453 150.55 19.6422 150.347 19.3231C147.305 14.5374 144.297 9.03909 141.226 4.2693C139.651 1.82325 136.49 0.0285921 133.756 0.830205C130.772 1.70493 128.916 4.09914 128.904 7.19392C128.884 12.9873 128.914 18.7821 128.884 24.5755C128.884 25.07 128.884 25.07 128.884 26.3608H135.369C135.739 26.3608 134.826 26.3795 134.826 26.3795C134.826 25.4489 134.826 25.0833 134.826 24.5928C134.789 20.2577 134.826 12.6749 134.826 8.33851V6.35908L145.346 23.3498Z" fill="#FFFDF8"/>
<path d="M185.974 42.0928V47.7333C182.477 47.8219 180.728 49.7451 180.728 53.5028V67.0864H174.885V53.8032C174.876 40.9362 185.974 42.0928 185.974 42.0928Z" fill="#FFFDF8"/>
<path d="M238.38 67.8421C236.1 67.8315 234.025 67.2824 232.154 66.1631C230.29 65.0519 228.763 63.4541 227.736 61.5409C226.661 59.5743 226.123 57.3999 226.123 55.0176C226.1 52.7131 226.658 50.44 227.747 48.4093C228.772 46.4609 230.302 44.8247 232.176 43.6727C234.026 42.5277 236.161 41.9286 238.336 41.9446C239.813 41.9342 241.277 42.2123 242.648 42.7635C243.903 43.2504 245.031 44.0158 245.949 45.0021V34.6875H251.798V54.894C251.798 54.894 252.247 67.9086 238.38 67.8421ZM239.068 47.3259C238.13 47.3088 237.199 47.4919 236.337 47.863C235.475 48.2341 234.702 48.7847 234.069 49.4781C232.712 50.9139 232.035 52.6934 232.036 54.8169C232.036 56.9563 232.744 58.7647 234.16 60.2421C235.577 61.7194 237.293 62.4586 239.311 62.4595C241.289 62.4595 242.963 61.735 244.331 60.2859C245.7 58.8369 246.385 57.0644 246.386 54.9684C246.386 52.7581 245.697 50.9316 244.321 49.4888C242.944 48.0459 241.193 47.325 239.068 47.3259Z" fill="#FFFDF8"/>
<path d="M89.8375 45.1303C89.8375 74.6863 71.3487 99.6347 44.9207 108.746V90.2068C20.1128 90.2068 0 70.0721 0 45.2367C0 20.4013 20.1128 0.266602 44.9207 0.266602C69.7287 0.266602 89.8375 20.4 89.8375 45.2367M45.0894 35.184C36.4744 23.4934 23.1708 28.783 23.1708 28.783V74.8817C37.9283 72.5261 43.3539 81.1072 44.9247 90.2068C47.121 79.2487 58.5311 70.8192 74.7294 70.8192V17.8782C60.1085 17.8782 49.5775 23.8603 45.6789 33.2072C45.4154 33.8442 45.2179 34.5066 45.0894 35.184Z" fill="#FFFDF8"/>
<path d="M201.786 15.969H182.884C183.205 17.3898 184.042 18.6403 185.233 19.4772C186.436 20.3387 187.905 20.7694 189.64 20.7694C190.844 20.7694 191.848 20.5864 192.652 20.2204C193.456 19.8543 194.235 19.2264 194.991 18.3366H201.377C201.034 19.4418 200.389 20.5757 199.442 21.7385C196.919 24.6808 193.694 26.1516 189.766 26.1507C187.984 26.161 186.217 25.8251 184.563 25.1616C183.001 24.5484 181.574 23.6378 180.359 22.4803C179.171 21.3291 178.223 19.9538 177.57 18.4337C176.881 16.863 176.529 15.1652 176.537 13.4498C176.517 11.1723 177.108 8.93099 178.247 6.95984C179.359 5.01372 180.97 3.40046 182.913 2.28709C184.883 1.14692 187.121 0.556107 189.396 0.576178C191.786 0.576178 193.944 1.13939 195.869 2.26581C197.778 3.38021 199.338 5.0059 200.373 6.95984C201.456 8.96188 201.997 11.2112 201.997 13.7077C202.003 14.4667 201.932 15.2243 201.786 15.969ZM182.71 10.8017H196.236C195.862 9.2375 195.095 8.04106 193.934 7.21242C192.774 6.38378 191.29 5.96724 189.484 5.96281C187.734 5.96281 186.283 6.3758 185.13 7.20178C183.976 8.02777 183.17 9.22775 182.71 10.8017Z" fill="#FFFDF8"/>
<path d="M128.882 67.0731V34.5034H134.731V67.0731H128.882Z" fill="#FFFDF8"/>
<path d="M139.573 37.2564C139.573 36.5258 139.863 35.8252 140.379 35.3086C140.896 34.7921 141.596 34.502 142.325 34.502H142.669C143.399 34.502 144.099 34.7921 144.615 35.3086C145.131 35.8252 145.422 36.5258 145.422 37.2564C145.422 37.9873 145.132 38.6882 144.616 39.2051C144.099 39.7219 143.399 40.0122 142.669 40.0122H142.325C141.595 40.0122 140.895 39.7219 140.379 39.2051C139.863 38.6882 139.573 37.9873 139.573 37.2564ZM139.573 67.073V42.6391H145.415V67.073H139.573Z" fill="#FFFDF8"/>
<path d="M158.754 67.0731L148.928 42.6392H155.443L161.077 58.8283L166.625 42.6392H173.248L163.422 67.0731H158.754Z" fill="#FFFDF8"/>
<path d="M201.12 41.7843C202.807 41.7776 204.478 42.1047 206.039 42.7466C207.599 43.3885 209.017 44.3327 210.212 45.525C211.407 46.7172 212.355 48.1341 213.001 49.6941C213.647 51.2541 213.979 52.9265 213.978 54.6154C213.993 56.86 213.396 59.0661 212.252 60.9964C211.118 62.9382 209.489 64.5438 207.532 65.6492C204.552 67.3541 201.023 67.8218 197.703 66.952C194.382 66.0821 191.535 63.9441 189.771 60.9964C188.618 59.0688 188.016 56.8618 188.029 54.6154C188.03 52.9234 188.366 51.2484 189.017 49.6872C189.669 48.126 190.623 46.7096 191.825 45.5198C194.327 43.1223 197.656 41.7842 201.12 41.7843ZM200.883 47.1669C198.992 47.1669 197.361 47.895 195.992 49.3511C194.645 50.7513 193.907 52.6282 193.939 54.5715C193.939 56.6099 194.627 58.3536 196.002 59.8026C197.378 61.2516 199.034 61.9766 200.97 61.9775C202.917 61.9775 204.587 61.2561 205.98 59.8133C206.657 59.1304 207.191 58.3187 207.55 57.426C207.91 56.5334 208.087 55.5777 208.072 54.6154C208.072 52.5194 207.377 50.754 205.986 49.3192C205.333 48.6233 204.542 48.0723 203.663 47.7016C202.784 47.3309 201.837 47.1487 200.883 47.1669Z" fill="#FFFDF8"/>
<path d="M177.797 83.298C179.484 83.2913 181.156 83.6183 182.716 84.2603C184.277 84.9022 185.695 85.8464 186.89 87.0387C188.085 88.2309 189.032 89.6477 189.679 91.2077C190.325 92.7677 190.657 94.4402 190.656 96.1291C190.671 98.3736 190.074 100.58 188.93 102.51C187.795 104.452 186.167 106.057 184.21 107.163C181.23 108.868 177.701 109.335 174.38 108.466C171.06 107.596 168.212 105.458 166.448 102.51C165.296 100.582 164.694 98.3755 164.706 96.1291C164.707 94.437 165.043 92.7619 165.694 91.2006C166.346 89.6394 167.301 88.223 168.503 87.0335C171.004 84.636 174.334 83.2978 177.797 83.298ZM177.561 88.6793C175.669 88.6793 174.039 89.4078 172.669 90.8648C171.323 92.265 170.585 94.1418 170.616 96.0852C170.616 98.1236 171.304 99.8673 172.68 101.316C174.056 102.765 175.711 103.49 177.647 103.491C179.595 103.491 181.265 102.77 182.657 101.327C183.333 100.643 183.866 99.8315 184.224 98.9389C184.583 98.0462 184.759 97.0909 184.743 96.1291C184.743 94.0331 184.048 92.2677 182.657 90.8329C182.004 90.137 181.213 89.5858 180.334 89.2149C179.456 88.844 178.509 88.6615 177.556 88.6793H177.561Z" fill="#FFFDF8"/>
<path d="M238.731 83.298C240.417 83.2913 242.089 83.6183 243.649 84.2603C245.21 84.9022 246.628 85.8464 247.823 87.0387C249.018 88.2309 249.965 89.6477 250.612 91.2077C251.258 92.7677 251.59 94.4402 251.589 96.1291C251.604 98.3736 251.007 100.58 249.863 102.51C248.729 104.452 247.1 106.057 245.143 107.163C242.163 108.868 238.634 109.335 235.314 108.466C231.993 107.596 229.145 105.458 227.381 102.51C226.229 100.582 225.627 98.3755 225.639 96.1291C225.641 94.4371 225.977 92.7622 226.629 91.2011C227.28 89.64 228.234 88.2235 229.436 87.0335C231.938 84.636 235.267 83.2978 238.731 83.298ZM238.494 88.6793C236.602 88.6793 234.972 89.4078 233.602 90.8648C232.256 92.265 231.518 94.1418 231.55 96.0852C231.55 98.1236 232.237 99.8673 233.613 101.316C234.989 102.765 236.644 103.49 238.58 103.491C240.528 103.491 242.198 102.77 243.59 101.327C244.266 100.643 244.799 99.8315 245.158 98.9389C245.516 98.0462 245.692 97.0909 245.676 96.1291C245.676 94.0331 244.981 92.2677 243.59 90.8329C242.938 90.1377 242.148 89.5869 241.27 89.216C240.392 88.8451 239.447 88.6623 238.494 88.6793Z" fill="#FFFDF8"/>
<path d="M280.09 57.4724H261.185C261.505 58.8925 262.34 60.143 263.529 60.9806C264.733 61.8421 266.202 62.2728 267.937 62.2728C269.142 62.2728 270.146 62.0898 270.948 61.7238C271.75 61.3577 272.531 60.7298 273.291 59.84H279.678C279.334 60.9443 278.688 62.0783 277.742 63.2419C275.221 66.1851 271.997 67.6568 268.069 67.6568C266.287 67.667 264.519 67.3307 262.865 66.6664C261.304 66.0528 259.877 65.1417 258.662 63.9837C257.475 62.8325 256.527 61.4572 255.874 59.9371C255.186 58.3661 254.835 56.6684 254.842 54.9533C254.822 52.6755 255.412 50.4339 256.551 48.4619C257.664 46.517 259.275 44.9045 261.217 43.7905C263.187 42.6503 265.426 42.0595 267.701 42.0796C270.091 42.0796 272.248 42.6428 274.173 43.7692C276.082 44.883 277.642 46.5083 278.678 48.4619C279.76 50.4648 280.301 52.7146 280.302 55.2112C280.307 55.9701 280.236 56.7276 280.09 57.4724ZM261.017 52.3052H274.542C274.169 50.7409 273.401 49.5445 272.241 48.7158C271.08 47.8872 269.597 47.4707 267.79 47.4662C266.04 47.4662 264.588 47.8792 263.435 48.7052C262.281 49.5312 261.475 50.7312 261.017 52.3052Z" fill="#FFFDF8"/>
<path d="M194.786 108.374V75.8042H200.628V108.374H194.786Z" fill="#FFFDF8"/>
<path d="M205.151 100.289H211.042C211.329 101.323 211.731 102.073 212.247 102.539C212.763 103.006 213.451 103.239 214.31 103.239C215.084 103.239 215.719 103.013 216.214 102.561C216.455 102.346 216.645 102.082 216.773 101.786C216.901 101.491 216.963 101.171 216.955 100.849C216.955 100.046 216.583 99.4141 215.837 98.9542C215.538 98.7764 215.228 98.6183 214.908 98.4809C214.607 98.3515 213.904 98.1003 212.801 97.7272C210.363 96.9091 208.624 95.9476 207.586 94.8424C206.548 93.7373 206.028 92.2878 206.027 90.494C206.027 88.3989 206.805 86.6335 208.36 85.1978C209.916 83.7621 211.84 83.0447 214.134 83.0455C215.369 83.0388 216.591 83.2957 217.719 83.7993C218.815 84.2796 219.789 85.0007 220.568 85.909C221.067 86.4866 221.457 87.1501 221.718 87.8672C221.978 88.6751 222.12 89.5165 222.138 90.3651H216.418C216.16 89.0729 215.4 88.4273 214.139 88.4282C213.549 88.413 212.975 88.6247 212.536 89.0198C212.326 89.2026 212.159 89.4293 212.045 89.6841C211.932 89.9388 211.876 90.2153 211.882 90.494C211.882 91.2411 212.261 91.7866 213.021 92.1305C213.437 92.3015 214.44 92.6388 216.031 93.1421C218.497 93.9025 220.242 94.8211 221.267 95.8979C222.292 96.9747 222.804 98.437 222.804 100.285C222.804 102.625 221.959 104.598 220.267 106.206C218.575 107.814 216.511 108.617 214.074 108.616C212.603 108.624 211.15 108.297 209.825 107.659C208.574 107.082 207.491 106.197 206.675 105.087C206.233 104.459 205.885 103.77 205.642 103.041C205.378 102.144 205.213 101.221 205.151 100.289Z" fill="#FFFDF8"/>
<path d="M128.871 108.572V82.895H153.092C155.164 82.8992 157.15 83.7253 158.615 85.1923C160.081 86.6593 160.906 88.6477 160.91 90.7224C160.91 92.5142 160.313 94.2548 159.212 95.6677C160.126 96.819 160.698 98.2052 160.861 99.6671C161.025 101.129 160.773 102.607 160.136 103.933C159.498 105.258 158.5 106.376 157.256 107.16C156.012 107.943 154.573 108.359 153.104 108.361L128.871 108.572ZM134.892 98.7345V102.486L153.092 102.326C153.332 102.333 153.57 102.291 153.794 102.204C154.018 102.117 154.221 101.985 154.393 101.818C154.566 101.65 154.702 101.449 154.796 101.228C154.889 101.007 154.937 100.769 154.937 100.529C154.937 100.288 154.889 100.05 154.796 99.8289C154.702 99.6075 154.566 99.4071 154.393 99.2395C154.221 99.0719 154.018 98.9405 153.794 98.8531C153.57 98.7657 153.332 98.724 153.092 98.7305L134.892 98.7345ZM134.892 92.7058H153.092C154.032 92.7058 154.888 91.7606 154.888 90.7224C154.887 90.2459 154.697 89.7893 154.361 89.4527C154.024 89.116 153.568 88.9267 153.092 88.9264H134.892V92.7058Z" fill="#FFFDF8"/>
<path d="M219.347 26.3129C211.466 26.3129 205.054 20.5142 205.054 13.3874V0.558968H211.077V13.3874C211.077 17.1894 214.787 20.2829 219.347 20.2829C223.907 20.2829 227.617 17.1894 227.617 13.3874V0.390137H233.64V13.3821C233.64 20.5116 227.228 26.3129 219.347 26.3129Z" fill="#FFFDF8"/>
<path d="M145.346 23.3498C147.967 27.4283 154.591 27.4789 156.926 23.2395L167.682 6.35642C167.682 7.24045 167.653 7.78151 167.653 8.25609C167.653 12.2841 167.538 19.3218 167.54 23.3511C167.54 24.5476 167.532 23.1664 167.532 26.3608H173.219C173.219 25.2721 173.219 25.2721 173.219 25.1644C173.219 18.9483 173.287 12.7321 173.191 6.5186C173.155 4.25866 171.912 2.51585 169.893 1.46698C166.455 -0.319703 162.975 1.91896 160.863 5.17593C158.568 8.71207 156.254 12.3546 153.995 15.9213C153.065 17.3836 152.12 18.8459 151.112 20.4265C150.777 19.9453 150.55 19.6422 150.347 19.3231C147.305 14.5374 144.297 9.03909 141.226 4.2693C139.651 1.82325 136.49 0.0285921 133.756 0.830205C130.772 1.70493 128.916 4.09914 128.904 7.19392C128.884 12.9873 128.914 18.7821 128.884 24.5755C128.884 25.07 128.884 25.07 128.884 26.3608H135.369C135.739 26.3608 134.826 26.3795 134.826 26.3795C134.826 25.4489 134.826 25.0833 134.826 24.5928C134.789 20.2577 134.826 12.6749 134.826 8.33851V6.35908L145.346 23.3498Z" fill="#FFFDF8"/>
<path d="M185.974 42.0928V47.7333C182.477 47.8219 180.728 49.7451 180.728 53.5028V67.0864H174.885V53.8032C174.876 40.9362 185.974 42.0928 185.974 42.0928Z" fill="#FFFDF8"/>
<path d="M238.38 67.8421C236.1 67.8315 234.025 67.2824 232.154 66.1631C230.29 65.0519 228.763 63.4541 227.736 61.5409C226.661 59.5743 226.123 57.3999 226.123 55.0176C226.1 52.7131 226.658 50.44 227.747 48.4093C228.772 46.4609 230.302 44.8247 232.176 43.6727C234.026 42.5277 236.161 41.9286 238.336 41.9446C239.813 41.9342 241.277 42.2123 242.648 42.7635C243.903 43.2504 245.031 44.0158 245.949 45.0021V34.6875H251.798V54.894C251.798 54.894 252.247 67.9086 238.38 67.8421ZM239.068 47.3259C238.13 47.3088 237.199 47.4919 236.337 47.863C235.475 48.2341 234.702 48.7847 234.069 49.4781C232.712 50.9139 232.035 52.6934 232.036 54.8169C232.036 56.9563 232.744 58.7647 234.16 60.2421C235.577 61.7194 237.293 62.4586 239.311 62.4595C241.289 62.4595 242.963 61.735 244.331 60.2859C245.7 58.8369 246.385 57.0644 246.386 54.9684C246.386 52.7581 245.697 50.9316 244.321 49.4888C242.944 48.0459 241.193 47.325 239.068 47.3259Z" fill="#FFFDF8"/>
<path d="M89.8375 45.1303C89.8375 74.6863 71.3487 99.6347 44.9207 108.746V90.2068C20.1128 90.2068 0 70.0721 0 45.2367C0 20.4013 20.1128 0.266602 44.9207 0.266602C69.7287 0.266602 89.8375 20.4 89.8375 45.2367M45.0894 35.184C36.4744 23.4934 23.1708 28.783 23.1708 28.783V74.8817C37.9283 72.5261 43.3539 81.1072 44.9247 90.2068C47.121 79.2487 58.5311 70.8192 74.7294 70.8192V17.8782C60.1085 17.8782 49.5775 23.8603 45.6789 33.2072C45.4154 33.8442 45.2179 34.5066 45.0894 35.184Z" fill="#FFFDF8"/>
</svg>
