<svg width="311" height="58" viewBox="0 0 311 58" fill="none" xmlns="http://www.w3.org/2000/svg">
<g clip-path="url(#clip0_47_258)">
<path d="M0 18.8643H0.532228L18.3196 32.7615L35.6841 18.8643H36.2163V56.2581H27.8251V34.6694L18.2649 42.8378H18.051L8.38632 34.6694V56.2581H0V18.8643Z" fill="#FFFDF8"/>
<path d="M118.358 18.8643H118.891L138.111 33.8198V19.6592H146.606V56.2581H138.111V43.6875L126.854 34.6197V56.2581H118.358V18.8643Z" fill="#FFFDF8"/>
<path d="M185.474 18.8145H186.056L205.385 56.2629H195.989L193.601 51.2248H177.779L175.232 56.2629H166.154L185.484 18.8145H185.474ZM190.254 44.219L185.688 34.724L181.176 44.219H190.254Z" fill="#FFFDF8"/>
<path d="M224.928 19.6592H236.398C242.949 19.6592 248.003 21.2591 251.559 24.4589C255.116 27.6587 256.897 32.1602 256.897 37.9586C256.897 43.757 255.116 48.2586 251.559 51.4583C248.003 54.6581 242.949 56.258 236.398 56.258H224.928V19.6592ZM237.617 48.4076C240.806 48.4076 243.342 47.4636 245.237 45.5705C247.133 43.6775 248.078 41.1435 248.078 37.9586C248.078 34.7737 247.133 32.2397 245.237 30.3467C243.342 28.4536 240.806 27.5096 237.617 27.5096H233.424V48.4076H237.617Z" fill="#FFFDF8"/>
<path d="M291.089 18.8145H291.671L311 56.2629H301.604L299.217 51.2248H283.394L280.847 56.2629H271.77L291.099 18.8145H291.089ZM295.864 44.219L291.298 34.724L286.786 44.219H295.864Z" fill="#FFFDF8"/>
<path d="M77.2476 57.2665C66.5483 57.2665 57.8486 48.5714 57.8486 37.8888C57.8486 27.2063 66.5533 18.5112 77.2476 18.5112C87.9419 18.5112 96.6465 27.2063 96.6465 37.8888C96.6465 48.5714 87.9419 57.2665 77.2476 57.2665ZM77.2476 25.2487C70.2689 25.2487 64.5935 30.9179 64.5935 37.8888C64.5935 44.8598 70.2689 50.529 77.2476 50.529C84.2262 50.529 89.9017 44.8598 89.9017 37.8888C89.9017 30.9179 84.2262 25.2487 77.2476 25.2487Z" fill="#FFFDF8"/>
<path d="M77.2475 14.5613C69.6023 14.5613 62.6485 10.0548 59.5298 3.08381L65.6877 0.331194C67.7221 4.88245 72.2635 7.8189 77.2475 7.8189C82.2315 7.8189 86.8127 4.85264 88.8371 0.266602L95.0149 2.97947C91.9161 10.015 84.9424 14.5613 77.2525 14.5613H77.2475Z" fill="#FFFDF8"/>
<path d="M77.2476 41.2428C79.1019 41.2428 80.6052 39.7412 80.6052 37.889C80.6052 36.0367 79.1019 34.5352 77.2476 34.5352C75.3933 34.5352 73.8901 36.0367 73.8901 37.889C73.8901 39.7412 75.3933 41.2428 77.2476 41.2428Z" fill="#FFFDF8"/>
</g>
<defs>
<clipPath id="clip0_47_258">
<rect width="311" height="57" fill="white" transform="translate(0 0.266602)"/>
</clipPath>
</defs>
</svg>
