<svg width="501" height="196" viewBox="0 0 501 196" fill="none" xmlns="http://www.w3.org/2000/svg">
<path d="M15.8871 100.915C12.6193 100.915 9.79059 100.17 7.4269 98.666C5.06321 97.1621 3.22909 95.1569 1.93745 92.6247C0.645817 90.0925 0 87.2646 0 84.1412C0 81.0177 0.6329 78.2541 1.91162 75.7219C3.17742 73.1897 4.99863 71.1845 7.37523 69.7192C9.73892 68.241 12.6063 67.4954 15.9646 67.4954C18.5866 67.4954 20.9116 68.0353 22.9394 69.1022C24.9673 70.169 26.5302 71.6729 27.6539 73.601V55.1558H33.0788V100.144H28.1705L27.6539 94.8741C26.6206 96.4166 25.1352 97.8048 23.1978 99.0516C21.2603 100.298 18.832 100.915 15.9 100.915H15.8871ZM16.4683 96.2238C18.832 96.2238 20.8341 95.6839 22.4744 94.5785C24.1148 93.4859 25.3548 92.0334 26.1943 90.2082C27.0339 88.3829 27.4601 86.3777 27.4601 84.1926C27.4601 81.8789 27.0339 79.8223 26.1685 78.0227C25.3031 76.2232 24.0631 74.7964 22.4228 73.7424C20.7824 72.6884 18.8062 72.1742 16.4813 72.1742C14.4146 72.1742 12.5676 72.6627 10.9272 73.6524C9.28685 74.6422 7.99522 76.0175 7.02649 77.7914C6.05777 79.5652 5.57986 81.6989 5.57986 84.1797C5.57986 86.6605 6.07068 88.8071 7.06524 90.6067C8.0598 92.4062 9.37726 93.7944 11.0306 94.7584C12.6838 95.7225 14.5051 96.1981 16.4942 96.1981L16.4683 96.2238Z" fill="white"/>
<path d="M56.7026 100.915C53.7706 100.915 51.0839 100.26 48.6298 98.9617C46.1757 97.6635 44.2125 95.7482 42.7529 93.2417C41.2934 90.7352 40.5571 87.7017 40.5571 84.1412C40.5571 80.5807 41.2804 77.8171 42.7271 75.3363C44.1737 72.8555 46.1241 70.9275 48.604 69.5521C51.0839 68.1767 53.8739 67.4955 56.9738 67.4955C60.0737 67.4955 62.6699 68.1382 65.1369 69.4236C67.6169 70.7089 69.606 72.5985 71.1043 75.0793C72.6155 77.56 73.3646 80.5807 73.3646 84.1412C73.3646 87.3932 72.6543 90.2853 71.2335 92.8175C69.8127 95.3498 67.8494 97.3292 65.3307 98.756C62.812 100.196 59.9317 100.903 56.7026 100.903V100.915ZM56.7026 96.2238C58.8079 96.2238 60.7066 95.7225 62.3857 94.7199C64.0649 93.7173 65.3953 92.3034 66.3898 90.5039C67.3844 88.7043 67.8752 86.5834 67.8752 84.1412C67.8752 81.8275 67.449 79.7709 66.5836 77.9714C65.7182 76.1718 64.4782 74.7579 62.8378 73.7296C61.1975 72.7013 59.2212 72.1871 56.8963 72.1871C54.5714 72.1871 52.5306 72.727 50.929 73.7939C49.3144 74.8607 48.1003 76.3004 47.2865 78.0999C46.4728 79.8994 46.0595 81.9175 46.0595 84.1412C46.0595 86.969 46.5761 89.2699 47.6095 91.0566C48.6428 92.8304 49.9731 94.1415 51.6135 94.977C53.2539 95.8125 54.9459 96.2367 56.7155 96.2367L56.7026 96.2238Z" fill="white"/>
<path d="M91.7969 50.734C91.7323 47.8419 91.6936 44.9498 91.6807 42.0577C91.6807 41.9677 92.0423 41.9035 92.7786 41.852C93.5019 41.8006 94.2898 41.7878 95.1293 41.8135C95.9689 41.8392 96.7568 41.8906 97.4801 41.9806C98.2034 42.0706 98.5651 42.1605 98.5651 42.2505C98.6813 43.1117 98.8105 43.9472 98.9784 44.7699C99.7663 44.2429 100.593 43.7544 101.471 43.2788C104.093 41.9035 106.844 40.8366 109.738 40.1039C112.618 39.3712 115.55 39.2427 118.534 39.7183C120.885 40.3224 122.874 41.3893 124.514 42.9318C124.876 43.2145 125.25 43.4973 125.651 43.7801C128.518 47.0707 130.313 50.7083 131.05 54.7059C131.786 58.7034 131.98 62.8038 131.644 66.9942C130.546 73.9738 127.304 79.758 121.918 84.3725L119.696 86.0821C119.283 86.3392 118.882 86.6091 118.521 86.8662C114.827 89.1156 110.913 90.8894 106.793 92.1877C106.651 92.2262 106.354 91.9306 105.902 91.2879C105.437 90.6452 104.946 89.8868 104.429 89.0128L104.3 88.7429C104.894 93.8201 105.527 98.8845 106.212 103.91C107.374 113.114 108.524 122.343 109.634 131.598C109.583 131.726 109.105 131.893 108.188 132.099C107.271 132.305 106.199 132.472 104.972 132.626C103.745 132.767 102.66 132.857 101.73 132.883C100.8 132.909 100.283 132.819 100.205 132.639C96.6535 112.291 94.1993 91.8021 92.8302 71.1459C92.7785 69.7834 92.7011 68.4338 92.5977 67.0713C92.3265 63.5365 92.1198 60.0274 91.9907 56.544C91.2673 56.2483 90.6603 55.9913 90.1695 55.747C89.5365 55.4643 89.2266 55.2457 89.2266 55.1172C89.8982 53.549 90.7636 52.1094 91.7969 50.7726V50.734ZM100.05 52.9835C100.464 56.2998 100.851 59.6289 101.213 62.9838L102.104 70.4647C102.66 75.3234 103.228 80.1693 103.835 85.0152C107.038 84.0641 110.164 82.7787 113.199 81.1976C116.105 79.3724 118.456 77.3286 120.239 75.0407C122.021 72.7655 123.209 69.912 123.804 66.4929C124.114 63.4208 124.075 60.3744 123.7 57.3409C123.326 54.3074 122.15 51.5567 120.174 49.1145C119.955 48.9731 119.748 48.806 119.58 48.626C119.18 48.3047 118.753 48.0219 118.314 47.7777C116.338 46.8265 114.388 46.5951 112.437 47.0836C110.487 47.572 108.575 48.2661 106.689 49.1659C106.547 49.2044 106.431 49.2559 106.341 49.2944C104.274 50.3227 102.311 51.4667 100.464 52.7392L100.05 52.9963V52.9835Z" fill="white"/>
<path d="M202.864 78.7554C202.748 78.0099 202.58 77.6757 202.348 77.7528C202.115 77.8428 201.96 77.9071 201.87 77.9456C201.779 77.9842 201.663 78.0356 201.521 78.0999C201.379 78.1641 201.237 78.2284 201.069 78.2927C200.914 78.3569 200.733 78.4469 200.552 78.5497C200.371 78.6526 200.165 78.7811 199.932 78.9097C199.7 79.0382 199.441 79.1924 199.17 79.3595C198.899 79.5395 198.589 79.7066 198.266 79.8737C197.943 80.0408 197.607 80.2593 197.259 80.4907C196.91 80.7349 196.535 80.9663 196.109 81.2105C195.696 81.4419 195.269 81.7247 194.83 82.0203C194.391 82.3288 193.913 82.6501 193.409 82.9972C188.992 86.9047 184.291 90.401 179.305 93.4731C174.319 96.558 168.959 98.9616 163.237 100.71C162.049 100.864 160.886 101.005 159.749 101.16C157.425 101.597 155.138 101.802 152.891 101.789C150.643 101.777 148.396 101.134 146.161 99.8486C142.945 97.8691 141.072 95.2212 140.543 91.9049C140.013 88.5886 140.207 85.2723 141.111 81.956C141.615 80.2979 142.196 78.6654 142.881 77.0459C143.217 76.2361 143.539 75.4391 143.837 74.6293L145.128 72.0843C145.942 70.349 146.833 68.6523 147.789 66.9941C150.023 63.2537 152.658 59.8089 155.694 56.6597C158.729 53.5105 162.255 50.9654 166.246 49.0373C168.817 47.8419 171.013 47.1221 172.808 46.865C174.603 46.6208 176.618 46.5437 178.84 46.6465C180.015 46.6722 181.41 46.6851 182.999 46.6851C183.761 46.8393 184.562 46.9936 185.376 47.1478C186.913 47.4177 188.45 47.7905 189.974 48.279C193.254 49.4487 196.626 51.1711 200.087 53.4205C203.549 55.6828 206.558 58.0222 209.129 60.4387C209.568 60.8629 210.007 61.3256 210.459 61.8269C210.64 62.0583 210.834 62.2896 211.053 62.521C211.092 62.611 210.859 62.9066 210.343 63.3822C209.826 63.8707 209.232 64.3977 208.535 64.9632C207.837 65.5288 207.191 66.0173 206.584 66.4029C205.977 66.7885 205.641 66.9684 205.551 66.917C203.084 65.6316 200.643 64.2306 198.24 62.7267C196.096 61.3642 193.913 60.0788 191.692 58.8962C189.47 57.7137 187.119 56.7625 184.652 56.0684C183.477 55.8113 182.25 55.6185 180.984 55.5028C180.351 55.4385 179.744 55.3614 179.15 55.2457C178.788 55.2843 178.439 55.3357 178.129 55.4257C175.662 55.7213 173.221 56.3769 170.793 57.4052C166.698 59.5132 163.327 62.4439 160.679 66.1972C158.032 69.9505 155.707 73.8324 153.692 77.8428L153.265 78.6397C153.123 78.9996 152.93 79.4495 152.684 79.9765C151.728 81.9432 150.824 84.2826 149.972 86.9947C149.132 89.7069 149.184 91.8406 150.14 93.4088C150.54 93.8715 151.173 94.0772 152.064 94.0386C152.956 94.0001 153.808 93.8715 154.635 93.6659C155.461 93.4602 155.978 93.3445 156.21 93.306C156.947 93.0489 157.683 92.7404 158.419 92.3419C158.742 92.1748 159.091 91.9949 159.452 91.8278C164.361 90.1054 168.985 87.8302 173.325 85.0024C177.664 82.1745 181.862 79.1282 185.905 75.8376C186.641 75.272 187.39 74.655 188.14 73.9995C189.16 73.074 190.258 72.1999 191.407 71.3773C192.467 70.5932 193.577 69.8734 194.74 69.2307C195.334 68.8837 196.006 68.5238 196.742 68.1638C197.478 67.8039 198.356 67.5083 199.39 67.2898C200.423 67.0713 201.611 67.0327 202.968 67.1741C204.324 67.3283 206.029 68.241 208.07 69.912C209.18 71.0303 209.955 72.4313 210.407 74.1152C210.485 74.4365 210.601 74.7322 210.73 75.0021C211.57 77.38 212.112 79.848 212.345 82.4316C212.577 85.0152 212.694 87.5731 212.719 90.1054C212.745 90.7352 212.771 91.3907 212.81 92.072C212.939 94.0643 213.314 95.9796 213.921 97.8305C214.528 99.6815 215.587 101.327 217.098 102.766C217.628 103.191 218.209 103.563 218.842 103.898C219.113 104.09 219.397 104.27 219.707 104.463C219.798 104.604 219.552 104.977 218.997 105.594C218.441 106.211 217.77 106.905 216.995 107.677C216.22 108.448 215.509 109.09 214.864 109.617C214.218 110.144 213.817 110.376 213.688 110.337C213.249 109.965 212.797 109.617 212.358 109.283C211.415 108.628 210.549 107.908 209.762 107.111C207.863 105.029 206.442 102.715 205.512 100.183C204.582 97.6506 203.988 95.0027 203.743 92.2391L203.652 90.3367C203.588 87.6631 203.433 84.861 203.187 81.9175C203.084 80.5164 202.981 79.4367 202.864 78.6911V78.7554Z" fill="white"/>
<path d="M228.787 54.3074C228.723 51.4153 228.684 48.5232 228.671 45.6311C228.671 45.5411 229.033 45.4768 229.769 45.4254C230.492 45.374 231.28 45.3611 232.12 45.3868C232.959 45.4125 233.747 45.464 234.47 45.5539C235.194 45.6439 235.555 45.7339 235.555 45.8239C235.672 46.6851 235.801 47.5206 235.969 48.3432C236.757 47.8162 237.583 47.3278 238.462 46.8522C241.084 45.4768 243.835 44.41 246.728 43.6773C249.608 42.9446 252.54 42.8161 255.524 43.2917C257.875 43.8958 259.864 44.9627 261.504 46.5051C261.866 46.7879 262.24 47.0707 262.641 47.3535C265.508 50.6441 267.304 54.2817 268.04 58.2792C268.776 62.2768 268.97 66.3772 268.634 70.5675C267.536 77.5472 264.294 83.3314 258.908 87.9459L256.686 89.6555C256.273 89.9125 255.873 90.1825 255.511 90.4396C251.817 92.689 247.903 94.4628 243.783 95.761C243.641 95.7996 243.344 95.504 242.892 94.8613C242.427 94.2186 241.936 93.4602 241.419 92.5861L241.29 92.3162C241.884 97.3935 242.517 102.458 243.202 107.484C244.364 116.687 245.514 125.916 246.625 135.171C246.573 135.299 246.095 135.467 245.178 135.672C244.261 135.878 243.189 136.045 241.962 136.199C240.735 136.341 239.65 136.431 238.72 136.456C237.79 136.482 237.273 136.392 237.196 136.212C233.644 115.864 231.19 95.3754 229.82 74.7193C229.769 73.3568 229.691 72.0071 229.588 70.6446C229.317 67.1098 229.11 63.6007 228.981 60.1173C228.258 59.8217 227.651 59.5646 227.16 59.3204C226.527 59.0376 226.217 58.8191 226.217 58.6906C226.888 57.1224 227.754 55.6828 228.787 54.346V54.3074ZM237.041 56.5568C237.454 59.8731 237.842 63.2023 238.203 66.5571L239.094 74.0381C239.65 78.8968 240.218 83.7427 240.825 88.5886C244.028 87.6374 247.154 86.352 250.19 84.771C253.096 82.9458 255.446 80.902 257.229 78.614C259.011 76.3389 260.2 73.4853 260.794 70.0662C261.104 66.9942 261.065 63.9478 260.691 60.9143C260.316 57.8808 259.141 55.1301 257.164 52.6878C256.945 52.5464 256.738 52.3793 256.57 52.1994C256.17 51.878 255.744 51.5952 255.304 51.351C253.328 50.3998 251.378 50.1685 249.427 50.6569C247.477 51.1454 245.565 51.8395 243.68 52.7392C243.538 52.7778 243.421 52.8292 243.331 52.8678C241.264 53.8961 239.301 55.0401 237.454 56.3126L237.041 56.5697V56.5568Z" fill="white"/>
<path d="M285.929 81.0305C285.852 82.0203 285.813 83.0357 285.774 84.0769C285.8 84.5782 285.839 85.0281 285.878 85.4394C285.904 86.3906 285.994 87.2775 286.149 88.0873C286.304 88.9099 286.653 89.7969 287.169 90.7609C288.474 93.0103 290.321 94.8741 292.711 96.3266C295.1 97.792 297.528 99.0516 300.008 100.106C300.641 100.388 301.235 100.684 301.829 100.967C303.263 101.507 304.322 101.892 305.007 102.137C305.588 102.381 306.04 102.561 306.35 102.676C306.66 102.792 306.996 102.908 307.332 103.011C307.668 103.113 308.133 103.255 308.714 103.448C309.386 103.64 310.354 103.949 311.62 104.335C311.749 104.476 311.633 104.952 311.271 105.748C310.91 106.545 310.445 107.471 309.876 108.486C309.308 109.515 308.753 110.389 308.236 111.121C307.719 111.854 307.396 112.188 307.254 112.15C305.808 111.751 304.723 111.43 304.012 111.186C303.289 110.98 302.747 110.826 302.385 110.697C302.023 110.569 301.662 110.453 301.3 110.324C300.938 110.196 300.422 109.99 299.75 109.707C298.988 109.373 297.812 108.885 296.25 108.255C295.449 107.831 294.7 107.445 294.028 107.111C292.504 106.353 291.109 105.581 289.83 104.797C288.551 104.013 287.144 102.959 285.594 101.597C280.182 96.8408 277.379 90.8894 277.211 83.7427L277.25 82.2517C277.237 81.2105 277.237 80.1693 277.263 79.1282C277.521 74.7065 278.36 70.4647 279.807 66.4157C281.254 62.3668 283.424 58.652 286.33 55.2972C286.937 54.7316 287.492 54.2174 288.009 53.7804C289.029 52.7649 290.011 51.9166 290.941 51.2096C291.871 50.5155 293.176 49.7957 294.88 49.0759C298.742 47.4177 302.695 46.7108 306.764 46.9807C310.819 47.2507 314.759 48.099 318.582 49.5643C319.344 49.95 320.042 50.2842 320.662 50.5669C322.147 51.2353 323.503 51.9294 324.769 52.6364C326.022 53.3434 327.352 54.3331 328.773 55.5928C330.943 57.4566 332.596 59.5261 333.72 61.7883C334.844 64.0506 335.27 66.6342 335.012 69.5135C334.895 70.4133 334.689 71.313 334.392 72.2128C334.25 72.6113 334.12 73.0483 334.017 73.4853C333.733 74.0638 333.462 74.6036 333.229 75.0921C332.79 76.1718 332.299 77.1101 331.757 77.9328C331.214 78.7554 330.362 79.6552 329.199 80.6064C326.874 82.483 324.252 83.7427 321.333 84.3725C318.414 85.0024 315.469 85.4009 312.511 85.5937C312.008 85.6708 311.504 85.7222 311.013 85.7608C303.005 86.0435 295.023 85.6194 287.066 84.4625C286.924 84.4625 286.756 84.1283 286.549 83.4599C286.343 82.8044 286.149 82.0331 285.994 81.1719C285.955 81.082 285.929 81.0177 285.929 80.9663V81.0305ZM286.227 77.7785C291.69 77.3286 297.167 77.1101 302.669 77.123C304.671 77.123 306.66 77.123 308.662 77.0716C309.76 76.9687 310.961 76.8788 312.279 76.8273C314.371 76.7888 316.477 76.6345 318.595 76.3517C320.713 76.069 322.509 75.4006 323.994 74.3594C324.601 73.9224 325.04 73.4725 325.324 73.0097C325.608 72.547 325.867 72.02 326.112 71.4416C326.216 71.1716 326.332 70.876 326.474 70.5675C326.577 70.2076 326.655 69.8734 326.706 69.5521C326.9 68.8837 327.029 68.2281 327.068 67.5983C327.107 66.9684 326.952 66.2615 326.616 65.4903C325.583 63.5622 323.774 61.9297 321.191 60.5672C318.621 59.2176 316.27 58.125 314.152 57.3024C313.88 57.1995 313.635 57.1095 313.415 57.0067C312.653 56.8011 311.969 56.6082 311.388 56.4154C310.212 56.0684 309.166 55.7985 308.236 55.6185C307.306 55.4385 306.053 55.3486 304.464 55.3486C303.961 55.3743 303.483 55.4643 303.031 55.5799L302.617 55.7085C302.385 55.747 302.178 55.8113 301.997 55.9013C300.77 56.1455 299.685 56.4283 298.768 56.7625C297.851 57.0967 296.831 57.6623 295.72 58.4463C295.023 58.9734 294.403 59.5261 293.834 60.0916C293.511 60.4001 293.188 60.6829 292.853 60.9528C290.089 64.2306 288.241 67.8425 287.324 71.7886C286.821 73.7681 286.446 75.7605 286.214 77.7914L286.227 77.7785Z" fill="white"/>
<path d="M364.163 108.911C360.805 108.821 358.234 107.895 356.465 106.134C354.36 103.371 352.745 100.311 351.634 96.9565C350.523 93.6016 349.593 90.2211 348.87 86.8148L348.25 84.3597C344.724 64.9247 343.213 45.554 343.717 26.2603C343.949 17.584 344.517 8.94622 345.421 0.334141C345.421 0.0642103 346.571 -0.0386204 348.831 0.0127949C351.092 0.0642103 352.306 0.244163 352.293 0.514094C352.59 6.58111 352.745 12.6353 352.771 18.7023C352.861 41.0808 354.295 62.5853 357.059 83.2286C357.757 87.9974 358.803 92.6504 360.236 97.2136L360.366 97.6891C360.779 99.373 361.489 100.903 362.497 102.291C363.181 102.124 363.866 102.059 364.551 102.072C365.274 102.085 365.984 102.201 366.656 102.394H366.721C366.721 102.394 366.785 102.471 366.785 102.599C366.785 102.779 366.708 103.139 366.553 103.679C366.398 104.219 366.152 104.913 365.816 105.761C365.481 106.61 365.132 107.342 364.809 107.972C364.473 108.602 364.266 108.911 364.176 108.911H364.163Z" fill="white"/>
<path d="M196.537 171.902C194.342 171.902 192.34 171.543 190.531 170.81C188.723 170.077 187.289 168.985 186.243 167.494C185.184 166.015 184.654 164.203 184.654 162.069C184.654 159.588 185.3 157.596 186.592 156.131C187.883 154.653 189.601 153.586 191.732 152.917C193.864 152.249 196.15 151.915 198.604 151.915H207.258C207.258 149.691 206.883 147.93 206.121 146.645C205.372 145.359 204.39 144.434 203.189 143.881C201.988 143.328 200.645 143.046 199.185 143.046C197.08 143.046 195.259 143.547 193.722 144.549C192.197 145.552 191.242 147.107 190.841 149.203H185.287C185.507 146.889 186.282 144.935 187.612 143.354C188.943 141.773 190.635 140.552 192.688 139.716C194.729 138.881 196.899 138.457 199.172 138.457C202.401 138.457 205.01 139.048 206.987 140.231C208.963 141.413 210.41 142.981 211.314 144.961C212.218 146.927 212.67 149.113 212.67 151.516V161.285C212.67 162.866 212.864 164.074 213.251 164.884C213.639 165.694 214.633 166.195 216.222 166.362V171.118C214.801 171.118 213.509 170.938 212.347 170.578C211.184 170.219 210.203 169.614 209.402 168.779C208.601 167.943 208.033 166.838 207.697 165.463C206.625 167.262 205.14 168.779 203.267 170.026C201.394 171.273 199.146 171.89 196.524 171.89L196.537 171.902ZM197.377 167.339C199.534 167.339 201.342 166.799 202.802 165.707C204.261 164.614 205.372 163.213 206.134 161.491C206.883 159.781 207.271 157.995 207.271 156.156V156.092H199.069C197.558 156.092 196.137 156.246 194.807 156.581C193.476 156.902 192.391 157.48 191.577 158.316C190.764 159.151 190.35 160.321 190.35 161.812C190.35 163.74 191.035 165.141 192.417 166.028C193.799 166.902 195.452 167.339 197.39 167.339H197.377Z" fill="white"/>
<path d="M236.707 171.902C233.775 171.902 231.088 171.247 228.634 169.949C226.18 168.65 224.217 166.735 222.757 164.229C221.298 161.722 220.562 158.689 220.562 155.128C220.562 151.568 221.285 148.804 222.731 146.323C224.178 143.842 226.128 141.914 228.608 140.539C231.088 139.164 233.878 138.482 236.978 138.482C240.078 138.482 242.674 139.125 245.141 140.41C247.621 141.696 249.61 143.585 251.109 146.066C252.62 148.547 253.369 151.568 253.369 155.128C253.369 158.38 252.659 161.272 251.238 163.804C249.817 166.337 247.854 168.316 245.335 169.743C242.816 171.183 239.936 171.89 236.707 171.89V171.902ZM236.707 167.211C238.812 167.211 240.711 166.709 242.39 165.707C244.069 164.704 245.4 163.29 246.394 161.491C247.389 159.691 247.88 157.57 247.88 155.128C247.88 152.814 247.453 150.758 246.588 148.958C245.723 147.159 244.483 145.745 242.842 144.717C241.202 143.688 239.226 143.174 236.901 143.174C234.576 143.174 232.535 143.714 230.933 144.781C229.319 145.848 228.105 147.287 227.291 149.087C226.477 150.886 226.064 152.904 226.064 155.128C226.064 157.956 226.581 160.257 227.614 162.043C228.647 163.817 229.978 165.128 231.618 165.964C233.258 166.799 234.95 167.224 236.72 167.224L236.707 167.211Z" fill="white"/>
<path d="M265.33 195.451V132.171H275.909V121.644H308.69V132.171H319.385V164.679H308.69V175.09H277.071V195.451H265.33ZM277.071 163.522H307.528V133.212H277.071V163.522Z" fill="white"/>
<path d="M333.334 112.389V100.705H345.075V112.389H333.334ZM333.334 175.09V121.644H345.075V175.09H333.334Z" fill="white"/>
<path d="M359.025 175.09V163.522H369.604V152.994H380.066V143.624H369.604V133.212H359.025V121.644H370.766V132.171H381.229V142.467H390.761V132.171H401.223V121.644H413.08V133.212H402.386V143.624H391.923V152.994H402.386V163.522H413.08V175.09H401.223V164.679H390.761V154.151H381.229V164.679H370.766V175.09H359.025Z" fill="white"/>
<path d="M431.795 175.09V164.679H421.217V132.171H431.795V121.644H464.577V132.171H475.272V143.624H463.415V133.212H432.958V142.467H454.115V154.151H432.958V163.522H463.415V152.879H475.272V164.563H464.577V175.09H431.795Z" fill="white"/>
<path d="M489.221 175.09V100.705H500.962V175.09H489.221Z" fill="white"/>
</svg>
