<svg width="62" height="61" viewBox="0 0 62 61" fill="none" xmlns="http://www.w3.org/2000/svg">
<path d="M51.0226 0.266602H10.9795C4.90761 0.266602 0 5.13754 0 11.164V49.3692C0 55.3957 4.90761 60.2666 10.9795 60.2666H51.0226C57.0944 60.2666 62.002 55.3957 62.002 49.3692V11.164C62.002 5.13754 57.0944 0.266602 51.0226 0.266602ZM31.3557 14.6828C22.8907 14.6828 16.0326 21.4415 16.0326 29.7972C16.0326 33.0832 17.12 36.1807 18.9654 38.6684L17.0271 44.3016L22.9392 42.4239C25.3506 44.0208 28.2834 44.9115 31.4043 44.9115C39.8693 44.9115 46.7739 38.1528 46.7739 29.7972C46.7274 21.4415 39.8228 14.6828 31.3557 14.6828ZM40.3402 36.0403C39.9622 37.0735 38.1168 38.0585 37.3144 38.1528C36.512 38.2471 36.5099 38.8108 31.9237 37.0735C27.384 35.29 24.4996 30.736 24.2632 30.409C24.0267 30.1282 22.4178 28.0157 22.4178 25.8551C22.4178 23.6944 23.5537 22.6171 23.9782 22.1938C24.4026 21.7705 24.8776 21.6301 25.1606 21.6301C25.4436 21.6301 25.7751 21.6763 26.0115 21.6763C26.2945 21.6763 26.626 21.5358 27.004 22.4266C27.382 23.3193 28.2814 25.4779 28.3764 25.7126C28.4714 25.9474 28.5664 26.1821 28.4229 26.4629C28.2814 26.7438 28.1864 26.9324 27.9964 27.2132C27.7599 27.448 27.5234 27.777 27.3334 27.9635C27.097 28.1983 26.8605 28.433 27.1434 28.8563C27.4264 29.2796 28.3259 30.734 29.6498 31.9076C31.3517 33.4102 32.8191 33.8797 33.2436 34.1144C33.6681 34.3491 33.9531 34.303 34.1895 34.0201C34.4725 33.7393 35.3255 32.7522 35.6085 32.2828C35.8914 31.8595 36.2229 31.9076 36.6009 32.0481C37.0274 32.1885 39.2023 33.2678 39.6752 33.5025C40.1017 33.7372 40.4312 33.8315 40.5262 34.0181C40.6677 34.1124 40.6677 35.0031 40.3362 36.0363L40.3402 36.0403ZM31.3557 47.7743C28.1399 47.7743 25.1606 46.9758 22.5127 45.5214L12.3923 48.7132L15.7031 39.0917C14.0477 36.3693 13.1018 33.1775 13.1018 29.7972C13.1018 19.8466 21.2838 11.82 31.3557 11.82C41.4277 11.82 49.6097 19.8466 49.6097 29.7972C49.6097 39.7477 41.4277 47.7743 31.3557 47.7743Z" fill="white"/>
</svg>
